<?xml version="1.0" encoding="UTF-8"?>
<svg id="Calque_1" data-name="Calque 1" xmlns="http://www.w3.org/2000/svg" viewBox="0 0 1340.51 1499.4">
  <defs>
    <style>
      .cls-1 {
        font-size: 205.07px;
      }

      .cls-1, .cls-2 {
        fill: #fff;
        font-family: MyriadPro-Bold, 'Myriad Pro';
        font-weight: 700;
      }

      .cls-3, .cls-4 {
        fill: #c69c6d;
      }

      .cls-5 {
        fill: #f7931e;
      }

      .cls-2 {
        font-size: 205.07px;
      }

      .cls-4 {
        stroke: #000;
        stroke-miterlimit: 10;
        stroke-width: .09px;
      }

      .cls-6 {
        fill: #ff0;
      }
    </style>
  </defs>
  <rect class="cls-4" x="70.13" y="93.11" width="1200" height="1335.83"/>
  <path class="cls-5" d="M539.93,501.27h504.58v249.55l138.6,191.46-138.6-5.7v206.15h-504.58c-103.14,0-186.75-113.57-186.75-253.66v-134.15c0-140.09,83.61-253.66,186.75-253.66Z"/>
  <g>
    <path class="cls-5" d="M278.59,1037.94v-205.43l-156.09,6.42,156.09-215.62V362.15H800.33c55.48,0,107.28,28.87,145.87,81.28,37.43,50.84,58.04,118.15,58.04,189.54v134.15c0,71.39-20.61,138.7-58.04,189.54-38.59,52.42-90.39,81.28-145.87,81.28H278.59Z"/>
    <path class="cls-3" d="M800.33,379.31c103.14,0,186.75,113.57,186.75,253.66v134.15c0,140.09-83.61,253.66-186.75,253.66H295.75v-206.15l-138.6,5.7,138.6-191.46v-249.55h504.58m0-34.32H261.43v272.75l-132.08,182.46-41.5,57.32,70.71-2.91,102.87-4.23v204.71H800.33c31.29,0,61.5-8.24,89.79-24.5,26.39-15.16,49.91-36.62,69.9-63.77,39.58-53.76,61.38-124.69,61.38-199.71v-134.15c0-75.02-21.8-145.95-61.38-199.71-19.99-27.15-43.51-48.61-69.9-63.77-28.29-16.25-58.5-24.5-89.79-24.5h0Z"/>
  </g>
  <g>
    <path class="cls-6" d="M497.16,832.78c-25.02-8.96-49.49-19.04-70.93-29.13-3.85-1.87-7.7-3.73-11.27-3.73-43.99-2.24-81.65-46.3-81.65-127.34s36.29-132.57,86.33-132.57,83.03,53.03,83.03,127.34c0,64.6-21.99,106.05-52.79,120.62v1.49c18.42,6.35,38.49,12.32,54.16,16.06l-6.87,27.26Zm-19.79-163.94c0-50.41-19.24-102.32-58.56-102.32s-60.21,50.79-59.93,105.31c-.28,53.4,21.44,101.57,58.83,101.57s59.66-47.05,59.66-104.56Z"/>
    <path class="cls-6" d="M708.03,795.81c-5.22-7.09-10.17-14.19-17.32-24.65-15.95,20.17-33.82,28.75-54.16,28.75-36.01,0-56.91-32.86-56.91-70.58,0-34.35,15.12-57.88,36.29-73.56v-1.12c-9.62-16.43-15.4-34.73-15.4-52.65,0-30.62,16.22-61.99,47.01-61.99,23.09,0,40.96,20.91,40.96,53.4,0,26.51-11.27,47.43-40.69,67.22v1.12c15.67,24.65,33.27,52.28,45.09,70.2,8.52-17.55,14.3-41.82,17.87-73.57h21.99c-4.95,39.58-12.92,70.95-26.67,92.98,9.9,14.19,19.52,28.38,30.52,44.44h-28.59Zm-29.14-43.32c-11-16.43-31.62-47.05-52.24-79.17-9.9,8.59-23.92,24.65-23.92,51.16,0,28.75,15.67,50.79,37.94,50.79,15.95,0,29.42-9.71,38.21-22.78Zm-56.36-153.48c0,17.92,6.05,31.74,14.02,45.18,18.69-14.56,30.79-28.01,30.79-49.29,0-15.31-6.32-32.49-21.44-32.49s-23.37,17.18-23.37,36.6Z"/>
    <path class="cls-6" d="M816.62,547.48c12.1-3.36,29.42-5.23,45.91-5.23,25.57,0,42.06,6.35,53.61,20.54,9.35,11.2,14.57,28.38,14.57,47.8,0,33.24-15.4,55.27-34.92,64.23v1.12c14.3,6.72,22.82,24.65,27.22,50.79,6.05,35.1,10.45,59.38,14.3,69.08h-24.74c-3.02-7.09-7.15-28.75-12.37-60.12-5.5-34.73-15.4-47.8-37.11-48.92h-22.54v109.04h-23.92v-248.33Zm23.92,114.64h24.47c25.57,0,41.79-19.04,41.79-47.8,0-32.49-17.32-46.68-42.61-47.05-11.55,0-19.8,1.49-23.64,2.99v91.86Z"/>
  </g>
  <g>
    <text class="cls-2" transform="translate(270.28 323.32) scale(.74 1)"><tspan x="0" y="0">QUESTIONS</tspan></text>
    <text class="cls-1" transform="translate(272.39 1319.1) scale(.82 1)"><tspan x="0" y="0">REPONSES</tspan></text>
  </g>
</svg>