<?xml version="1.0" encoding="UTF-8"?>
<svg id="Calque_1" data-name="Calque 1" xmlns="http://www.w3.org/2000/svg" viewBox="0 0 500 500">
  <defs>
    <style>
      .cls-1 {
        font-size: 108.57px;
        stroke-width: .07px;
      }

      .cls-1, .cls-2, .cls-3, .cls-4, .cls-5, .cls-6, .cls-7, .cls-8, .cls-9, .cls-10, .cls-11, .cls-12, .cls-13, .cls-14, .cls-15, .cls-16, .cls-17, .cls-18, .cls-19, .cls-20, .cls-21, .cls-22, .cls-23, .cls-24, .cls-25, .cls-26 {
        stroke-miterlimit: 10;
      }

      .cls-1, .cls-2, .cls-3, .cls-4, .cls-5, .cls-6, .cls-7, .cls-8, .cls-9, .cls-10, .cls-11, .cls-12, .cls-13, .cls-14, .cls-15, .cls-16, .cls-18, .cls-19, .cls-20, .cls-21, .cls-22, .cls-23, .cls-24, .cls-26 {
        stroke: #000;
      }

      .cls-1, .cls-2, .cls-3, .cls-4, .cls-5, .cls-6, .cls-7, .cls-8, .cls-9, .cls-10, .cls-11, .cls-13, .cls-14, .cls-15, .cls-16, .cls-18, .cls-21, .cls-22, .cls-23, .cls-24, .cls-26 {
        fill: #c69c6d;
      }

      .cls-1, .cls-27 {
        font-family: MyriadPro-Regular, 'Myriad Pro';
      }

      .cls-2 {
        stroke-width: .02px;
      }

      .cls-3 {
        stroke-width: .01px;
      }

      .cls-28 {
        fill: #be966d;
      }

      .cls-4 {
        stroke-width: .02px;
      }

      .cls-5 {
        stroke-width: .02px;
      }

      .cls-29 {
        fill: #443466;
      }

      .cls-6 {
        stroke-width: .03px;
      }

      .cls-30 {
        fill: #4c3b67;
      }

      .cls-31 {
        fill: #95756a;
      }

      .cls-7 {
        stroke-width: .03px;
      }

      .cls-8 {
        stroke-width: .02px;
      }

      .cls-9 {
        stroke-width: .02px;
      }

      .cls-10 {
        stroke-width: .03px;
      }

      .cls-32 {
        fill: #2b2165;
      }

      .cls-33 {
        fill: #231a64;
      }

      .cls-34 {
        fill: #534741;
      }

      .cls-35 {
        fill: #544167;
      }

      .cls-36 {
        fill: #662d91;
      }

      .cls-37 {
        fill: #755b69;
      }

      .cls-11 {
        stroke-width: .03px;
      }

      .cls-38 {
        fill: #ae896c;
      }

      .cls-39 {
        fill: #3c2e66;
      }

      .cls-12 {
        stroke-width: .03px;
      }

      .cls-12, .cls-19, .cls-20 {
        fill: #b3b3b3;
      }

      .cls-40 {
        fill: #7d6269;
      }

      .cls-13 {
        stroke-width: .02px;
      }

      .cls-14 {
        stroke-width: .02px;
      }

      .cls-41 {
        fill: #f7931e;
      }

      .cls-15 {
        stroke-width: .11px;
      }

      .cls-42 {
        fill: #b68f6c;
      }

      .cls-16 {
        stroke-width: .02px;
      }

      .cls-27 {
        font-size: 158.97px;
      }

      .cls-27, .cls-43 {
        fill: #1b1464;
      }

      .cls-17 {
        stroke-width: 1.88px;
      }

      .cls-17, .cls-25 {
        fill: #333;
        stroke: #f2f2f2;
      }

      .cls-18 {
        stroke-width: .02px;
      }

      .cls-19 {
        stroke-width: .03px;
      }

      .cls-44 {
        fill: #0ffff0;
      }

      .cls-45 {
        fill: #8d6f6a;
      }

      .cls-46 {
        fill: #6c5568;
      }

      .cls-20 {
        stroke-width: .03px;
      }

      .cls-47 {
        fill: #644e68;
      }

      .cls-48 {
        fill: #5c4867;
      }

      .cls-21 {
        stroke-width: .03px;
      }

      .cls-22 {
        stroke-width: .02px;
      }

      .cls-49 {
        fill: #332765;
      }

      .cls-50 {
        fill: #9d7c6b;
      }

      .cls-51 {
        fill: #85686a;
      }

      .cls-23 {
        stroke-width: .02px;
      }

      .cls-24 {
        stroke-width: .02px;
      }

      .cls-25 {
        stroke-width: 2px;
      }

      .cls-52 {
        fill: #a5826b;
      }

      .cls-53 {
        fill: #ff0;
      }

      .cls-26 {
        stroke-width: .02px;
      }
    </style>
  </defs>
  <g>
    <g>
      <rect class="cls-34" x="42.76" y="84.45" width="414.48" height="255.2"/>
      <path d="M456.99,84.69v254.71H43.01V84.69H456.99m.49-.49H42.51v255.69H457.48V84.2h0Z"/>
    </g>
    <rect class="cls-44" x="62.92" y="96.78" width="374.15" height="230.54"/>
  </g>
  <g>
    <rect class="cls-12" x="249.47" y="140.04" width="191.87" height="77.87"/>
    <rect class="cls-36" x="254.53" y="145.22" width="181.76" height="67.53"/>
    <rect class="cls-4" x="236.38" y="178.95" width="56.56" height="5.52" transform="translate(82.96 446.37) rotate(-90)"/>
    <rect class="cls-26" x="252.15" y="184.13" width="46.18" height="5.52" transform="translate(88.34 462.13) rotate(-90)"/>
    <rect class="cls-2" x="265.22" y="186.18" width="41.18" height="5.52" transform="translate(96.87 474.75) rotate(-90)"/>
    <rect class="cls-22" x="285" y="195.38" width="22.77" height="5.52" transform="translate(98.24 494.52) rotate(-90)"/>
    <rect class="cls-9" x="282.28" y="182.09" width="49.36" height="5.52" transform="translate(122.11 491.8) rotate(-90)"/>
    <rect class="cls-16" x="299.67" y="188.91" width="35.72" height="5.52" transform="translate(125.86 509.19) rotate(-90)"/>
    <rect class="cls-18" x="308.08" y="186.75" width="40.04" height="5.52" transform="translate(138.6 517.61) rotate(-90)"/>
    <rect class="cls-13" x="323.09" y="190.95" width="31.18" height="5.52" transform="translate(144.96 532.39) rotate(-90)"/>
    <rect class="cls-8" x="332.3" y="189.59" width="33.91" height="5.52" transform="translate(156.9 541.6) rotate(-90)"/>
    <rect class="cls-23" x="344.69" y="191.41" width="30.27" height="5.52" transform="translate(165.66 553.99) rotate(-90)"/>
    <rect class="cls-14" x="359.35" y="195.5" width="22.09" height="5.52" transform="translate(172.14 568.65) rotate(-90)"/>
    <rect class="cls-24" x="360.61" y="186.18" width="40.72" height="5.52" transform="translate(192.03 569.91) rotate(-90)"/>
    <g>
      <path class="cls-41" d="M421.16,158.11l-4.51,8.86-6.32,12.41-.05-.09-10.38,9.5-7.05,6.46c-2.67-3.2-4.57-7.17-5.35-11.66-.7-4.08-.39-8.1,.74-11.79l9.3,3.14,12.7,4.29-7.01-12.3-4.78-8.38c-6.85,4.22-11.45,12.04-11.45,20.98,0,13.43,10.38,24.32,23.18,24.32s23.18-10.89,23.18-24.32c0-9.26-4.94-17.32-12.2-21.42Zm-10.87,45.61c-3.95,0-7.67-1.04-10.93-2.87l4.6-9.04,6.32-12.41,7.09,12.45,4.8,8.43c-3.48,2.18-7.54,3.44-11.89,3.44Z"/>
      <path class="cls-53" d="M409.85,179.81l-6.32,12.41-4.6,9.04c3.26,1.83,6.98,2.87,10.93,2.87,4.35,0,8.42-1.26,11.89-3.44l-4.8-8.43-7.09-12.45Z"/>
      <path class="cls-43" d="M410.02,178.63l.07,.02-.04,.03,.05,.09,6.32-12.41,4.51-8.86c-3.27-1.85-7.01-2.89-10.98-2.89-4.28,0-8.29,1.22-11.73,3.34l4.78,8.38,7.01,12.3Z"/>
      <path class="cls-44" d="M396.89,174.8l-9.3-3.14c-1.14,3.69-1.45,7.71-.74,11.79,.77,4.49,2.68,8.46,5.35,11.66l7.05-6.46,10.38-9.5-.03-.06-12.7-4.29Z"/>
      <path class="cls-19" d="M410.79,179.74l13.4,.67,9.76,.49c.18-3.87-.52-7.84-2.21-11.58-1.86-4.12-4.69-7.44-8.06-9.8l-5.2,8.16-7.68,12.06Z"/>
    </g>
  </g>
  <g>
    <text class="cls-1" transform="translate(155.55 311.52)"><tspan x="0" y="0">CMS</tspan></text>
    <g>
      <path class="cls-28" d="M212.04,308.26c-3.55,1.78-10.65,3.55-19.75,3.55-21.08,0-36.95-13.32-36.95-37.84s15.87-39.28,39.06-39.28c9.32,0,15.2,2,17.75,3.33l-2.33,7.88c-3.66-1.78-8.88-3.11-15.09-3.11-17.53,0-29.18,11.21-29.18,30.85,0,18.31,10.54,30.07,28.74,30.07,5.88,0,11.87-1.22,15.76-3.11l2,7.66Z"/>
      <path class="cls-28" d="M288.77,277.86c-.55-10.43-1.22-22.97-1.11-32.29h-.33c-2.55,8.77-5.66,18.09-9.43,28.41l-13.21,36.29h-7.32l-12.1-35.62c-3.55-10.54-6.55-20.2-8.65-29.07h-.22c-.22,9.32-.78,21.86-1.44,33.07l-2,32.07h-9.21l5.22-74.79h12.32l12.76,36.17c3.11,9.21,5.66,17.42,7.55,25.19h.33c1.89-7.55,4.55-15.76,7.88-25.19l13.32-36.17h12.32l4.66,74.79h-9.43l-1.89-32.85Z"/>
      <path class="cls-28" d="M315.23,298.94c4.33,2.66,10.65,4.88,17.31,4.88,9.88,0,15.65-5.22,15.65-12.76,0-6.99-3.94-11.12-14.09-14.87-12.15-4.49-19.75-10.65-19.75-21.19,0-11.65,9.65-20.31,24.19-20.31,7.66,0,13.21,1.78,16.53,3.66l-2.66,7.88c-2.44-1.33-7.44-3.55-14.2-3.55-10.21,0-14.09,6.1-14.09,11.21,0,6.99,4.55,10.43,14.87,14.43,12.65,4.88,19.09,10.99,19.09,21.97,0,11.54-8.54,21.53-26.19,21.53-7.21,0-15.09-2.11-19.09-4.77l2.44-8.1Z"/>
    </g>
    <g>
      <path class="cls-42" d="M209.14,307.39c-3.63,1.81-10.88,3.63-20.18,3.63-21.54,0-37.75-13.6-37.75-38.66s16.21-40.13,39.91-40.13c9.52,0,15.53,2.04,18.14,3.4l-2.38,8.05c-3.74-1.81-9.07-3.17-15.42-3.17-17.91,0-29.82,11.45-29.82,31.52,0,18.71,10.77,30.72,29.36,30.72,6.01,0,12.13-1.25,16.1-3.17l2.04,7.82Z"/>
      <path class="cls-42" d="M289.1,276.33c-.57-10.66-1.25-23.47-1.13-32.99h-.34c-2.61,8.96-5.78,18.48-9.64,29.02l-13.49,37.07h-7.48l-12.36-36.39c-3.63-10.77-6.69-20.63-8.84-29.7h-.23c-.23,9.52-.79,22.33-1.47,33.78l-2.04,32.76h-9.41l5.33-76.41h12.58l13.04,36.96c3.17,9.41,5.78,17.8,7.71,25.73h.34c1.93-7.71,4.65-16.1,8.05-25.73l13.6-36.96h12.58l4.76,76.41h-9.64l-1.93-33.56Z"/>
      <path class="cls-42" d="M317.7,297.87c4.42,2.72,10.88,4.99,17.69,4.99,10.09,0,15.98-5.33,15.98-13.04,0-7.14-4.03-11.36-14.4-15.19-12.41-4.59-20.18-10.88-20.18-21.65,0-11.9,9.86-20.75,24.71-20.75,7.82,0,13.49,1.81,16.89,3.74l-2.72,8.05c-2.49-1.36-7.6-3.63-14.51-3.63-10.43,0-14.4,6.24-14.4,11.45,0,7.14,4.65,10.66,15.19,14.74,12.92,4.99,19.5,11.22,19.5,22.45,0,11.79-8.73,21.99-26.75,21.99-7.37,0-15.42-2.15-19.5-4.87l2.49-8.28Z"/>
    </g>
    <g>
      <path class="cls-38" d="M206.24,306.53c-3.7,1.85-11.11,3.7-20.61,3.7-22,0-38.55-13.89-38.55-39.48s16.55-40.98,40.75-40.98c9.72,0,15.86,2.08,18.52,3.47l-2.43,8.22c-3.82-1.85-9.26-3.24-15.74-3.24-18.29,0-30.45,11.69-30.45,32.18,0,19.1,11,31.37,29.98,31.37,6.14,0,12.39-1.27,16.44-3.24l2.08,7.99Z"/>
      <path class="cls-38" d="M289.43,274.81c-.58-10.88-1.27-23.96-1.16-33.69h-.35c-2.66,9.15-5.9,18.87-9.84,29.64l-13.78,37.86h-7.64l-12.62-37.16c-3.7-11-6.83-21.07-9.03-30.33h-.23c-.23,9.72-.81,22.81-1.51,34.5l-2.08,33.46h-9.61l5.44-78.03h12.85l13.31,37.74c3.24,9.61,5.9,18.18,7.87,26.28h.35c1.97-7.87,4.75-16.44,8.22-26.28l13.89-37.74h12.85l4.86,78.03h-9.84l-1.97-34.27Z"/>
      <path class="cls-38" d="M320.17,296.8c4.52,2.78,11.11,5.09,18.06,5.09,10.3,0,16.32-5.44,16.32-13.31,0-7.29-4.11-11.6-14.7-15.51-12.67-4.68-20.61-11.11-20.61-22.11,0-12.16,10.07-21.19,25.24-21.19,7.99,0,13.78,1.85,17.25,3.82l-2.78,8.22c-2.55-1.39-7.76-3.7-14.82-3.7-10.65,0-14.7,6.37-14.7,11.69,0,7.29,4.75,10.88,15.51,15.05,13.2,5.09,19.91,11.46,19.91,22.92,0,12.04-8.91,22.46-27.32,22.46-7.52,0-15.74-2.2-19.91-4.98l2.55-8.45Z"/>
    </g>
    <g>
      <path class="cls-52" d="M203.34,305.66c-3.78,1.89-11.34,3.78-21.03,3.78-22.45,0-39.35-14.18-39.35-40.3s16.9-41.83,41.59-41.83c9.93,0,16.19,2.13,18.91,3.54l-2.48,8.39c-3.9-1.89-9.45-3.31-16.07-3.31-18.67,0-31.08,11.93-31.08,32.85,0,19.5,11.23,32.02,30.61,32.02,6.26,0,12.64-1.3,16.78-3.31l2.13,8.15Z"/>
      <path class="cls-52" d="M289.76,273.28c-.59-11.11-1.3-24.46-1.18-34.39h-.35c-2.72,9.34-6.03,19.26-10.04,30.25l-14.06,38.64h-7.8l-12.88-37.93c-3.78-11.23-6.97-21.51-9.22-30.96h-.24c-.24,9.93-.83,23.28-1.54,35.21l-2.13,34.15h-9.81l5.55-79.64h13.12l13.59,38.52c3.31,9.81,6.03,18.55,8.04,26.82h.35c2.01-8.03,4.84-16.78,8.39-26.82l14.18-38.52h13.12l4.96,79.64h-10.04l-2.01-34.98Z"/>
      <path class="cls-52" d="M322.65,295.73c4.61,2.84,11.34,5.2,18.43,5.2,10.52,0,16.66-5.55,16.66-13.59,0-7.44-4.2-11.84-15.01-15.83-12.94-4.78-21.03-11.34-21.03-22.57,0-12.41,10.28-21.62,25.76-21.62,8.15,0,14.06,1.89,17.61,3.9l-2.84,8.39c-2.6-1.42-7.92-3.78-15.13-3.78-10.87,0-15.01,6.5-15.01,11.93,0,7.44,4.84,11.11,15.83,15.36,13.47,5.2,20.32,11.7,20.32,23.4,0,12.29-9.1,22.92-27.89,22.92-7.68,0-16.07-2.24-20.32-5.08l2.6-8.63Z"/>
    </g>
    <g>
      <path class="cls-50" d="M200.44,304.79c-3.86,1.93-11.57,3.86-21.46,3.86-22.91,0-40.15-14.47-40.15-41.11s17.24-42.68,42.44-42.68c10.13,0,16.52,2.17,19.29,3.62l-2.53,8.56c-3.98-1.93-9.65-3.38-16.4-3.38-19.05,0-31.71,12.18-31.71,33.52,0,19.89,11.45,32.67,31.23,32.67,6.39,0,12.9-1.33,17.12-3.38l2.17,8.32Z"/>
      <path class="cls-50" d="M290.09,271.76c-.6-11.33-1.33-24.96-1.21-35.08h-.36c-2.77,9.52-6.15,19.65-10.25,30.86l-14.35,39.43h-7.96l-13.14-38.7c-3.86-11.45-7.11-21.94-9.4-31.59h-.24c-.24,10.13-.84,23.75-1.57,35.93l-2.17,34.84h-10.01l5.67-81.26h13.38l13.87,39.3c3.38,10.01,6.15,18.93,8.2,27.37h.36c2.05-8.2,4.94-17.12,8.56-27.37l14.47-39.3h13.38l5.06,81.26h-10.25l-2.05-35.69Z"/>
      <path class="cls-50" d="M325.12,294.66c4.7,2.89,11.57,5.31,18.81,5.31,10.73,0,17-5.67,17-13.87,0-7.6-4.29-12.08-15.31-16.16-13.2-4.88-21.46-11.57-21.46-23.03,0-12.66,10.49-22.06,26.28-22.06,8.32,0,14.35,1.93,17.96,3.98l-2.89,8.56c-2.65-1.45-8.08-3.86-15.43-3.86-11.09,0-15.31,6.63-15.31,12.18,0,7.6,4.94,11.33,16.16,15.67,13.74,5.3,20.74,11.94,20.74,23.87,0,12.54-9.28,23.39-28.45,23.39-7.84,0-16.4-2.29-20.74-5.18l2.65-8.8Z"/>
    </g>
    <g>
      <path class="cls-31" d="M197.54,303.92c-3.93,1.97-11.8,3.94-21.89,3.94-23.36,0-40.95-14.76-40.95-41.93s17.58-43.53,43.28-43.53c10.33,0,16.85,2.21,19.67,3.69l-2.58,8.73c-4.06-1.97-9.84-3.44-16.72-3.44-19.43,0-32.34,12.42-32.34,34.18,0,20.29,11.68,33.32,31.85,33.32,6.52,0,13.16-1.35,17.46-3.44l2.21,8.48Z"/>
      <path class="cls-31" d="M290.42,270.23c-.61-11.56-1.35-25.45-1.23-35.78h-.37c-2.83,9.71-6.27,20.04-10.45,31.48l-14.63,40.21h-8.12l-13.4-39.47c-3.93-11.68-7.25-22.38-9.59-32.22h-.25c-.25,10.33-.86,24.22-1.6,36.64l-2.21,35.54h-10.21l5.78-82.88h13.65l14.14,40.09c3.44,10.21,6.27,19.31,8.36,27.91h.37c2.09-8.36,5.04-17.46,8.73-27.91l14.76-40.09h13.65l5.16,82.88h-10.45l-2.09-36.4Z"/>
      <path class="cls-31" d="M327.59,293.59c4.8,2.95,11.8,5.41,19.18,5.41,10.94,0,17.34-5.78,17.34-14.14,0-7.75-4.37-12.32-15.62-16.48-13.46-4.97-21.89-11.81-21.89-23.49,0-12.91,10.7-22.5,26.81-22.5,8.48,0,14.63,1.97,18.32,4.06l-2.95,8.73c-2.71-1.48-8.24-3.93-15.74-3.93-11.31,0-15.62,6.76-15.62,12.42,0,7.75,5.04,11.56,16.48,15.99,14.02,5.41,21.15,12.17,21.15,24.35,0,12.79-9.47,23.86-29.02,23.86-7.99,0-16.72-2.34-21.15-5.29l2.71-8.98Z"/>
    </g>
    <g>
      <path class="cls-45" d="M194.64,303.05c-4.01,2.01-12.03,4.01-22.32,4.01-23.82,0-41.75-15.04-41.75-42.75s17.93-44.38,44.13-44.38c10.53,0,17.17,2.26,20.06,3.76l-2.63,8.9c-4.14-2.01-10.03-3.51-17.05-3.51-19.81,0-32.97,12.66-32.97,34.85,0,20.69,11.91,33.97,32.47,33.97,6.64,0,13.41-1.38,17.8-3.51l2.26,8.65Z"/>
      <path class="cls-45" d="M290.75,268.7c-.63-11.78-1.38-25.95-1.25-36.48h-.38c-2.88,9.9-6.39,20.43-10.66,32.09l-14.92,41h-8.27l-13.67-40.24c-4.01-11.91-7.4-22.82-9.78-32.85h-.25c-.25,10.53-.88,24.7-1.63,37.36l-2.26,36.23h-10.41l5.89-84.5h13.92l14.42,40.87c3.51,10.41,6.39,19.68,8.53,28.46h.38c2.13-8.52,5.14-17.8,8.9-28.46l15.04-40.87h13.92l5.27,84.5h-10.66l-2.13-37.11Z"/>
      <path class="cls-45" d="M330.07,292.52c4.89,3.01,12.03,5.52,19.56,5.52,11.16,0,17.68-5.89,17.68-14.42,0-7.9-4.46-12.56-15.92-16.8-13.72-5.07-22.31-12.04-22.31-23.94,0-13.16,10.91-22.94,27.33-22.94,8.65,0,14.92,2.01,18.68,4.14l-3.01,8.9c-2.76-1.5-8.4-4.01-16.05-4.01-11.53,0-15.92,6.9-15.92,12.66,0,7.9,5.14,11.78,16.8,16.3,14.29,5.52,21.56,12.41,21.56,24.82,0,13.04-9.65,24.32-29.59,24.32-8.15,0-17.05-2.38-21.56-5.39l2.76-9.15Z"/>
    </g>
    <g>
      <path class="cls-51" d="M191.74,302.19c-4.09,2.04-12.27,4.09-22.74,4.09-24.28,0-42.55-15.33-42.55-43.57s18.27-45.23,44.97-45.23c10.73,0,17.5,2.3,20.44,3.83l-2.68,9.07c-4.22-2.04-10.22-3.58-17.38-3.58-20.19,0-33.6,12.9-33.6,35.52,0,21.08,12.14,34.62,33.09,34.62,6.77,0,13.67-1.41,18.14-3.58l2.3,8.82Z"/>
      <path class="cls-51" d="M291.08,267.18c-.64-12.01-1.41-26.45-1.28-37.18h-.38c-2.94,10.09-6.52,20.83-10.86,32.71l-15.2,41.78h-8.43l-13.93-41.01c-4.09-12.14-7.54-23.25-9.97-33.47h-.26c-.26,10.73-.89,25.17-1.66,38.07l-2.3,36.92h-10.6l6-86.11h14.18l14.69,41.65c3.58,10.61,6.52,20.06,8.69,29h.38c2.17-8.69,5.24-18.14,9.07-29l15.33-41.65h14.18l5.37,86.11h-10.86l-2.17-37.82Z"/>
      <path class="cls-51" d="M332.54,291.45c4.98,3.07,12.27,5.62,19.93,5.62,11.37,0,18.01-6.01,18.01-14.69,0-8.05-4.54-12.8-16.23-17.12-13.99-5.17-22.74-12.27-22.74-24.4,0-13.42,11.12-23.38,27.85-23.38,8.82,0,15.2,2.04,19.04,4.22l-3.07,9.07c-2.81-1.53-8.56-4.09-16.35-4.09-11.75,0-16.23,7.03-16.23,12.9,0,8.05,5.24,12.01,17.12,16.61,14.56,5.62,21.98,12.65,21.98,25.3,0,13.29-9.84,24.79-30.15,24.79-8.3,0-17.38-2.43-21.98-5.49l2.81-9.33Z"/>
    </g>
    <g>
      <path class="cls-40" d="M188.85,301.32c-4.17,2.08-12.5,4.17-23.17,4.17-24.73,0-43.35-15.62-43.35-44.39s18.61-46.08,45.82-46.08c10.93,0,17.83,2.34,20.83,3.9l-2.73,9.24c-4.3-2.08-10.41-3.64-17.7-3.64-20.57,0-34.23,13.15-34.23,36.19,0,21.48,12.37,35.27,33.71,35.27,6.9,0,13.93-1.43,18.48-3.64l2.34,8.98Z"/>
      <path class="cls-40" d="M291.41,265.65c-.65-12.24-1.43-26.94-1.3-37.88h-.39c-2.99,10.28-6.64,21.22-11.06,33.32l-15.49,42.57h-8.59l-14.19-41.78c-4.17-12.37-7.68-23.69-10.15-34.1h-.26c-.26,10.93-.91,25.64-1.69,38.79l-2.34,37.62h-10.8l6.12-87.73h14.45l14.97,42.43c3.64,10.8,6.64,20.44,8.85,29.55h.39c2.21-8.85,5.34-18.48,9.24-29.55l15.62-42.43h14.45l5.47,87.73h-11.06l-2.21-38.53Z"/>
      <path class="cls-40" d="M335.01,290.38c5.08,3.12,12.5,5.73,20.31,5.73,11.58,0,18.35-6.12,18.35-14.97,0-8.2-4.63-13.04-16.53-17.44-14.25-5.27-23.17-12.5-23.17-24.86,0-13.67,11.32-23.82,28.38-23.82,8.98,0,15.49,2.08,19.39,4.3l-3.12,9.24c-2.86-1.56-8.72-4.17-16.66-4.17-11.98,0-16.53,7.16-16.53,13.15,0,8.2,5.34,12.24,17.44,16.92,14.84,5.73,22.39,12.89,22.39,25.77,0,13.54-10.02,25.25-30.72,25.25-8.46,0-17.7-2.47-22.39-5.6l2.86-9.5Z"/>
    </g>
    <g>
      <path class="cls-37" d="M185.95,300.45c-4.24,2.12-12.73,4.24-23.6,4.24-25.19,0-44.14-15.91-44.14-45.21s18.96-46.93,46.66-46.93c11.14,0,18.16,2.39,21.21,3.98l-2.78,9.41c-4.37-2.12-10.61-3.71-18.03-3.71-20.95,0-34.86,13.39-34.86,36.85,0,21.87,12.59,35.93,34.33,35.93,7.03,0,14.18-1.46,18.82-3.71l2.39,9.15Z"/>
      <path class="cls-37" d="M291.74,264.13c-.66-12.46-1.46-27.44-1.33-38.58h-.4c-3.05,10.47-6.76,21.61-11.27,33.94l-15.78,43.35h-8.75l-14.45-42.55c-4.24-12.59-7.82-24.13-10.34-34.73h-.26c-.27,11.14-.93,26.12-1.72,39.5l-2.39,38.31h-11l6.23-89.35h14.71l15.25,43.22c3.71,11,6.76,20.81,9.01,30.09h.4c2.25-9.01,5.44-18.82,9.41-30.09l15.91-43.22h14.71l5.57,89.35h-11.27l-2.25-39.24Z"/>
      <path class="cls-37" d="M337.49,289.32c5.17,3.18,12.73,5.83,20.68,5.83,11.8,0,18.69-6.23,18.69-15.25,0-8.35-4.71-13.28-16.84-17.76-14.51-5.36-23.6-12.73-23.6-25.32,0-13.92,11.53-24.26,28.9-24.26,9.15,0,15.78,2.12,19.75,4.37l-3.18,9.41c-2.92-1.59-8.88-4.24-16.97-4.24-12.2,0-16.84,7.29-16.84,13.39,0,8.35,5.44,12.46,17.76,17.23,15.11,5.83,22.8,13.12,22.8,26.25,0,13.79-10.21,25.72-31.29,25.72-8.62,0-18.03-2.52-22.8-5.7l2.92-9.68Z"/>
    </g>
    <g>
      <path class="cls-46" d="M183.05,299.58c-4.32,2.16-12.96,4.32-24.02,4.32-25.64,0-44.94-16.2-44.94-46.02s19.3-47.78,47.51-47.78c11.34,0,18.49,2.43,21.59,4.05l-2.83,9.58c-4.45-2.16-10.8-3.78-18.36-3.78-21.32,0-35.5,13.63-35.5,37.52,0,22.27,12.82,36.58,34.96,36.58,7.15,0,14.44-1.48,19.17-3.78l2.43,9.31Z"/>
      <path class="cls-46" d="M292.07,262.6c-.67-12.69-1.48-27.94-1.35-39.28h-.4c-3.1,10.66-6.88,22-11.47,34.55l-16.06,44.13h-8.91l-14.71-43.32c-4.32-12.82-7.96-24.56-10.53-35.36h-.27c-.27,11.34-.95,26.59-1.76,40.22l-2.43,39.01h-11.2l6.34-90.97h14.98l15.52,44c3.78,11.2,6.88,21.19,9.18,30.64h.4c2.29-9.18,5.53-19.16,9.58-30.64l16.2-44h14.98l5.67,90.97h-11.47l-2.29-39.95Z"/>
      <path class="cls-46" d="M339.96,288.25c5.26,3.24,12.96,5.94,21.05,5.94,12.01,0,19.03-6.34,19.03-15.52,0-8.5-4.8-13.52-17.14-18.09-14.78-5.46-24.02-12.96-24.02-25.78,0-14.17,11.74-24.7,29.42-24.7,9.31,0,16.06,2.16,20.11,4.45l-3.24,9.58c-2.97-1.62-9.04-4.32-17.28-4.32-12.42,0-17.14,7.42-17.14,13.63,0,8.5,5.53,12.69,18.09,17.55,15.39,5.94,23.21,13.36,23.21,26.72,0,14.04-10.39,26.18-31.85,26.18-8.77,0-18.36-2.56-23.21-5.8l2.97-9.85Z"/>
    </g>
    <g>
      <path class="cls-47" d="M180.15,298.71c-4.4,2.2-13.19,4.4-24.45,4.4-26.1,0-45.74-16.48-45.74-46.84s19.64-48.63,48.35-48.63c11.54,0,18.82,2.47,21.98,4.12l-2.88,9.75c-4.53-2.2-10.99-3.85-18.68-3.85-21.7,0-36.13,13.87-36.13,38.19,0,22.67,13.05,37.23,35.58,37.23,7.28,0,14.7-1.51,19.51-3.85l2.47,9.48Z"/>
      <path class="cls-47" d="M292.41,261.08c-.69-12.91-1.51-28.43-1.37-39.97h-.41c-3.16,10.85-7.01,22.39-11.68,35.17l-16.35,44.92h-9.07l-14.97-44.1c-4.4-13.05-8.1-25-10.71-35.99h-.27c-.27,11.54-.96,27.06-1.79,40.94l-2.47,39.7h-11.4l6.46-92.58h15.25l15.8,44.78c3.85,11.4,7.01,21.57,9.34,31.18h.41c2.34-9.34,5.63-19.51,9.75-31.18l16.48-44.78h15.25l5.77,92.58h-11.68l-2.34-40.66Z"/>
      <path class="cls-47" d="M342.43,287.18c5.36,3.3,13.19,6.04,21.43,6.04,12.23,0,19.37-6.46,19.37-15.8,0-8.65-4.88-13.77-17.45-18.41-15.04-5.56-24.45-13.19-24.45-26.24,0-14.42,11.95-25.14,29.95-25.14,9.48,0,16.35,2.2,20.47,4.53l-3.3,9.75c-3.02-1.65-9.2-4.4-17.58-4.4-12.64,0-17.45,7.56-17.45,13.87,0,8.65,5.63,12.91,18.41,17.86,15.66,6.04,23.63,13.6,23.63,27.2,0,14.29-10.58,26.65-32.42,26.65-8.93,0-18.68-2.61-23.63-5.91l3.02-10.03Z"/>
    </g>
    <g>
      <path class="cls-48" d="M177.25,297.85c-4.47,2.24-13.42,4.47-24.88,4.47-26.56,0-46.54-16.77-46.54-47.66s19.99-49.48,49.2-49.48c11.74,0,19.15,2.52,22.36,4.19l-2.93,9.92c-4.61-2.24-11.18-3.91-19.01-3.91-22.08,0-36.76,14.12-36.76,38.85,0,23.06,13.28,37.88,36.2,37.88,7.41,0,14.95-1.54,19.85-3.91l2.52,9.64Z"/>
      <path class="cls-48" d="M292.74,259.55c-.7-13.14-1.54-28.93-1.4-40.67h-.42c-3.21,11.04-7.13,22.78-11.88,35.78l-16.63,45.7h-9.22l-15.23-44.87c-4.47-13.28-8.25-25.44-10.9-36.62h-.28c-.28,11.74-.98,27.53-1.82,41.65l-2.52,40.39h-11.6l6.57-94.2h15.51l16.07,45.56c3.91,11.6,7.13,21.94,9.5,31.73h.42c2.38-9.5,5.73-19.85,9.92-31.73l16.77-45.56h15.51l5.87,94.2h-11.88l-2.38-41.37Z"/>
      <path class="cls-48" d="M344.91,286.11c5.45,3.35,13.42,6.15,21.8,6.15,12.44,0,19.71-6.57,19.71-16.07,0-8.81-4.97-14.01-17.75-18.73-15.3-5.65-24.88-13.42-24.88-26.7,0-14.68,12.16-25.58,30.47-25.58,9.64,0,16.63,2.24,20.83,4.61l-3.35,9.92c-3.07-1.68-9.36-4.47-17.89-4.47-12.86,0-17.75,7.69-17.75,14.12,0,8.81,5.73,13.14,18.73,18.17,15.93,6.15,24.04,13.84,24.04,27.67,0,14.54-10.76,27.11-32.98,27.11-9.08,0-19.01-2.66-24.04-6.01l3.07-10.2Z"/>
    </g>
    <g>
      <path class="cls-35" d="M174.35,296.98c-4.55,2.27-13.65,4.55-25.31,4.55-27.01,0-47.34-17.06-47.34-48.48s20.33-50.33,50.04-50.33c11.94,0,19.48,2.56,22.75,4.26l-2.99,10.09c-4.69-2.27-11.37-3.98-19.33-3.98-22.46,0-37.39,14.36-37.39,39.52,0,23.46,13.51,38.53,36.82,38.53,7.53,0,15.21-1.56,20.19-3.98l2.56,9.81Z"/>
      <path class="cls-35" d="M293.07,258.03c-.71-13.36-1.56-29.43-1.42-41.37h-.43c-3.27,11.23-7.25,23.17-12.08,36.39l-16.92,46.49h-9.38l-15.5-45.64c-4.55-13.51-8.39-25.87-11.09-37.25h-.28c-.28,11.94-1,28.01-1.85,42.37l-2.56,41.09h-11.8l6.68-95.82h15.78l16.35,46.35c3.98,11.8,7.25,22.32,9.67,32.27h.43c2.42-9.67,5.83-20.19,10.09-32.27l17.06-46.35h15.78l5.97,95.82h-12.08l-2.42-42.08Z"/>
      <path class="cls-35" d="M347.38,285.04c5.54,3.41,13.65,6.26,22.18,6.26,12.65,0,20.05-6.68,20.05-16.35,0-8.96-5.05-14.25-18.06-19.05-15.56-5.75-25.31-13.65-25.31-27.15,0-14.93,12.37-26.02,30.99-26.02,9.81,0,16.92,2.27,21.18,4.69l-3.41,10.09c-3.13-1.71-9.53-4.55-18.2-4.55-13.08,0-18.06,7.82-18.06,14.36,0,8.96,5.83,13.36,19.05,18.48,16.21,6.25,24.45,14.07,24.45,28.15,0,14.78-10.95,27.58-33.55,27.58-9.24,0-19.33-2.7-24.45-6.11l3.13-10.38Z"/>
    </g>
    <g>
      <path class="cls-30" d="M171.45,296.11c-4.63,2.31-13.88,4.63-25.73,4.63-27.47,0-48.14-17.35-48.14-49.3s20.67-51.18,50.89-51.18c12.14,0,19.81,2.6,23.13,4.34l-3.04,10.26c-4.77-2.31-11.57-4.05-19.66-4.05-22.84,0-38.02,14.6-38.02,40.19,0,23.85,13.73,39.18,37.44,39.18,7.66,0,15.47-1.59,20.53-4.05l2.6,9.97Z"/>
      <path class="cls-30" d="M293.4,256.5c-.72-13.59-1.59-29.93-1.45-42.07h-.43c-3.32,11.42-7.37,23.56-12.29,37.01l-17.2,47.27h-9.54l-15.76-46.41c-4.63-13.73-8.53-26.31-11.28-37.88h-.29c-.29,12.14-1.01,28.48-1.88,43.08l-2.6,41.78h-12l6.79-97.44h16.05l16.63,47.13c4.05,12,7.37,22.7,9.83,32.82h.43c2.46-9.83,5.93-20.53,10.26-32.82l17.35-47.13h16.05l6.07,97.44h-12.29l-2.46-42.79Z"/>
      <path class="cls-30" d="M349.85,283.97c5.64,3.47,13.88,6.36,22.55,6.36,12.87,0,20.38-6.79,20.38-16.63,0-9.11-5.14-14.49-18.36-19.37-15.83-5.85-25.73-13.88-25.73-27.61,0-15.18,12.58-26.46,31.52-26.46,9.98,0,17.2,2.31,21.54,4.77l-3.47,10.26c-3.18-1.73-9.69-4.63-18.5-4.63-13.3,0-18.36,7.95-18.36,14.6,0,9.11,5.93,13.59,19.37,18.79,16.48,6.36,24.87,14.31,24.87,28.62,0,15.03-11.13,28.05-34.12,28.05-9.4,0-19.66-2.75-24.87-6.22l3.18-10.55Z"/>
    </g>
    <g>
      <path class="cls-29" d="M168.55,295.24c-4.7,2.35-14.11,4.7-26.16,4.7-27.92,0-48.94-17.64-48.94-50.12s21.02-52.03,51.73-52.03c12.35,0,20.13,2.65,23.51,4.41l-3.09,10.43c-4.85-2.35-11.76-4.12-19.99-4.12-23.22,0-38.65,14.84-38.65,40.86,0,24.25,13.96,39.83,38.06,39.83,7.79,0,15.73-1.62,20.87-4.11l2.65,10.14Z"/>
      <path class="cls-29" d="M293.73,254.97c-.73-13.82-1.62-30.42-1.47-42.77h-.44c-3.38,11.61-7.5,23.96-12.49,37.62l-17.49,48.06h-9.7l-16.02-47.18c-4.7-13.96-8.67-26.75-11.46-38.5h-.29c-.29,12.35-1.03,28.95-1.91,43.8l-2.65,42.47h-12.2l6.91-99.06h16.31l16.9,47.91c4.11,12.2,7.49,23.07,9.99,33.36h.44c2.5-9.99,6.03-20.87,10.43-33.36l17.64-47.91h16.31l6.17,99.06h-12.49l-2.5-43.5Z"/>
      <path class="cls-29" d="M352.33,282.9c5.73,3.53,14.11,6.47,22.93,6.47,13.08,0,20.72-6.91,20.72-16.9,0-9.26-5.22-14.73-18.66-19.69-16.09-5.94-26.16-14.11-26.16-28.07,0-15.43,12.79-26.89,32.04-26.89,10.14,0,17.49,2.35,21.9,4.85l-3.53,10.43c-3.23-1.76-9.85-4.7-18.81-4.7-13.52,0-18.66,8.08-18.66,14.84,0,9.26,6.03,13.81,19.69,19.11,16.75,6.47,25.28,14.55,25.28,29.1,0,15.28-11.32,28.51-34.68,28.51-9.55,0-19.99-2.79-25.28-6.32l3.23-10.73Z"/>
    </g>
    <g>
      <path class="cls-39" d="M165.66,294.37c-4.78,2.39-14.34,4.78-26.59,4.78-28.38,0-49.74-17.92-49.74-50.93s21.36-52.88,52.58-52.88c12.55,0,20.46,2.69,23.9,4.48l-3.14,10.6c-4.93-2.39-11.95-4.18-20.31-4.18-23.6,0-39.28,15.09-39.28,41.52,0,24.65,14.19,40.48,38.69,40.48,7.92,0,15.98-1.64,21.21-4.18l2.69,10.31Z"/>
      <path class="cls-39" d="M294.06,253.45c-.75-14.04-1.64-30.92-1.49-43.47h-.45c-3.44,11.8-7.62,24.35-12.7,38.24l-17.77,48.84h-9.86l-16.28-47.95c-4.78-14.19-8.81-27.18-11.65-39.13h-.3c-.3,12.55-1.05,29.42-1.94,44.51l-2.69,43.17h-12.4l7.02-100.67h16.58l17.18,48.69c4.18,12.4,7.62,23.45,10.16,33.91h.45c2.54-10.16,6.12-21.21,10.61-33.91l17.92-48.69h16.58l6.27,100.67h-12.7l-2.54-44.21Z"/>
      <path class="cls-39" d="M354.8,281.83c5.82,3.58,14.34,6.57,23.3,6.57,13.29,0,21.06-7.02,21.06-17.18,0-9.41-5.31-14.97-18.97-20.02-16.35-6.04-26.59-14.34-26.59-28.53,0-15.68,12.99-27.33,32.56-27.33,10.31,0,17.77,2.39,22.26,4.93l-3.58,10.6c-3.29-1.79-10.01-4.78-19.12-4.78-13.74,0-18.97,8.22-18.97,15.09,0,9.41,6.12,14.04,20.01,19.42,17.03,6.57,25.69,14.79,25.69,29.57,0,15.53-11.5,28.98-35.25,28.98-9.71,0-20.31-2.84-25.69-6.42l3.29-10.9Z"/>
    </g>
    <g>
      <path class="cls-49" d="M162.76,293.51c-4.86,2.43-14.57,4.86-27.01,4.86-28.84,0-50.54-18.21-50.54-51.75s21.7-53.72,53.42-53.72c12.75,0,20.79,2.73,24.28,4.55l-3.19,10.78c-5.01-2.43-12.14-4.25-20.64-4.25-23.98,0-39.91,15.33-39.91,42.19,0,25.04,14.42,41.13,39.31,41.13,8.04,0,16.24-1.67,21.55-4.25l2.73,10.47Z"/>
      <path class="cls-49" d="M294.39,251.92c-.76-14.27-1.67-31.42-1.52-44.16h-.46c-3.49,11.99-7.74,24.74-12.9,38.85l-18.06,49.63h-10.02l-16.54-48.72c-4.86-14.42-8.95-27.62-11.84-39.76h-.3c-.3,12.75-1.06,29.9-1.97,45.23l-2.73,43.86h-12.6l7.13-102.29h16.85l17.45,49.48c4.25,12.6,7.74,23.83,10.32,34.45h.45c2.58-10.32,6.22-21.55,10.78-34.45l18.21-49.48h16.85l6.37,102.29h-12.9l-2.58-44.92Z"/>
      <path class="cls-49" d="M357.28,280.76c5.92,3.64,14.57,6.68,23.68,6.68,13.51,0,21.4-7.13,21.4-17.45,0-9.56-5.39-15.21-19.27-20.34-16.61-6.14-27.01-14.57-27.01-28.99,0-15.94,13.2-27.77,33.08-27.77,10.47,0,18.06,2.43,22.61,5.01l-3.64,10.78c-3.34-1.82-10.17-4.86-19.43-4.86-13.96,0-19.27,8.35-19.27,15.33,0,9.56,6.22,14.27,20.34,19.73,17.3,6.68,26.1,15.02,26.1,30.05,0,15.78-11.69,29.44-35.82,29.44-9.86,0-20.64-2.88-26.1-6.53l3.34-11.08Z"/>
    </g>
    <g>
      <path class="cls-32" d="M159.86,292.64c-4.93,2.47-14.8,4.93-27.44,4.93-29.29,0-51.34-18.5-51.34-52.57s22.05-54.57,54.27-54.57c12.95,0,21.12,2.77,24.67,4.63l-3.24,10.95c-5.09-2.47-12.33-4.32-20.97-4.32-24.36,0-40.55,15.57-40.55,42.86,0,25.44,14.65,41.78,39.93,41.78,8.17,0,16.5-1.7,21.89-4.32l2.77,10.64Z"/>
      <path class="cls-32" d="M294.72,250.4c-.77-14.49-1.7-31.91-1.54-44.86h-.46c-3.55,12.18-7.86,25.13-13.1,39.47l-18.35,50.41h-10.18l-16.8-49.49c-4.93-14.65-9.1-28.06-12.02-40.39h-.31c-.31,12.95-1.08,30.37-2,45.94l-2.77,44.55h-12.8l7.25-103.91h17.11l17.73,50.26c4.32,12.8,7.86,24.2,10.48,35h.46c2.62-10.48,6.32-21.89,10.95-35l18.5-50.26h17.11l6.48,103.91h-13.1l-2.62-45.63Z"/>
      <path class="cls-32" d="M359.75,279.69c6.01,3.7,14.8,6.78,24.05,6.78,13.72,0,21.74-7.25,21.74-17.73,0-9.71-5.48-15.45-19.58-20.66-16.88-6.24-27.44-14.8-27.44-29.45,0-16.19,13.41-28.21,33.61-28.21,10.64,0,18.35,2.47,22.97,5.09l-3.7,10.95c-3.39-1.85-10.33-4.93-19.73-4.93-14.18,0-19.58,8.48-19.58,15.57,0,9.71,6.32,14.49,20.66,20.04,17.57,6.78,26.52,15.26,26.52,30.52,0,16.03-11.87,29.91-36.38,29.91-10.02,0-20.97-2.93-26.52-6.63l3.39-11.25Z"/>
    </g>
    <g>
      <path class="cls-33" d="M156.96,291.77c-5.01,2.5-15.03,5.01-27.87,5.01-29.75,0-52.14-18.79-52.14-53.39s22.39-55.42,55.11-55.42c13.15,0,21.45,2.82,25.05,4.7l-3.29,11.12c-5.17-2.51-12.53-4.38-21.29-4.38-24.74,0-41.18,15.81-41.18,43.53,0,25.83,14.87,42.43,40.55,42.43,8.3,0,16.75-1.72,22.23-4.38l2.82,10.8Z"/>
      <path class="cls-33" d="M295.05,248.87c-.78-14.72-1.72-32.41-1.57-45.56h-.47c-3.6,12.37-7.98,25.52-13.31,40.08l-18.63,51.2h-10.33l-17.07-50.26c-5.01-14.87-9.24-28.49-12.21-41.02h-.31c-.31,13.15-1.1,30.84-2.04,46.66l-2.82,45.25h-12.99l7.36-105.53h17.38l18.01,51.04c4.38,13,7.98,24.58,10.65,35.54h.47c2.66-10.65,6.42-22.23,11.12-35.54l18.79-51.04h17.38l6.58,105.53h-13.31l-2.66-46.34Z"/>
      <path class="cls-33" d="M362.22,278.62c6.11,3.76,15.03,6.89,24.42,6.89,13.93,0,22.08-7.36,22.08-18.01,0-9.86-5.57-15.69-19.88-20.98-17.14-6.33-27.87-15.03-27.87-29.9,0-16.44,13.62-28.65,34.13-28.65,10.8,0,18.63,2.51,23.33,5.17l-3.76,11.12c-3.44-1.88-10.49-5.01-20.04-5.01-14.4,0-19.88,8.61-19.88,15.81,0,9.86,6.42,14.72,20.98,20.35,17.85,6.89,26.93,15.5,26.93,31,0,16.28-12.06,30.37-36.95,30.37-10.18,0-21.29-2.97-26.93-6.73l3.44-11.43Z"/>
    </g>
    <text class="cls-27" transform="translate(67.11 294.4)"><tspan x="0" y="0">C M S</tspan></text>
  </g>
  <polygon class="cls-25" points="499.35 477.02 -.65 477.02 42.51 343.49 457.49 343.49 499.35 477.02"/>
  <polygon class="cls-25" points="463.43 425.52 38.28 425.52 60.18 343.49 439.82 343.49 463.43 425.52"/>
  <g>
    <rect class="cls-12" x="55.64" y="104.23" width="191.87" height="77.87" rx="9.75" ry="9.75"/>
    <rect class="cls-20" x="60.69" y="109.4" width="181.76" height="67.53"/>
    <g>
      <rect class="cls-11" x="65.55" y="120.38" width="64.17" height="7.63"/>
      <rect class="cls-7" x="65.55" y="131.83" width="65.04" height="7.63"/>
      <rect class="cls-10" x="65.55" y="143.28" width="55.22" height="7.63"/>
      <rect class="cls-21" x="65.55" y="154.73" width="62.44" height="7.63"/>
      <rect class="cls-6" x="65.55" y="166.18" width="68.3" height="7.63"/>
    </g>
    <g>
      <rect class="cls-5" x="138.4" y="153.49" width="28.29" height="20.32"/>
      <rect class="cls-3" x="138.4" y="145.26" width="28.29" height="4.19"/>
      <g>
        <ellipse class="cls-15" cx="152.54" cy="127.26" rx="13.17" ry="13.81"/>
        <path class="cls-44" d="M162.51,124.84c.17,.78,.26,1.59,.26,2.42,0,5.93-4.58,10.73-10.23,10.73s-10.23-4.81-10.23-10.73,4.56-10.71,10.19-10.73v-1.79c-6.57,.02-11.9,5.62-11.9,12.52s5.35,12.52,11.94,12.52,11.94-5.61,11.94-12.52c0-.83-.08-1.63-.22-2.42h-1.74Z"/>
      </g>
    </g>
    <g>
      <rect class="cls-5" x="174.36" y="153.49" width="28.29" height="20.32"/>
      <rect class="cls-3" x="174.36" y="145.26" width="28.29" height="4.19"/>
      <g>
        <ellipse class="cls-15" cx="188.5" cy="127.26" rx="13.17" ry="13.81"/>
        <path class="cls-44" d="M198.48,124.84c.17,.78,.26,1.59,.26,2.42,0,5.93-4.58,10.73-10.23,10.73s-10.23-4.81-10.23-10.73,4.56-10.71,10.19-10.73v-1.79c-6.57,.02-11.9,5.62-11.9,12.52s5.35,12.52,11.94,12.52,11.94-5.61,11.94-12.52c0-.83-.08-1.63-.22-2.42h-1.74Z"/>
      </g>
    </g>
    <g>
      <rect class="cls-5" x="210.32" y="153.49" width="28.29" height="20.32"/>
      <rect class="cls-3" x="210.32" y="145.26" width="28.29" height="4.19"/>
      <g>
        <ellipse class="cls-15" cx="224.47" cy="127.26" rx="13.17" ry="13.81"/>
        <path class="cls-44" d="M234.44,124.84c.17,.78,.26,1.59,.26,2.42,0,5.93-4.58,10.73-10.23,10.73s-10.23-4.81-10.23-10.73,4.56-10.71,10.19-10.73v-1.79c-6.57,.02-11.9,5.62-11.9,12.52s5.35,12.52,11.94,12.52,11.94-5.61,11.94-12.52c0-.83-.08-1.63-.22-2.42h-1.74Z"/>
      </g>
    </g>
  </g>
  <polygon class="cls-17" points="294.06 468.19 204.96 468.19 210.18 433.31 289.82 433.31 294.06 468.19"/>
</svg>