<?xml version="1.0" encoding="UTF-8"?>
<svg id="Calque_1" data-name="Calque 1" xmlns="http://www.w3.org/2000/svg" viewBox="0 0 1466.21 583.32">
  <defs>
    <style>
      .cls-1 {
        fill: #662d91;
      }

      .cls-2 {
        fill: #ff931e;
      }

      .cls-3 {
        fill: #1b1464;
      }

      .cls-4 {
        fill: #ff0;
      }
    </style>
  </defs>
  <g>
    <g>
      <rect class="cls-1" x="49.97" y="51.24" width="582.35" height="480.82" rx="37.78" ry="37.78"/>
      <path class="cls-3" d="M594.55,61.24c15.32,0,27.78,12.46,27.78,27.78V494.28c0,15.32-12.46,27.78-27.78,27.78H87.75c-15.32,0-27.78-12.46-27.78-27.78V89.02c0-15.32,12.46-27.78,27.78-27.78h506.79m0-20H87.75c-26.39,0-47.78,21.39-47.78,47.78V494.28c0,26.39,21.39,47.78,47.78,47.78h506.79c26.39,0,47.78-21.39,47.78-47.78V89.02c0-26.39-21.39-47.78-47.78-47.78h0Z"/>
    </g>
    <polygon points="600.45 86.58 556.08 341.53 552.6 361.53 528.27 501.35 508.57 497.92 508.58 497.85 508.53 497.86 484.8 361.53 481.32 341.53 478.4 324.7 475.47 341.53 471.99 361.53 448.26 497.86 448.21 497.85 448.22 497.92 428.52 501.35 404.19 361.53 424.48 361.53 438.09 439.69 451.69 361.53 455.17 341.53 468.25 266.38 478.4 208.07 488.54 266.38 501.62 341.53 505.1 361.53 518.7 439.69 532.31 361.53 535.79 341.53 580.75 83.15 600.45 86.58"/>
    <path class="cls-4" d="M247.89,200.07c73.14,9.99,129.5,72.71,129.5,148.6s-56.36,138.61-129.5,148.6c-6.54,.9-13.22,1.38-20,1.4v-20c6.8-.03,13.48-.57,20-1.61,62.06-9.83,109.5-63.57,109.5-128.39s-47.44-118.56-109.5-128.39"/>
    <path class="cls-4" d="M247.89,162.85v57.39h-20V81.24c6.75,.02,13.42,.35,20,.99,106.36,10.3,189.5,99.95,189.5,209.01s-83.14,198.71-189.5,209.01c-6.58,.64-13.25,.97-20,.99v-20c6.76-.02,13.43-.39,20-1.1,95.29-10.22,169.5-90.9,169.5-188.9S343.18,112.56,247.89,102.34v40.3"/>
    <g>
      <path d="M226.26,381.06H122.37l41.81-240.23,9.44-54.24-9.44-1.64-10.26-1.79L81.74,497.93l19.7,3.42,17.45-100.29h90.58l17.45,100.29,4.62-.8c5.17-.1,10.29-.39,15.36-.86l-20.64-118.63Z"/>
      <path d="M101.84,501.93l-20.69-3.59,.09-.49L153.51,82.58l20.69,3.6-9.53,54.73-41.71,239.64h103.72l.07,.41,20.73,119.16-.54,.05c-5.1,.47-10.28,.76-15.4,.86l-5.04,.88-.08-.49-17.38-99.88H119.31l-17.46,100.37Zm16.62-101.37h91.42l.07,.41,17.37,99.8,4.13-.71c4.98-.1,9.96-.37,14.86-.82l-20.48-117.68H121.77l.1-.59L173.04,87l-18.71-3.26L82.31,497.52l18.71,3.25,17.44-100.21Z"/>
    </g>
  </g>
  <g>
    <path d="M779.8,185.97l-7.65-25.93h-35.9l-7.29,25.93h-20.67l41.77-129.67h8.15l42.13,129.67h-20.53Zm-25.68-90.55l-12.59,47.24h25.18l-12.59-47.24Z"/>
    <path d="M854.61,112.8c-3.2-2.56-6.7-3.84-10.51-3.84-4.15,0-7.83,2.3-11.05,6.9-3.22,4.6-4.83,10.22-4.83,16.85v53.27h-17.88V92.45h17.88v8.56c5.01-6.87,11.66-10.3,19.95-10.3,6.1,0,10.78,1.13,14.02,3.41l-7.58,18.69Z"/>
    <path d="M933,99.87l-7.65,16.33c-4.2-4.83-9.82-7.25-16.88-7.25s-12.12,2.75-16.06,8.25c-3.93,5.5-5.9,13.11-5.9,22.83,0,19.62,7.65,29.43,22.96,29.43,6.63,0,12.47-2.68,17.52-8.03l6.58,17.2c-5.2,3.96-9.74,6.46-13.62,7.51-3.89,1.05-8.48,1.57-13.77,1.57-11.83,0-21.16-4.21-28-12.62-6.84-8.41-10.26-20.1-10.26-35.06s3.74-26.63,11.23-35.71c7.49-9.08,17.69-13.62,30.61-13.62,8.92,0,16.66,3.06,23.24,9.17Z"/>
    <path d="M997.44,185.97v-57.63c0-5.76-1.48-10.39-4.43-13.88-2.96-3.49-6.82-5.24-11.59-5.24-2.96,0-5.94,.98-8.94,2.92-3,1.95-5.15,4.18-6.44,6.68v67.15h-18.17V57.61l18.17-5.24v46.02c4.62-5.12,10.99-7.68,19.1-7.68,9.58,0,17.02,3.25,22.31,9.74,5.29,6.49,7.94,15.79,7.94,27.9v57.63h-17.95Z"/>
    <path d="M1039.49,185.97V110.35h-9.8v-17.9h27.89v93.52h-18.09Zm9.23-129.76c2.86,0,5.3,1.24,7.33,3.71,2.03,2.47,3.04,5.46,3.04,8.95s-1.01,6.48-3.04,8.95c-2.03,2.47-4.47,3.71-7.33,3.71s-5.3-1.24-7.33-3.71c-2.03-2.47-3.04-5.46-3.04-8.95s1.01-6.48,3.04-8.95c2.03-2.47,4.47-3.71,7.33-3.71Z"/>
    <path d="M1081.12,110h-8.87v-17.55h8.87v-19.04l17.88-8.03v27.07h21.03v17.55h-21.03v40.95c0,6.7,.86,11.43,2.57,14.19,1.72,2.77,4.72,4.15,9.01,4.15s8.3-1.43,12.02-4.28v20.08c-4.15,1.75-10.06,2.62-17.74,2.62s-13.49-2.63-17.59-7.9c-4.1-5.27-6.15-12.76-6.15-22.49v-47.33Z"/>
    <path d="M1204.85,145.89h-54.71c.33,7.45,2.43,13.24,6.29,17.38,3.86,4.13,9.06,6.2,15.59,6.2,8.15,0,14.35-2.59,18.6-7.77l6.94,16.68c-6.29,6.23-15.69,9.34-28.18,9.34-11.68,0-20.92-4.18-27.71-12.53s-10.19-20.01-10.19-34.97,3.73-26.66,11.19-35.8c7.46-9.14,16.41-13.71,26.86-13.71,11.11,0,20.03,4.05,26.75,12.14,6.72,8.09,10.08,18.4,10.08,30.91,0,2.68-.5,6.72-1.5,12.14Zm-54.07-16.42h37.62c-1.24-13.68-7.44-20.52-18.6-20.52-10.2,0-16.55,6.84-19.02,20.52Z"/>
    <path d="M1280.73,99.87l-7.65,16.33c-4.2-4.83-9.82-7.25-16.88-7.25s-12.12,2.75-16.06,8.25c-3.93,5.5-5.9,13.11-5.9,22.83,0,19.62,7.65,29.43,22.96,29.43,6.63,0,12.47-2.68,17.52-8.03l6.58,17.2c-5.2,3.96-9.74,6.46-13.62,7.51-3.89,1.05-8.48,1.57-13.77,1.57-11.83,0-21.16-4.21-28-12.62-6.84-8.41-10.26-20.1-10.26-35.06s3.74-26.63,11.23-35.71c7.49-9.08,17.69-13.62,30.61-13.62,8.92,0,16.66,3.06,23.24,9.17Z"/>
    <path d="M1298.33,110h-8.87v-17.55h8.87v-19.04l17.88-8.03v27.07h21.03v17.55h-21.03v40.95c0,6.7,.86,11.43,2.57,14.19,1.72,2.77,4.72,4.15,9.01,4.15s8.3-1.43,12.02-4.28v20.08c-4.15,1.75-10.06,2.62-17.74,2.62s-13.49-2.63-17.59-7.9c-4.1-5.27-6.15-12.76-6.15-22.49v-47.33Z"/>
    <path d="M1422.06,145.89h-54.71c.33,7.45,2.43,13.24,6.29,17.38,3.86,4.13,9.06,6.2,15.59,6.2,8.15,0,14.35-2.59,18.6-7.77l6.94,16.68c-6.29,6.23-15.69,9.34-28.18,9.34-11.68,0-20.92-4.18-27.71-12.53s-10.19-20.01-10.19-34.97,3.73-26.66,11.19-35.8c7.46-9.14,16.41-13.71,26.86-13.71,11.11,0,20.03,4.05,26.75,12.14,6.72,8.09,10.08,18.4,10.08,30.91,0,2.68-.5,6.72-1.5,12.14Zm-54.07-16.42h37.62c-1.24-13.68-7.44-20.52-18.6-20.52-10.2,0-16.55,6.84-19.02,20.52Z"/>
  </g>
  <g>
    <path class="cls-2" d="M731.52,346.92h-23.24v-127.84c14.83-.64,24.15-.96,27.96-.96,15.26,0,27.36,5.46,36.3,16.37s13.41,25.4,13.41,43.44c0,45.99-18.14,68.98-54.43,68.98Zm-4.65-108.02v87.32c3,.35,6.25,.52,9.73,.52,9.39,0,16.75-4.16,22.06-12.49,5.32-8.32,7.97-19.97,7.97-34.93,0-27.36-10.42-41.04-31.25-41.04-2,0-4.84,.21-8.51,.61Z"/>
    <path class="cls-2" d="M869.7,306.84h-54.71c.33,7.45,2.43,13.25,6.29,17.38,3.86,4.13,9.06,6.2,15.59,6.2,8.15,0,14.35-2.59,18.6-7.77l6.94,16.68c-6.29,6.23-15.69,9.34-28.18,9.34-11.68,0-20.92-4.18-27.71-12.53-6.79-8.35-10.19-20.01-10.19-34.97s3.73-26.66,11.19-35.8c7.46-9.14,16.41-13.71,26.86-13.71,11.11,0,20.03,4.05,26.75,12.14,6.72,8.09,10.08,18.4,10.08,30.91,0,2.68-.5,6.72-1.5,12.14Zm-54.07-16.42h37.62c-1.24-13.68-7.44-20.52-18.6-20.52-10.2,0-16.55,6.84-19.02,20.52Z"/>
    <path class="cls-2" d="M880.79,340.9l6.37-17.38c5.34,5.18,11.37,7.77,18.09,7.77s10.44-3.03,10.44-9.08c0-3.55-1.05-6.46-3.15-8.73-2.1-2.27-6.18-4.95-12.23-8.03-13.21-6.69-19.81-16.07-19.81-28.12,0-8.09,2.53-14.39,7.58-18.9,5.05-4.51,11.51-6.77,19.38-6.77s15.45,2.18,22.46,6.55l-5.15,16.94c-3.91-4.07-9.35-6.11-16.31-6.11-6.25,0-9.37,3.03-9.37,9.08,0,2.39,1.03,4.54,3.08,6.46,2.05,1.92,6.44,4.5,13.16,7.73,6.72,3.23,11.56,7.15,14.52,11.74,2.96,4.6,4.43,10.16,4.43,16.68,0,8.67-2.64,15.5-7.9,20.48-5.27,4.98-12.43,7.47-21.49,7.47-5.1,0-9.19-.51-12.27-1.53-3.08-1.02-7.02-3.1-11.84-6.24Z"/>
    <path class="cls-2" d="M953.38,346.92v-75.62h-9.8v-17.9h27.89v93.52h-18.09Zm9.23-129.76c2.86,0,5.3,1.24,7.33,3.71,2.03,2.48,3.04,5.46,3.04,8.95s-1.01,6.48-3.04,8.95c-2.03,2.47-4.47,3.71-7.33,3.71s-5.3-1.24-7.33-3.71c-2.03-2.47-3.04-5.46-3.04-8.95s1.01-6.48,3.04-8.95c2.03-2.47,4.47-3.71,7.33-3.71Z"/>
    <path class="cls-2" d="M986.57,370.94l11.3-17.03c6.25,6.99,13.21,10.48,20.88,10.48,5.15,0,9.39-.93,12.73-2.79,3.34-1.86,5.01-4.42,5.01-7.68,0-5.53-3.7-8.29-11.09-8.29-2,0-4.98,.29-8.94,.87-3.96,.58-6.94,.87-8.94,.87-12.3,0-18.45-5.38-18.45-16.15,0-3.08,1.03-6.11,3.08-9.08,2.05-2.97,4.43-5.15,7.15-6.55-8.73-6.93-13.09-16.74-13.09-29.43,0-10.01,3-18.29,9.01-24.84,6.01-6.55,13.4-9.82,22.17-9.82,6.87,0,12.61,1.57,17.24,4.72l7.01-9.96,12.37,13.71-8.51,7.6c2.96,5.47,4.43,11.93,4.43,19.38,0,10.65-2.66,19.17-7.97,25.54-5.32,6.37-12.03,9.56-20.13,9.56-1.29,0-3-.14-5.15-.44l-2.93-.52c-.33,0-1.61,.63-3.83,1.88-2.22,1.25-3.33,2.55-3.33,3.89,0,2.33,1.64,3.49,4.93,3.49,1.48,0,3.96-.44,7.44-1.31,3.48-.87,6.46-1.31,8.94-1.31,17.4,0,26.11,8.53,26.11,25.58,0,9.43-3.48,16.84-10.44,22.22-6.96,5.38-15.35,8.08-25.18,8.08-11.73,0-22.34-4.22-31.83-12.66Zm17.88-84.7c0,5.53,1.25,9.97,3.75,13.32,2.5,3.35,5.88,5.02,10.12,5.02s7.51-1.63,9.8-4.89c2.29-3.26,3.43-7.74,3.43-13.45,0-4.72-1.23-8.7-3.68-11.96-2.46-3.26-5.64-4.89-9.55-4.89-4.1,0-7.44,1.57-10.01,4.71-2.57,3.14-3.86,7.19-3.86,12.14Z"/>
    <path class="cls-2" d="M1115.09,346.92v-54.05c0-7.98-1.25-13.8-3.75-17.46-2.5-3.67-6.59-5.5-12.27-5.5-2.62,0-5.42,.9-8.4,2.71-2.98,1.8-5.3,4.05-6.97,6.72v67.59h-17.88v-93.52h12.87l3.29,8.73c4.86-6.99,12.04-10.48,21.53-10.48s16.29,3.33,21.56,10c5.27,6.67,7.9,15.97,7.9,27.9v57.37h-17.88Z"/>
    <path class="cls-2" d="M1220.66,306.84h-54.71c.33,7.45,2.43,13.25,6.29,17.38,3.86,4.13,9.06,6.2,15.59,6.2,8.15,0,14.35-2.59,18.6-7.77l6.94,16.68c-6.29,6.23-15.69,9.34-28.18,9.34-11.68,0-20.92-4.18-27.71-12.53-6.79-8.35-10.19-20.01-10.19-34.97s3.73-26.66,11.19-35.8c7.46-9.14,16.41-13.71,26.86-13.71,11.11,0,20.03,4.05,26.75,12.14,6.72,8.09,10.08,18.4,10.08,30.91,0,2.68-.5,6.72-1.5,12.14Zm-54.07-16.42h37.62c-1.24-13.68-7.44-20.52-18.6-20.52-10.2,0-16.55,6.84-19.02,20.52Z"/>
    <path class="cls-2" d="M1280.73,273.75c-3.2-2.56-6.7-3.84-10.51-3.84-4.15,0-7.83,2.3-11.05,6.9-3.22,4.6-4.83,10.22-4.83,16.85v53.27h-17.88v-93.52h17.88v8.56c5.01-6.87,11.66-10.3,19.95-10.3,6.1,0,10.78,1.13,14.02,3.41l-7.58,18.69Z"/>
  </g>
  <g>
    <path d="M803.11,509.62h-7.65l-22.89-80.68-22.24,80.68h-7.65l-34.4-129.67h19.38l19.67,77.19,21.24-77.19h8.15l21.31,77.19,19.6-77.19h19.38l-33.9,129.67Z"/>
    <path d="M912.76,467.79h-54.71c.33,7.45,2.43,13.25,6.29,17.38,3.86,4.13,9.06,6.2,15.59,6.2,8.15,0,14.35-2.59,18.6-7.77l6.94,16.68c-6.29,6.23-15.69,9.34-28.18,9.34-11.68,0-20.92-4.18-27.71-12.53-6.79-8.35-10.19-20.01-10.19-34.97s3.73-26.66,11.19-35.8c7.46-9.14,16.41-13.71,26.86-13.71,11.11,0,20.03,4.05,26.75,12.14,6.72,8.09,10.08,18.4,10.08,30.91,0,2.68-.5,6.72-1.5,12.14Zm-54.07-16.42h37.62c-1.24-13.68-7.44-20.52-18.6-20.52-10.2,0-16.55,6.84-19.02,20.52Z"/>
    <path d="M941.22,502.72l-4,6.9h-10.08v-130.11l17.88-5.24v43.66c4.77-3.55,9.96-5.33,15.59-5.33,11.2,0,20.24,4.32,27.11,12.97,6.87,8.65,10.3,19.72,10.3,33.23,0,15.66-3.46,28.04-10.37,37.16-6.91,9.11-16.28,13.67-28.11,13.67-7.11,0-13.21-2.3-18.31-6.9Zm3.79-66.1v48.81c2.62,3.78,6.17,5.68,10.66,5.68,8.63,0,14.75-2.5,18.35-7.51,3.6-5.01,5.4-13.01,5.4-24.01,0-18.98-7.44-28.47-22.31-28.47-5.29,0-9.32,1.83-12.09,5.5Z"/>
  </g>
</svg>