<?xml version="1.0" encoding="UTF-8"?>
<svg id="Calque_1" data-name="Calque 1" xmlns="http://www.w3.org/2000/svg" xmlns:xlink="http://www.w3.org/1999/xlink" viewBox="0 0 1345.02 1182.64">
  <defs>
    <style>
      .cls-1 {
        fill: #fff;
      }

      .cls-2 {
        fill: #b3b3b3;
        stroke-width: .07px;
      }

      .cls-2, .cls-3, .cls-4, .cls-5, .cls-6, .cls-7, .cls-8 {
        stroke: #000;
        stroke-miterlimit: 10;
      }

      .cls-9 {
        fill: #534741;
      }

      .cls-3 {
        stroke-width: 6.83px;
      }

      .cls-3, .cls-4, .cls-5, .cls-6, .cls-8 {
        fill: none;
        stroke-linecap: round;
      }

      .cls-10 {
        fill: #f7931e;
      }

      .cls-4 {
        stroke-width: 7.52px;
      }

      .cls-11 {
        fill: url(#Dégradé_sans_nom_5);
      }

      .cls-12 {
        fill: url(#Dégradé_sans_nom_5-4);
      }

      .cls-5 {
        stroke-width: 5.17px;
      }

      .cls-13 {
        fill: #0ffff0;
      }

      .cls-6 {
        stroke-width: 7.65px;
      }

      .cls-14 {
        fill: url(#Dégradé_sans_nom_5-3);
      }

      .cls-7 {
        fill: #754c24;
        stroke-width: .09px;
      }

      .cls-15 {
        fill: url(#Dégradé_sans_nom_5-2);
      }

      .cls-8 {
        stroke-width: 4.34px;
      }
    </style>
    <radialGradient id="Dégradé_sans_nom_5" data-name="Dégradé sans nom 5" cx="940.5" cy="291.28" fx="940.5" fy="291.28" r="58.21" gradientTransform="translate(-595.2 282.54) rotate(-19.63) scale(1.5)" gradientUnits="userSpaceOnUse">
      <stop offset="0" stop-color="#fff"/>
      <stop offset="1" stop-color="#ff0"/>
    </radialGradient>
    <radialGradient id="Dégradé_sans_nom_5-2" data-name="Dégradé sans nom 5" cx="956.7" cy="328.62" fx="956.7" fy="328.62" r="58.21" gradientTransform="translate(-557.22 171.05) rotate(-14.05) scale(1.5)" xlink:href="#Dégradé_sans_nom_5"/>
    <radialGradient id="Dégradé_sans_nom_5-3" data-name="Dégradé sans nom 5" cx="976.32" cy="366.57" fx="976.32" fy="366.57" r="58.21" gradientTransform="translate(-518.92 88.75) rotate(-9.98) scale(1.5)" xlink:href="#Dégradé_sans_nom_5"/>
    <radialGradient id="Dégradé_sans_nom_5-4" data-name="Dégradé sans nom 5" cx="998.7" cy="399.94" fx="998.7" fy="399.94" r="58.21" gradientTransform="translate(-481.18 23.79) rotate(-6.78) scale(1.5)" xlink:href="#Dégradé_sans_nom_5"/>
  </defs>
  <g>
    <g>
      <rect class="cls-1" x="161.07" y="209.24" width="944.21" height="689.24" transform="translate(-149.29 244.96) rotate(-19.63)"/>
      <path d="M961.83,71.09l231.36,648.52-888.67,317.04L73.16,388.12,961.83,71.09m.41-.87L72.29,387.71l231.82,649.81,889.96-317.5L962.25,70.21h0Z"/>
    </g>
    <rect class="cls-13" x="181.27" y="223.9" width="903.81" height="659.93" transform="translate(-149.29 244.96) rotate(-19.63)"/>
    <path class="cls-2" d="M812.72,490.26c18.94-9.2,30.1,9.66,42.69,6.48,17.67-4.47,21.57-27.31,33.03-34.1,22.01-13.05,31.87,11.43,44.82,7.25,17.94-5.79,5.93-25.96,23.3-31.25,9.54-2.9,20.57,6.77,30.32,9.49l-179.48-110.87-66.9,181.12c20.58-2.05,32.74,9.21,43.43,5.4,11.5-4.1,17.12-27.84,28.79-33.51Z"/>
    <g>
      <path class="cls-9" d="M640.06,791.21l100.67-272.54c1.6-.15,3.22-.23,4.82-.23,8.3,0,15.1,2.04,21.1,3.84,4.64,1.39,8.65,2.6,12.46,2.6,1.79,0,3.4-.27,4.93-.81,5.99-2.14,10.27-9.25,14.79-16.79,4.14-6.89,8.42-14.01,14.03-16.74,3.49-1.7,6.87-2.52,10.33-2.52,6.15,0,11.38,2.61,16.43,5.13,4.4,2.19,8.55,4.27,12.81,4.27,1.04,0,2.07-.13,3.05-.38,10.54-2.67,16.34-11.95,21.46-20.15,3.61-5.78,7.02-11.24,11.66-13.99,4.34-2.57,8.42-3.83,12.47-3.83,6.59,0,12.03,3.44,16.83,6.47,4.18,2.64,8.13,5.13,12.28,5.13,1.07,0,2.14-.17,3.17-.5,9.21-2.97,10.68-9.69,12.11-16.19,1.41-6.42,2.74-12.49,11.19-15.06,1.14-.35,2.37-.52,3.64-.52,5.1,0,10.6,2.77,15.92,5.45,3.52,1.77,7.16,3.61,10.58,4.56l134.94,83.38,67.84,189.96-509.44,181.75-40.07-112.31Z"/>
      <path d="M960.29,438.76c5.02,0,10.49,2.75,15.77,5.42,3.5,1.77,7.13,3.59,10.55,4.56l134.85,83.31,67.69,189.54-50.64,18.07-50.62,18.06-.64,.23-50.62,18.06-50.62,18.06-.64,.23-50.62,18.06-50.62,18.06-.64,.23-50.62,18.06-50.62,18.06-.64,.23-50.62,18.06-50.64,18.07-39.92-111.89,100.56-272.23c1.52-.14,3.06-.21,4.58-.21,8.26,0,15.03,2.03,21,3.83,4.67,1.4,8.7,2.61,12.55,2.61,1.82,0,3.47-.27,5.04-.83,6.1-2.18,10.41-9.34,14.96-16.93,4.11-6.85,8.37-13.92,13.9-16.61,3.45-1.67,6.78-2.49,10.19-2.49,6.08,0,11.27,2.59,16.29,5.1,4.43,2.21,8.61,4.3,12.95,4.3,1.07,0,2.12-.13,3.13-.39,10.67-2.7,16.51-12.05,21.66-20.29,3.59-5.75,6.98-11.18,11.55-13.88,4.29-2.54,8.31-3.78,12.3-3.78,6.49,0,11.66,3.27,16.66,6.42,4.22,2.67,8.21,5.18,12.45,5.18,1.1,0,2.2-.17,3.27-.52,9.39-3.03,10.88-9.84,12.33-16.43,1.39-6.33,2.7-12.3,10.96-14.81,1.11-.34,2.3-.51,3.55-.51m0-.66c-1.27,0-2.51,.17-3.74,.54-17.38,5.28-5.36,25.46-23.3,31.25-1.04,.34-2.06,.49-3.07,.49-8.85,0-16.77-11.61-29.11-11.61-3.75,0-7.91,1.07-12.63,3.87-11.46,6.79-15.36,29.63-33.03,34.1-1,.25-1.99,.37-2.97,.37-8.96,0-17.55-9.4-29.24-9.4-3.23,0-6.7,.72-10.48,2.55-11.67,5.67-17.29,29.41-28.79,33.51-1.57,.56-3.17,.79-4.82,.79-8.66,0-18.8-6.44-33.55-6.44-1.63,0-3.31,.08-5.06,.25l-100.79,272.84,40.22,112.73,51.26-18.29,50.62-18.06,.64-.23,50.62-18.06,50.62-18.06,.64-.23,50.62-18.06,50.62-18.06,.64-.23,50.62-18.06,50.62-18.06,.64-.23,50.62-18.06,51.26-18.29-67.99-190.38-135.13-83.48c-8.5-2.37-17.98-10.03-26.59-10.03h0Z"/>
    </g>
    <polygon class="cls-2" points="292.6 838.72 343.22 820.66 334.09 795.05 385.35 776.76 394.49 802.37 445.11 784.31 435.97 758.7 487.23 740.41 496.37 766.03 546.99 747.97 537.85 722.35 570.04 710.87 406.16 571.52 275.68 815.88 283.47 813.11 292.6 838.72"/>
    <g>
      <polygon class="cls-9" points="246.66 870.94 275.91 816.15 283.27 813.53 292.4 839.14 343.64 820.86 334.51 795.25 385.15 777.18 394.29 802.79 445.53 784.51 436.39 758.9 487.03 740.83 496.17 766.44 547.41 748.17 538.27 722.55 569.97 711.24 761.83 874.38 305.91 1037.03 246.66 870.94"/>
      <path d="M569.9,711.62l191.28,162.64-47.52,16.95-.64,.23-50.62,18.06-50.62,18.06-.64,.23-50.62,18.06-50.62,18.06-.64,.23-50.62,18.06-50.62,18.06-.64,.23-50.62,18.06-50.64,18.07-59.09-165.65,29.12-54.55,6.93-2.47,8.92,25,.22,.62,.62-.22,50.62-18.06,.62-.22-.22-.62-8.92-24.99,50.03-17.85,8.92,24.99,.22,.62,.62-.22,50.62-18.06,.62-.22-.22-.62-8.92-24.99,50.03-17.85,8.92,24.99,.22,.62,.62-.22,50.62-18.06,.62-.22-.22-.62-8.92-24.99,31.21-11.14m.14-.75l-32.19,11.48,9.14,25.61-50.62,18.06-9.14-25.61-51.26,18.29,9.14,25.61-50.62,18.06-9.14-25.61-51.26,18.29,9.14,25.61-50.62,18.06-9.14-25.61-7.78,2.78-29.38,55.03,59.41,166.54,51.26-18.29,50.62-18.06,.64-.23,50.62-18.06,50.62-18.06,.64-.23,50.62-18.06,50.62-18.06,.64-.23,50.62-18.06,50.62-18.06,.64-.23,48.59-17.33-192.44-163.63h0Z"/>
    </g>
    <path class="cls-7" d="M71.82,388.17l231.82,649.81,889.96-317.5L961.78,70.67,71.82,388.17Zm1097.39,325.09L317.95,1016.95,96.21,395.39,947.47,91.7l221.74,621.56Z"/>
    <g>
      <path class="cls-11" d="M881.35,307.64c-36.81,0-69.92-23.47-82.38-58.41-16.25-45.54,7.29-95.71,52.47-111.83,9.38-3.35,19.15-5.04,29.03-5.04,36.81,0,69.92,23.47,82.38,58.41,16.25,45.54-7.29,95.71-52.47,111.83-9.38,3.35-19.15,5.04-29.03,5.04Z"/>
      <path class="cls-10" d="M880.47,132.58c36.71,0,69.73,23.41,82.16,58.26,7.85,22.01,6.73,45.73-3.16,66.79-9.88,21.07-27.35,36.96-49.18,44.74-9.36,3.34-19.1,5.03-28.95,5.03-36.71,0-69.73-23.41-82.17-58.26-7.85-22.01-6.73-45.73,3.16-66.79,9.88-21.07,27.35-36.96,49.18-44.74,9.36-3.34,19.1-5.03,28.95-5.03h0m0-.46c-9.66,0-19.49,1.63-29.1,5.06-45.37,16.19-68.93,66.38-52.61,112.12,12.86,36.05,46.64,58.56,82.59,58.56,9.66,0,19.49-1.63,29.1-5.06,45.37-16.19,68.93-66.38,52.61-112.12-12.86-36.05-46.64-58.56-82.59-58.56h0Z"/>
    </g>
    <path class="cls-5" d="M375.58,381.55s15.52-12.93,47.48-2.66c3.17-22.54,8.67-28.58,26.03-37.07"/>
    <path class="cls-4" d="M326.68,487.73s22.56-18.79,69-3.87c4.61-32.76,12.59-41.54,37.83-53.87"/>
    <path class="cls-3" d="M536.68,337.29s20.49-17.07,62.67-3.52c4.19-29.76,11.44-37.73,34.36-48.93"/>
    <path class="cls-6" d="M529.68,493.09s22.97-19.14,70.27-3.94c4.7-33.36,12.83-42.3,38.52-54.86"/>
    <path class="cls-8" d="M275.86,388.3s13.04-10.86,39.88-2.24c2.67-18.94,7.28-24.01,21.86-31.14"/>
  </g>
  <g>
    <g>
      <rect class="cls-1" x="204.01" y="264.44" width="944.21" height="689.24" transform="translate(-127.64 182.38) rotate(-14.05)"/>
      <path d="M1050.18,160.54l167.17,667.96-915.3,229.08L134.88,389.62l915.3-229.08m.5-.83L134.05,389.12l167.51,669.28,916.62-229.41-167.51-669.28h0Z"/>
    </g>
    <rect class="cls-13" x="224.21" y="279.09" width="903.81" height="659.93" transform="translate(-127.64 182.38) rotate(-14.05)"/>
    <path class="cls-2" d="M861,563.22c19.75-7.32,29.02,12.55,41.86,10.6,18.02-2.73,24.12-25.08,36.19-30.73,23.18-10.85,30.61,14.47,43.9,11.58,18.42-4.02,8.42-25.26,26.23-28.83,9.78-1.96,19.82,8.74,29.26,12.39l-167.84-127.81-84.21,173.75c20.68-.04,31.69,12.35,42.7,9.6,11.85-2.96,19.75-26.04,31.92-30.55Z"/>
    <g>
      <path class="cls-9" d="M659.88,845.95l126.71-261.45c10.58,.02,18.48,3.26,25.44,6.12,5.07,2.08,9.45,3.88,13.74,3.88,1.17,0,2.31-.14,3.39-.41,6.17-1.54,11.12-8.21,16.36-15.27,4.79-6.45,9.74-13.12,15.59-15.29,2.92-1.08,5.68-1.61,8.45-1.61,7.09,0,12.6,3.46,17.93,6.81,4.55,2.86,8.85,5.55,13.57,5.55,.61,0,1.23-.05,1.84-.14,10.75-1.63,17.43-10.31,23.32-17.96,4.16-5.4,8.08-10.51,12.96-12.79,3.86-1.81,7.42-2.69,10.88-2.69,7.52,0,13.1,4.34,18.03,8.17,4.2,3.27,8.17,6.35,12.72,6.35,.73,0,1.47-.08,2.21-.24,9.46-2.06,11.58-8.6,13.63-14.93,2.03-6.26,3.94-12.16,12.6-13.9,.77-.15,1.56-.23,2.37-.23,5.49,0,11.15,3.58,16.62,7.04,3.33,2.11,6.78,4.29,10.09,5.57l126.19,96.11,49.04,195.66-524.71,131.32-28.95-115.68Z"/>
      <path d="M1011.6,526.25c5.4,0,11.01,3.55,16.44,6.99,3.31,2.1,6.74,4.27,10.06,5.56l126.11,96.03,48.93,195.23-52.16,13.06-52.14,13.05-.66,.17-52.14,13.05-52.14,13.05-.66,.17-52.14,13.05-52.14,13.05-.66,.17-52.14,13.05-52.14,13.05-.66,.17-52.14,13.05-52.16,13.06-28.84-115.24,126.57-261.16c10.42,.06,18.22,3.26,25.11,6.09,5.1,2.09,9.51,3.9,13.86,3.9,1.19,0,2.36-.14,3.47-.42,6.28-1.57,11.27-8.29,16.54-15.39,4.76-6.41,9.68-13.04,15.45-15.18,2.88-1.07,5.61-1.59,8.34-1.59,6.99,0,12.46,3.44,17.76,6.76,4.59,2.88,8.93,5.6,13.74,5.6,.63,0,1.27-.05,1.89-.14,10.88-1.65,17.6-10.38,23.53-18.09,4.13-5.37,8.03-10.44,12.84-12.69,3.82-1.79,7.33-2.66,10.74-2.66,7.4,0,12.7,4.12,17.83,8.1,4.25,3.3,8.26,6.42,12.92,6.42,.75,0,1.52-.08,2.27-.25,9.64-2.1,11.79-8.74,13.87-15.15,2-6.16,3.88-11.98,12.35-13.68,.74-.15,1.52-.22,2.3-.22m0-.66c-.81,0-1.62,.08-2.43,.24-17.81,3.57-7.82,24.81-26.23,28.83-.73,.16-1.44,.23-2.13,.23-9.75,0-16.75-14.52-30.75-14.53-3.25,0-6.88,.78-11.02,2.72-12.07,5.65-18.17,28-36.19,30.73-.6,.09-1.2,.13-1.79,.13-9.98,0-18.12-12.36-31.5-12.36-2.64,0-5.47,.48-8.57,1.63-12.17,4.51-20.07,27.58-31.92,30.55-1.1,.28-2.2,.4-3.31,.4-9.97,0-20.74-9.99-39.28-9.99-.04,0-.07,0-.1,0l-126.85,261.74,29.06,116.11,52.8-13.21,52.14-13.05,.66-.17,52.14-13.05,52.14-13.05,.66-.17,52.14-13.05,52.14-13.05,.66-.17,52.14-13.05,52.14-13.05,.66-.17,52.14-13.05,52.8-13.21-49.14-196.09-126.36-96.23c-8.66-3.35-17.82-12.63-26.83-12.63h0Z"/>
    </g>
    <polygon class="cls-2" points="309.45 859.43 361.58 846.38 354.98 820 407.78 806.78 414.38 833.16 466.52 820.11 459.92 793.73 512.72 780.52 519.32 806.9 571.46 793.85 564.85 767.47 598.01 759.17 448.46 604.54 294.83 835.05 302.84 833.05 309.45 859.43"/>
    <g>
      <polygon class="cls-9" points="260.58 887.02 295.03 835.34 302.61 833.44 309.21 859.82 361.98 846.62 355.38 820.24 407.54 807.18 414.14 833.56 466.92 820.35 460.32 793.97 512.48 780.92 519.08 807.3 571.85 794.09 565.25 767.71 597.9 759.54 772.98 940.56 303.4 1058.09 260.58 887.02"/>
      <path d="M597.8,759.9l174.55,180.48-48.94,12.25-.66,.17-52.14,13.05-52.14,13.05-.66,.17-52.14,13.05-52.14,13.05-.66,.17-52.14,13.05-52.14,13.05-.66,.17-52.14,13.05-52.16,13.06-42.7-170.61,34.29-51.45,7.13-1.79,6.44,25.74,.16,.64,.64-.16,52.14-13.05,.64-.16-.16-.64-6.44-25.74,51.53-12.9,6.44,25.74,.16,.64,.64-.16,52.14-13.05,.64-.16-.16-.64-6.44-25.74,51.53-12.9,6.44,25.74,.16,.64,.64-.16,52.14-13.05,.64-.16-.16-.64-6.44-25.74,32.15-8.05m.21-.73l-33.15,8.3,6.6,26.38-52.14,13.05-6.6-26.38-52.8,13.21,6.6,26.38-52.14,13.05-6.6-26.38-52.8,13.21,6.6,26.38-52.14,13.05-6.6-26.38-8.02,2.01-34.6,51.91,42.93,171.53,52.8-13.21,52.14-13.05,.66-.17,52.14-13.05,52.14-13.05,.66-.17,52.14-13.05,52.14-13.05,.66-.17,52.14-13.05,52.14-13.05,.66-.17,50.04-12.52-175.6-181.57h0Z"/>
    </g>
    <path class="cls-7" d="M133.55,389.53l167.51,669.28,916.62-229.41-167.51-669.28L133.55,389.53Zm1060.56,430.31l-876.77,219.43L157.11,399.1l876.77-219.43,160.22,640.18Z"/>
    <g>
      <path class="cls-15" d="M955.41,388.55c-40.04,0-74.85-27.37-84.65-66.55-11.74-46.91,16.57-94.55,63.1-106.19,6.9-1.73,13.98-2.6,21.03-2.6,40.04,0,74.85,27.37,84.65,66.55,5.69,22.72,2.26,46.28-9.66,66.34-11.92,20.06-30.9,34.21-53.44,39.85-6.9,1.73-13.98,2.6-21.03,2.6Z"/>
      <path class="cls-10" d="M954.89,212.97v.46c19.03,0,37.89,6.49,53.09,18.27,15.67,12.14,26.51,28.78,31.34,48.11,5.67,22.66,2.25,46.16-9.64,66.17-11.89,20-30.82,34.12-53.3,39.75-6.88,1.72-13.94,2.6-20.98,2.6-19.03,0-37.89-6.49-53.09-18.27-15.67-12.14-26.51-28.78-31.34-48.11-11.71-46.79,16.52-94.3,62.94-105.92,6.88-1.72,13.94-2.6,20.98-2.6v-.46m0,0c-6.96,0-14.03,.85-21.09,2.61-46.73,11.7-75.06,59.36-63.27,106.47,10.01,40,45.72,66.72,84.88,66.72,6.96,0,14.03-.84,21.09-2.61,46.73-11.7,75.06-59.36,63.27-106.47-10.01-40-45.72-66.73-84.88-66.72h0Z"/>
    </g>
    <path class="cls-5" d="M436.51,412.5s16.71-11.36,47.51,1.97c5.35-22.13,11.4-27.6,29.51-34.36"/>
    <path class="cls-4" d="M377.51,513.42s24.28-16.51,69.05,2.86c7.78-32.16,16.58-40.11,42.89-49.94"/>
    <path class="cls-3" d="M601.15,384.13s22.05-14.99,62.72,2.6c7.06-29.21,15.05-36.43,38.95-45.36"/>
    <path class="cls-6" d="M579.02,538.5s24.73-16.81,70.32,2.91c7.92-32.75,16.88-40.85,43.68-50.85"/>
    <path class="cls-8" d="M336.61,409.51s14.03-9.54,39.91,1.65c4.49-18.59,9.58-23.19,24.79-28.86"/>
  </g>
  <g>
    <g>
      <rect class="cls-1" x="246.94" y="319.62" width="944.21" height="689.24" transform="translate(-104.21 134.63) rotate(-9.98)"/>
      <path d="M1124.03,243.43l119.3,678.14-929.26,163.47L194.77,406.91l929.26-163.47m.55-.79L193.98,406.35l119.53,679.49,930.61-163.71-119.53-679.49h0Z"/>
    </g>
    <rect class="cls-13" x="267.14" y="334.28" width="903.81" height="659.93" transform="translate(-104.21 134.63) rotate(-9.98)"/>
    <path class="cls-2" d="M906.72,631.65c20.22-5.9,28.05,14.58,41,13.55,18.17-1.44,25.84-23.3,38.28-28.08,23.89-9.17,29.5,16.61,42.96,14.66,18.66-2.7,10.2-24.6,28.21-26.89,9.89-1.26,19.15,10.12,28.3,14.44l-158.34-139.41-96.34,167.33c20.63,1.43,30.74,14.57,41.91,12.6,12.03-2.12,21.55-24.57,34.01-28.21Z"/>
    <g>
      <path class="cls-9" d="M686.02,899.38l144.96-251.79c10.55,.77,18.2,4.56,24.95,7.91,5.28,2.62,9.84,4.88,14.47,4.88,.8,0,1.59-.07,2.37-.21,6.26-1.1,11.67-7.4,17.4-14.07,5.23-6.09,10.65-12.4,16.64-14.14,2.4-.7,4.76-1.06,7.01-1.06,7.84,0,13.48,4.13,18.94,8.12,4.59,3.36,8.93,6.54,14.01,6.54,.32,0,.65-.01,.97-.04,10.84-.86,18.11-9.04,24.53-16.26,4.53-5.09,8.81-9.91,13.84-11.84,3.38-1.3,6.61-1.96,9.6-1.96,8.29,0,13.9,5.04,18.85,9.48,4.16,3.74,8.09,7.27,12.96,7.27,.49,0,1-.04,1.5-.11,9.58-1.38,12.16-7.76,14.65-13.92,2.47-6.1,4.8-11.85,13.55-12.97,.49-.06,.99-.09,1.49-.09,5.79,0,11.47,4.19,16.96,8.23,3.17,2.34,6.45,4.76,9.67,6.27l119.04,104.83,35.01,198.65-532.71,93.71-20.66-117.44Z"/>
      <path d="M1058.71,605.45c5.68,0,11.32,4.15,16.77,8.17,3.16,2.33,6.42,4.73,9.64,6.27l118.97,104.75,34.93,198.21-52.96,9.32-52.93,9.31-.67,.12-52.93,9.31-52.93,9.31-.67,.12-52.93,9.31-52.93,9.31-.67,.12-52.93,9.31-52.93,9.31-.67,.12-52.93,9.31-52.96,9.32-20.58-117,144.8-251.5c10.39,.8,17.94,4.55,24.62,7.86,5.32,2.64,9.91,4.92,14.62,4.92,.82,0,1.63-.07,2.43-.21,6.38-1.12,11.83-7.46,17.59-14.18,5.2-6.06,10.58-12.32,16.49-14.04,2.37-.69,4.7-1.04,6.92-1.04,7.74,0,13.33,4.1,18.75,8.06,4.64,3.39,9.02,6.6,14.2,6.6,.33,0,.67-.01,1-.04,10.97-.87,18.29-9.11,24.75-16.37,4.5-5.06,8.75-9.85,13.71-11.75,3.35-1.29,6.54-1.94,9.48-1.94,8.17,0,13.72,4.99,18.63,9.4,4.21,3.78,8.18,7.35,13.18,7.35,.51,0,1.03-.04,1.54-.11,9.76-1.41,12.38-7.88,14.91-14.13,2.43-6,4.73-11.68,13.29-12.77,.48-.06,.97-.09,1.45-.09m0-.66c-.51,0-1.02,.03-1.54,.1-18.02,2.29-9.56,24.2-28.21,26.89-.49,.07-.98,.11-1.45,.11-10.49,0-16.43-16.75-31.8-16.75-2.88,0-6.08,.59-9.71,1.98-12.44,4.78-20.11,26.64-38.28,28.08-.32,.03-.63,.04-.94,.04-10.79,0-18.2-14.65-32.95-14.65-2.19,0-4.55,.32-7.1,1.07-12.46,3.63-21.98,26.09-34.01,28.21-.77,.14-1.54,.2-2.31,.2-10.31,0-20.4-11.48-39.6-12.8l-145.12,252.07,20.74,117.88,53.6-9.43,52.93-9.31,.67-.12,52.93-9.31,52.93-9.31,.67-.12,52.93-9.31,52.93-9.31,.67-.12,52.93-9.31,52.93-9.31,.67-.12,52.93-9.31,53.6-9.43-35.09-199.08-119.21-104.96c-8.68-4.09-17.45-14.54-26.77-14.54h0Z"/>
    </g>
    <polygon class="cls-2" points="335.52 887.93 388.45 878.62 383.74 851.84 437.34 842.41 442.05 869.19 494.99 859.88 490.27 833.1 543.88 823.66 548.59 850.45 601.52 841.14 596.81 814.35 630.47 808.43 492.29 643.57 322.67 862.58 330.81 861.15 335.52 887.93"/>
    <g>
      <polygon class="cls-9" points="284.82 911.98 322.85 862.88 330.54 861.53 335.25 888.31 388.83 878.89 384.12 852.1 437.08 842.79 441.79 869.57 495.37 860.14 490.65 833.36 543.61 824.05 548.32 850.83 601.9 841.4 597.19 814.62 630.34 808.79 792.11 1001.8 315.37 1085.66 284.82 911.98"/>
      <path d="M630.21,809.14l161.29,192.43-49.69,8.74-.67,.12-52.93,9.31-52.93,9.31-.67,.12-52.93,9.31-52.93,9.31-.67,.12-52.93,9.31-52.93,9.31-.67,.12-52.93,9.31-52.96,9.32-30.47-173.21,37.86-48.89,7.24-1.27,4.6,26.14,.11,.65,.65-.11,52.93-9.31,.65-.11-.11-.65-4.6-26.14,52.31-9.2,4.6,26.14,.11,.65,.65-.11,52.93-9.31,.65-.11-.11-.65-4.6-26.14,52.31-9.2,4.6,26.14,.11,.65,.65-.11,52.93-9.31,.65-.11-.11-.65-4.6-26.14,32.64-5.74m.26-.71l-33.66,5.92,4.71,26.78-52.93,9.31-4.71-26.78-53.6,9.43,4.71,26.78-52.93,9.31-4.71-26.78-53.6,9.43,4.71,26.78-52.93,9.31-4.71-26.78-8.14,1.43-38.2,49.32,30.64,174.14,53.6-9.43,52.93-9.31,.67-.12,52.93-9.31,52.93-9.31,.67-.12,52.93-9.31,52.93-9.31,.67-.12,52.93-9.31,52.93-9.31,.67-.12,50.81-8.94-162.26-193.59h0Z"/>
    </g>
    <path class="cls-7" d="M193.44,406.73l119.53,679.49,930.61-163.71-119.53-679.49L193.44,406.73Zm1027.31,504.57l-890.14,156.59L216.27,417.94l890.14-156.59,114.34,649.95Z"/>
    <g>
      <path class="cls-14" d="M1019.41,464.35c-42.32,0-78.41-30.54-85.81-72.62-4.06-23.07,1.04-46.33,14.35-65.49,13.31-19.16,33.25-31.93,56.13-35.95,4.98-.88,10.05-1.32,15.06-1.32,42.32,0,78.41,30.54,85.82,72.61,8.38,47.62-23.24,93.13-70.49,101.44-4.98,.88-10.05,1.32-15.06,1.32Z"/>
      <path class="cls-10" d="M1019.14,289.2c20.17,0,39.88,7.2,55.51,20.28,15.81,13.23,26.49,31.75,30.08,52.15,4.05,23.01-1.04,46.21-14.31,65.32-13.28,19.11-33.16,31.84-55.99,35.86-4.97,.87-10.02,1.32-15.02,1.32-20.17,0-39.89-7.2-55.51-20.28-15.81-13.23-26.49-31.75-30.08-52.15-4.05-23.01,1.04-46.21,14.31-65.32,13.28-19.11,33.16-31.84,55.99-35.86,4.96-.87,10.02-1.32,15.02-1.32h0m0-.46c-4.98,0-10.03,.43-15.1,1.32-47.44,8.35-79.09,53.88-70.67,101.7,7.51,42.71,44.43,72.8,86.04,72.8,4.98,0,10.03-.43,15.1-1.32,47.44-8.35,79.09-53.88,70.67-101.7-7.51-42.71-44.43-72.81-86.04-72.8h0Z"/>
    </g>
    <path class="cls-5" d="M494.01,451.16s17.47-10.14,47.25,5.34c6.91-21.69,13.34-26.72,31.88-32.18"/>
    <path class="cls-4" d="M427.99,547.63s25.39-14.74,68.67,7.76c10.04-31.52,19.38-38.84,46.33-46.76"/>
    <path class="cls-3" d="M660.25,434.55s23.06-13.39,62.37,7.05c9.12-28.63,17.6-35.27,42.08-42.47"/>
    <path class="cls-6" d="M627.21,586.97s25.86-15.01,69.93,7.9c10.23-32.1,19.74-39.55,47.18-47.62"/>
    <path class="cls-8" d="M394.57,441.08s14.68-8.52,39.69,4.48c5.8-18.22,11.2-22.45,26.78-27.03"/>
  </g>
  <g>
    <g>
      <rect class="cls-1" x="289.87" y="368.68" width="944.21" height="689.24" transform="translate(-78.84 94.88) rotate(-6.78)"/>
      <path d="M1189.82,315.76l81.24,683.75-936.94,111.32L252.89,427.09l936.94-111.32m.6-.76L252.13,426.49l81.4,685.1,938.3-111.48-81.4-685.1h0Z"/>
    </g>
    <rect class="cls-13" x="310.07" y="383.33" width="903.81" height="659.93" transform="translate(-78.84 94.88) rotate(-6.78)"/>
    <path class="cls-2" d="M951.17,691.24c20.52-4.76,27.2,16.12,40.18,15.82,18.22-.42,27.1-21.82,39.79-25.9,24.37-7.83,28.53,18.23,42.08,17.04,18.78-1.65,11.55-23.99,29.67-25.28,9.95-.7,18.55,11.17,27.45,16l-150.3-148.03-105.53,161.69c20.52,2.58,29.87,16.26,41.14,14.93,12.13-1.44,22.89-23.33,35.53-26.26Z"/>
    <g>
      <path class="cls-9" d="M715.87,946.23l158.8-243.3c10.5,1.36,17.91,5.57,24.46,9.29,5.39,3.06,10.05,5.7,14.96,5.7,.53,0,1.07-.03,1.6-.09,6.31-.75,12.07-6.74,18.16-13.08,5.57-5.79,11.32-11.78,17.41-13.19,1.99-.46,3.95-.7,5.81-.7,8.5,0,14.19,4.68,19.7,9.2,4.59,3.77,8.92,7.33,14.31,7.33h.29c10.87-.26,18.59-8.02,25.4-14.87,4.81-4.83,9.35-9.4,14.48-11.05,3-.96,5.86-1.45,8.5-1.45,8.98,0,14.56,5.61,19.48,10.55,4.09,4.11,7.96,7.99,13.1,7.99,.3,0,.61-.01,.93-.04,9.64-.85,12.57-7.07,15.41-13.09,2.8-5.95,5.45-11.57,14.26-12.19,.28-.02,.55-.03,.83-.03,6.04,0,11.68,4.67,17.14,9.19,3.04,2.51,6.18,5.11,9.3,6.8l113,111.32,23.86,200.29-537.11,63.82-14.07-118.41Z"/>
      <path d="M1103.74,673.55c5.92,0,11.52,4.63,16.93,9.11,3.02,2.5,6.15,5.09,9.27,6.79l112.93,111.23,23.81,199.85-53.4,6.34-53.37,6.34-.68,.08-53.37,6.34-53.37,6.34-.68,.08-53.37,6.34-53.37,6.34-.68,.08-53.37,6.34-53.37,6.34-.68,.08-53.37,6.34-53.4,6.34-14.02-117.97,158.62-243.02c10.32,1.38,17.66,5.54,24.14,9.22,5.43,3.08,10.12,5.75,15.12,5.75,.55,0,1.1-.03,1.64-.1,6.43-.76,12.22-6.79,18.36-13.17,5.53-5.76,11.26-11.71,17.24-13.1,1.97-.46,3.9-.69,5.74-.69,8.38,0,14.03,4.64,19.49,9.13,4.63,3.81,9.01,7.4,14.52,7.4,.1,0,.2,0,.29,0,11-.26,18.77-8.07,25.63-14.96,4.78-4.8,9.29-9.34,14.35-10.97,2.97-.95,5.8-1.44,8.4-1.44,8.84,0,14.37,5.56,19.24,10.46,4.14,4.16,8.05,8.09,13.34,8.09,.32,0,.64-.01,.96-.04,9.83-.86,12.8-7.17,15.68-13.27,2.76-5.86,5.37-11.39,13.98-12,.27-.02,.54-.03,.8-.03m0-.66c-.28,0-.57,0-.85,.03-18.12,1.28-10.9,23.63-29.67,25.28-.3,.03-.6,.04-.9,.04-11.13,0-16-18.55-32.58-18.55-2.56,0-5.41,.44-8.6,1.47-12.68,4.07-21.57,25.47-39.79,25.9-.09,0-.19,0-.28,0-11.48,0-18.08-16.52-34.01-16.53-1.83,0-3.79,.22-5.89,.71-12.64,2.93-23.4,24.82-35.53,26.26-.52,.06-1.04,.09-1.56,.09-10.6,0-20.02-12.56-39.58-15.02l-158.98,243.57,14.12,118.86,54.05-6.42,53.37-6.34,.68-.08,53.37-6.34,53.37-6.34,.68-.08,53.37-6.34,53.37-6.34,.68-.08,53.37-6.34,53.37-6.34,.68-.08,53.37-6.34,54.05-6.42-23.91-200.73-113.16-111.45c-8.65-4.69-17.01-16.03-26.6-16.03h0Z"/>
    </g>
    <polygon class="cls-2" points="366.55 915.22 419.92 908.88 416.71 881.87 470.76 875.45 473.97 902.46 527.34 896.11 524.13 869.11 578.18 862.69 581.38 889.69 634.75 883.35 631.54 856.35 665.48 852.31 536.72 679.99 355.13 889.19 363.34 888.21 366.55 915.22"/>
    <g>
      <polygon class="cls-9" points="314.59 936.4 355.3 889.5 363.05 888.58 366.26 915.58 420.28 909.16 417.08 882.16 470.47 875.82 473.68 902.82 527.7 896.4 524.49 869.4 577.89 863.05 581.1 890.06 635.12 883.64 631.91 856.63 665.33 852.66 816.08 1054.4 335.39 1111.52 314.59 936.4"/>
      <path d="M665.18,853.01l150.29,201.13-50.1,5.95-.68,.08-53.37,6.34-53.37,6.34-.68,.08-53.37,6.34-53.37,6.34-.68,.08-53.37,6.34-53.37,6.34-.68,.08-53.37,6.34-53.4,6.34-20.75-174.64,40.53-46.7,7.3-.87,3.13,26.35,.08,.65,.65-.08,53.37-6.34,.65-.08-.08-.65-3.13-26.35,52.74-6.27,3.13,26.35,.08,.65,.65-.08,53.37-6.34,.65-.08-.08-.65-3.13-26.35,52.74-6.27,3.13,26.35,.08,.65,.65-.08,53.37-6.34,.65-.08-.08-.65-3.13-26.35,32.91-3.91m.3-.7l-33.94,4.03,3.21,27-53.37,6.34-3.21-27-54.05,6.42,3.21,27-53.37,6.34-3.21-27-54.05,6.42,3.21,27-53.37,6.34-3.21-27-8.21,.98-40.89,47.11,20.86,175.58,54.05-6.42,53.37-6.34,.68-.08,53.37-6.34,53.37-6.34,.68-.08,53.37-6.34,53.37-6.34,.68-.08,53.37-6.34,53.37-6.34,.68-.08,51.23-6.09-151.2-202.35h0Z"/>
    </g>
    <path class="cls-7" d="M251.57,426.83l81.4,685.1,938.3-111.48-81.4-685.1L251.57,426.83Zm997.53,561.15l-897.5,106.64-77.86-655.32,897.5-106.64,77.86,655.32Z"/>
    <g>
      <path class="cls-12" d="M1077.85,530.62c-44.04,0-81.2-33.29-86.44-77.43-2.76-23.26,3.62-46.2,17.99-64.58,14.36-18.39,34.98-30.02,58.06-32.76,3.41-.41,6.88-.61,10.29-.61,44.04,0,81.2,33.29,86.44,77.43,2.76,23.26-3.62,46.2-17.99,64.58s-34.98,30.02-58.06,32.76c-3.41,.41-6.88,.61-10.29,.61Z"/>
      <path class="cls-10" d="M1077.74,355.47c43.92,0,80.98,33.2,86.21,77.23,2.76,23.2-3.61,46.08-17.94,64.42-14.32,18.34-34.89,29.94-57.9,32.68-3.41,.4-6.86,.61-10.27,.61-43.92,0-80.99-33.2-86.22-77.23-2.76-23.2,3.61-46.08,17.94-64.42,14.32-18.34,34.89-29.94,57.9-32.68,3.4-.4,6.86-.61,10.27-.61h0m0-.46c-3.41,0-6.85,.2-10.32,.61-47.84,5.68-81.97,49.38-76.24,97.6,5.31,44.73,43.05,77.63,86.67,77.63,3.41,0,6.85-.2,10.32-.61,47.84-5.68,81.97-49.38,76.24-97.6-5.31-44.73-43.05-77.63-86.67-77.63h0Z"/>
    </g>
    <path class="cls-5" d="M549.18,487.98s18.01-9.15,46.88,7.97c8.11-21.27,14.81-25.94,33.62-30.35"/>
    <path class="cls-4" d="M477.88,580.61s26.18-13.3,68.13,11.58c11.79-30.91,21.52-37.69,48.87-44.1"/>
    <path class="cls-3" d="M716.09,480.68s23.78-12.08,61.88,10.52c10.71-28.08,19.55-34.23,44.38-40.06"/>
    <path class="cls-6" d="M674.6,631.02s26.66-13.54,69.38,11.79c12-31.48,21.92-38.38,49.76-44.91"/>
    <path class="cls-8" d="M450.47,472.36s15.13-7.69,39.38,6.69c6.81-17.87,12.44-21.79,28.24-25.49"/>
  </g>
</svg>