<?xml version="1.0" encoding="UTF-8"?>
<svg id="Calque_1" data-name="Calque 1" xmlns="http://www.w3.org/2000/svg" viewBox="0 0 2000 2000">
  <defs>
    <style>
      .cls-1 {
        stroke-width: .2px;
      }

      .cls-1, .cls-2, .cls-3, .cls-4, .cls-5, .cls-6, .cls-7, .cls-8, .cls-9, .cls-10, .cls-11, .cls-12, .cls-13, .cls-14, .cls-15, .cls-16, .cls-17, .cls-18, .cls-19, .cls-20, .cls-21, .cls-22, .cls-23, .cls-24, .cls-25 {
        stroke: #000;
        stroke-miterlimit: 10;
      }

      .cls-1, .cls-2, .cls-3, .cls-4, .cls-5, .cls-6, .cls-8, .cls-11, .cls-12, .cls-13, .cls-14, .cls-15, .cls-16, .cls-18, .cls-19, .cls-20, .cls-21, .cls-22, .cls-23, .cls-25 {
        fill: #c69c6d;
      }

      .cls-26 {
        fill: #797979;
      }

      .cls-27 {
        fill: #555;
      }

      .cls-28, .cls-29 {
        font-family: MyriadPro-Bold, 'Myriad Pro';
        font-size: 237.44px;
        font-weight: 700;
      }

      .cls-30 {
        fill: #3d3d3d;
      }

      .cls-2 {
        stroke-width: .13px;
      }

      .cls-3 {
        stroke-width: .1px;
      }

      .cls-29 {
        fill: #fff;
      }

      .cls-31 {
        fill: #dbdbdb;
      }

      .cls-4 {
        stroke-width: .16px;
      }

      .cls-32 {
        fill: #0c0c0c;
      }

      .cls-5 {
        stroke-width: .15px;
      }

      .cls-33 {
        letter-spacing: 0em;
      }

      .cls-6 {
        stroke-width: .13px;
      }

      .cls-7 {
        stroke-width: .19px;
      }

      .cls-7, .cls-9, .cls-10, .cls-17, .cls-24 {
        fill: #b3b3b3;
      }

      .cls-34 {
        fill: #868686;
      }

      .cls-8 {
        stroke-width: .14px;
      }

      .cls-35 {
        fill: #662d91;
      }

      .cls-9 {
        stroke-width: .19px;
      }

      .cls-36 {
        fill: #313131;
      }

      .cls-10 {
        stroke-width: .16px;
      }

      .cls-11 {
        stroke-width: .12px;
      }

      .cls-12 {
        stroke-width: .07px;
      }

      .cls-13 {
        stroke-width: .12px;
      }

      .cls-37 {
        fill: #929292;
      }

      .cls-38 {
        fill: #e7e7e7;
      }

      .cls-39 {
        fill: #f7931e;
      }

      .cls-40 {
        fill: #242424;
      }

      .cls-14 {
        stroke-width: .16px;
      }

      .cls-41 {
        fill: #181818;
      }

      .cls-42 {
        letter-spacing: 0em;
      }

      .cls-15 {
        stroke-width: .11px;
      }

      .cls-43 {
        fill: #0ffff0;
      }

      .cls-44 {
        fill: #b6b6b6;
      }

      .cls-45 {
        fill: #aaa;
      }

      .cls-16 {
        stroke-width: .2px;
      }

      .cls-46 {
        fill: #616161;
      }

      .cls-47 {
        fill: #494949;
      }

      .cls-48 {
        fill: #1b1464;
      }

      .cls-17 {
        stroke-width: .14px;
      }

      .cls-18 {
        stroke-width: .12px;
      }

      .cls-19 {
        stroke-width: .1px;
      }

      .cls-49 {
        fill: #002be9;
        opacity: .11;
      }

      .cls-20 {
        stroke-width: .18px;
      }

      .cls-50 {
        fill: #c2c2c2;
      }

      .cls-51 {
        letter-spacing: 0em;
      }

      .cls-52 {
        fill: #cecece;
      }

      .cls-21 {
        stroke-width: .2px;
      }

      .cls-53 {
        fill: #f3f3f3;
      }

      .cls-54 {
        fill: #6d6d6d;
      }

      .cls-55 {
        fill: #9e9e9e;
      }

      .cls-22 {
        stroke-width: .13px;
      }

      .cls-23 {
        stroke-width: .19px;
      }

      .cls-56 {
        fill: #ff0;
      }

      .cls-24 {
        stroke-width: .17px;
      }

      .cls-25 {
        stroke-width: .72px;
      }
    </style>
  </defs>
  <g>
    <rect class="cls-10" x="116.28" y="117.44" width="1762.79" height="1760.47" rx="99.69" ry="99.69"/>
    <rect class="cls-43" x="186.06" y="187.13" width="1623.24" height="1621.09" rx="100.6" ry="100.6"/>
    <rect class="cls-49" x="252.16" y="253.14" width="1491.03" height="1489.06" rx="92.4" ry="92.4"/>
  </g>
  <g>
    <rect class="cls-9" x="475.95" y="295.68" width="1219.63" height="495.01" rx="61.95" ry="61.95"/>
    <rect class="cls-24" x="508.08" y="328.56" width="1155.36" height="429.24"/>
    <g>
      <rect class="cls-21" x="538.94" y="398.31" width="407.91" height="48.52"/>
      <rect class="cls-16" x="538.94" y="471.1" width="413.42" height="48.52"/>
      <rect class="cls-20" x="538.94" y="543.88" width="350.99" height="48.52"/>
      <rect class="cls-23" x="538.94" y="616.66" width="396.9" height="48.52"/>
      <rect class="cls-1" x="538.94" y="689.44" width="434.15" height="48.52"/>
    </g>
    <g>
      <rect class="cls-14" x="1002.01" y="608.82" width="179.8" height="129.15"/>
      <rect class="cls-12" x="1002.01" y="556.47" width="179.8" height="26.65"/>
      <g>
        <ellipse class="cls-25" cx="1091.91" cy="442.05" rx="83.71" ry="87.81"/>
        <path class="cls-43" d="M1155.3,426.69c1.08,4.94,1.66,10.08,1.66,15.36,0,37.68-29.12,68.23-65.05,68.23s-65.05-30.55-65.05-68.23,28.98-68.07,64.77-68.23v-11.37c-41.79,.16-75.62,35.73-75.62,79.6s33.98,79.6,75.89,79.6,75.89-35.64,75.89-79.6c0-5.26-.49-10.39-1.42-15.36h-11.08Z"/>
      </g>
    </g>
    <g>
      <rect class="cls-14" x="1230.62" y="608.82" width="179.8" height="129.15"/>
      <rect class="cls-12" x="1230.62" y="556.47" width="179.8" height="26.65"/>
      <g>
        <ellipse class="cls-25" cx="1320.52" cy="442.05" rx="83.71" ry="87.81"/>
        <path class="cls-43" d="M1383.91,426.69c1.08,4.94,1.66,10.08,1.66,15.36,0,37.68-29.12,68.23-65.05,68.23s-65.05-30.55-65.05-68.23,28.98-68.07,64.77-68.23v-11.37c-41.79,.16-75.62,35.73-75.62,79.6s33.98,79.6,75.89,79.6,75.89-35.64,75.89-79.6c0-5.26-.49-10.39-1.42-15.36h-11.08Z"/>
      </g>
    </g>
    <g>
      <rect class="cls-14" x="1459.23" y="608.82" width="179.8" height="129.15"/>
      <rect class="cls-12" x="1459.23" y="556.47" width="179.8" height="26.65"/>
      <g>
        <ellipse class="cls-25" cx="1549.13" cy="442.05" rx="83.71" ry="87.81"/>
        <path class="cls-43" d="M1612.53,426.69c1.08,4.94,1.66,10.08,1.66,15.36,0,37.68-29.12,68.23-65.05,68.23s-65.05-30.55-65.05-68.23,28.98-68.07,64.77-68.23v-11.37c-41.79,.16-75.62,35.73-75.62,79.6s33.98,79.6,75.89,79.6,75.89-35.64,75.89-79.6c0-5.26-.49-10.39-1.42-15.36h-11.08Z"/>
      </g>
    </g>
  </g>
  <g>
    <g>
      <path class="cls-17" d="M199.39,1217.44l119.34-525.77c8.3-36.57,43.3-59.16,78.17-50.46l324.77,81.11c34.87,8.71,56.4,45.42,48.1,81.99l-119.34,525.77c-8.3,36.57-43.3,59.16-78.17,50.46l-324.77-81.11c-34.87-8.71-56.4-45.42-48.1-81.99Z"/>
      <path class="cls-48" d="M240.92,1210.72l105.07-462.88c8.09-35.64,42.19-57.65,76.16-49.16l268.09,66.95c33.97,8.48,54.96,44.25,46.87,79.89l-105.07,462.88c-8.09,35.64-42.19,57.65-76.16,49.16l-268.09-66.95c-33.97-8.48-54.96-44.25-46.87-79.89Z"/>
    </g>
    <path class="cls-48" d="M609.84,732.01l-101.77-25.42c-4.55-1.14-7.39-5.97-6.3-10.75l1.59-7.02c1.08-4.77,5.69-7.75,10.25-6.61l101.77,25.42c4.55,1.14,7.39,5.97,6.3,10.75l-1.59,7.02c-1.08,4.77-5.69,7.75-10.25,6.61Z"/>
    <g>
      <path class="cls-43" d="M557.82,1022.29l67.22,114.57c1.21,2.07,.6,4.78-1.37,6.06l-101.89,65.77c-1.97,1.27-2.59,3.99-1.37,6.06l3.32,5.66c1.21,2.07,3.8,2.72,5.77,1.44l114.05-73.62c1.97-1.27,2.59-3.99,1.37-6.06l-74.94-127.73c-1.21-2.07-3.8-2.72-5.77-1.44l-5.01,3.23c-1.97,1.27-2.59,3.99-1.37,6.06Z"/>
      <path class="cls-43" d="M422.65,1219.34l-6.05-2.65c-2-.87-2.94-3.28-2.11-5.38l92.79-233.21c.83-2.1,3.13-3.09,5.13-2.21l6.05,2.65c2,.87,2.94,3.28,2.11,5.38l-92.79,233.21c-.83,2.1-3.13,3.09-5.13,2.21Z"/>
      <path class="cls-43" d="M421.34,988.21l-109.23,70.51c-1.97,1.27-2.59,3.99-1.37,6.06l62.7,106.88c1.21,2.07,.6,4.78-1.37,6.06l-5.4,3.48c-1.97,1.27-4.56,.63-5.77-1.44l-70.19-119.63c-1.21-2.07-.6-4.78,1.37-6.06l121.77-78.6c1.97-1.27,4.56-.63,5.77,1.44l3.08,5.26c1.21,2.07,.6,4.78-1.37,6.06Z"/>
    </g>
  </g>
  <rect class="cls-9" x="621.55" y="1277.25" width="1219.63" height="495.01"/>
  <rect class="cls-35" x="653.69" y="1310.14" width="1155.36" height="429.24"/>
  <rect class="cls-4" x="538.34" y="1524.54" width="359.5" height="35.08" transform="translate(-823.99 2260.17) rotate(-90)"/>
  <rect class="cls-8" x="638.54" y="1557.53" width="293.53" height="35.08" transform="translate(-789.76 2360.37) rotate(-90)"/>
  <rect class="cls-6" x="721.64" y="1570.53" width="261.75" height="35.08" transform="translate(-735.55 2440.58) rotate(-90)"/>
  <rect class="cls-19" x="847.36" y="1629.03" width="144.74" height="35.08" transform="translate(-726.85 2566.3) rotate(-90)"/>
  <rect class="cls-5" x="830.06" y="1544.53" width="313.76" height="35.08" transform="translate(-575.13 2549.01) rotate(-90)"/>
  <rect class="cls-13" x="940.61" y="1587.86" width="227.08" height="35.08" transform="translate(-551.25 2659.56) rotate(-90)"/>
  <rect class="cls-2" x="994.1" y="1574.14" width="254.53" height="35.08" transform="translate(-470.32 2713.04) rotate(-90)"/>
  <rect class="cls-18" x="1089.48" y="1600.86" width="198.19" height="35.08" transform="translate(-429.83 2806.98) rotate(-90)"/>
  <rect class="cls-11" x="1148.02" y="1592.2" width="215.53" height="35.08" transform="translate(-353.95 2865.53) rotate(-90)"/>
  <rect class="cls-15" x="1226.79" y="1603.75" width="192.41" height="35.08" transform="translate(-298.29 2944.29) rotate(-90)"/>
  <rect class="cls-3" x="1320.01" y="1629.76" width="140.41" height="35.08" transform="translate(-257.08 3037.51) rotate(-90)"/>
  <rect class="cls-22" x="1327.99" y="1570.53" width="258.86" height="35.08" transform="translate(-130.64 3045.49) rotate(-90)"/>
  <g>
    <path class="cls-39" d="M1712.88,1392.09l-28.69,56.34-40.18,78.89-.31-.55-65.95,60.42-44.81,41.05c-16.96-20.34-29.06-45.6-33.99-74.13-4.48-25.93-2.5-51.51,4.72-74.94l59.11,19.97,80.71,27.26-44.56-78.2-30.36-53.28c-43.56,26.85-72.81,76.51-72.81,133.35,0,85.37,65.97,154.57,147.36,154.57s147.36-69.2,147.36-154.57c0-58.89-31.39-110.08-77.58-136.17Zm-69.08,289.94c-25.12,0-48.77-6.6-69.46-18.23l29.26-57.45,40.18-78.89,45.09,79.13,30.53,53.57c-22.1,13.88-47.96,21.87-75.6,21.87Z"/>
    <path class="cls-56" d="M1640.99,1530.03l-40.18,78.89-29.26,57.45c20.7,11.63,44.34,18.23,69.46,18.23,27.64,0,53.49-7.99,75.6-21.87l-30.53-53.57-45.09-79.13Z"/>
    <path class="cls-48" d="M1642.08,1522.54l.46,.15-.24,.22,.31,.55,40.18-78.89,28.69-56.34c-20.77-11.74-44.53-18.4-69.78-18.4-27.2,0-52.68,7.74-74.55,21.22l30.36,53.28,44.56,78.2Z"/>
    <path class="cls-43" d="M1558.62,1498.17l-59.11-19.97c-7.22,23.43-9.2,49.02-4.72,74.94,4.92,28.53,17.03,53.79,33.99,74.13l44.81-41.05,65.95-60.42-.21-.38-80.71-27.26Z"/>
    <path class="cls-7" d="M1646.95,1529.56l85.17,4.26,62.03,3.1c1.14-24.6-3.31-49.84-14.08-73.64-11.85-26.19-29.81-47.27-51.24-62.27l-33.06,51.89-48.83,76.65Z"/>
  </g>
  <g>
    <text class="cls-28" transform="translate(813.78 1089.22) scale(.6 1)"><tspan x="0" y="0">WEB P</tspan><tspan class="cls-33" x="666.95" y="0">R</tspan><tspan class="cls-51" x="806.8" y="0">OJ</tspan><tspan class="cls-42" x="1074.63" y="0">E</tspan><tspan x="1202.61" y="0">T</tspan></text>
    <g>
      <path class="cls-32" d="M839.34,1093.26l-22.89-160.04h23.31l7.29,66.01c2.15,19,4.15,39.65,5.72,55.8h.29c1.57-17.33,3.86-36.57,6.29-56.27l8.15-65.53h23.17l7.72,67.43c2.15,18.76,3.72,35.85,5.15,53.66h.29c1.43-17.81,3.58-36.57,5.58-55.56l7.87-65.53h22.17l-24.89,160.04h-23.6l-8.15-68.86c-1.86-16.15-3.43-31.1-4.58-49.39h-.29c-1.72,18.05-3.29,33.24-5.58,49.39l-9.15,68.86h-23.89Z"/>
      <polygon class="cls-32" points="1008.11 1025.58 972.64 1025.58 972.64 1063.57 1012.26 1063.57 1012.26 1093.26 950.76 1093.26 950.76 933.22 1010.26 933.22 1010.26 962.9 972.64 962.9 972.64 996.14 1008.11 996.14 1008.11 1025.58"/>
      <path class="cls-32" d="M1048.74,996.62h7.15c11.44,0,17.59-7.84,17.59-19.71s-5.58-18.52-15.45-18.52c-4.72,0-7.44,.48-9.3,.95v37.28Zm-21.6-61.26c5.72-1.9,17.31-3.32,28.18-3.32,13.3,0,21.28,2.33,28.46,9.02,6.56,6.11,11.59,16.86,11.59,31.34s-5.01,27.54-15.88,34.19v.47c11.01,4.99,19.17,18.76,19.17,39.42,0,14.48-3.97,25.91-10.01,33.95-6.97,9.29-18.74,14.48-37.9,14.48-10.73,0-18.74-1.19-23.6-2.37v-157.19Zm21.6,132.26c2.15,.47,4.72,.47,8.44,.47,9.87,0,18.59-6.17,18.59-23.03s-8.72-22.56-19.6-22.56h-7.44v45.11Z"/>
      <path class="cls-32" d="M1164.02,1008.01c1.86,.71,4.15,.95,7.29,.95,11.59,0,18.74-9.73,18.74-26.12,0-14.72-6.15-23.51-17.02-23.51-4.43,0-7.44,.71-9.01,1.42v47.25Zm-21.6-72.66c6.72-1.9,16.16-3.32,29.46-3.32s23.01,4.29,29.47,12.82c6.13,8.09,10.3,21.37,10.3,37.04s-3.15,28.97-8.87,37.99c-7.44,11.63-18.45,16.86-31.33,16.86-2.86,0-5.44-.24-7.44-.71v57.22h-21.6v-157.9Z"/>
      <path class="cls-32" d="M1247.12,1004.21h8.58c10.87,0,17.31-9.02,17.31-23.03,0-14.72-6.01-22.2-16.02-22.32-5.29-.06-8.3,.71-9.87,1.19v44.16Zm-21.6-68.86c7.01-1.9,17.45-3.32,29.04-3.32,14.3,0,24.34,3.54,31.18,12.58,5.74,7.58,8.87,18.76,8.87,33.48,0,20.42-8.72,34.43-17.02,39.42v.71c6.72,4.51,10.44,15.2,12.87,29.92,3,18.05,6.01,38.94,7.87,45.11h-22.31c-1.57-4.51-4.02-17.55-6.72-37.28s-6.72-25.41-15.59-25.64h-6.58v62.92h-21.6v-157.9Z"/>
      <path class="cls-32" d="M1328.36,1013.71c0,31.34,8.87,53.42,23.46,53.42s23.17-23.27,23.17-54.38c0-28.73-8.3-53.42-23.32-53.42s-23.31,23.27-23.31,54.37Zm69.66-2.14c0,52.47-19.17,84.29-47.34,84.29s-45.34-35.85-45.34-81.44c0-47.96,18.45-83.82,46.92-83.82s45.77,36.8,45.77,80.97Z"/>
      <path class="cls-32" d="M1431.2,933.22h21.74v101.15c0,45.59-13.16,61.5-34.33,61.5-5.01,0-11.59-1.42-15.88-3.8l2.43-29.21c3,1.66,6.87,2.85,11.16,2.85,9.15,0,14.88-6.89,14.88-31.82v-100.68Z"/>
      <polygon class="cls-32" points="1528.47 1025.58 1492.99 1025.58 1492.99 1063.57 1532.61 1063.57 1532.61 1093.26 1471.11 1093.26 1471.11 933.22 1530.61 933.22 1530.61 962.9 1492.99 962.9 1492.99 996.14 1528.47 996.14 1528.47 1025.58"/>
      <polygon class="cls-32" points="1566.8 963.61 1540.91 963.61 1540.91 933.22 1615 933.22 1615 963.61 1588.68 963.61 1588.68 1093.26 1566.8 1093.26 1566.8 963.61"/>
    </g>
    <g>
      <path class="cls-41" d="M839.86,1097.29l-22.89-160.04h23.31l7.29,66.01c2.15,19,4.15,39.65,5.72,55.8h.29c1.57-17.33,3.86-36.57,6.29-56.27l8.15-65.53h23.17l7.72,67.43c2.15,18.76,3.72,35.85,5.15,53.66h.29c1.43-17.81,3.58-36.57,5.58-55.56l7.87-65.53h22.17l-24.89,160.04h-23.6l-8.15-68.86c-1.86-16.15-3.43-31.1-4.58-49.39h-.29c-1.72,18.05-3.29,33.24-5.58,49.39l-9.15,68.86h-23.89Z"/>
      <polygon class="cls-41" points="1008.64 1029.62 973.17 1029.62 973.17 1067.61 1012.79 1067.61 1012.79 1097.29 951.28 1097.29 951.28 937.26 1010.78 937.26 1010.78 966.94 973.17 966.94 973.17 1000.18 1008.64 1000.18 1008.64 1029.62"/>
      <path class="cls-41" d="M1049.26,1000.65h7.15c11.44,0,17.59-7.84,17.59-19.71s-5.58-18.52-15.45-18.52c-4.72,0-7.44,.48-9.3,.95v37.28Zm-21.6-61.26c5.72-1.9,17.31-3.32,28.18-3.32,13.3,0,21.28,2.33,28.46,9.02,6.56,6.11,11.59,16.86,11.59,31.34s-5.01,27.54-15.88,34.19v.47c11.01,4.99,19.17,18.76,19.17,39.42,0,14.48-3.97,25.91-10.01,33.95-6.97,9.29-18.74,14.48-37.9,14.48-10.73,0-18.74-1.19-23.6-2.37v-157.19Zm21.6,132.26c2.15,.47,4.72,.47,8.44,.47,9.87,0,18.59-6.17,18.59-23.03s-8.72-22.56-19.6-22.56h-7.44v45.11Z"/>
      <path class="cls-41" d="M1164.54,1012.05c1.86,.71,4.15,.95,7.29,.95,11.59,0,18.74-9.73,18.74-26.12,0-14.72-6.15-23.51-17.02-23.51-4.43,0-7.44,.71-9.01,1.42v47.25Zm-21.6-72.66c6.72-1.9,16.16-3.32,29.46-3.32s23.01,4.29,29.47,12.82c6.13,8.09,10.3,21.37,10.3,37.04s-3.15,28.97-8.87,37.99c-7.44,11.63-18.45,16.86-31.33,16.86-2.86,0-5.44-.24-7.44-.71v57.22h-21.6v-157.9Z"/>
      <path class="cls-41" d="M1247.65,1008.25h8.58c10.87,0,17.31-9.02,17.31-23.03,0-14.72-6.01-22.2-16.02-22.32-5.29-.06-8.3,.71-9.87,1.19v44.16Zm-21.6-68.86c7.01-1.9,17.45-3.32,29.04-3.32,14.3,0,24.34,3.54,31.18,12.58,5.74,7.58,8.87,18.76,8.87,33.48,0,20.42-8.72,34.43-17.02,39.42v.71c6.72,4.51,10.44,15.2,12.87,29.92,3,18.05,6.01,38.94,7.87,45.11h-22.31c-1.57-4.51-4.02-17.55-6.72-37.28-2.73-19.92-6.72-25.41-15.59-25.64h-6.58v62.92h-21.6v-157.9Z"/>
      <path class="cls-41" d="M1328.89,1017.75c0,31.34,8.87,53.42,23.46,53.42s23.17-23.27,23.17-54.38c0-28.73-8.3-53.42-23.32-53.42s-23.31,23.27-23.31,54.37Zm69.66-2.14c0,52.47-19.17,84.29-47.34,84.29s-45.34-35.85-45.34-81.44c0-47.96,18.45-83.82,46.92-83.82s45.77,36.8,45.77,80.97Z"/>
      <path class="cls-41" d="M1431.73,937.26h21.74v101.15c0,45.59-13.16,61.5-34.33,61.5-5.01,0-11.59-1.42-15.88-3.8l2.43-29.21c3,1.66,6.87,2.85,11.16,2.85,9.15,0,14.88-6.89,14.88-31.82v-100.68Z"/>
      <polygon class="cls-41" points="1528.99 1029.62 1493.52 1029.62 1493.52 1067.61 1533.14 1067.61 1533.14 1097.29 1471.63 1097.29 1471.63 937.26 1531.14 937.26 1531.14 966.94 1493.52 966.94 1493.52 1000.18 1528.99 1000.18 1528.99 1029.62"/>
      <polygon class="cls-41" points="1567.32 967.65 1541.43 967.65 1541.43 937.26 1615.53 937.26 1615.53 967.65 1589.21 967.65 1589.21 1097.29 1567.32 1097.29 1567.32 967.65"/>
    </g>
    <g>
      <path class="cls-40" d="M840.39,1101.33l-22.89-160.04h23.31l7.29,66.01c2.15,19,4.15,39.65,5.72,55.8h.29c1.57-17.33,3.86-36.57,6.29-56.27l8.15-65.53h23.17l7.72,67.43c2.15,18.76,3.72,35.85,5.15,53.66h.29c1.43-17.81,3.58-36.57,5.58-55.56l7.87-65.53h22.17l-24.89,160.04h-23.6l-8.15-68.86c-1.86-16.15-3.43-31.1-4.58-49.39h-.29c-1.72,18.05-3.29,33.24-5.58,49.39l-9.15,68.86h-23.89Z"/>
      <polygon class="cls-40" points="1009.16 1033.66 973.69 1033.66 973.69 1071.65 1013.31 1071.65 1013.31 1101.33 951.81 1101.33 951.81 941.29 1011.31 941.29 1011.31 970.97 973.69 970.97 973.69 1004.21 1009.16 1004.21 1009.16 1033.66"/>
      <path class="cls-40" d="M1049.78,1004.69h7.15c11.44,0,17.59-7.84,17.59-19.71s-5.58-18.52-15.45-18.52c-4.72,0-7.44,.48-9.3,.95v37.28Zm-21.6-61.26c5.72-1.9,17.31-3.32,28.18-3.32,13.3,0,21.28,2.33,28.46,9.02,6.56,6.11,11.59,16.86,11.59,31.34s-5.01,27.54-15.88,34.19v.47c11.01,4.99,19.17,18.76,19.17,39.42,0,14.48-3.97,25.91-10.01,33.95-6.97,9.29-18.74,14.48-37.9,14.48-10.73,0-18.74-1.19-23.6-2.37v-157.19Zm21.6,132.26c2.15,.47,4.72,.47,8.44,.47,9.87,0,18.59-6.17,18.59-23.03s-8.72-22.56-19.6-22.56h-7.44v45.11Z"/>
      <path class="cls-40" d="M1165.07,1016.09c1.86,.71,4.15,.95,7.29,.95,11.59,0,18.74-9.73,18.74-26.12,0-14.72-6.15-23.51-17.02-23.51-4.43,0-7.44,.71-9.01,1.42v47.25Zm-21.6-72.66c6.72-1.9,16.16-3.32,29.46-3.32s23.01,4.29,29.47,12.82c6.13,8.09,10.3,21.37,10.3,37.04s-3.15,28.97-8.87,37.99c-7.44,11.63-18.45,16.86-31.33,16.86-2.86,0-5.44-.24-7.44-.71v57.22h-21.6v-157.9Z"/>
      <path class="cls-40" d="M1248.17,1012.29h8.58c10.87,0,17.31-9.02,17.31-23.03,0-14.72-6.01-22.2-16.02-22.32-5.29-.06-8.3,.71-9.87,1.19v44.16Zm-21.6-68.86c7.01-1.9,17.45-3.32,29.04-3.32,14.3,0,24.34,3.54,31.18,12.58,5.74,7.58,8.87,18.76,8.87,33.48,0,20.42-8.72,34.43-17.02,39.42v.71c6.72,4.51,10.44,15.2,12.87,29.92,3,18.05,6.01,38.94,7.87,45.11h-22.31c-1.57-4.51-4.02-17.55-6.72-37.28s-6.72-25.41-15.59-25.64h-6.58v62.92h-21.6v-157.9Z"/>
      <path class="cls-40" d="M1329.41,1021.78c0,31.34,8.87,53.42,23.46,53.42s23.17-23.27,23.17-54.38c0-28.73-8.3-53.42-23.32-53.42s-23.31,23.27-23.31,54.37Zm69.66-2.14c0,52.47-19.17,84.29-47.34,84.29s-45.34-35.85-45.34-81.44c0-47.96,18.45-83.82,46.92-83.82s45.77,36.8,45.77,80.97Z"/>
      <path class="cls-40" d="M1432.25,941.29h21.74v101.15c0,45.59-13.16,61.5-34.33,61.5-5.01,0-11.59-1.42-15.88-3.8l2.43-29.21c3,1.66,6.87,2.85,11.16,2.85,9.15,0,14.88-6.89,14.88-31.82v-100.68Z"/>
      <polygon class="cls-40" points="1529.52 1033.66 1494.04 1033.66 1494.04 1071.65 1533.66 1071.65 1533.66 1101.33 1472.16 1101.33 1472.16 941.29 1531.66 941.29 1531.66 970.97 1494.04 970.97 1494.04 1004.21 1529.52 1004.21 1529.52 1033.66"/>
      <polygon class="cls-40" points="1567.85 971.68 1541.96 971.68 1541.96 941.29 1616.05 941.29 1616.05 971.68 1589.73 971.68 1589.73 1101.33 1567.85 1101.33 1567.85 971.68"/>
    </g>
    <g>
      <path class="cls-36" d="M840.91,1105.36l-22.89-160.04h23.31l7.29,66.01c2.15,19,4.15,39.65,5.72,55.8h.29c1.57-17.33,3.86-36.57,6.29-56.27l8.15-65.53h23.17l7.72,67.43c2.15,18.76,3.72,35.85,5.15,53.66h.29c1.43-17.81,3.58-36.57,5.58-55.56l7.87-65.53h22.17l-24.89,160.04h-23.6l-8.15-68.86c-1.86-16.15-3.43-31.1-4.58-49.39h-.29c-1.72,18.05-3.29,33.24-5.58,49.39l-9.15,68.86h-23.89Z"/>
      <polygon class="cls-36" points="1009.69 1037.69 974.22 1037.69 974.22 1075.68 1013.84 1075.68 1013.84 1105.36 952.33 1105.36 952.33 945.33 1011.83 945.33 1011.83 975.01 974.22 975.01 974.22 1008.25 1009.69 1008.25 1009.69 1037.69"/>
      <path class="cls-36" d="M1050.31,1008.72h7.15c11.44,0,17.59-7.84,17.59-19.71s-5.58-18.52-15.45-18.52c-4.72,0-7.44,.48-9.3,.95v37.28Zm-21.6-61.26c5.72-1.9,17.31-3.32,28.18-3.32,13.3,0,21.28,2.33,28.46,9.02,6.56,6.11,11.59,16.86,11.59,31.34s-5.01,27.54-15.88,34.19v.47c11.01,4.99,19.17,18.76,19.17,39.42,0,14.48-3.97,25.91-10.01,33.95-6.97,9.29-18.74,14.48-37.9,14.48-10.73,0-18.74-1.19-23.6-2.37v-157.19Zm21.6,132.26c2.15,.47,4.72,.47,8.44,.47,9.87,0,18.59-6.17,18.59-23.03s-8.72-22.56-19.6-22.56h-7.44v45.11Z"/>
      <path class="cls-36" d="M1165.59,1020.12c1.86,.71,4.15,.95,7.29,.95,11.59,0,18.74-9.73,18.74-26.12,0-14.72-6.15-23.51-17.02-23.51-4.43,0-7.44,.71-9.01,1.42v47.25Zm-21.6-72.66c6.72-1.9,16.16-3.32,29.46-3.32s23.01,4.29,29.47,12.82c6.13,8.09,10.3,21.37,10.3,37.04s-3.15,28.97-8.87,37.99c-7.44,11.63-18.45,16.86-31.33,16.86-2.86,0-5.44-.24-7.44-.71v57.22h-21.6v-157.9Z"/>
      <path class="cls-36" d="M1248.7,1016.32h8.58c10.87,0,17.31-9.02,17.31-23.03,0-14.72-6.01-22.2-16.02-22.32-5.29-.06-8.3,.71-9.87,1.19v44.16Zm-21.6-68.86c7.01-1.9,17.45-3.32,29.04-3.32,14.3,0,24.34,3.54,31.18,12.58,5.74,7.58,8.87,18.76,8.87,33.48,0,20.42-8.72,34.43-17.02,39.42v.71c6.72,4.51,10.44,15.2,12.87,29.92,3,18.05,6.01,38.94,7.87,45.11h-22.31c-1.57-4.51-4.02-17.55-6.72-37.28-2.73-19.92-6.72-25.41-15.59-25.64h-6.58v62.92h-21.6v-157.9Z"/>
      <path class="cls-36" d="M1329.94,1025.82c0,31.34,8.87,53.42,23.46,53.42s23.17-23.27,23.17-54.38c0-28.73-8.3-53.42-23.32-53.42s-23.31,23.27-23.31,54.37Zm69.66-2.14c0,52.47-19.17,84.29-47.34,84.29s-45.34-35.85-45.34-81.44c0-47.96,18.45-83.82,46.92-83.82s45.77,36.8,45.77,80.97Z"/>
      <path class="cls-36" d="M1432.78,945.33h21.74v101.15c0,45.59-13.16,61.5-34.33,61.5-5.01,0-11.59-1.42-15.88-3.8l2.43-29.21c3,1.66,6.87,2.85,11.16,2.85,9.15,0,14.88-6.89,14.88-31.82v-100.68Z"/>
      <polygon class="cls-36" points="1530.04 1037.69 1494.57 1037.69 1494.57 1075.68 1534.19 1075.68 1534.19 1105.36 1472.68 1105.36 1472.68 945.33 1532.19 945.33 1532.19 975.01 1494.57 975.01 1494.57 1008.25 1530.04 1008.25 1530.04 1037.69"/>
      <polygon class="cls-36" points="1568.37 975.72 1542.48 975.72 1542.48 945.33 1616.58 945.33 1616.58 975.72 1590.26 975.72 1590.26 1105.36 1568.37 1105.36 1568.37 975.72"/>
    </g>
    <g>
      <path class="cls-30" d="M841.43,1109.4l-22.89-160.04h23.31l7.29,66.01c2.15,19,4.15,39.65,5.72,55.8h.29c1.57-17.33,3.86-36.57,6.29-56.27l8.15-65.53h23.17l7.72,67.43c2.15,18.76,3.72,35.85,5.15,53.66h.29c1.43-17.81,3.58-36.57,5.58-55.56l7.87-65.53h22.17l-24.89,160.04h-23.6l-8.15-68.86c-1.86-16.15-3.43-31.1-4.58-49.39h-.29c-1.72,18.05-3.29,33.24-5.58,49.39l-9.15,68.86h-23.89Z"/>
      <polygon class="cls-30" points="1010.21 1041.73 974.74 1041.73 974.74 1079.72 1014.36 1079.72 1014.36 1109.4 952.86 1109.4 952.86 949.36 1012.36 949.36 1012.36 979.04 974.74 979.04 974.74 1012.28 1010.21 1012.28 1010.21 1041.73"/>
      <path class="cls-30" d="M1050.83,1012.76h7.15c11.44,0,17.59-7.84,17.59-19.71s-5.58-18.52-15.45-18.52c-4.72,0-7.44,.47-9.3,.95v37.28Zm-21.6-61.26c5.72-1.9,17.31-3.32,28.18-3.32,13.3,0,21.28,2.33,28.46,9.02,6.56,6.11,11.59,16.86,11.59,31.34s-5.01,27.54-15.88,34.19v.47c11.01,4.99,19.17,18.76,19.17,39.42,0,14.48-3.97,25.91-10.01,33.95-6.97,9.29-18.74,14.48-37.9,14.48-10.73,0-18.74-1.19-23.6-2.37v-157.19Zm21.6,132.26c2.15,.47,4.72,.47,8.44,.47,9.87,0,18.59-6.17,18.59-23.03s-8.72-22.56-19.6-22.56h-7.44v45.11Z"/>
      <path class="cls-30" d="M1166.12,1024.16c1.86,.71,4.15,.95,7.29,.95,11.59,0,18.74-9.73,18.74-26.12,0-14.72-6.15-23.51-17.02-23.51-4.43,0-7.44,.71-9.01,1.42v47.25Zm-21.6-72.66c6.72-1.9,16.16-3.32,29.46-3.32s23.01,4.29,29.47,12.82c6.13,8.09,10.3,21.37,10.3,37.04s-3.15,28.97-8.87,37.99c-7.44,11.63-18.45,16.86-31.33,16.86-2.86,0-5.44-.24-7.44-.71v57.22h-21.6v-157.9Z"/>
      <path class="cls-30" d="M1249.22,1020.36h8.58c10.87,0,17.31-9.02,17.31-23.03,0-14.72-6.01-22.2-16.02-22.32-5.29-.06-8.3,.71-9.87,1.19v44.16Zm-21.6-68.86c7.01-1.9,17.45-3.32,29.04-3.32,14.3,0,24.34,3.54,31.18,12.58,5.74,7.58,8.87,18.76,8.87,33.48,0,20.42-8.72,34.43-17.02,39.42v.71c6.72,4.51,10.44,15.2,12.87,29.92,3,18.05,6.01,38.94,7.87,45.11h-22.31c-1.57-4.51-4.02-17.55-6.72-37.28s-6.72-25.41-15.59-25.64h-6.58v62.92h-21.6v-157.9Z"/>
      <path class="cls-30" d="M1330.46,1029.86c0,31.34,8.87,53.42,23.46,53.42s23.17-23.27,23.17-54.38c0-28.73-8.3-53.42-23.32-53.42s-23.31,23.27-23.31,54.37Zm69.66-2.14c0,52.47-19.17,84.29-47.34,84.29s-45.34-35.85-45.34-81.44c0-47.96,18.45-83.82,46.92-83.82s45.77,36.8,45.77,80.97Z"/>
      <path class="cls-30" d="M1433.3,949.36h21.74v101.15c0,45.59-13.16,61.5-34.33,61.5-5.01,0-11.59-1.42-15.88-3.8l2.43-29.21c3,1.66,6.87,2.85,11.16,2.85,9.15,0,14.88-6.89,14.88-31.82v-100.68Z"/>
      <polygon class="cls-30" points="1530.57 1041.73 1495.09 1041.73 1495.09 1079.72 1534.71 1079.72 1534.71 1109.4 1473.21 1109.4 1473.21 949.36 1532.71 949.36 1532.71 979.04 1495.09 979.04 1495.09 1012.28 1530.57 1012.28 1530.57 1041.73"/>
      <polygon class="cls-30" points="1568.9 979.75 1543.01 979.75 1543.01 949.36 1617.1 949.36 1617.1 979.75 1590.78 979.75 1590.78 1109.4 1568.9 1109.4 1568.9 979.75"/>
    </g>
    <g>
      <path class="cls-47" d="M841.96,1113.43l-22.89-160.04h23.31l7.29,66.01c2.15,19,4.15,39.65,5.72,55.8h.29c1.57-17.33,3.86-36.57,6.29-56.27l8.15-65.53h23.17l7.72,67.43c2.15,18.76,3.72,35.85,5.15,53.66h.29c1.43-17.81,3.58-36.57,5.58-55.56l7.87-65.53h22.17l-24.89,160.04h-23.6l-8.15-68.86c-1.86-16.15-3.43-31.1-4.58-49.39h-.29c-1.72,18.05-3.29,33.24-5.58,49.39l-9.15,68.86h-23.89Z"/>
      <polygon class="cls-47" points="1010.74 1045.76 975.27 1045.76 975.27 1083.75 1014.89 1083.75 1014.89 1113.43 953.38 1113.43 953.38 953.4 1012.88 953.4 1012.88 983.08 975.27 983.08 975.27 1016.32 1010.74 1016.32 1010.74 1045.76"/>
      <path class="cls-47" d="M1051.36,1016.8h7.15c11.44,0,17.59-7.84,17.59-19.71s-5.58-18.52-15.45-18.52c-4.72,0-7.44,.47-9.3,.95v37.28Zm-21.6-61.26c5.72-1.9,17.31-3.32,28.18-3.32,13.3,0,21.28,2.33,28.46,9.02,6.56,6.11,11.59,16.86,11.59,31.34s-5.01,27.54-15.88,34.19v.47c11.01,4.99,19.17,18.76,19.17,39.42,0,14.48-3.97,25.91-10.01,33.95-6.97,9.29-18.74,14.48-37.9,14.48-10.73,0-18.74-1.19-23.6-2.37v-157.19Zm21.6,132.26c2.15,.47,4.72,.47,8.44,.47,9.87,0,18.59-6.17,18.59-23.03s-8.72-22.56-19.6-22.56h-7.44v45.11Z"/>
      <path class="cls-47" d="M1166.64,1028.19c1.86,.71,4.15,.95,7.29,.95,11.59,0,18.74-9.74,18.74-26.12,0-14.72-6.15-23.51-17.02-23.51-4.43,0-7.44,.71-9.01,1.42v47.25Zm-21.6-72.66c6.72-1.9,16.16-3.32,29.46-3.32s23.01,4.29,29.47,12.82c6.13,8.09,10.3,21.37,10.3,37.04s-3.15,28.97-8.87,37.99c-7.44,11.63-18.45,16.86-31.33,16.86-2.86,0-5.44-.24-7.44-.71v57.22h-21.6v-157.9Z"/>
      <path class="cls-47" d="M1249.74,1024.39h8.58c10.87,0,17.31-9.02,17.31-23.03,0-14.72-6.01-22.2-16.02-22.32-5.29-.06-8.3,.71-9.87,1.19v44.16Zm-21.6-68.86c7.01-1.9,17.45-3.32,29.04-3.32,14.3,0,24.34,3.54,31.18,12.58,5.74,7.58,8.87,18.76,8.87,33.48,0,20.42-8.72,34.43-17.02,39.42v.71c6.72,4.51,10.44,15.2,12.87,29.92,3,18.05,6.01,38.94,7.87,45.11h-22.31c-1.57-4.51-4.02-17.55-6.72-37.28s-6.72-25.41-15.59-25.64h-6.58v62.92h-21.6v-157.9Z"/>
      <path class="cls-47" d="M1330.99,1033.89c0,31.34,8.87,53.42,23.46,53.42s23.17-23.27,23.17-54.38c0-28.73-8.3-53.42-23.32-53.42s-23.31,23.27-23.31,54.37Zm69.66-2.14c0,52.47-19.17,84.29-47.34,84.29s-45.34-35.85-45.34-81.44c0-47.96,18.45-83.82,46.92-83.82s45.77,36.8,45.77,80.97Z"/>
      <path class="cls-47" d="M1433.83,953.4h21.74v101.15c0,45.59-13.16,61.5-34.33,61.5-5.01,0-11.59-1.42-15.88-3.8l2.43-29.21c3,1.66,6.87,2.85,11.16,2.85,9.15,0,14.88-6.89,14.88-31.82v-100.68Z"/>
      <polygon class="cls-47" points="1531.09 1045.76 1495.62 1045.76 1495.62 1083.75 1535.24 1083.75 1535.24 1113.43 1473.73 1113.43 1473.73 953.4 1533.24 953.4 1533.24 983.08 1495.62 983.08 1495.62 1016.32 1531.09 1016.32 1531.09 1045.76"/>
      <polygon class="cls-47" points="1569.42 983.79 1543.53 983.79 1543.53 953.4 1617.62 953.4 1617.62 983.79 1591.31 983.79 1591.31 1113.43 1569.42 1113.43 1569.42 983.79"/>
    </g>
    <g>
      <path class="cls-27" d="M842.48,1117.47l-22.89-160.04h23.31l7.29,66.01c2.15,19,4.15,39.65,5.72,55.8h.29c1.57-17.33,3.86-36.57,6.29-56.27l8.15-65.53h23.17l7.72,67.43c2.15,18.76,3.72,35.85,5.15,53.66h.29c1.43-17.81,3.58-36.57,5.58-55.56l7.87-65.53h22.17l-24.89,160.04h-23.6l-8.15-68.86c-1.86-16.15-3.43-31.1-4.58-49.39h-.29c-1.72,18.05-3.29,33.24-5.58,49.39l-9.15,68.86h-23.89Z"/>
      <polygon class="cls-27" points="1011.26 1049.8 975.79 1049.8 975.79 1087.79 1015.41 1087.79 1015.41 1117.47 953.91 1117.47 953.91 957.43 1013.41 957.43 1013.41 987.11 975.79 987.11 975.79 1020.36 1011.26 1020.36 1011.26 1049.8"/>
      <path class="cls-27" d="M1051.88,1020.83h7.15c11.44,0,17.59-7.84,17.59-19.71s-5.58-18.52-15.45-18.52c-4.72,0-7.44,.47-9.3,.95v37.28Zm-21.6-61.26c5.72-1.9,17.31-3.32,28.18-3.32,13.3,0,21.28,2.33,28.46,9.02,6.56,6.11,11.59,16.86,11.59,31.34s-5.01,27.54-15.88,34.19v.47c11.01,4.99,19.17,18.76,19.17,39.42,0,14.48-3.97,25.91-10.01,33.95-6.97,9.29-18.74,14.48-37.9,14.48-10.73,0-18.74-1.19-23.6-2.37v-157.19Zm21.6,132.26c2.15,.47,4.72,.47,8.44,.47,9.87,0,18.59-6.17,18.59-23.03s-8.72-22.56-19.6-22.56h-7.44v45.11Z"/>
      <path class="cls-27" d="M1167.17,1032.23c1.86,.71,4.15,.95,7.29,.95,11.59,0,18.74-9.74,18.74-26.12,0-14.72-6.15-23.51-17.02-23.51-4.43,0-7.44,.71-9.01,1.42v47.25Zm-21.6-72.66c6.72-1.9,16.16-3.32,29.46-3.32s23.01,4.29,29.47,12.82c6.13,8.09,10.3,21.37,10.3,37.04s-3.15,28.97-8.87,37.99c-7.44,11.63-18.45,16.86-31.33,16.86-2.86,0-5.44-.24-7.44-.71v57.22h-21.6v-157.9Z"/>
      <path class="cls-27" d="M1250.27,1028.43h8.58c10.87,0,17.31-9.02,17.31-23.03,0-14.72-6.01-22.2-16.02-22.32-5.29-.06-8.3,.71-9.87,1.19v44.16Zm-21.6-68.86c7.01-1.9,17.45-3.32,29.04-3.32,14.3,0,24.34,3.54,31.18,12.58,5.74,7.58,8.87,18.76,8.87,33.48,0,20.42-8.72,34.43-17.02,39.42v.71c6.72,4.51,10.44,15.2,12.87,29.92,3,18.05,6.01,38.94,7.87,45.11h-22.31c-1.57-4.51-4.02-17.55-6.72-37.28-2.73-19.92-6.72-25.41-15.59-25.64h-6.58v62.92h-21.6v-157.9Z"/>
      <path class="cls-27" d="M1331.51,1037.93c0,31.34,8.87,53.42,23.46,53.42s23.17-23.27,23.17-54.38c0-28.73-8.3-53.42-23.32-53.42s-23.31,23.27-23.31,54.37Zm69.66-2.14c0,52.47-19.17,84.29-47.34,84.29s-45.34-35.85-45.34-81.44c0-47.96,18.45-83.82,46.92-83.82s45.77,36.8,45.77,80.97Z"/>
      <path class="cls-27" d="M1434.35,957.43h21.74v101.15c0,45.59-13.16,61.5-34.33,61.5-5.01,0-11.59-1.42-15.88-3.8l2.43-29.21c3,1.66,6.87,2.85,11.16,2.85,9.15,0,14.88-6.89,14.88-31.82v-100.68Z"/>
      <polygon class="cls-27" points="1531.61 1049.8 1496.14 1049.8 1496.14 1087.79 1535.76 1087.79 1535.76 1117.47 1474.26 1117.47 1474.26 957.43 1533.76 957.43 1533.76 987.11 1496.14 987.11 1496.14 1020.36 1531.61 1020.36 1531.61 1049.8"/>
      <polygon class="cls-27" points="1569.95 987.83 1544.06 987.83 1544.06 957.43 1618.15 957.43 1618.15 987.83 1591.83 987.83 1591.83 1117.47 1569.95 1117.47 1569.95 987.83"/>
    </g>
    <g>
      <path class="cls-46" d="M843.01,1121.51l-22.89-160.04h23.31l7.29,66.01c2.15,19,4.15,39.65,5.72,55.8h.29c1.57-17.33,3.86-36.57,6.29-56.27l8.15-65.53h23.17l7.72,67.43c2.15,18.76,3.72,35.85,5.15,53.66h.29c1.43-17.81,3.58-36.57,5.58-55.56l7.87-65.53h22.17l-24.89,160.04h-23.6l-8.15-68.86c-1.86-16.15-3.43-31.1-4.58-49.39h-.29c-1.72,18.05-3.29,33.24-5.58,49.39l-9.15,68.86h-23.89Z"/>
      <polygon class="cls-46" points="1011.79 1053.83 976.31 1053.83 976.31 1091.82 1015.94 1091.82 1015.94 1121.51 954.43 1121.51 954.43 961.47 1013.93 961.47 1013.93 991.15 976.31 991.15 976.31 1024.39 1011.79 1024.39 1011.79 1053.83"/>
      <path class="cls-46" d="M1052.41,1024.87h7.15c11.44,0,17.59-7.84,17.59-19.71s-5.58-18.52-15.45-18.52c-4.72,0-7.44,.47-9.3,.95v37.28Zm-21.6-61.26c5.72-1.9,17.31-3.32,28.18-3.32,13.3,0,21.28,2.33,28.46,9.02,6.56,6.11,11.59,16.86,11.59,31.34s-5.01,27.54-15.88,34.19v.47c11.01,4.99,19.17,18.76,19.17,39.42,0,14.48-3.97,25.91-10.01,33.95-6.97,9.29-18.74,14.48-37.9,14.48-10.73,0-18.74-1.19-23.6-2.37v-157.19Zm21.6,132.26c2.15,.47,4.72,.47,8.44,.47,9.87,0,18.59-6.17,18.59-23.03s-8.72-22.56-19.6-22.56h-7.44v45.11Z"/>
      <path class="cls-46" d="M1167.69,1036.26c1.86,.71,4.15,.95,7.29,.95,11.59,0,18.74-9.74,18.74-26.12,0-14.72-6.15-23.51-17.02-23.51-4.43,0-7.44,.71-9.01,1.42v47.25Zm-21.6-72.66c6.72-1.9,16.16-3.32,29.46-3.32s23.01,4.29,29.47,12.82c6.13,8.09,10.3,21.37,10.3,37.04s-3.15,28.97-8.87,37.99c-7.44,11.63-18.45,16.86-31.33,16.86-2.86,0-5.44-.24-7.44-.71v57.22h-21.6v-157.9Z"/>
      <path class="cls-46" d="M1250.79,1032.46h8.58c10.87,0,17.31-9.02,17.31-23.03,0-14.72-6.01-22.2-16.02-22.32-5.29-.06-8.3,.71-9.87,1.19v44.16Zm-21.6-68.86c7.01-1.9,17.45-3.32,29.04-3.32,14.3,0,24.34,3.54,31.18,12.58,5.74,7.58,8.87,18.76,8.87,33.48,0,20.42-8.72,34.43-17.02,39.42v.71c6.72,4.51,10.44,15.2,12.87,29.92,3,18.05,6.01,38.94,7.87,45.11h-22.31c-1.57-4.51-4.02-17.55-6.72-37.28s-6.72-25.41-15.59-25.64h-6.58v62.92h-21.6v-157.9Z"/>
      <path class="cls-46" d="M1332.04,1041.96c0,31.34,8.87,53.42,23.46,53.42s23.17-23.27,23.17-54.38c0-28.73-8.3-53.42-23.32-53.42s-23.31,23.27-23.31,54.37Zm69.66-2.14c0,52.47-19.17,84.29-47.34,84.29s-45.34-35.85-45.34-81.44c0-47.96,18.45-83.82,46.92-83.82s45.77,36.8,45.77,80.97Z"/>
      <path class="cls-46" d="M1434.88,961.47h21.74v101.15c0,45.59-13.16,61.5-34.33,61.5-5.01,0-11.59-1.42-15.88-3.8l2.43-29.21c3,1.66,6.87,2.85,11.16,2.85,9.15,0,14.88-6.89,14.88-31.82v-100.68Z"/>
      <polygon class="cls-46" points="1532.14 1053.83 1496.67 1053.83 1496.67 1091.82 1536.29 1091.82 1536.29 1121.51 1474.78 1121.51 1474.78 961.47 1534.29 961.47 1534.29 991.15 1496.67 991.15 1496.67 1024.39 1532.14 1024.39 1532.14 1053.83"/>
      <polygon class="cls-46" points="1570.47 991.86 1544.58 991.86 1544.58 961.47 1618.67 961.47 1618.67 991.86 1592.36 991.86 1592.36 1121.51 1570.47 1121.51 1570.47 991.86"/>
    </g>
    <g>
      <path class="cls-54" d="M843.53,1125.54l-22.89-160.04h23.31l7.29,66.01c2.15,19,4.15,39.65,5.72,55.8h.29c1.57-17.33,3.86-36.57,6.29-56.27l8.15-65.53h23.17l7.72,67.43c2.15,18.76,3.72,35.85,5.15,53.66h.29c1.43-17.81,3.58-36.57,5.58-55.56l7.87-65.53h22.17l-24.89,160.04h-23.6l-8.15-68.86c-1.86-16.15-3.43-31.1-4.58-49.39h-.29c-1.72,18.05-3.29,33.24-5.58,49.39l-9.15,68.86h-23.89Z"/>
      <polygon class="cls-54" points="1012.31 1057.87 976.84 1057.87 976.84 1095.86 1016.46 1095.86 1016.46 1125.54 954.95 1125.54 954.95 965.51 1014.46 965.51 1014.46 995.19 976.84 995.19 976.84 1028.43 1012.31 1028.43 1012.31 1057.87"/>
      <path class="cls-54" d="M1052.93,1028.9h7.15c11.44,0,17.59-7.84,17.59-19.71s-5.58-18.52-15.45-18.52c-4.72,0-7.44,.47-9.3,.95v37.28Zm-21.6-61.26c5.72-1.9,17.31-3.32,28.18-3.32,13.3,0,21.28,2.33,28.46,9.02,6.56,6.11,11.59,16.86,11.59,31.34s-5.01,27.54-15.88,34.19v.47c11.01,4.99,19.17,18.76,19.17,39.42,0,14.48-3.97,25.91-10.01,33.95-6.97,9.29-18.74,14.48-37.9,14.48-10.73,0-18.74-1.19-23.6-2.37v-157.19Zm21.6,132.26c2.15,.47,4.72,.47,8.44,.47,9.87,0,18.59-6.17,18.59-23.03s-8.72-22.56-19.6-22.56h-7.44v45.11Z"/>
      <path class="cls-54" d="M1168.22,1040.3c1.86,.71,4.15,.95,7.29,.95,11.59,0,18.74-9.74,18.74-26.12,0-14.72-6.15-23.51-17.02-23.51-4.43,0-7.44,.71-9.01,1.42v47.25Zm-21.6-72.66c6.72-1.9,16.16-3.32,29.46-3.32s23.01,4.29,29.47,12.82c6.13,8.09,10.3,21.37,10.3,37.04s-3.15,28.97-8.87,37.99c-7.44,11.63-18.45,16.86-31.33,16.86-2.86,0-5.44-.24-7.44-.71v57.22h-21.6v-157.9Z"/>
      <path class="cls-54" d="M1251.32,1036.5h8.58c10.87,0,17.31-9.02,17.31-23.03,0-14.72-6.01-22.2-16.02-22.32-5.29-.06-8.3,.71-9.87,1.19v44.16Zm-21.6-68.86c7.01-1.9,17.45-3.32,29.04-3.32,14.3,0,24.34,3.54,31.18,12.58,5.74,7.58,8.87,18.76,8.87,33.48,0,20.42-8.72,34.43-17.02,39.42v.71c6.72,4.51,10.44,15.2,12.87,29.92,3,18.05,6.01,38.94,7.87,45.11h-22.31c-1.57-4.51-4.02-17.55-6.72-37.28s-6.72-25.41-15.59-25.64h-6.58v62.92h-21.6v-157.9Z"/>
      <path class="cls-54" d="M1332.56,1046c0,31.34,8.87,53.42,23.46,53.42s23.17-23.27,23.17-54.38c0-28.73-8.3-53.42-23.32-53.42s-23.31,23.27-23.31,54.37Zm69.66-2.14c0,52.47-19.17,84.29-47.34,84.29s-45.34-35.85-45.34-81.44c0-47.96,18.45-83.82,46.92-83.82s45.77,36.8,45.77,80.97Z"/>
      <path class="cls-54" d="M1435.4,965.51h21.74v101.15c0,45.59-13.16,61.5-34.33,61.5-5.01,0-11.59-1.42-15.88-3.8l2.43-29.21c3,1.66,6.87,2.85,11.16,2.85,9.15,0,14.88-6.89,14.88-31.82v-100.68Z"/>
      <polygon class="cls-54" points="1532.66 1057.87 1497.19 1057.87 1497.19 1095.86 1536.81 1095.86 1536.81 1125.54 1475.31 1125.54 1475.31 965.51 1534.81 965.51 1534.81 995.19 1497.19 995.19 1497.19 1028.43 1532.66 1028.43 1532.66 1057.87"/>
      <polygon class="cls-54" points="1571 995.9 1545.11 995.9 1545.11 965.51 1619.2 965.51 1619.2 995.9 1592.88 995.9 1592.88 1125.54 1571 1125.54 1571 995.9"/>
    </g>
    <g>
      <path class="cls-26" d="M844.06,1129.58l-22.89-160.04h23.31l7.29,66.01c2.15,19,4.15,39.65,5.72,55.8h.29c1.57-17.33,3.86-36.57,6.29-56.27l8.15-65.53h23.17l7.72,67.43c2.15,18.76,3.72,35.85,5.15,53.66h.29c1.43-17.81,3.58-36.57,5.58-55.56l7.87-65.53h22.17l-24.89,160.04h-23.6l-8.15-68.86c-1.86-16.15-3.43-31.1-4.58-49.39h-.29c-1.72,18.05-3.29,33.24-5.58,49.39l-9.15,68.86h-23.89Z"/>
      <polygon class="cls-26" points="1012.84 1061.91 977.36 1061.91 977.36 1099.9 1016.98 1099.9 1016.98 1129.58 955.48 1129.58 955.48 969.54 1014.98 969.54 1014.98 999.22 977.36 999.22 977.36 1032.46 1012.84 1032.46 1012.84 1061.91"/>
      <path class="cls-26" d="M1053.46,1032.94h7.15c11.44,0,17.59-7.84,17.59-19.71s-5.58-18.52-15.45-18.52c-4.72,0-7.44,.47-9.3,.95v37.28Zm-21.6-61.26c5.72-1.9,17.31-3.32,28.18-3.32,13.3,0,21.28,2.33,28.46,9.02,6.56,6.11,11.59,16.86,11.59,31.34s-5.01,27.54-15.88,34.19v.47c11.01,4.99,19.17,18.76,19.17,39.42,0,14.48-3.97,25.91-10.01,33.95-6.97,9.29-18.74,14.48-37.9,14.48-10.73,0-18.74-1.19-23.6-2.37v-157.19Zm21.6,132.26c2.15,.47,4.72,.47,8.44,.47,9.87,0,18.59-6.17,18.59-23.03s-8.72-22.56-19.6-22.56h-7.44v45.11Z"/>
      <path class="cls-26" d="M1168.74,1044.34c1.86,.71,4.15,.95,7.29,.95,11.59,0,18.74-9.74,18.74-26.12,0-14.72-6.15-23.51-17.02-23.51-4.43,0-7.44,.71-9.01,1.42v47.25Zm-21.6-72.66c6.72-1.9,16.16-3.32,29.46-3.32s23.01,4.29,29.47,12.82c6.13,8.09,10.3,21.37,10.3,37.04s-3.15,28.97-8.87,37.99c-7.44,11.63-18.45,16.86-31.33,16.86-2.86,0-5.44-.24-7.44-.71v57.22h-21.6v-157.9Z"/>
      <path class="cls-26" d="M1251.84,1040.54h8.58c10.87,0,17.31-9.02,17.31-23.03,0-14.72-6.01-22.2-16.02-22.32-5.29-.06-8.3,.71-9.87,1.19v44.16Zm-21.6-68.86c7.01-1.9,17.45-3.32,29.04-3.32,14.3,0,24.34,3.54,31.18,12.58,5.74,7.58,8.87,18.76,8.87,33.48,0,20.42-8.72,34.43-17.02,39.42v.71c6.72,4.51,10.44,15.2,12.87,29.92,3,18.05,6.01,38.94,7.87,45.11h-22.31c-1.57-4.51-4.02-17.55-6.72-37.28s-6.72-25.41-15.59-25.64h-6.58v62.92h-21.6v-157.9Z"/>
      <path class="cls-26" d="M1333.08,1050.03c0,31.34,8.87,53.42,23.46,53.42s23.17-23.27,23.17-54.38c0-28.73-8.3-53.42-23.32-53.42s-23.31,23.27-23.31,54.37Zm69.66-2.14c0,52.47-19.17,84.29-47.34,84.29s-45.34-35.85-45.34-81.44c0-47.96,18.45-83.82,46.92-83.82s45.77,36.8,45.77,80.97Z"/>
      <path class="cls-26" d="M1435.93,969.54h21.74v101.15c0,45.59-13.16,61.5-34.33,61.5-5.01,0-11.59-1.42-15.88-3.8l2.43-29.21c3,1.66,6.87,2.85,11.16,2.85,9.15,0,14.88-6.89,14.88-31.82v-100.68Z"/>
      <polygon class="cls-26" points="1533.19 1061.91 1497.72 1061.91 1497.72 1099.9 1537.34 1099.9 1537.34 1129.58 1475.83 1129.58 1475.83 969.54 1535.33 969.54 1535.33 999.22 1497.72 999.22 1497.72 1032.46 1533.19 1032.46 1533.19 1061.91"/>
      <polygon class="cls-26" points="1571.52 999.93 1545.63 999.93 1545.63 969.54 1619.72 969.54 1619.72 999.93 1593.4 999.93 1593.4 1129.58 1571.52 1129.58 1571.52 999.93"/>
    </g>
    <g>
      <path class="cls-34" d="M844.58,1133.61l-22.89-160.04h23.31l7.29,66.01c2.15,19,4.15,39.65,5.72,55.8h.29c1.57-17.33,3.86-36.57,6.29-56.27l8.15-65.53h23.17l7.72,67.43c2.15,18.76,3.72,35.85,5.15,53.66h.29c1.43-17.81,3.58-36.57,5.58-55.56l7.87-65.53h22.17l-24.89,160.04h-23.6l-8.15-68.86c-1.86-16.15-3.43-31.1-4.58-49.39h-.29c-1.72,18.05-3.29,33.24-5.58,49.39l-9.15,68.86h-23.89Z"/>
      <polygon class="cls-34" points="1013.36 1065.94 977.89 1065.94 977.89 1103.93 1017.51 1103.93 1017.51 1133.61 956 1133.61 956 973.58 1015.51 973.58 1015.51 1003.26 977.89 1003.26 977.89 1036.5 1013.36 1036.5 1013.36 1065.94"/>
      <path class="cls-34" d="M1053.98,1036.97h7.15c11.44,0,17.59-7.84,17.59-19.71s-5.58-18.52-15.45-18.52c-4.72,0-7.44,.47-9.3,.95v37.28Zm-21.6-61.26c5.72-1.9,17.31-3.32,28.18-3.32,13.3,0,21.28,2.33,28.46,9.02,6.56,6.11,11.59,16.86,11.59,31.34s-5.01,27.54-15.88,34.19v.47c11.01,4.99,19.17,18.76,19.17,39.42,0,14.48-3.97,25.91-10.01,33.95-6.97,9.29-18.74,14.48-37.9,14.48-10.73,0-18.74-1.19-23.6-2.37v-157.19Zm21.6,132.26c2.15,.47,4.72,.47,8.44,.47,9.87,0,18.59-6.17,18.59-23.03s-8.72-22.56-19.6-22.56h-7.44v45.11Z"/>
      <path class="cls-34" d="M1169.27,1048.37c1.86,.71,4.15,.95,7.29,.95,11.59,0,18.74-9.74,18.74-26.12,0-14.72-6.15-23.51-17.02-23.51-4.43,0-7.44,.71-9.01,1.42v47.25Zm-21.6-72.66c6.72-1.9,16.16-3.32,29.46-3.32s23.01,4.29,29.47,12.82c6.13,8.09,10.3,21.37,10.3,37.04s-3.15,28.97-8.87,37.99c-7.44,11.63-18.45,16.86-31.33,16.86-2.86,0-5.44-.24-7.44-.71v57.22h-21.6v-157.9Z"/>
      <path class="cls-34" d="M1252.37,1044.57h8.58c10.87,0,17.31-9.02,17.31-23.03,0-14.72-6.01-22.2-16.02-22.32-5.29-.06-8.3,.71-9.87,1.19v44.16Zm-21.6-68.86c7.01-1.9,17.45-3.32,29.04-3.32,14.3,0,24.34,3.54,31.18,12.58,5.74,7.58,8.87,18.76,8.87,33.48,0,20.42-8.72,34.43-17.02,39.42v.71c6.72,4.51,10.44,15.2,12.87,29.92,3,18.05,6.01,38.94,7.87,45.11h-22.31c-1.57-4.51-4.02-17.55-6.72-37.28s-6.72-25.41-15.59-25.64h-6.58v62.92h-21.6v-157.9Z"/>
      <path class="cls-34" d="M1333.61,1054.07c0,31.34,8.87,53.42,23.46,53.42s23.17-23.27,23.17-54.38c0-28.73-8.3-53.42-23.32-53.42s-23.31,23.27-23.31,54.37Zm69.66-2.14c0,52.47-19.17,84.29-47.34,84.29s-45.34-35.85-45.34-81.44c0-47.96,18.45-83.82,46.92-83.82s45.77,36.8,45.77,80.97Z"/>
      <path class="cls-34" d="M1436.45,973.58h21.74v101.15c0,45.59-13.16,61.5-34.33,61.5-5.01,0-11.59-1.42-15.88-3.8l2.43-29.21c3,1.66,6.87,2.85,11.16,2.85,9.15,0,14.88-6.89,14.88-31.82v-100.68Z"/>
      <polygon class="cls-34" points="1533.71 1065.94 1498.24 1065.94 1498.24 1103.93 1537.86 1103.93 1537.86 1133.61 1476.36 1133.61 1476.36 973.58 1535.86 973.58 1535.86 1003.26 1498.24 1003.26 1498.24 1036.5 1533.71 1036.5 1533.71 1065.94"/>
      <polygon class="cls-34" points="1572.04 1003.97 1546.15 1003.97 1546.15 973.58 1620.25 973.58 1620.25 1003.97 1593.93 1003.97 1593.93 1133.61 1572.04 1133.61 1572.04 1003.97"/>
    </g>
    <g>
      <path class="cls-37" d="M845.11,1137.65l-22.89-160.04h23.31l7.29,66.01c2.15,19,4.15,39.65,5.72,55.8h.29c1.57-17.33,3.86-36.57,6.29-56.27l8.15-65.53h23.17l7.72,67.43c2.15,18.76,3.72,35.85,5.15,53.66h.29c1.43-17.81,3.58-36.57,5.58-55.56l7.87-65.53h22.17l-24.89,160.04h-23.6l-8.15-68.86c-1.86-16.15-3.43-31.1-4.58-49.39h-.29c-1.72,18.05-3.29,33.24-5.58,49.39l-9.15,68.86h-23.89Z"/>
      <polygon class="cls-37" points="1013.89 1069.98 978.41 1069.98 978.41 1107.97 1018.03 1107.97 1018.03 1137.65 956.53 1137.65 956.53 977.61 1016.03 977.61 1016.03 1007.29 978.41 1007.29 978.41 1040.53 1013.89 1040.53 1013.89 1069.98"/>
      <path class="cls-37" d="M1054.51,1041.01h7.15c11.44,0,17.59-7.84,17.59-19.71s-5.58-18.52-15.45-18.52c-4.72,0-7.44,.47-9.3,.95v37.28Zm-21.6-61.26c5.72-1.9,17.31-3.32,28.18-3.32,13.3,0,21.28,2.33,28.46,9.02,6.56,6.11,11.59,16.86,11.59,31.34s-5.01,27.54-15.88,34.19v.47c11.01,4.99,19.17,18.76,19.17,39.42,0,14.48-3.97,25.91-10.01,33.95-6.97,9.29-18.74,14.48-37.9,14.48-10.73,0-18.74-1.19-23.6-2.37v-157.19Zm21.6,132.26c2.15,.47,4.72,.47,8.44,.47,9.87,0,18.59-6.17,18.59-23.03s-8.72-22.56-19.6-22.56h-7.44v45.11Z"/>
      <path class="cls-37" d="M1169.79,1052.41c1.86,.71,4.15,.95,7.29,.95,11.59,0,18.74-9.74,18.74-26.12,0-14.72-6.15-23.51-17.02-23.51-4.43,0-7.44,.71-9.01,1.42v47.25Zm-21.6-72.66c6.72-1.9,16.16-3.32,29.46-3.32s23.01,4.29,29.47,12.82c6.13,8.09,10.3,21.37,10.3,37.04s-3.15,28.97-8.87,37.99c-7.44,11.63-18.45,16.86-31.33,16.86-2.86,0-5.44-.24-7.44-.71v57.22h-21.6v-157.9Z"/>
      <path class="cls-37" d="M1252.89,1048.61h8.58c10.87,0,17.31-9.02,17.31-23.03,0-14.72-6.01-22.2-16.02-22.32-5.29-.06-8.3,.71-9.87,1.19v44.16Zm-21.6-68.86c7.01-1.9,17.45-3.32,29.04-3.32,14.3,0,24.34,3.54,31.18,12.58,5.74,7.58,8.87,18.76,8.87,33.48,0,20.42-8.72,34.43-17.02,39.42v.71c6.72,4.51,10.44,15.2,12.87,29.92,3,18.05,6.01,38.94,7.87,45.11h-22.31c-1.57-4.51-4.02-17.55-6.72-37.28s-6.72-25.41-15.59-25.64h-6.58v62.92h-21.6v-157.9Z"/>
      <path class="cls-37" d="M1334.13,1058.11c0,31.34,8.87,53.42,23.46,53.42s23.17-23.27,23.17-54.38c0-28.73-8.3-53.42-23.32-53.42s-23.31,23.27-23.31,54.37Zm69.66-2.14c0,52.47-19.17,84.29-47.34,84.29s-45.34-35.85-45.34-81.44c0-47.96,18.45-83.82,46.92-83.82s45.77,36.8,45.77,80.97Z"/>
      <path class="cls-37" d="M1436.98,977.61h21.74v101.15c0,45.59-13.16,61.5-34.33,61.5-5.01,0-11.59-1.42-15.88-3.8l2.43-29.21c3,1.66,6.87,2.85,11.16,2.85,9.15,0,14.88-6.89,14.88-31.82v-100.68Z"/>
      <polygon class="cls-37" points="1534.24 1069.98 1498.77 1069.98 1498.77 1107.97 1538.39 1107.97 1538.39 1137.65 1476.88 1137.65 1476.88 977.61 1536.38 977.61 1536.38 1007.29 1498.77 1007.29 1498.77 1040.53 1534.24 1040.53 1534.24 1069.98"/>
      <polygon class="cls-37" points="1572.57 1008 1546.68 1008 1546.68 977.61 1620.77 977.61 1620.77 1008 1594.45 1008 1594.45 1137.65 1572.57 1137.65 1572.57 1008"/>
    </g>
    <g>
      <path class="cls-55" d="M845.63,1141.68l-22.89-160.04h23.31l7.29,66.01c2.15,19,4.15,39.65,5.72,55.8h.29c1.57-17.33,3.86-36.57,6.29-56.27l8.15-65.53h23.17l7.72,67.43c2.15,18.76,3.72,35.85,5.15,53.66h.29c1.43-17.81,3.58-36.57,5.58-55.56l7.87-65.53h22.17l-24.89,160.04h-23.6l-8.15-68.86c-1.86-16.15-3.43-31.1-4.58-49.39h-.29c-1.72,18.05-3.29,33.24-5.58,49.39l-9.15,68.86h-23.89Z"/>
      <polygon class="cls-55" points="1014.41 1074.01 978.94 1074.01 978.94 1112 1018.56 1112 1018.56 1141.68 957.05 1141.68 957.05 981.65 1016.56 981.65 1016.56 1011.33 978.94 1011.33 978.94 1044.57 1014.41 1044.57 1014.41 1074.01"/>
      <path class="cls-55" d="M1055.03,1045.05h7.15c11.44,0,17.59-7.84,17.59-19.71s-5.58-18.52-15.45-18.52c-4.72,0-7.44,.47-9.3,.95v37.28Zm-21.6-61.26c5.72-1.9,17.31-3.32,28.18-3.32,13.3,0,21.28,2.33,28.46,9.02,6.56,6.11,11.59,16.86,11.59,31.34s-5.01,27.54-15.88,34.19v.47c11.01,4.99,19.17,18.76,19.17,39.42,0,14.48-3.97,25.91-10.01,33.95-6.97,9.29-18.74,14.48-37.9,14.48-10.73,0-18.74-1.19-23.6-2.37v-157.19Zm21.6,132.26c2.15,.47,4.72,.47,8.44,.47,9.87,0,18.59-6.17,18.59-23.03s-8.72-22.56-19.6-22.56h-7.44v45.11Z"/>
      <path class="cls-55" d="M1170.32,1056.44c1.86,.71,4.15,.95,7.29,.95,11.59,0,18.74-9.74,18.74-26.12,0-14.72-6.15-23.51-17.02-23.51-4.43,0-7.44,.71-9.01,1.42v47.25Zm-21.6-72.66c6.72-1.9,16.16-3.32,29.46-3.32s23.01,4.29,29.47,12.82c6.13,8.09,10.3,21.37,10.3,37.04s-3.15,28.97-8.87,37.99c-7.44,11.63-18.45,16.86-31.33,16.86-2.86,0-5.44-.24-7.44-.71v57.22h-21.6v-157.9Z"/>
      <path class="cls-55" d="M1253.42,1052.64h8.58c10.87,0,17.31-9.02,17.31-23.03,0-14.72-6.01-22.2-16.02-22.32-5.29-.06-8.3,.71-9.87,1.19v44.16Zm-21.6-68.86c7.01-1.9,17.45-3.32,29.04-3.32,14.3,0,24.34,3.54,31.18,12.58,5.74,7.58,8.87,18.76,8.87,33.48,0,20.42-8.72,34.43-17.02,39.42v.71c6.72,4.51,10.44,15.2,12.87,29.92,3,18.05,6.01,38.94,7.87,45.11h-22.31c-1.57-4.51-4.02-17.55-6.72-37.28-2.73-19.92-6.72-25.41-15.59-25.64h-6.58v62.92h-21.6v-157.9Z"/>
      <path class="cls-55" d="M1334.66,1062.14c0,31.34,8.87,53.42,23.46,53.42s23.17-23.27,23.17-54.38c0-28.73-8.3-53.42-23.32-53.42s-23.31,23.27-23.31,54.37Zm69.66-2.14c0,52.47-19.17,84.29-47.34,84.29s-45.34-35.85-45.34-81.44c0-47.96,18.45-83.82,46.92-83.82s45.77,36.8,45.77,80.97Z"/>
      <path class="cls-55" d="M1437.5,981.65h21.74v101.15c0,45.59-13.16,61.5-34.33,61.5-5.01,0-11.59-1.42-15.88-3.8l2.43-29.21c3,1.66,6.87,2.85,11.16,2.85,9.15,0,14.88-6.89,14.88-31.82v-100.68Z"/>
      <polygon class="cls-55" points="1534.76 1074.01 1499.29 1074.01 1499.29 1112 1538.91 1112 1538.91 1141.68 1477.41 1141.68 1477.41 981.65 1536.91 981.65 1536.91 1011.33 1499.29 1011.33 1499.29 1044.57 1534.76 1044.57 1534.76 1074.01"/>
      <polygon class="cls-55" points="1573.09 1012.04 1547.2 1012.04 1547.2 981.65 1621.3 981.65 1621.3 1012.04 1594.98 1012.04 1594.98 1141.68 1573.09 1141.68 1573.09 1012.04"/>
    </g>
    <g>
      <path class="cls-45" d="M846.16,1145.72l-22.89-160.04h23.31l7.29,66.01c2.15,19,4.15,39.65,5.72,55.8h.29c1.57-17.33,3.86-36.57,6.29-56.27l8.15-65.53h23.17l7.72,67.43c2.15,18.76,3.72,35.85,5.15,53.66h.29c1.43-17.81,3.58-36.57,5.58-55.56l7.87-65.53h22.17l-24.89,160.04h-23.6l-8.15-68.86c-1.86-16.15-3.43-31.1-4.58-49.39h-.29c-1.72,18.05-3.29,33.24-5.58,49.39l-9.15,68.86h-23.89Z"/>
      <polygon class="cls-45" points="1014.93 1078.05 979.46 1078.05 979.46 1116.04 1019.08 1116.04 1019.08 1145.72 957.58 1145.72 957.58 985.68 1017.08 985.68 1017.08 1015.36 979.46 1015.36 979.46 1048.61 1014.93 1048.61 1014.93 1078.05"/>
      <path class="cls-45" d="M1055.56,1049.08h7.15c11.44,0,17.59-7.84,17.59-19.71s-5.58-18.52-15.45-18.52c-4.72,0-7.44,.47-9.3,.95v37.28Zm-21.6-61.26c5.72-1.9,17.31-3.32,28.18-3.32,13.3,0,21.28,2.33,28.46,9.02,6.56,6.11,11.59,16.86,11.59,31.34s-5.01,27.54-15.88,34.19v.47c11.01,4.99,19.17,18.76,19.17,39.42,0,14.48-3.97,25.91-10.01,33.95-6.97,9.29-18.74,14.48-37.9,14.48-10.73,0-18.74-1.19-23.6-2.37v-157.19Zm21.6,132.26c2.15,.47,4.72,.47,8.44,.47,9.87,0,18.59-6.17,18.59-23.03s-8.72-22.56-19.6-22.56h-7.44v45.11Z"/>
      <path class="cls-45" d="M1170.84,1060.48c1.86,.71,4.15,.95,7.29,.95,11.59,0,18.74-9.74,18.74-26.12,0-14.72-6.15-23.51-17.02-23.51-4.43,0-7.44,.71-9.01,1.42v47.25Zm-21.6-72.66c6.72-1.9,16.16-3.32,29.46-3.32s23.01,4.29,29.47,12.82c6.13,8.09,10.3,21.37,10.3,37.04s-3.15,28.97-8.87,37.99c-7.44,11.63-18.45,16.86-31.33,16.86-2.86,0-5.44-.24-7.44-.71v57.22h-21.6v-157.9Z"/>
      <path class="cls-45" d="M1253.94,1056.68h8.58c10.87,0,17.31-9.02,17.31-23.03,0-14.72-6.01-22.2-16.02-22.32-5.29-.06-8.3,.71-9.87,1.19v44.16Zm-21.6-68.86c7.01-1.9,17.45-3.32,29.04-3.32,14.3,0,24.34,3.54,31.18,12.58,5.74,7.58,8.87,18.76,8.87,33.48,0,20.42-8.72,34.43-17.02,39.42v.71c6.72,4.51,10.44,15.2,12.87,29.92,3,18.05,6.01,38.94,7.87,45.11h-22.31c-1.57-4.51-4.02-17.55-6.72-37.28-2.73-19.92-6.72-25.41-15.59-25.64h-6.58v62.92h-21.6v-157.9Z"/>
      <path class="cls-45" d="M1335.18,1066.18c0,31.34,8.87,53.42,23.46,53.42s23.17-23.27,23.17-54.38c0-28.73-8.3-53.42-23.32-53.42s-23.31,23.27-23.31,54.37Zm69.66-2.14c0,52.47-19.17,84.29-47.34,84.29s-45.34-35.85-45.34-81.44c0-47.96,18.45-83.82,46.92-83.82s45.77,36.8,45.77,80.97Z"/>
      <path class="cls-45" d="M1438.02,985.68h21.74v101.15c0,45.59-13.16,61.5-34.33,61.5-5.01,0-11.59-1.42-15.88-3.8l2.43-29.21c3,1.66,6.87,2.85,11.16,2.85,9.15,0,14.88-6.89,14.88-31.82v-100.68Z"/>
      <polygon class="cls-45" points="1535.29 1078.05 1499.81 1078.05 1499.81 1116.04 1539.43 1116.04 1539.43 1145.72 1477.93 1145.72 1477.93 985.68 1537.43 985.68 1537.43 1015.36 1499.81 1015.36 1499.81 1048.61 1535.29 1048.61 1535.29 1078.05"/>
      <polygon class="cls-45" points="1573.62 1016.08 1547.73 1016.08 1547.73 985.68 1621.82 985.68 1621.82 1016.08 1595.5 1016.08 1595.5 1145.72 1573.62 1145.72 1573.62 1016.08"/>
    </g>
    <g>
      <path class="cls-44" d="M846.68,1149.76l-22.89-160.04h23.31l7.29,66.01c2.15,19,4.15,39.65,5.72,55.8h.29c1.57-17.33,3.86-36.57,6.29-56.27l8.15-65.53h23.17l7.72,67.43c2.15,18.76,3.72,35.85,5.15,53.66h.29c1.43-17.81,3.58-36.57,5.58-55.56l7.87-65.53h22.17l-24.89,160.04h-23.6l-8.15-68.86c-1.86-16.15-3.43-31.1-4.58-49.39h-.29c-1.72,18.05-3.29,33.24-5.58,49.39l-9.15,68.86h-23.89Z"/>
      <polygon class="cls-44" points="1015.46 1082.08 979.99 1082.08 979.99 1120.07 1019.61 1120.07 1019.61 1149.76 958.1 1149.76 958.1 989.72 1017.61 989.72 1017.61 1019.4 979.99 1019.4 979.99 1052.64 1015.46 1052.64 1015.46 1082.08"/>
      <path class="cls-44" d="M1056.08,1053.12h7.15c11.44,0,17.59-7.84,17.59-19.71s-5.58-18.52-15.45-18.52c-4.72,0-7.44,.47-9.3,.95v37.28Zm-21.6-61.26c5.72-1.9,17.31-3.32,28.18-3.32,13.3,0,21.28,2.33,28.46,9.02,6.56,6.11,11.59,16.86,11.59,31.34s-5.01,27.54-15.88,34.19v.47c11.01,4.99,19.17,18.76,19.17,39.42,0,14.48-3.97,25.91-10.01,33.95-6.97,9.29-18.74,14.48-37.9,14.48-10.73,0-18.74-1.19-23.6-2.37v-157.19Zm21.6,132.26c2.15,.47,4.72,.47,8.44,.47,9.87,0,18.59-6.17,18.59-23.03s-8.72-22.56-19.6-22.56h-7.44v45.11Z"/>
      <path class="cls-44" d="M1171.36,1064.51c1.86,.71,4.15,.95,7.29,.95,11.59,0,18.74-9.74,18.74-26.12,0-14.72-6.15-23.51-17.02-23.51-4.43,0-7.44,.71-9.01,1.42v47.25Zm-21.6-72.66c6.72-1.9,16.16-3.32,29.46-3.32s23.01,4.29,29.47,12.82c6.13,8.09,10.3,21.37,10.3,37.04s-3.15,28.97-8.87,37.99c-7.44,11.63-18.45,16.86-31.33,16.86-2.86,0-5.44-.24-7.44-.71v57.22h-21.6v-157.9Z"/>
      <path class="cls-44" d="M1254.47,1060.71h8.58c10.87,0,17.31-9.02,17.31-23.03,0-14.72-6.01-22.2-16.02-22.32-5.29-.06-8.3,.71-9.87,1.19v44.16Zm-21.6-68.86c7.01-1.9,17.45-3.32,29.04-3.32,14.3,0,24.34,3.54,31.18,12.58,5.74,7.58,8.87,18.76,8.87,33.48,0,20.42-8.72,34.43-17.02,39.42v.71c6.72,4.51,10.44,15.2,12.87,29.92,3,18.05,6.01,38.94,7.87,45.11h-22.31c-1.57-4.51-4.02-17.55-6.72-37.28s-6.72-25.41-15.59-25.64h-6.58v62.92h-21.6v-157.9Z"/>
      <path class="cls-44" d="M1335.71,1070.21c0,31.34,8.87,53.42,23.46,53.42s23.17-23.27,23.17-54.38c0-28.73-8.3-53.42-23.32-53.42s-23.31,23.27-23.31,54.37Zm69.66-2.14c0,52.47-19.17,84.29-47.34,84.29s-45.34-35.85-45.34-81.44c0-47.96,18.45-83.82,46.92-83.82s45.77,36.8,45.77,80.97Z"/>
      <path class="cls-44" d="M1438.55,989.72h21.74v101.15c0,45.59-13.16,61.5-34.33,61.5-5.01,0-11.59-1.42-15.88-3.8l2.43-29.21c3,1.66,6.87,2.85,11.16,2.85,9.15,0,14.88-6.89,14.88-31.82v-100.68Z"/>
      <polygon class="cls-44" points="1535.81 1082.08 1500.34 1082.08 1500.34 1120.07 1539.96 1120.07 1539.96 1149.76 1478.45 1149.76 1478.45 989.72 1537.96 989.72 1537.96 1019.4 1500.34 1019.4 1500.34 1052.64 1535.81 1052.64 1535.81 1082.08"/>
      <polygon class="cls-44" points="1574.14 1020.11 1548.25 1020.11 1548.25 989.72 1622.35 989.72 1622.35 1020.11 1596.03 1020.11 1596.03 1149.76 1574.14 1149.76 1574.14 1020.11"/>
    </g>
    <g>
      <path class="cls-50" d="M847.21,1153.79l-22.89-160.04h23.31l7.29,66.01c2.15,19,4.15,39.65,5.72,55.8h.29c1.57-17.33,3.86-36.57,6.29-56.27l8.15-65.53h23.17l7.72,67.43c2.15,18.76,3.72,35.85,5.15,53.66h.29c1.43-17.81,3.58-36.57,5.58-55.56l7.87-65.53h22.17l-24.89,160.04h-23.6l-8.15-68.86c-1.86-16.15-3.43-31.1-4.58-49.39h-.29c-1.72,18.05-3.29,33.24-5.58,49.39l-9.15,68.86h-23.89Z"/>
      <polygon class="cls-50" points="1015.98 1086.12 980.51 1086.12 980.51 1124.11 1020.13 1124.11 1020.13 1153.79 958.63 1153.79 958.63 993.76 1018.13 993.76 1018.13 1023.44 980.51 1023.44 980.51 1056.68 1015.98 1056.68 1015.98 1086.12"/>
      <path class="cls-50" d="M1056.61,1057.15h7.15c11.44,0,17.59-7.84,17.59-19.71s-5.58-18.52-15.45-18.52c-4.72,0-7.44,.47-9.3,.95v37.28Zm-21.6-61.26c5.72-1.9,17.31-3.32,28.18-3.32,13.3,0,21.28,2.33,28.46,9.02,6.56,6.11,11.59,16.86,11.59,31.34s-5.01,27.54-15.88,34.19v.47c11.01,4.99,19.17,18.76,19.17,39.42,0,14.48-3.97,25.91-10.01,33.95-6.97,9.29-18.74,14.48-37.9,14.48-10.73,0-18.74-1.19-23.6-2.37v-157.19Zm21.6,132.26c2.15,.47,4.72,.47,8.44,.47,9.87,0,18.59-6.17,18.59-23.03s-8.72-22.56-19.6-22.56h-7.44v45.11Z"/>
      <path class="cls-50" d="M1171.89,1068.55c1.86,.71,4.15,.95,7.29,.95,11.59,0,18.74-9.74,18.74-26.12,0-14.72-6.15-23.51-17.02-23.51-4.43,0-7.44,.71-9.01,1.42v47.25Zm-21.6-72.66c6.72-1.9,16.16-3.32,29.46-3.32s23.01,4.29,29.47,12.82c6.13,8.09,10.3,21.37,10.3,37.04s-3.15,28.97-8.87,37.99c-7.44,11.63-18.45,16.86-31.33,16.86-2.86,0-5.44-.24-7.44-.71v57.22h-21.6v-157.9Z"/>
      <path class="cls-50" d="M1254.99,1064.75h8.58c10.87,0,17.31-9.02,17.31-23.03,0-14.72-6.01-22.2-16.02-22.32-5.29-.06-8.3,.71-9.87,1.19v44.16Zm-21.6-68.86c7.01-1.9,17.45-3.32,29.04-3.32,14.3,0,24.34,3.54,31.18,12.58,5.74,7.58,8.87,18.76,8.87,33.48,0,20.42-8.72,34.43-17.02,39.42v.71c6.72,4.51,10.44,15.2,12.87,29.92,3,18.05,6.01,38.94,7.87,45.11h-22.31c-1.57-4.51-4.02-17.55-6.72-37.28s-6.72-25.41-15.59-25.64h-6.58v62.92h-21.6v-157.9Z"/>
      <path class="cls-50" d="M1336.23,1074.25c0,31.34,8.87,53.42,23.46,53.42s23.17-23.27,23.17-54.38c0-28.73-8.3-53.42-23.32-53.42s-23.31,23.27-23.31,54.37Zm69.66-2.14c0,52.47-19.17,84.29-47.34,84.29s-45.34-35.85-45.34-81.44c0-47.96,18.45-83.82,46.92-83.82s45.77,36.8,45.77,80.97Z"/>
      <path class="cls-50" d="M1439.07,993.76h21.74v101.15c0,45.59-13.16,61.5-34.33,61.5-5.01,0-11.59-1.42-15.88-3.8l2.43-29.21c3,1.66,6.87,2.85,11.16,2.85,9.15,0,14.88-6.89,14.88-31.82v-100.68Z"/>
      <polygon class="cls-50" points="1536.34 1086.12 1500.86 1086.12 1500.86 1124.11 1540.48 1124.11 1540.48 1153.79 1478.98 1153.79 1478.98 993.76 1538.48 993.76 1538.48 1023.44 1500.86 1023.44 1500.86 1056.68 1536.34 1056.68 1536.34 1086.12"/>
      <polygon class="cls-50" points="1574.67 1024.15 1548.78 1024.15 1548.78 993.76 1622.87 993.76 1622.87 1024.15 1596.55 1024.15 1596.55 1153.79 1574.67 1153.79 1574.67 1024.15"/>
    </g>
    <g>
      <path class="cls-52" d="M847.73,1157.83l-22.89-160.04h23.31l7.29,66.01c2.15,19,4.15,39.65,5.72,55.8h.29c1.57-17.33,3.86-36.57,6.29-56.27l8.15-65.53h23.17l7.72,67.43c2.15,18.76,3.72,35.85,5.15,53.66h.29c1.43-17.81,3.58-36.57,5.58-55.56l7.87-65.53h22.17l-24.89,160.04h-23.6l-8.15-68.86c-1.86-16.15-3.43-31.1-4.58-49.39h-.29c-1.72,18.05-3.29,33.24-5.58,49.39l-9.15,68.86h-23.89Z"/>
      <polygon class="cls-52" points="1016.51 1090.16 981.04 1090.16 981.04 1128.15 1020.66 1128.15 1020.66 1157.83 959.15 1157.83 959.15 997.79 1018.65 997.79 1018.65 1027.47 981.04 1027.47 981.04 1060.71 1016.51 1060.71 1016.51 1090.16"/>
      <path class="cls-52" d="M1057.13,1061.19h7.15c11.44,0,17.59-7.84,17.59-19.71s-5.58-18.52-15.45-18.52c-4.72,0-7.44,.47-9.3,.95v37.28Zm-21.6-61.26c5.72-1.9,17.31-3.32,28.18-3.32,13.3,0,21.28,2.33,28.46,9.02,6.56,6.11,11.59,16.86,11.59,31.34s-5.01,27.54-15.88,34.19v.47c11.01,4.99,19.17,18.76,19.17,39.42,0,14.48-3.97,25.91-10.01,33.95-6.97,9.29-18.74,14.48-37.9,14.48-10.73,0-18.74-1.19-23.6-2.37v-157.19Zm21.6,132.26c2.15,.47,4.72,.47,8.44,.47,9.87,0,18.59-6.17,18.59-23.03s-8.72-22.56-19.6-22.56h-7.44v45.11Z"/>
      <path class="cls-52" d="M1172.41,1072.59c1.86,.71,4.15,.95,7.29,.95,11.59,0,18.74-9.74,18.74-26.12,0-14.72-6.15-23.51-17.02-23.51-4.43,0-7.44,.71-9.01,1.42v47.25Zm-21.6-72.66c6.72-1.9,16.16-3.32,29.46-3.32s23.01,4.29,29.47,12.82c6.13,8.09,10.3,21.37,10.3,37.04s-3.15,28.97-8.87,37.99c-7.44,11.63-18.45,16.86-31.33,16.86-2.86,0-5.44-.24-7.44-.71v57.22h-21.6v-157.9Z"/>
      <path class="cls-52" d="M1255.52,1068.79h8.58c10.87,0,17.31-9.02,17.31-23.03,0-14.72-6.01-22.2-16.02-22.32-5.29-.06-8.3,.71-9.87,1.19v44.16Zm-21.6-68.86c7.01-1.9,17.45-3.32,29.04-3.32,14.3,0,24.34,3.54,31.18,12.58,5.74,7.58,8.87,18.76,8.87,33.48,0,20.42-8.72,34.43-17.02,39.42v.71c6.72,4.51,10.44,15.2,12.87,29.92,3,18.05,6.01,38.94,7.87,45.11h-22.31c-1.57-4.51-4.02-17.55-6.72-37.28-2.73-19.92-6.72-25.41-15.59-25.64h-6.58v62.92h-21.6v-157.9Z"/>
      <path class="cls-52" d="M1336.76,1078.28c0,31.34,8.87,53.42,23.46,53.42s23.17-23.27,23.17-54.38c0-28.73-8.3-53.42-23.32-53.42s-23.31,23.27-23.31,54.37Zm69.66-2.14c0,52.47-19.17,84.29-47.34,84.29s-45.34-35.85-45.34-81.44c0-47.96,18.45-83.82,46.92-83.82s45.77,36.8,45.77,80.97Z"/>
      <path class="cls-52" d="M1439.6,997.79h21.74v101.15c0,45.59-13.16,61.5-34.33,61.5-5.01,0-11.59-1.42-15.88-3.8l2.43-29.21c3,1.66,6.87,2.85,11.16,2.85,9.15,0,14.88-6.89,14.88-31.82v-100.68Z"/>
      <polygon class="cls-52" points="1536.86 1090.16 1501.39 1090.16 1501.39 1128.15 1541.01 1128.15 1541.01 1157.83 1479.5 1157.83 1479.5 997.79 1539.01 997.79 1539.01 1027.47 1501.39 1027.47 1501.39 1060.71 1536.86 1060.71 1536.86 1090.16"/>
      <polygon class="cls-52" points="1575.19 1028.18 1549.3 1028.18 1549.3 997.79 1623.4 997.79 1623.4 1028.18 1597.08 1028.18 1597.08 1157.83 1575.19 1157.83 1575.19 1028.18"/>
    </g>
    <g>
      <path class="cls-31" d="M848.26,1161.86l-22.89-160.04h23.31l7.29,66.01c2.15,19,4.15,39.65,5.72,55.8h.29c1.57-17.33,3.86-36.57,6.29-56.27l8.15-65.53h23.17l7.72,67.43c2.15,18.76,3.72,35.85,5.15,53.66h.29c1.43-17.81,3.58-36.57,5.58-55.56l7.87-65.53h22.17l-24.89,160.04h-23.6l-8.15-68.86c-1.86-16.15-3.43-31.1-4.58-49.39h-.29c-1.72,18.05-3.29,33.24-5.58,49.39l-9.15,68.86h-23.89Z"/>
      <polygon class="cls-31" points="1017.03 1094.19 981.56 1094.19 981.56 1132.18 1021.18 1132.18 1021.18 1161.86 959.68 1161.86 959.68 1001.83 1019.18 1001.83 1019.18 1031.51 981.56 1031.51 981.56 1064.75 1017.03 1064.75 1017.03 1094.19"/>
      <path class="cls-31" d="M1057.65,1065.22h7.15c11.44,0,17.59-7.84,17.59-19.71s-5.58-18.52-15.45-18.52c-4.72,0-7.44,.47-9.3,.95v37.28Zm-21.6-61.26c5.72-1.9,17.31-3.32,28.18-3.32,13.3,0,21.28,2.33,28.46,9.02,6.56,6.11,11.59,16.86,11.59,31.34s-5.01,27.54-15.88,34.19v.47c11.01,4.99,19.17,18.76,19.17,39.42,0,14.48-3.97,25.91-10.01,33.95-6.97,9.29-18.74,14.48-37.9,14.48-10.73,0-18.74-1.19-23.6-2.37v-157.19Zm21.6,132.26c2.15,.47,4.72,.47,8.44,.47,9.87,0,18.59-6.17,18.59-23.03s-8.72-22.56-19.6-22.56h-7.44v45.11Z"/>
      <path class="cls-31" d="M1172.94,1076.62c1.86,.71,4.15,.95,7.29,.95,11.59,0,18.74-9.74,18.74-26.12,0-14.72-6.15-23.51-17.02-23.51-4.43,0-7.44,.71-9.01,1.42v47.25Zm-21.6-72.66c6.72-1.9,16.16-3.32,29.46-3.32s23.01,4.29,29.47,12.82c6.13,8.09,10.3,21.37,10.3,37.04s-3.15,28.97-8.87,37.99c-7.44,11.63-18.45,16.86-31.33,16.86-2.86,0-5.44-.24-7.44-.71v57.22h-21.6v-157.9Z"/>
      <path class="cls-31" d="M1256.04,1072.82h8.58c10.87,0,17.31-9.02,17.31-23.03,0-14.72-6.01-22.2-16.02-22.32-5.29-.06-8.3,.71-9.87,1.19v44.16Zm-21.6-68.86c7.01-1.9,17.45-3.32,29.04-3.32,14.3,0,24.34,3.54,31.18,12.58,5.74,7.58,8.87,18.76,8.87,33.48,0,20.42-8.72,34.43-17.02,39.42v.71c6.72,4.51,10.44,15.2,12.87,29.92,3,18.05,6.01,38.94,7.87,45.11h-22.31c-1.57-4.51-4.02-17.55-6.72-37.28s-6.72-25.41-15.59-25.64h-6.58v62.92h-21.6v-157.9Z"/>
      <path class="cls-31" d="M1337.28,1082.32c0,31.34,8.87,53.42,23.46,53.42s23.17-23.27,23.17-54.38c0-28.73-8.3-53.42-23.32-53.42s-23.31,23.27-23.31,54.37Zm69.66-2.14c0,52.47-19.17,84.29-47.34,84.29s-45.34-35.85-45.34-81.44c0-47.96,18.45-83.82,46.92-83.82s45.77,36.8,45.77,80.97Z"/>
      <path class="cls-31" d="M1440.12,1001.83h21.74v101.15c0,45.59-13.16,61.5-34.33,61.5-5.01,0-11.59-1.42-15.88-3.8l2.43-29.21c3,1.66,6.87,2.85,11.16,2.85,9.15,0,14.88-6.89,14.88-31.82v-100.68Z"/>
      <polygon class="cls-31" points="1537.39 1094.19 1501.91 1094.19 1501.91 1132.18 1541.53 1132.18 1541.53 1161.86 1480.03 1161.86 1480.03 1001.83 1539.53 1001.83 1539.53 1031.51 1501.91 1031.51 1501.91 1064.75 1537.39 1064.75 1537.39 1094.19"/>
      <polygon class="cls-31" points="1575.72 1032.22 1549.83 1032.22 1549.83 1001.83 1623.92 1001.83 1623.92 1032.22 1597.6 1032.22 1597.6 1161.86 1575.72 1161.86 1575.72 1032.22"/>
    </g>
    <g>
      <path class="cls-38" d="M848.78,1165.9l-22.89-160.04h23.31l7.29,66.01c2.15,19,4.15,39.65,5.72,55.8h.29c1.57-17.33,3.86-36.57,6.29-56.27l8.15-65.53h23.17l7.72,67.43c2.15,18.76,3.72,35.85,5.15,53.66h.29c1.43-17.81,3.58-36.57,5.58-55.56l7.87-65.53h22.17l-24.89,160.04h-23.6l-8.15-68.86c-1.86-16.15-3.43-31.1-4.58-49.39h-.29c-1.72,18.05-3.29,33.24-5.58,49.39l-9.15,68.86h-23.89Z"/>
      <polygon class="cls-38" points="1017.56 1098.23 982.09 1098.23 982.09 1136.22 1021.71 1136.22 1021.71 1165.9 960.2 1165.9 960.2 1005.86 1019.7 1005.86 1019.7 1035.54 982.09 1035.54 982.09 1068.78 1017.56 1068.78 1017.56 1098.23"/>
      <path class="cls-38" d="M1058.18,1069.26h7.15c11.44,0,17.59-7.84,17.59-19.71s-5.58-18.52-15.45-18.52c-4.72,0-7.44,.47-9.3,.95v37.28Zm-21.6-61.26c5.72-1.9,17.31-3.32,28.18-3.32,13.3,0,21.28,2.33,28.46,9.02,6.56,6.11,11.59,16.86,11.59,31.34s-5.01,27.54-15.88,34.19v.47c11.01,4.99,19.17,18.76,19.17,39.42,0,14.48-3.97,25.91-10.01,33.95-6.97,9.29-18.74,14.48-37.9,14.48-10.73,0-18.74-1.19-23.6-2.37v-157.19Zm21.6,132.26c2.15,.47,4.72,.47,8.44,.47,9.87,0,18.59-6.17,18.59-23.03s-8.72-22.56-19.6-22.56h-7.44v45.11Z"/>
      <path class="cls-38" d="M1173.46,1080.66c1.86,.71,4.15,.95,7.29,.95,11.59,0,18.74-9.74,18.74-26.12,0-14.72-6.15-23.51-17.02-23.51-4.43,0-7.44,.71-9.01,1.42v47.25Zm-21.6-72.66c6.72-1.9,16.16-3.32,29.46-3.32s23.01,4.29,29.47,12.82c6.13,8.09,10.3,21.37,10.3,37.04s-3.15,28.97-8.87,37.99c-7.44,11.63-18.45,16.86-31.33,16.86-2.86,0-5.44-.24-7.44-.71v57.22h-21.6v-157.9Z"/>
      <path class="cls-38" d="M1256.56,1076.86h8.58c10.87,0,17.31-9.02,17.31-23.03,0-14.72-6.01-22.2-16.02-22.32-5.29-.06-8.3,.71-9.87,1.19v44.16Zm-21.6-68.86c7.01-1.9,17.45-3.32,29.04-3.32,14.3,0,24.34,3.54,31.18,12.58,5.74,7.58,8.87,18.76,8.87,33.48,0,20.42-8.72,34.43-17.02,39.42v.71c6.72,4.51,10.44,15.2,12.87,29.92,3,18.05,6.01,38.94,7.87,45.11h-22.31c-1.57-4.51-4.02-17.55-6.72-37.28s-6.72-25.41-15.59-25.64h-6.58v62.92h-21.6v-157.9Z"/>
      <path class="cls-38" d="M1337.81,1086.36c0,31.34,8.87,53.42,23.46,53.42s23.17-23.27,23.17-54.38c0-28.73-8.3-53.42-23.32-53.42s-23.31,23.27-23.31,54.37Zm69.66-2.14c0,52.47-19.17,84.29-47.34,84.29s-45.34-35.85-45.34-81.44c0-47.96,18.45-83.82,46.92-83.82s45.77,36.8,45.77,80.97Z"/>
      <path class="cls-38" d="M1440.65,1005.86h21.74v101.15c0,45.59-13.16,61.5-34.33,61.5-5.01,0-11.59-1.42-15.88-3.8l2.43-29.21c3,1.66,6.87,2.85,11.16,2.85,9.15,0,14.88-6.89,14.88-31.82v-100.68Z"/>
      <polygon class="cls-38" points="1537.91 1098.23 1502.44 1098.23 1502.44 1136.22 1542.06 1136.22 1542.06 1165.9 1480.55 1165.9 1480.55 1005.86 1540.06 1005.86 1540.06 1035.54 1502.44 1035.54 1502.44 1068.78 1537.91 1068.78 1537.91 1098.23"/>
      <polygon class="cls-38" points="1576.24 1036.25 1550.35 1036.25 1550.35 1005.86 1624.44 1005.86 1624.44 1036.25 1598.13 1036.25 1598.13 1165.9 1576.24 1165.9 1576.24 1036.25"/>
    </g>
    <g>
      <path class="cls-53" d="M849.3,1169.93l-22.89-160.04h23.31l7.29,66.01c2.15,19,4.15,39.65,5.72,55.8h.29c1.57-17.33,3.86-36.57,6.29-56.27l8.15-65.53h23.17l7.72,67.43c2.15,18.76,3.72,35.85,5.15,53.66h.29c1.43-17.81,3.58-36.57,5.58-55.56l7.87-65.53h22.17l-24.89,160.04h-23.6l-8.15-68.86c-1.86-16.15-3.43-31.1-4.58-49.39h-.29c-1.72,18.05-3.29,33.24-5.58,49.39l-9.15,68.86h-23.89Z"/>
      <polygon class="cls-53" points="1018.08 1102.26 982.61 1102.26 982.61 1140.25 1022.23 1140.25 1022.23 1169.93 960.73 1169.93 960.73 1009.9 1020.23 1009.9 1020.23 1039.58 982.61 1039.58 982.61 1072.82 1018.08 1072.82 1018.08 1102.26"/>
      <path class="cls-53" d="M1058.7,1073.3h7.15c11.44,0,17.59-7.84,17.59-19.71s-5.58-18.52-15.45-18.52c-4.72,0-7.44,.47-9.3,.95v37.28Zm-21.6-61.26c5.72-1.9,17.31-3.32,28.18-3.32,13.3,0,21.28,2.33,28.46,9.02,6.56,6.11,11.59,16.86,11.59,31.34s-5.01,27.54-15.88,34.19v.47c11.01,4.99,19.17,18.76,19.17,39.42,0,14.48-3.97,25.91-10.01,33.95-6.97,9.29-18.74,14.48-37.9,14.48-10.73,0-18.74-1.19-23.6-2.37v-157.19Zm21.6,132.26c2.15,.47,4.72,.47,8.44,.47,9.87,0,18.59-6.17,18.59-23.03s-8.72-22.56-19.6-22.56h-7.44v45.11Z"/>
      <path class="cls-53" d="M1173.99,1084.69c1.86,.71,4.15,.95,7.29,.95,11.59,0,18.74-9.74,18.74-26.12,0-14.72-6.15-23.51-17.02-23.51-4.43,0-7.44,.71-9.01,1.42v47.25Zm-21.6-72.66c6.72-1.9,16.16-3.32,29.46-3.32s23.01,4.29,29.47,12.82c6.13,8.09,10.3,21.37,10.3,37.04s-3.15,28.97-8.87,37.99c-7.44,11.63-18.45,16.86-31.33,16.86-2.86,0-5.44-.24-7.44-.71v57.22h-21.6v-157.9Z"/>
      <path class="cls-53" d="M1257.09,1080.89h8.58c10.87,0,17.31-9.02,17.31-23.03,0-14.72-6.01-22.2-16.02-22.32-5.29-.06-8.3,.71-9.87,1.19v44.16Zm-21.6-68.86c7.01-1.9,17.45-3.32,29.04-3.32,14.3,0,24.34,3.54,31.18,12.58,5.74,7.58,8.87,18.76,8.87,33.48,0,20.42-8.72,34.43-17.02,39.42v.71c6.72,4.51,10.44,15.2,12.87,29.92,3,18.05,6.01,38.94,7.87,45.11h-22.31c-1.57-4.51-4.02-17.55-6.72-37.28s-6.72-25.41-15.59-25.64h-6.58v62.92h-21.6v-157.9Z"/>
      <path class="cls-53" d="M1338.33,1090.39c0,31.34,8.87,53.42,23.46,53.42s23.17-23.27,23.17-54.38c0-28.73-8.3-53.42-23.32-53.42s-23.31,23.27-23.31,54.37Zm69.66-2.14c0,52.47-19.17,84.29-47.34,84.29s-45.34-35.85-45.34-81.44c0-47.96,18.45-83.82,46.92-83.82s45.77,36.8,45.77,80.97Z"/>
      <path class="cls-53" d="M1441.17,1009.9h21.74v101.15c0,45.59-13.16,61.5-34.33,61.5-5.01,0-11.59-1.42-15.88-3.8l2.43-29.21c3,1.66,6.87,2.85,11.16,2.85,9.15,0,14.88-6.89,14.88-31.82v-100.68Z"/>
      <polygon class="cls-53" points="1538.44 1102.26 1502.96 1102.26 1502.96 1140.25 1542.58 1140.25 1542.58 1169.93 1481.08 1169.93 1481.08 1009.9 1540.58 1009.9 1540.58 1039.58 1502.96 1039.58 1502.96 1072.82 1538.44 1072.82 1538.44 1102.26"/>
      <polygon class="cls-53" points="1576.77 1040.29 1550.88 1040.29 1550.88 1009.9 1624.97 1009.9 1624.97 1040.29 1598.65 1040.29 1598.65 1169.93 1576.77 1169.93 1576.77 1040.29"/>
    </g>
    <text class="cls-29" transform="translate(824.8 1173.97) scale(.6 1)"><tspan x="0" y="0">WEB P</tspan><tspan class="cls-33" x="666.95" y="0">R</tspan><tspan class="cls-51" x="806.8" y="0">OJ</tspan><tspan class="cls-42" x="1074.63" y="0">E</tspan><tspan x="1202.61" y="0">T</tspan></text>
  </g>
</svg>