<?xml version="1.0" encoding="UTF-8"?>
<svg id="Calque_2" data-name="Calque 2" xmlns="http://www.w3.org/2000/svg" viewBox="0 0 602.35 500.82">
  <defs>
    <style>
      .cls-1 {
        stroke: #000;
        stroke-miterlimit: 10;
      }

      .cls-2 {
        fill: #662d91;
      }

      .cls-3 {
        fill: #1b1464;
      }

      .cls-4 {
        fill: #ff0;
      }
    </style>
  </defs>
  <g id="Calque_1-2" data-name="Calque 1">
    <g>
      <rect class="cls-2" x="10" y="10" width="582.35" height="480.82" rx="37.78" ry="37.78"/>
      <path class="cls-3" d="M554.57,20c15.32,0,27.78,12.46,27.78,27.78V453.04c0,15.32-12.46,27.78-27.78,27.78H47.78c-15.32,0-27.78-12.46-27.78-27.78V47.78c0-15.32,12.46-27.78,27.78-27.78h506.79m0-20H47.78C21.39,0,0,21.39,0,47.78V453.04c0,26.39,21.39,47.78,47.78,47.78h506.79c26.39,0,47.78-21.39,47.78-47.78V47.78c0-26.39-21.39-47.78-47.78-47.78h0Z"/>
    </g>
    <polygon points="560.47 45.34 516.1 300.29 512.62 320.29 488.29 460.11 468.59 456.68 468.6 456.61 468.55 456.62 444.82 320.29 441.34 300.29 438.42 283.46 435.49 300.29 432.01 320.29 408.28 456.62 408.23 456.61 408.24 456.68 388.54 460.11 364.21 320.29 384.5 320.29 398.11 398.45 411.71 320.29 415.19 300.29 428.27 225.14 438.42 166.83 448.56 225.14 461.64 300.29 465.12 320.29 478.72 398.45 492.33 320.29 495.81 300.29 540.77 41.91 560.47 45.34"/>
    <path class="cls-4" d="M207.91,158.82c73.14,9.99,129.5,72.71,129.5,148.6s-56.36,138.61-129.5,148.6c-6.54,.9-13.22,1.38-20,1.4v-20c6.8-.03,13.48-.57,20-1.61,62.06-9.83,109.5-63.57,109.5-128.39s-47.44-118.56-109.5-128.39"/>
    <path class="cls-4" d="M207.91,121.61v57.39h-20V40c6.75,.02,13.42,.35,20,.99,106.36,10.3,189.5,99.95,189.5,209.01s-83.14,198.71-189.5,209.01c-6.58,.64-13.25,.97-20,.99v-20c6.76-.02,13.43-.39,20-1.1,95.29-10.22,169.5-90.9,169.5-188.9S303.2,71.32,207.91,61.1v40.3"/>
    <path class="cls-1" d="M186.28,339.81H82.39L124.2,99.58l9.44-54.24-9.44-1.64-10.26-1.79L41.76,456.68l19.7,3.42,17.45-100.29h90.58l17.45,100.29,4.62-.8c5.17-.1,10.29-.39,15.36-.86l-20.64-118.63Z"/>
  </g>
</svg>