<?xml version="1.0" encoding="UTF-8"?>
<svg id="Calque_1" data-name="Calque 1" xmlns="http://www.w3.org/2000/svg" viewBox="0 0 683.07 581.08">
  <defs>
    <style>
      .cls-1 {
        stroke: #000;
        stroke-miterlimit: 10;
      }

      .cls-2 {
        fill: #662d91;
      }

      .cls-3 {
        fill: #1b1464;
      }

      .cls-4 {
        fill: #ff0;
      }
    </style>
  </defs>
  <g>
    <rect class="cls-2" x="50.6" y="50.14" width="582.35" height="480.82" rx="37.78" ry="37.78"/>
    <path class="cls-3" d="M595.17,60.14c15.32,0,27.78,12.46,27.78,27.78V493.18c0,15.32-12.46,27.78-27.78,27.78H88.37c-15.32,0-27.78-12.46-27.78-27.78V87.92c0-15.32,12.46-27.78,27.78-27.78h506.79m0-20H88.37c-26.39,0-47.78,21.39-47.78,47.78V493.18c0,26.39,21.39,47.78,47.78,47.78h506.79c26.39,0,47.78-21.39,47.78-47.78V87.92c0-26.39-21.39-47.78-47.78-47.78h0Z"/>
  </g>
  <polygon points="601.07 85.48 556.7 340.43 553.22 360.43 528.89 500.25 509.19 496.82 509.2 496.75 509.15 496.76 485.42 360.43 481.94 340.43 479.02 323.6 476.09 340.43 472.61 360.43 448.88 496.76 448.83 496.75 448.84 496.82 429.14 500.25 404.81 360.43 425.1 360.43 438.71 438.59 452.31 360.43 455.79 340.43 468.87 265.28 479.02 206.97 489.16 265.28 502.24 340.43 505.72 360.43 519.32 438.59 532.93 360.43 536.41 340.43 581.37 82.05 601.07 85.48"/>
  <path class="cls-4" d="M248.51,198.96c73.14,9.99,129.5,72.71,129.5,148.6s-56.36,138.61-129.5,148.6c-6.54,.9-13.22,1.38-20,1.4v-20c6.8-.03,13.48-.57,20-1.61,62.06-9.83,109.5-63.57,109.5-128.39s-47.44-118.56-109.5-128.39"/>
  <path class="cls-4" d="M248.51,161.75v57.39h-20V80.14c6.75,.02,13.42,.35,20,.99,106.36,10.3,189.5,99.95,189.5,209.01s-83.14,198.71-189.5,209.01c-6.58,.64-13.25,.97-20,.99v-20c6.76-.02,13.43-.39,20-1.1,95.29-10.22,169.5-90.9,169.5-188.9S343.8,111.46,248.51,101.24v40.3"/>
  <path class="cls-1" d="M226.88,379.95H122.99l41.81-240.23,9.44-54.24-9.44-1.64-10.26-1.79L82.36,496.82l19.7,3.42,17.45-100.29h90.58l17.45,100.29,4.62-.8c5.17-.1,10.29-.39,15.36-.86l-20.64-118.63Z"/>
</svg>