<?xml version="1.0" encoding="UTF-8"?>
<svg id="Calque_1" data-name="Calque 1" xmlns="http://www.w3.org/2000/svg" viewBox="0 0 500 500">
  <defs>
    <style>
      .cls-1 {
        fill: #b3b3b3;
        stroke: #000;
        stroke-miterlimit: 10;
        stroke-width: .05px;
      }

      .cls-2 {
        fill: #534741;
      }

      .cls-3 {
        fill: #0ffff0;
      }

      .cls-4 {
        fill: #1b1464;
      }

      .cls-5 {
        fill: #002be9;
        opacity: .11;
      }
    </style>
  </defs>
  <g>
    <rect class="cls-2" x="20.1" y="14.03" width="474.4" height="473.78" rx="26.61" ry="26.61"/>
    <path d="M467.89,14.27c14.54,0,26.37,11.83,26.37,26.37V461.19c0,14.54-11.83,26.37-26.37,26.37H46.71c-14.54,0-26.37-11.83-26.37-26.37V40.64c0-14.54,11.83-26.37,26.37-26.37H467.89m0-.49H46.71c-14.83,0-26.86,12.02-26.86,26.86V461.19c0,14.83,12.02,26.86,26.86,26.86H467.89c14.83,0,26.86-12.02,26.86-26.86V40.64c0-14.83-12.02-26.86-26.86-26.86h0Z"/>
  </g>
  <rect class="cls-3" x="38.65" y="32.55" width="437.3" height="436.72" rx="27.1" ry="27.1"/>
  <rect class="cls-5" x="56.46" y="50.34" width="401.68" height="401.15" rx="24.89" ry="24.89"/>
  <g>
    <g>
      <path class="cls-1" d="M141.18,328.34l45.39-199.98c3.16-13.91,16.47-22.5,29.73-19.19l123.53,30.85c13.26,3.31,21.45,17.27,18.3,31.19l-45.39,199.98c-3.16,13.91-16.47,22.5-29.73,19.19l-123.53-30.85c-13.26-3.31-21.45-17.27-18.3-31.19Z"/>
      <path class="cls-4" d="M156.98,325.78l39.96-176.06c3.08-13.55,16.05-21.93,28.97-18.7l101.97,25.47c12.92,3.23,20.9,16.83,17.83,30.38l-39.96,176.06c-3.08,13.55-16.05,21.93-28.97,18.7l-101.97-25.47c-12.92-3.23-20.9-16.83-17.83-30.38Z"/>
    </g>
    <path class="cls-4" d="M297.29,143.7l-38.71-9.67c-1.73-.43-2.81-2.27-2.4-4.09l.61-2.67c.41-1.82,2.17-2.95,3.9-2.52l38.71,9.67c1.73,.43,2.81,2.27,2.4,4.09l-.61,2.67c-.41,1.82-2.17,2.95-3.9,2.52Z"/>
    <g>
      <path class="cls-3" d="M277.51,254.12l25.57,43.58c.46,.79,.23,1.82-.52,2.3l-38.75,25.02c-.75,.48-.98,1.52-.52,2.3l1.26,2.15c.46,.79,1.45,1.03,2.2,.55l43.38-28c.75-.48,.98-1.52,.52-2.3l-28.5-48.58c-.46-.79-1.45-1.03-2.2-.55l-1.91,1.23c-.75,.48-.98,1.52-.52,2.3Z"/>
      <path class="cls-3" d="M226.1,329.06l-2.3-1.01c-.76-.33-1.12-1.25-.8-2.05l35.29-88.7c.32-.8,1.19-1.17,1.95-.84l2.3,1.01c.76,.33,1.12,1.25,.8,2.05l-35.29,88.7c-.32,.8-1.19,1.17-1.95,.84Z"/>
      <path class="cls-3" d="M225.6,241.15l-41.54,26.82c-.75,.48-.98,1.52-.52,2.3l23.85,40.65c.46,.79,.23,1.82-.52,2.3l-2.05,1.32c-.75,.48-1.73,.24-2.2-.55l-26.69-45.5c-.46-.79-.23-1.82,.52-2.3l46.32-29.9c.75-.48,1.73-.24,2.2,.55l1.17,2c.46,.79,.23,1.82-.52,2.3Z"/>
    </g>
  </g>
</svg>