<?xml version="1.0" encoding="utf-8"?>
<!-- Generator: Adobe Illustrator 27.0.1, SVG Export Plug-In . SVG Version: 6.00 Build 0)  -->
<svg version="1.1" id="Calque_1" xmlns="http://www.w3.org/2000/svg" xmlns:xlink="http://www.w3.org/1999/xlink" x="0px" y="0px"
	 viewBox="0 0 273 272" style="enable-background:new 0 0 273 272;" xml:space="preserve">
<style type="text/css">
	.st0{fill:#F7931E;}
	.st1{fill:#0FFFF0;}
	.st2{fill:none;stroke:#000000;stroke-miterlimit:10;}
	.st3{fill:#662D91;}
	.st4{fill:#FFFF00;stroke:#000000;stroke-miterlimit:10;}
</style>
<g>
	
		<ellipse transform="matrix(0.2898 -0.9571 0.9571 0.2898 -33.7581 227.2879)" class="st0" cx="136.3" cy="136.4" rx="120.2" ry="120.2"/>
	<g>
		<path class="st1" d="M136.3,19.6c31.2,0,60.5,12.1,82.6,34.2c22.1,22.1,34.2,51.4,34.2,82.6s-12.1,60.5-34.2,82.6
			c-22.1,22.1-51.4,34.2-82.6,34.2c-31.2,0-60.5-12.1-82.6-34.2c-22.1-22.1-34.2-51.4-34.2-82.6s12.1-60.5,34.2-82.6
			C75.8,31.8,105.1,19.6,136.3,19.6 M136.3,12.6C67.9,12.6,12.5,68,12.5,136.4s55.4,123.7,123.7,123.7
			c68.3,0,123.7-55.4,123.7-123.7S204.6,12.6,136.3,12.6L136.3,12.6z"/>
	</g>
</g>
<g>
	<line class="st2" x1="148.8" y1="96.7" x2="139.8" y2="78.6"/>
	<polyline class="st2" points="148.8,96.7 152.4,103.8 157,112.9 159.7,118.3 166,131 167.7,134.5 	"/>
	<polyline class="st2" points="198.4,195.9 191.2,181.6 190.3,179.7 183.1,165.3 183,165.2 175,149 	"/>
	<g>
		<polygon class="st3" points="60,211.5 111.4,108.3 112.8,105.5 133,65 140.6,80.1 75.1,211.5 		"/>
		<path d="M133,66.1l7,14l-4.7,9.4l-7.7,15.3l-0.5,0.9l-6.8,13.6l-2.2,4.5l-5.8,11.7l-2.3,4.5l-5,10l-4,8.1l-4,8.1l-4.1,8.2
			l-3.2,6.4L81.7,197l-7,14h-14l6.5-13.1l8.1-16.2l7.3-14.5l4-8.1l4-8.1l4.1-8.2l3.2-6.4l5.8-11.7l2.2-4.5l5.9-11.8l1.4-2.7
			l7.7-15.3l8.1-16.3L133,66.1 M133,63.8l-4.9,9.9L120,90l-7.7,15.3l-1.4,2.7l-5.9,11.8l-2.2,4.5L97,136l-3.2,6.4l-4.1,8.2l-4,8.1
			l-4,8.1l-7.3,14.5l-8.1,16.2L59.1,212h16.2l7.3-14.5l8.1-16.2l3.2-6.4l4.1-8.2l4-8.1l4-8.1l5-10l2.3-4.5l5.8-11.7l2.2-4.5
			l6.8-13.6l0.5-0.9l7.7-15.3l4.9-9.9L133,63.8L133,63.8z"/>
	</g>
	<polygon class="st4" points="214.7,134.5 207.4,149 122.7,149 126.8,140.9 130,134.5 	"/>
	<line class="st2" x1="205.6" y1="210.4" x2="198.4" y2="195.9"/>
</g>
</svg>
