<?xml version="1.0" encoding="UTF-8"?>
<svg id="Calque_2" data-name="Calque 2" xmlns="http://www.w3.org/2000/svg" viewBox="0 0 247.49 247.49">
  <defs>
    <style>
      .cls-1 {
        fill: #662d91;
      }

      .cls-2 {
        fill: #1b1464;
      }

      .cls-3 {
        fill: #ff0;
      }
    </style>
  </defs>
  <g id="Calque_1-2" data-name="Calque 1">
    <g>
      <g>
        <circle class="cls-2" cx="123.75" cy="123.75" r="123.75"/>
        <path d="M123.75,1c32.79,0,63.61,12.77,86.79,35.95,23.18,23.18,35.95,54.01,35.95,86.79s-12.77,63.61-35.95,86.79-54.01,35.95-86.79,35.95-63.61-12.77-86.79-35.95C13.77,187.36,1,156.53,1,123.75S13.77,60.13,36.95,36.95C60.13,13.77,90.96,1,123.75,1m0-1C55.4,0,0,55.4,0,123.75s55.4,123.74,123.75,123.74,123.75-55.4,123.75-123.74S192.09,0,123.75,0h0Z"/>
      </g>
      <g>
        <rect x="131.32" y="64.88" width="1" height="20.2" transform="translate(-19.61 66.71) rotate(-26.5)"/>
        <rect x="145.27" y="81.79" width="1" height="42.29" transform="translate(-30.62 75.88) rotate(-26.51)"/>
        <rect x="173.64" y="133.64" width="1" height="52.37" transform="translate(-53.03 94.53) rotate(-26.51)"/>
        <g>
          <polygon class="cls-1" points="127.31 65.94 122.39 75.82 114.74 91.16 114.28 92.08 107.48 105.7 105.26 110.15 99.42 121.86 97.15 126.41 92.17 136.4 88.14 144.48 84.11 152.56 80.03 160.74 76.86 167.1 68.8 183.26 61.54 197.8 45.33 197.8 52.58 183.26 60.64 167.1 67.89 152.56 71.92 144.48 75.96 136.4 80.03 128.23 83.21 121.86 89.05 110.15 91.27 105.7 97.16 93.89 98.52 91.16 106.17 75.82 114.28 59.56 119.2 49.69 127.31 65.94"/>
          <path d="M119.21,51.93l6.99,14.01-4.7,9.43-7.65,15.34-.46,.92-6.8,13.62-2.22,4.45-5.84,11.71-2.27,4.55-4.98,9.99-4.03,8.08-4.03,8.08-4.08,8.18-3.17,6.36-8.06,16.16-6.98,13.99h-13.98l6.53-13.09,8.06-16.16,7.25-14.54,4.03-8.08,4.04-8.09,4.07-8.17,3.17-6.36,5.84-11.71,2.22-4.45,5.89-11.8,1.36-2.74,7.65-15.34,8.11-16.26,4.03-8.08m0-2.24l-4.92,9.87-8.11,16.26-7.65,15.34-1.36,2.74-5.89,11.8-2.22,4.45-5.84,11.71-3.17,6.36-4.07,8.17-4.04,8.08-4.03,8.08-7.25,14.54-8.06,16.16-7.25,14.54h16.22l7.25-14.54,8.06-16.16,3.17-6.36,4.08-8.18,4.03-8.08,4.03-8.08,4.98-9.99,2.27-4.54,5.84-11.71,2.22-4.45,6.8-13.62,.46-.92,7.65-15.34,4.92-9.87-8.11-16.25h0Z"/>
        </g>
        <g>
          <polygon class="cls-3" points="202.16 121.86 194.91 136.4 110.2 136.4 114.28 128.22 117.45 121.86 202.16 121.86"/>
          <path d="M195.22,136.9H109.39l7.75-15.53h85.83l-7.75,15.53Zm-84.21-1h83.59l6.75-13.53H117.76l-6.75,13.53Z"/>
        </g>
        <rect x="188.96" y="182.41" width="1" height="16.25" transform="translate(-65.13 104.61) rotate(-26.51)"/>
      </g>
    </g>
  </g>
</svg>