<?xml version="1.0" encoding="UTF-8"?>
<svg id="Calque_1" data-name="Calque 1" xmlns="http://www.w3.org/2000/svg" xmlns:xlink="http://www.w3.org/1999/xlink" viewBox="0 0 500 500">
  <defs>
    <style>
      .cls-1 {
        fill: #fff;
      }

      .cls-2 {
        fill: url(#Dégradé_sans_nom_6-2);
      }

      .cls-3 {
        fill: #534741;
      }

      .cls-4 {
        fill: url(#Dégradé_sans_nom_6-6);
      }

      .cls-5 {
        fill: url(#Dégradé_sans_nom_6-3);
      }

      .cls-6 {
        fill: #b6ebef;
      }

      .cls-7 {
        fill: url(#Dégradé_sans_nom_6-4);
      }

      .cls-8 {
        fill: #006837;
      }

      .cls-9 {
        fill: url(#Dégradé_sans_nom_33);
        opacity: .07;
      }

      .cls-10 {
        fill: #007101;
      }

      .cls-11 {
        fill: #0ffff0;
      }

      .cls-12 {
        fill: #22b573;
      }

      .cls-13 {
        fill: #202020;
      }

      .cls-14 {
        fill: #999;
      }

      .cls-15 {
        fill: url(#Dégradé_sans_nom_6);
      }

      .cls-16 {
        fill: url(#Dégradé_sans_nom_6-5);
      }

      .cls-17 {
        fill: #754c24;
      }

      .cls-18 {
        fill: url(#Dégradé_sans_nom_22);
      }
    </style>
    <linearGradient id="Dégradé_sans_nom_6" data-name="Dégradé sans nom 6" x1="-4.06" y1="434.71" x2="10.84" y2="434.71" gradientUnits="userSpaceOnUse">
      <stop offset="0" stop-color="#009245"/>
      <stop offset="1" stop-color="#000"/>
    </linearGradient>
    <linearGradient id="Dégradé_sans_nom_6-2" data-name="Dégradé sans nom 6" x1="3.99" y1="442.4" x2="24.99" y2="442.4" xlink:href="#Dégradé_sans_nom_6"/>
    <linearGradient id="Dégradé_sans_nom_6-3" data-name="Dégradé sans nom 6" x1="12.33" y1="427.24" x2="26.34" y2="427.24" xlink:href="#Dégradé_sans_nom_6"/>
    <linearGradient id="Dégradé_sans_nom_6-4" data-name="Dégradé sans nom 6" x1="-1.56" y1="421.72" x2="14.2" y2="421.72" xlink:href="#Dégradé_sans_nom_6"/>
    <linearGradient id="Dégradé_sans_nom_6-5" data-name="Dégradé sans nom 6" x1="23.69" y1="440.82" x2="32.32" y2="440.82" xlink:href="#Dégradé_sans_nom_6"/>
    <linearGradient id="Dégradé_sans_nom_6-6" data-name="Dégradé sans nom 6" x1="13.47" y1="424.79" x2="36.53" y2="424.79" xlink:href="#Dégradé_sans_nom_6"/>
    <radialGradient id="Dégradé_sans_nom_22" data-name="Dégradé sans nom 22" cx="91.34" cy="285.38" fx="91.34" fy="285.38" r="46.98" gradientUnits="userSpaceOnUse">
      <stop offset="0" stop-color="#ff0"/>
      <stop offset=".4" stop-color="#fefd00" stop-opacity=".99"/>
      <stop offset=".54" stop-color="#fef901" stop-opacity=".98"/>
      <stop offset=".65" stop-color="#fef203" stop-opacity=".94"/>
      <stop offset=".73" stop-color="#fde806" stop-opacity=".9"/>
      <stop offset=".8" stop-color="#fcdb09" stop-opacity=".84"/>
      <stop offset=".86" stop-color="#fbcb0e" stop-opacity=".76"/>
      <stop offset=".92" stop-color="#f9b813" stop-opacity=".67"/>
      <stop offset=".97" stop-color="#f8a219" stop-opacity=".57"/>
      <stop offset="1" stop-color="#f7931e" stop-opacity=".5"/>
    </radialGradient>
    <linearGradient id="Dégradé_sans_nom_33" data-name="Dégradé sans nom 33" x1="603.73" y1="-370.13" x2="877.95" y2="288.6" gradientTransform="translate(-299.7 1007.11) rotate(-49.84) scale(1.26 1)" gradientUnits="userSpaceOnUse">
      <stop offset="0" stop-color="#ff0" stop-opacity=".5"/>
      <stop offset=".12" stop-color="#d7c825" stop-opacity=".45"/>
      <stop offset=".27" stop-color="#ae904c" stop-opacity=".39"/>
      <stop offset=".42" stop-color="#8e646a" stop-opacity=".35"/>
      <stop offset=".59" stop-color="#774580" stop-opacity=".32"/>
      <stop offset=".77" stop-color="#6a328c" stop-opacity=".31"/>
      <stop offset="1" stop-color="#662d91" stop-opacity=".3"/>
    </linearGradient>
  </defs>
  <rect class="cls-6" x=".96" y="9.13" width="498.38" height="490.72"/>
  <image width="600" height="600" transform="translate(309.13 240.96) scale(.32)" xlink:href="../../realisation/imgIllustratorADW/yeti02.png"/>
  <g>
    <g>
      <polygon class="cls-3" points="67.02 385.39 85.59 346.55 735.38 510 567.34 574.79 67.02 385.39"/>
      <path d="M85.71,346.82l648.91,163.23-167.28,64.5L67.34,385.27l18.38-38.45m-.25-.54l-18.76,39.24,500.64,189.52,168.8-65.09L85.46,346.28h0Z"/>
    </g>
    <g>
      <rect class="cls-1" x="254.99" y="424.92" width="56.78" height="10.21" transform="translate(138.27 -64.11) rotate(17.02)"/>
      <rect class="cls-1" x="175.33" y="398.11" width="56.78" height="10.21" transform="translate(126.93 -41.97) rotate(17.02)"/>
      <rect class="cls-1" x="80.35" y="366.71" width="56.78" height="10.21" transform="translate(113.58 -15.55) rotate(17.02)"/>
      <rect class="cls-1" x="342.31" y="457.09" width="56.78" height="10.21" transform="translate(151.51 -88.26) rotate(17.02)"/>
      <rect class="cls-1" x="419.67" y="484.67" width="56.78" height="10.21" transform="translate(162.97 -109.69) rotate(17.02)"/>
    </g>
  </g>
  <g>
    <g>
      <path class="cls-10" d="M10.19,453.39c-2.75-1.9-6.06-2.88-9.33-2.75-1.08,.04-2.3,.15-3.1-.62-.38-.36-.6-.88-.92-1.29-1.41-1.82-4.06-1.31-6.27-1.08-.38,.04-.78,.06-1.12-.13-.23-.14-.41-.36-.56-.59-.8-1.19-1.31-2.6-1.45-4.05-.19-1.85,.2-3.71,.59-5.53,.36-1.67,.71-3.33,1.07-5,.58-2.74,1.3-5.71,3.41-7.41,.77-.63,1.77-1.15,2-2.15,.11-.46,.02-.94,.11-1.4,.34-1.74,2.67-2.05,3.62-3.52,.37-.58,.5-1.3,.81-1.92,.58-1.19,1.78-1.93,3-2.27s2.51-.33,3.77-.39c6-.31,11.91-2.28,17.9-1.87,1.69,.12,3.36,.42,5.05,.49,.88,.03,1.76,0,2.62,.23,1.32,.35,2.44,1.27,3.5,2.16,1.02,.86,2.06,1.74,2.75,2.91,.43,.73,.7,1.56,.94,2.38,1.2,4.21,1.54,8.69,.99,13.05-.05,.42-.12,.85-.32,1.22-.89,1.63-3.37,.79-4.88,1.77-.93,.6-1.35,1.83-1.35,2.98s.34,2.27,.63,3.38c.89,3.43,1.26,7.02,1.08,10.58-.02,.4-.06,.83-.3,1.14-.19,.24-.47,.37-.74,.47-3.11,1.11-6.35-1.01-9.01-3.07-1.11-.86-2.22-1.73-3.33-2.61-.12-.1-.25-.19-.4-.22-.41-.08-.71,.36-.98,.7-.57,.72-1.39,1.14-2.19,1.54-2.89,1.46-5.96,2.96-9.15,2.64"/>
      <path class="cls-17" d="M10.2,453.37c-2.11-1.41-4.47-2.35-7-2.65-1.28-.15-2.55,.04-3.82-.08-1.12-.11-1.68-.73-2.3-1.59-.28-.39-.55-.73-.95-1.01-1.72-1.17-3.7-.35-5.57-.41s-2.66-2.31-2.98-3.89c-.37-1.82-.09-3.68,.27-5.47,.55-2.72,1.06-5.5,1.79-8.17,.35-1.27,.8-2.55,1.53-3.65s1.9-1.67,2.77-2.66c.82-.93,.34-1.86,.86-2.92s1.77-1.46,2.63-2.14c.57-.45,.89-.94,1.17-1.6,.73-1.73,1.53-2.9,3.43-3.43,1.52-.42,3.15-.33,4.71-.46,1.42-.11,2.84-.31,4.25-.53,3.12-.49,6.24-1.12,9.4-1.29s5.99,.42,9.01,.52c1.92,.06,3.31,.64,4.79,1.83,1.14,.91,2.36,1.88,3.17,3.1,1.67,2.5,2.08,6.26,2.3,9.18,.11,1.41,.12,2.82,.05,4.24-.09,1.79,.02,4.08-2.12,4.57-1.69,.39-3.51,.13-4.31,2.03-.91,2.13,.23,4.57,.67,6.67,.37,1.74,.6,3.5,.7,5.28s.56,5.06-1.79,5.51c-3.57,.69-6.91-2.26-9.5-4.28-.61-.48-1.33-1.26-2.03-1.6-.15-.07-.23-.22-.41-.23-.38-.02-.53,.19-.79,.44-.55,.54-1.03,1.06-1.71,1.45-2.95,1.67-6.36,3.26-9.82,2.99-.03,0-.03,.05,0,.05,3,.23,5.74-.94,8.37-2.25,.61-.3,1.23-.59,1.81-.95,.46-.29,.75-.68,1.18-1,1.5-1.11,3.5,1.23,4.68,2.14,2.02,1.56,4.4,3.3,7.06,3.37,.83,.02,2.15-.07,2.72-.78,.64-.79,.36-2.58,.35-3.48-.05-3.11-.58-6.09-1.34-9.1-.41-1.63-.81-3.67,.44-5.06,.97-1.08,2.47-.87,3.76-1.16,2.45-.54,2.14-3.57,2.19-5.56,.07-3.14-.3-6.29-1.12-9.32-.34-1.24-.73-2.47-1.51-3.51-.85-1.12-2.01-2.05-3.11-2.91-.94-.74-1.94-1.38-3.13-1.59-1.46-.27-3.01-.17-4.49-.33-3.17-.36-6.19-.4-9.36,.02-3.53,.47-7.02,1.25-10.58,1.51-2.42,.17-5.47-.07-7.12,2.11-.75,.99-.79,2.31-1.76,3.18-.79,.71-1.87,1.07-2.56,1.89-.81,.97-.29,2.25-1.06,3.24s-1.92,1.48-2.66,2.49c-1.6,2.17-2.03,5.01-2.57,7.59-.68,3.2-1.91,6.76-1.24,10.05,.23,1.13,.8,3.18,1.89,3.79,.84,.47,2.3-.01,3.2-.07,2.08-.14,3.36,.24,4.63,1.94,.69,.92,1.33,1.25,2.49,1.29,1.76,.05,3.38-.05,5.13,.36,1.9,.45,3.67,1.26,5.29,2.35,.03,.02,.05-.03,.03-.04h0Z"/>
    </g>
    <path class="cls-15" d="M3.8,440.43c.21,.49-.04,1.11-.45,1.43s-.94,.43-1.45,.49c-1.5,.18-3.16,.02-4.26-1.07-1-.99-1.31-2.5-1.57-3.93-.19-1.09-.31-2.39,.46-3.13,.49-.46,1.2-.55,1.75-.94,1.26-.88,1.2-2.81,1.62-4.34,.13-.47,.32-.93,.66-1.26,.6-.6,1.51-.64,2.33-.65,.73,0,1.45-.02,2.18-.03,.35,0,.72,0,1.05,.14,1.01,.45,1.15,2.02,2.09,2.62,.45,.28,1.02,.3,1.45,.61,.6,.43,.76,1.3,.74,2.06s-.18,1.55-.01,2.3c.15,.65,.53,1.26,.43,1.92-.14,.86-1.29,1.3-1.92,.73"/>
    <path class="cls-2" d="M5.15,437.32c-1.02,2.16-1.39,4.65-1.03,7.03,.18,1.18,.62,2.46,1.64,2.97,.32,.16,.69,.24,.98,.46,.55,.42,.67,1.21,.95,1.86,.73,1.69,2.69,2.49,4.42,2.22s3.24-1.39,4.5-2.67c.48-.49,.94-1.02,1.5-1.4,.95-.64,2.09-.81,3.15-1.22,1.05-.41,2.02-1.06,2.81-1.91,.37-.4,.72-.85,.86-1.39,.19-.73-.01-1.5-.21-2.23-.52-1.87-1.06-3.78-2.12-5.38s-2.76-2.84-4.6-2.78"/>
    <path class="cls-5" d="M13.44,430.66c-1.06-.93-1.13-2.61-1.11-4.08,0-.39,.01-.8,.14-1.17,.42-1.16,1.81-1.47,2.98-1.54,1.33-.07,2.67-.06,4,.06,.17,.01,.35,.03,.5,.13,.29,.18,.36,.57,.5,.9,.33,.82,1.11,1.35,1.91,1.65s1.64,.44,2.42,.78c.59,.25,1.18,.65,1.44,1.27s.07,1.48-.52,1.74"/>
    <path class="cls-7" d="M.03,427.12c-1.11-2.23-1.66-4.78-1.58-7.3,.02-.53,.08-1.12,.45-1.48,.25-.25,.59-.35,.92-.44,3.36-.92,6.8-1.44,10.27-1.57,.45-.02,.91-.02,1.32,.16,.45,.2,.79,.61,1.1,1.01,.61,.79,1.18,1.61,1.7,2.46"/>
    <path class="cls-16" d="M24.85,432.66l5.09,2.05c1.08,.43,2.34,1.13,2.38,2.35,.02,.6-.28,1.14-.43,1.72-.16,.63-.15,1.29-.13,1.93,.05,2.01,.1,4.03,.15,6.04,.01,.47,.01,.98-.25,1.36-.33,.49-.96,.59-1.52,.65-2.14,.22-4.3,.28-6.45,.19"/>
    <path class="cls-4" d="M29.87,434.15c3.46-.09,6.56-3.38,6.66-7.05,.04-1.32-.35-2.77-1.4-3.48-.25-.17-.54-.3-.72-.56-.2-.29-.21-.68-.22-1.04-.07-1.85-.45-3.68-1.12-5.38-.12-.32-.27-.64-.52-.87-.4-.35-.96-.36-1.48-.34-4.7,.11-9.4,.21-14.11,.32-1.2,.03-2.46,.07-3.49,.71"/>
    <path class="cls-17" d="M10.25,453.22v9.86c0,3.23,.11,6.3-1.21,9.33-1.14,2.61-2.6,5.13-4.01,7.6-1.51,2.63-3.16,5.18-5.19,7.45-.95,1.06,.62,2.64,1.57,1.57,2.06-2.3,3.78-4.85,5.32-7.52s3.18-5.49,4.41-8.38,1.35-5.88,1.34-9.06v-10.85c0-1.43-2.23-1.43-2.23,0h0Z"/>
    <g>
      <path class="cls-12" d="M11.15,465.09c-.1-.78-.63-1.4-1.07-2.04-.72-1.06-1.22-2.28-1.47-3.56-.09-.46-.14-.96,.04-1.4s.67-.75,1.08-.58c.33,.14,.55,.56,.91,.58"/>
      <path d="M11.51,465c-.13-.78-.6-1.4-1.04-2.03-.47-.68-.86-1.41-1.13-2.2-.24-.7-.6-1.66-.39-2.4,.1-.35,.42-.68,.77-.43,.28,.2,.46,.46,.82,.51,.47,.07,.67-.64,.2-.71-.37-.06-.59-.48-.96-.6s-.78,.01-1.07,.26c-.75,.64-.57,1.72-.38,2.57,.22,.95,.59,1.88,1.08,2.73s1.22,1.53,1.37,2.5c.08,.47,.79,.27,.71-.2h0Z"/>
    </g>
    <path class="cls-17" d="M17.91,448.83l.67,12.48c.12,2.16,.23,4.33,.35,6.49,.1,1.67,.26,3.31,1.18,4.75s2.23,2.6,3.34,3.87c1.21,1.39,2.35,2.83,3.43,4.32,2.15,2.99,4.02,6.17,5.62,9.49,.62,1.29,2.54,.16,1.92-1.12-1.51-3.12-3.25-6.12-5.25-8.96s-4.34-5.31-6.57-7.96c-1.3-1.54-1.39-3.22-1.5-5.15l-.32-5.99-.66-12.23c-.08-1.42-2.3-1.43-2.22,0h0Z"/>
    <path class="cls-17" d="M12.35,479.29c-4.38,1.09-6.86,5.23-8.93,8.89-.7,1.25,1.21,2.37,1.92,1.12,1.79-3.16,3.88-6.94,7.6-7.87,.58-.15,.93-.8,.78-1.37s-.78-.92-1.37-.78h0Z"/>
    <path class="cls-17" d="M14.8,481.43c.64-.06,1.14,.3,1.69,.68,.72,.5,1.42,1,2.13,1.5,1.41,1,2.82,1.99,4.23,2.99,.49,.35,1.23,.09,1.52-.4,.32-.56,.09-1.17-.4-1.52-1.5-1.06-3.01-2.12-4.51-3.18-.72-.51-1.43-1.04-2.16-1.52s-1.6-.86-2.5-.77c-.6,.06-1.11,.47-1.11,1.11,0,.55,.51,1.17,1.11,1.11h0Z"/>
    <path class="cls-17" d="M19.36,475.89c2.97,3.22,6.28,6.11,9.86,8.63,.49,.35,1.23,.09,1.52-.4,.32-.56,.09-1.17-.4-1.52-3.43-2.42-6.57-5.21-9.41-8.29-.97-1.05-2.54,.52-1.57,1.57h0Z"/>
    <path class="cls-17" d="M17.88,472.01c-4.08,2.42-7.74,5.53-10.8,9.15-.39,.46-.45,1.12,0,1.57,.4,.4,1.18,.46,1.57,0,2.95-3.48,6.42-6.47,10.35-8.81,1.23-.73,.11-2.65-1.12-1.92h0Z"/>
    <path class="cls-17" d="M8.9,490.27c3.12,.69,6.12,1.8,8.93,3.32,1.26,.68,2.38-1.24,1.12-1.92-2.97-1.61-6.16-2.82-9.47-3.55-.59-.13-1.2,.18-1.37,.78-.15,.56,.19,1.24,.78,1.37h0Z"/>
    <path class="cls-17" d="M18.65,485.27c-3.03-.94-6.47-1.5-9.61-.9-2.72,.52-5.3,2.52-5.69,5.39-.08,.59,.14,1.19,.78,1.37,.52,.14,1.29-.18,1.37-.78,.75-5.6,8.94-4.07,12.57-2.94,1.37,.43,1.95-1.72,.59-2.14h0Z"/>
    <path class="cls-17" d="M1.17,489.16c1.02-.13,2.03-.31,3.03-.58,.27-.07,.52-.27,.66-.51s.2-.59,.11-.86c-.19-.57-.77-.94-1.37-.78-.85,.23-1.71,.4-2.58,.52l.3-.04c-.05,0-.1,.01-.16,.02-.15,0-.3,.03-.43,.1-.14,.04-.26,.12-.36,.23-.19,.19-.34,.51-.33,.79s.11,.59,.33,.79c.2,.18,.5,.36,.79,.33h0Z"/>
    <path class="cls-17" d="M32.87,487.61c-1.5-.63-3.04-1.04-4.65-1.26-.8-.1-1.6-.16-2.4-.16s-1.65,.18-2.44,.06-.73-.55-1.04-1.14c-.34-.64-.94-.88-1.62-.96-1.78-.2-3.58-.07-5.34,.23-1.41,.23-.81,2.37,.59,2.14,.88-.15,1.77-.23,2.67-.24,.44,0,.88,0,1.32,.03,.22,.01,.44,.03,.66,.05l-.19-.02c.18,.26,.24,.59,.43,.85s.44,.51,.73,.7c.54,.36,1.14,.53,1.78,.58,1.46,.13,2.93-.13,4.4,.04,1.56,.18,3.07,.63,4.51,1.23,.56,.23,1.22-.25,1.37-.78,.18-.64-.23-1.14-.78-1.37h0Z"/>
    <path class="cls-17" d="M10.65,488.4c-.09-.04-.19-.07-.28-.11l.27,.11c-.56-.24-1.09-.55-1.57-.93l.22,.17c-.48-.37-.9-.8-1.28-1.27-.16-.21-.53-.33-.79-.33-.27,0-.6,.12-.79,.33s-.34,.49-.33,.79l.04,.3c.05,.19,.15,.35,.29,.49,.94,1.19,2.21,2.07,3.62,2.6,.26,.1,.63,.02,.86-.11s.45-.4,.51-.66c.06-.28,.05-.6-.11-.86s-.38-.4-.66-.51h0Z"/>
    <path class="cls-17" d="M14.67,491.09c.8-.18,1.36-.75,1.84-1.39,.18-.24,.34-.49,.5-.73,.09-.13,.18-.26,.28-.39-.09,.12-.04,.06,.02-.02,.06-.07,.12-.14,.18-.21,.21-.23,.44-.45,.68-.66,.03-.02,.26-.21,.05-.05,.06-.05,.12-.09,.18-.13,.13-.09,.27-.18,.41-.27,.13-.08,.26-.15,.39-.22,.08-.04,.16-.08,.24-.12,.04-.02,.31-.12,.06-.03,.3-.11,.61-.22,.92-.29,.57-.14,.96-.81,.78-1.37-.19-.59-.76-.92-1.37-.78-1.38,.33-2.66,1.07-3.66,2.07-.49,.5-.89,1.07-1.28,1.65-.08,.12-.16,.23-.24,.35-.14,.21,.12-.13-.03,.04-.05,.06-.11,.12-.16,.18-.05,.05-.1,.09-.14,.14-.09,.09,.18-.1,0-.01-.03,.02-.06,.04-.1,.06-.07,.04-.04,.03,.09-.03-.03,.04-.18,.06-.22,.07-.57,.13-.95,.81-.78,1.37,.19,.59,.76,.92,1.37,.78h0Z"/>
  </g>
  <path class="cls-11" d="M453.68,78.52c0,33.63-25.3,60.89-56.5,60.89-2.69,0-5.34-.21-7.93-.6,9.66,8.3,21.89,13.26,35.2,13.26,31.21,0,56.5-27.26,56.5-60.89,0-30.73-21.12-56.13-48.58-60.29,12.98,11.16,21.3,28.34,21.3,47.62Z"/>
  <g>
    <path class="cls-13" d="M172.82,127.79c0-.1-.07-.3-.13-.24l.05,.37,.09-.13Z"/>
    <path class="cls-13" d="M172.14,127.29c-.04,.2-.05,.53,.1,.83-.01-.36,.05-.23,.02-.66,.06-.06,.16,.08,.18,.21,0-.1,.13,.04,.11-.19-.17-.25-.3-.22-.36,.04-.05-.07-.05-.17-.06-.24Z"/>
    <path class="cls-13" d="M164.94,129.23l.06,.02s-.04-.02-.06-.02Z"/>
    <path class="cls-13" d="M160.75,131.35s.02-.07,0-.09c-.01,.04-.02,.07,0,.09Z"/>
    <path class="cls-13" d="M159.86,131.48s.04,0,.05,0c-.03-.02-.06-.02-.05,0Z"/>
    <path class="cls-13" d="M164.94,129.23l-.16-.05c.04,.11,.1,.05,.16,.05Z"/>
    <path class="cls-13" d="M171.42,128.42s.03-.06,.04-.11c-.02,.02-.03,.04-.05,.05v.06Z"/>
    <path class="cls-13" d="M166.72,128.15h.04c0-.06-.02-.11-.02-.17v.17Z"/>
    <path class="cls-13" d="M168.19,127.56s.05,.3,.09,.43c-.02-.13-.02-.19,0-.23-.02-.06-.05-.12-.09-.2Z"/>
    <path class="cls-13" d="M170.72,127.31l.03-.05s-.02,.03-.03,.05Z"/>
    <path class="cls-13" d="M165.64,128.52s-.04-.08-.06-.1c.02,.04,.04,.07,.06,.1Z"/>
    <path class="cls-13" d="M130.96,129.11s.01-.03,.02-.05c-.02,.03-.03,.04-.02,.05Z"/>
    <polygon class="cls-13" points="129.92 127.01 129.95 127 130.01 126.84 129.92 127.01"/>
    <path class="cls-13" d="M158.43,132.04h0c0-.05,0-.03,0,0Z"/>
    <path class="cls-13" d="M149.45,139.64c0,.46-.16,.38-.14,.91,.03-.17,.16-.59,.14-.91Z"/>
    <path class="cls-13" d="M171.37,128.39s-.04,.02-.06,.02c.03,0,.05,0,.06-.02Z"/>
    <path class="cls-13" d="M149.3,140.55h0s0,.06,0,.06c0-.02,0-.04,0-.06Z"/>
    <path class="cls-13" d="M155.93,134.29s.08,.06,.11,.08c-.02-.02-.05-.05-.11-.08Z"/>
    <path class="cls-13" d="M158.14,133.06h-.07s.06,0,.07,0Z"/>
    <path class="cls-13" d="M155.23,135.45s-.08-.02-.08,.04c.01,0,.02,.02,.04,.02-.01-.04-.01-.07,.05-.06Z"/>
    <path class="cls-13" d="M154.21,136.31s.04,.02,.06,.03l.02-.04h-.08Z"/>
    <path class="cls-13" d="M134.55,130.72c.02-.09,.05-.18,.08-.27-.09,.2-.29,.18-.08,.27Z"/>
    <path class="cls-13" d="M171.37,128.25c.02,.08,.02,.12,0,.14,.01,0,.03-.02,.04-.03,0-.05-.02-.09-.04-.11Z"/>
    <path class="cls-13" d="M156.77,137.37l-.19,.1c.06-.01,.13-.05,.19-.1Z"/>
    <path class="cls-13" d="M142.26,135.88h-.06s.03,.02,.06,0Z"/>
    <path class="cls-13" d="M156.12,137.91c-.1-.06-.17-.08-.23-.09,0,.02,.01,.05,.03,.08h.2Z"/>
    <path class="cls-13" d="M134.63,130.45h0s0,0,0,0Z"/>
    <path class="cls-13" d="M133.09,130.47c.17,.09,.26-.32,.41-.51,.26,0-.04,.32-.07,.54,.18-.03,.45-.31,.54-.24-.02,.06-.02,.1-.08,.16,.29-.21,.41,.2,.77-.07,0,.04-.02,.07-.03,.1,.07-.19,.17-.38,.24-.51,.08,.04,.27-.15,.17,.1-.04-.03-.1,.06-.16,.12l.14-.06c-.11,.38-.18,.06-.31,.31,.22-.02,.56-.2,.63-.04-.16,.34-.34-.05-.35,.33l-.12-.23c-.14,.6-.09-.1-.27,.53,.19,.23,.37-.01,.56,.22,.16-.15,.13-.28,.29-.43,.54-.13-.2,.98,.3,.69,.19-.18,.46-.58,.51-.25l-.28,.33c.21,.17,.45-.45,.55-.06-.13,.12-.26,0-.25,.07-.01,.38,.24-.14,.36-.06l-.17,.34c.28,.1,.69,.04,1,.15-.07,.09-.18,.16-.18,.29,.45,.05,.71,.5,.9,.91l.3-.19s-.03,.16-.09,.19c.06,.19,.12-.17,.25-.23,.08,.03,0,.22-.11,.27,.37-.08,.98-.07,1,.39l-.1,.05c.1,.24,.59-.4,.58-.03l-.07,.02c.3,.4,.91,.47,.91,1.08,.34-.33,.24,.46,.67-.04,.01,.43-.12,.47,.04,.88,.06,.09,.38-.22,.52-.19l-.21,.27,.36-.17-.19,.37h.15s.02-.17,.09-.25c.24,0,.2,.47,.09,.6l.51,.07c-.1,.1-.18,.08-.28,.11,.4-.11-.21,.3,.16,.2,.03-.08,.15-.14,.19-.19-.06,.23,.12,.39,.31,.44l-.18,.15c.2,.26,.59,.36,.84,.62-.02-.17,.29-.45,.39-.4l-.22,.29c.2-.11,.02-.18,.3-.27,.07,.13-.22,.36-.36,.39l.2,.03c-.07,.08-.13,.1-.24,.19,.2-.11-.05,.46,.29,.25l-.07,.08c.25,.26,.45,.28,.67,.48,.23-.21,.26-.08,.5-.2,.09,.22,.07,.56,.26,.74,.24,.03,.23-.14,.42-.2-.2,.2,0,.38-.25,.41,.24,.2,.3,.26,.74,.41,.06-.11,.07-.18,.16-.22,.08,.02,.02,.2-.09,.28h-.03c.32,.05,.3,.33,.36,.7,.09,.43,.26,.92,.61,.89h-.04c.18,.07,.35,.12,.51,.17,.14,.26-.2,.09-.16,.43,.31,.02,.44,.21,.57,.45,.13,.23,.26,.49,.45,.48,0,.18,.03,.34,.06,.48,.01,.09,.04,.09,.08,.08,.03,0,.07-.01,.1-.03,.15-.06,.32-.23,.5-.4,.36-.35,.67-.72,1.02-.66l-.09-.18c.06-.3,.19,0,.31-.05-.08-.14-.21-.06-.17-.23,.24-.27,.49-.49,.76-.68,.17-.11,.36-.2,.55-.28,.39-.16,.82-.28,1.18-.46,.26-.14-.52-.89,.06-.76l.15,.35c.18-.71,.94-.75,1.14-1.41,.03,.09,.1,.17,.05,.21,.26,.13,.35-.28,.22-.45,.08-.04,.14,.14,.25,.19,.19,.04,.02-.46,.24-.29,.04,.03,.03,.09,.03,.12-.02-.15,.31-.21,.05-.4,.26-.03,.23-.37,.48-.34-.13-.34,.39-.11,.1-.5,.31,.39,.55,.07,.5-.2,.06,.15,.19,.04,.29,.24,.11-.11,.16-.27-.02-.45,.6,.28,.13-.74,.75-.25,.18-.5,.39-.92,.63-1.26,.31,.39-.32,.33,.03,.72,.17-.41,.07-.88,.45-1.03,.12-.01,.09,.2,.12,.29,.17-.4,.61-.44,.71-.86,.03,.04,.03,.1,.03,.15,.04-.05,.17-.04,.02-.21v.09c-.3-.19-.23-.71-.32-.85,.31,.58,.37-.08,.73,.68,0-.06-.01-.18-.11-.29,.08,0,.15,.05,.2,.23,.11-.25-.1-.39,.08-.52,.07,.09,.06,.15,.12,.27-.04-.24-.08-.48,.12-.51,.03,.06,.1,.12,.05,.15,.23-.21,.1-.78,.5-.82,.19,.45,.19,.06,.44,.39l.08-.21-.18-.12c.13-.09,.09-.41,.28-.38v.21s.21-.23,.21-.23l-.23-.03c.02-.27-.31-.42-.06-.45-.01,.06,.14-.09,.35,.07h0c0-.15,0-.32,.15-.3,.1,.09,.23,.4,.29,.46-.12-.34,.27-.29,.16-.65,.02,.09,.13,.28,.16,.31l-.09-.27c.11,.04,.14,.07,.22,.22,.22-.07-.34-.41,.02-.36,0,.03,.02,.06,0,.12,.29-.04,.36-.42,.65-.43,.27,.33-.14,.2,.11,.46,.27-.24,.41-.79,.77-.87h-.08c-.23-.56,.36,.13,.39-.2-.02,.06,.1,.32,.08,.25,.25-.02,.37-.34,.63-.66l.02,.16c.18,.06,.37-.09,.53-.09-.02-.16,.07-.17-.07-.35,.77,.6,.66-.77,1.32-.27-.05,.02-.06,.17-.02,.15l.28-.26c-.12-.23-.1-.13-.24-.28-.01-.16,.04-.31,.12-.34-.09,.22,.15,.38,.26,.49-.04-.07-.05-.16-.08-.23,.34,.36-.15-.49,.2-.29l.03,.13c.07-.1,.09-.29,.2-.29,.14,.26-.05,.16,.03,.4,.13-.07,.08-.63,.3-.39-.03,.1-.11,.13-.14,.23,.25,.28,.24,.19,.36,.21h-.01s.28,.06,.28,.06l-.09-.07c-.08-.79,.3-.26,.37-.82-.07,.53,.05,.27,.14,.6,.09,.07,.21,.14,.22,.24,.02-.29,.25,.14,.28-.28,.04,.1,.12-.03,.18,.24,.12-.13-.09-.17-.12-.3,.11-.42,.65,.26,.82-.33,.21-.29,.15-.66,.36-.9,.14,.14,.04,.4,.04,.4,.19,.11,.28,.05,.38-.11,0,.1,.05,.17,.13,.27,.1-.06-.04-.4,.14-.29,.01,.12,.04,.32,.02,.45,.1-.13,.16-.36,.26-.49,.09,.17,0,.3,0,.43,.12-.12,.33-.27,.29-.57l-.12-.07s.1,.24,.08,.3c-.06,.26-.21-.05-.25-.15l.07-.09c-.27-.58-.34,.21-.54,.23l-.06-.46-.08,.42c-.08-.1-.18-.34-.11-.43-.2-.18-.07,.19-.26-.02-.02-.03-.02-.06-.02-.08l-.09,.17c0-.1-.12-.3-.02-.26-.31-.19-.28,.45-.47,.14v-.03c-.27,.25,.08,.33-.04,.79l-.42-.74,.07,.33s-.11,0-.14-.14c-.05,.26,.07,.13,.06,.36-.26-.24-.4,.28-.6-.22,.02,.26,.22,.14,.1,.36-.23-.53-.17,.16-.4-.05-.05-.3,.14-.19-.09-.4,.07,.51-.32,0-.41,.13,.13,.38-.21,.26-.37,.46-.03-.13-.46-.07-.71-.13l-.02-.07c.11,.4-.12,.39-.23,.53-.08-.23-.09-.33-.05-.46l-.14,.05c.02,.13,0,.22-.07,.29l-.08-.3c-.18,.09-.23,.48-.54,.39,.1,.27,.48,.66,.31,.93-.07-.14-.18-.38-.14-.46-.01,.03-.02,.15-.09,.1v-.28c-.15-.06,.03,.22-.07,.23-.08-.2-.12-.12-.18-.28,.01-.03,.11,.05,.11-.04-.11,0-.27-.07-.38-.21,.06,.11,.11,.27,.06,.33-.17,.09-.16-.22-.31-.28,.02,.16-.16,.06-.03,.36-.05,.02-.12-.11-.18-.19-.03,.17-.41,.24-.16,.51h.03s0,.02,0,.03h0s0,0,0,0c-.16,.43-.69,.12-.93,.38l-.05-.1c-.12,.2-.35,.27-.36,.54-.05,.03-.21-.11-.25-.24-.09,.14-.05,.26-.33,.2,.04-.24-.13-.12,.07-.2-.22,0-.34-.12-.38,.24-.07-.28-.3-.24-.34-.11l.22,.1c-.07,.09-.16,.11-.25,.14l-.14-.35c-.58-.18-.23,1.03-.88,.54,.05,.27,.28,.04,.36,.35-.18,.05-.63-.29-.68-.26-.32-.03,.1,.58-.2,.61,.1,.09,.32,.37,.23,.58-.18,.06-.5-.33-.46-.48,.03-.03,.07-.01,.1,.03,.02-.07,.06-.16-.08-.24l.05,.12c-.15-.06-.36,.09-.43-.12-.05,.18,.07,.21,.2,.21-.31-.03-.31,.2-.58,.24,.07,.04,.19,.14,.16,.16-.38,.08,.02,.29-.14,.48-.23-.08-.24-.42-.34-.14-.2-.02-.23-.26-.25-.38-.03,.33-.44,.11-.57,.15l.03-.15c-.02,.09-.07,.12-.11,.16l.21,.17c-.08,0-.13,.04-.19-.05,.05,.18,.31,.32,.34,.59-.15-.05-.13,.28-.37,.02,.3-.08-.24-.26-.08-.45-.01,.06-.06,.1-.14,.1-.03-.02-.04-.06-.03-.09-.41-.08,.14,.39-.09,.56-.09-.18-.28-.25-.29-.19,.09-.07,.24,.23,.26,.41-.24,0-.08,.21-.17,.25h.13c.09,.17,0,.2-.05,.33-.1-.11,.02-.15-.05-.18,.1,.35-.47-.08-.47,.22-.15-.05-.24-.28-.36-.3,0,.34-.35-.06-.4,.25,.22,.16,.19,.11,.22,.41l.17-.38,.06,.45c.09-.07,.08-.28,.16-.29,.05,.24,.01,.18,.19,.32-.37-.21-.09,.37-.4,.28l-.41-.51c-.39-.06-.16,.56-.53,.66l.16,.02c.13,.23-.14,.16-.16,.32-.13-.18-.24-.19-.36-.27,.11,.12-.2,.15,.05,.51l-.3-.12c-.29,.09,.15,.68-.1,.8-.09-.23-.28-.27-.25-.52-.07,.06-.16,.08-.06,.19-.13-.07,0,.39-.2,.28,.03,.1,.17,.28,.08,.33-.04-.03-.07-.08-.07-.08,.07,.08-.03,.21,.2,.34-.65-.35-.56,.53-1.12,.24-.1,.18-.24,.39-.36,.51-.03-.06-.07-.08-.03-.09-.32,0,.29,.58-.07,.58-.34-.18,0-.24-.16-.29-.49-.53-.19,.29-.61,.09v-.06c-.26-.1-.09,.43-.3,.54,0,0-.03-.06-.07-.08,.11,.39-.04,.67-.15,.89-.13-.26-.02-.18-.23-.37-.05,.1,.32,.34,.21,.53-.15-.08-.35-.09-.56-.31l.14-.13c-.33-.24-.18,.17-.3,.18l-.1-.14c-.19,.23,.08,.57-.18,.74l.11,.08c.14,.44-.26-.1-.19,.26l-.32-.31c-.02,.15-.04,.58-.14,.77-.11-.32-.04-.6-.05-.84-.09,.07-.27,.27-.18,.47,0-.06-.02-.18,.06-.16,.11,.35,.08,.6-.1,.73-.25-.34-.4-.29-.54-.21-.08,.03-.18,.1-.34-.2,.02,.19-.07,.22-.14,.18-.07-.03-.11-.12-.16-.05-.02,.86-.04,.05-.13,1-.06,.06-.07-.03-.07-.08-.02-.25-.03-.48-.02-.7,.03-.28,.07-.15,.11-.35-.04-.14,.06-.4,.09-.65-.07,.3-.14,.4-.13,.25-.03,.13-.05,.28-.07,.42-.24,.27,.16-.73-.07-.43l.13-.19c-.1,.08-.08-.12-.5,.23,.04-.07,.16-.22,.22-.23,0-.05-.05-.06-.11-.06-.11-.05-.23-.09-.35-.14-.23-.09-.43-.2-.41-.43l.15-.08c-.09-.03-.32,.1-.26-.08,.05-.04,.15-.09,.13-.12-.07,0-.36,.04-.35-.11l.2-.06c-.11-.45-.75-.17-1.06-.34,.36-.33,.24-.67,.19-.84l.05-.04c-.3-.38-.86-.29-1.3-.46,.18-.58-.51-.8-.64-1.31,0,.11-.26,.27-.35,.26-.01-.14-.44,.06-.13-.26l.02,.03c.23-.38,0-.43-.12-.55l-.41,.42c.24-.94-1.05-.49-.75-1.22-.17,.05-.27-.03-.44,.02l.2-.24c-.17-.24-.26-.37-.59-.53l.19-.13c-.15-.14-.75,.55-.91,.46l.24-.41c-.28-.2-.33-.74-.86-.6,.05-.05,.13-.16,.19-.14-.13-.11-.33-.64-.66-.08,.24-.34-.27-.25-.53-.2l.2-.24c-.36,.24-.42,.32-.67,.29-.02-.06,.1-.23,.11-.13-.05-.23-.28,.17-.36-.09l.18-.12c-.14-.12-.18-.02-.39,.11-.16,.04-.24-.25-.11-.5-.11,.13-.32,.26-.36,.14,.05-.1,.11-.13,.15-.15-.13-.35-.57,.06-.58-.3,.05-.09,.07-.14,.07-.17,.2,.13,.35,.25,.32,.26,.16-.24,.02-.38,.36-.63-.25,.1-.72,.35-.81,.14,0-.03,.01-.06,.03-.1l.03-.02s-.07-.05-.13-.02c-.03-.07-.04-.12-.09-.16,.11-.21-.12-.23-.2-.29-.16,.27-.24,.16-.27,.44,0-.03,.03-.02,.1,0,.02,0,.03,0,.05,0l-.02,.02c.06,.03,.13,.06,.21,.11-.15,.09-.28,.17-.28-.04-.15,.14-.3,.29-.38,.36,.12-.44,.02-.77,.13-1.02-.34,0-.66-.25-1.11,.16-.11,.02,0-.19,.02-.29,.07-.03,.12,0,.18-.05-.22,.05-.46-.2-.69,.14-.09-.26,.29-.27,0-.35l.09-.09c-.18-.86-1.31,.48-1.46-.56,.01,.07,.02,.1,0,.16-.46-.66-1.46-.36-1.84-1.19-.13-.19-.26,.03-.46,.16l.1-.32-.35,.26c-.38,.14-.13-.96-.69-.62l-.05,.23c-.11-.1-.44-.05-.32-.28-.03,.03-.13,.2-.13,.07l.06-.16-.42,.15c-.19-.22,.3-.63-.04-.8-.16,0-.57,.33-.56,.46,.05,.03,.1,.15,.04,.32l-.15,.04c-.2,.48-.46,.94-.33,1.38l.3-.22-.03,.26-.16-.05c0,.25,.14,.08,.25-.02-.03,.13-.04,.23-.02,.29l.38-.38c-.05,.2-.24,.34-.15,.49,.18-.17,.09-.45,.29-.53,0,.26-.1,.42,.09,.28-.04,.13-.09,.2-.16,.23,.16-.11,.28,.04,.44-.18-.02,.31,.35,.07,.15,.52,.08-.09,.32-.28,.42-.26-.4,.46,.31,.18,0,.73,.34-.42,.52-.01,.85-.18-.03,.03-.09,.1-.1,.07,.1,.09,.06,.25,.1,.38,.2-.39,.43-.38,.64-.57-.04,.45-.31,.41-.44,.8,.15-.32,.4-.19,.48-.48,0,.29,.04,.16-.07,.51,.26-.48,.14-.03,.38-.28,.04,.32-.19,.47,.06,.41,0,.19-.23,.28-.23,.28Zm4.45,1.45h0s-.07-.02-.09-.03c.02,0,.05,.01,.09,.03Zm.33,.2s-.08-.07-.14-.1c.05-.1,.12-.18,.15-.16-.06,.05-.01,.15-.01,.26Zm.44-2.27c.08,0,.06,.06,.04,.12-.03-.01-.06-.02-.11-.03l-.03,.03s.07-.09,.1-.12Z"/>
    <path class="cls-13" d="M137.99,130.14s-.02,0-.03,0c0,.03,0,.06,0,.08l.07-.07h-.03Z"/>
    <path class="cls-13" d="M165.01,129.25h-.01s.02,.01,.03,.03c-.01-.01-.02-.02-.02-.03Z"/>
    <polygon class="cls-13" points="141.83 135.73 141.88 135.67 141.81 135.7 141.83 135.73"/>
    <path class="cls-13" d="M167.42,129.4s.03,.05,.05,.06c0-.02-.03-.04-.05-.06Z"/>
    <path class="cls-13" d="M168.32,129.15l.16,.06c-.07-.04-.12-.05-.16-.06Z"/>
    <path class="cls-13" d="M169.04,129.06c0-.05-.02-.09-.03-.13h0s.03,.13,.03,.13Z"/>
    <path class="cls-13" d="M159.47,134.67s-.01,.02-.01,.03c-.01,.09,0,.04,.01-.03Z"/>
    <path class="cls-13" d="M161.75,132.11c0,.07,0,.13,0,.18,.06-.01,.1-.03,0-.18Z"/>
    <polygon class="cls-13" points="156.79 137.36 156.78 137.36 156.77 137.37 156.79 137.36"/>
    <path class="cls-13" d="M161.61,132.37c.08,.02,.12-.02,.13-.08-.05,0-.12,.02-.13,.08Z"/>
    <path class="cls-13" d="M172.04,128.27h.04s0-.03-.01-.05l-.03,.05Z"/>
    <path class="cls-13" d="M172.07,128.22l.03-.05s-.03,.01-.03,.05Z"/>
    <path class="cls-13" d="M172.15,128.08l-.06,.1s.06,0,.06-.1Z"/>
    <path class="cls-13" d="M171.09,128.4l.02,.11s0-.06-.02-.11Z"/>
    <path class="cls-13" d="M170.82,128.51c.07,0,.24,.18,.31,.09l-.02-.09c0,.17-.28-.2-.29,0Z"/>
    <path class="cls-13" d="M169.25,127.55h.26c-.08-.09-.18-.23-.08-.29-.41-.25,.14,.24-.18,.29Z"/>
    <path class="cls-13" d="M168.46,127.62c.11-.1-.06-.17-.07-.23-.04,.13-.05,.17,.07,.23Z"/>
    <path class="cls-13" d="M163.34,129.8l-.12-.26c-.07,.08,.05,.1,.12,.26Z"/>
    <polygon class="cls-13" points="163.14 131.58 163.3 131.69 163.21 131.44 163.14 131.58"/>
    <polygon class="cls-13" points="161.56 130.17 161.58 130.11 161.48 130.29 161.56 130.17"/>
    <path class="cls-13" d="M154.22,135.94l.25,.25c.01-.09-.23-.4-.25-.25Z"/>
    <path class="cls-13" d="M151.4,138.74c-.14-.11-.3-.12-.24,.05,.08-.04,.24,.01,.24-.05Z"/>
    <polygon class="cls-13" points="144.44 134.26 144.57 134.23 144.39 134.2 144.44 134.26"/>
  </g>
  <g>
    <path class="cls-13" d="M197.23,148.88c0-.1-.07-.3-.13-.24l.05,.37,.09-.13Z"/>
    <path class="cls-13" d="M196.56,148.37c-.04,.2-.05,.53,.1,.83-.01-.36,.05-.23,.02-.66,.06-.06,.16,.08,.18,.21,0-.1,.13,.04,.11-.19-.17-.25-.3-.22-.36,.04-.05-.07-.05-.17-.06-.24Z"/>
    <path class="cls-13" d="M189.35,150.31l.06,.02s-.04-.02-.06-.02Z"/>
    <path class="cls-13" d="M185.16,152.43s.02-.07,0-.09c-.01,.04-.02,.07,0,.09Z"/>
    <path class="cls-13" d="M184.27,152.56s.04,0,.05,0c-.03-.02-.06-.02-.05,0Z"/>
    <path class="cls-13" d="M189.35,150.31l-.16-.05c.04,.11,.1,.05,.16,.05Z"/>
    <path class="cls-13" d="M195.83,149.51s.03-.06,.04-.11c-.02,.02-.03,.04-.05,.05v.06Z"/>
    <path class="cls-13" d="M191.13,149.24h.04c0-.06-.02-.11-.02-.17v.17Z"/>
    <path class="cls-13" d="M192.6,148.64s.05,.3,.09,.43c-.02-.13-.02-.19,0-.23-.02-.06-.05-.12-.09-.2Z"/>
    <path class="cls-13" d="M195.13,148.4l.03-.05s-.02,.03-.03,.05Z"/>
    <path class="cls-13" d="M190.06,149.6s-.04-.08-.06-.1c.02,.04,.04,.07,.06,.1Z"/>
    <path class="cls-13" d="M155.38,150.2s.01-.03,.02-.05c-.02,.03-.03,.04-.02,.05Z"/>
    <polygon class="cls-13" points="154.33 148.09 154.36 148.09 154.43 147.93 154.33 148.09"/>
    <path class="cls-13" d="M182.85,153.12h0c0-.05,0-.03,0,0Z"/>
    <path class="cls-13" d="M173.86,160.73c0,.46-.16,.38-.14,.91,.03-.17,.16-.59,.14-.91Z"/>
    <path class="cls-13" d="M195.78,149.48s-.04,.02-.06,.02c.03,0,.05,0,.06-.02Z"/>
    <path class="cls-13" d="M173.72,161.64h0s0,.06,0,.06c0-.02,0-.04,0-.06Z"/>
    <path class="cls-13" d="M180.35,155.38s.08,.06,.11,.08c-.02-.02-.05-.05-.11-.08Z"/>
    <path class="cls-13" d="M182.55,154.15h-.07s.06,0,.07,0Z"/>
    <path class="cls-13" d="M179.64,156.54s-.08-.02-.08,.04c.01,0,.02,.02,.04,.02-.01-.04-.01-.07,.05-.06Z"/>
    <path class="cls-13" d="M178.63,157.39s.04,.02,.06,.03l.02-.04h-.08Z"/>
    <path class="cls-13" d="M158.96,151.81c.02-.09,.05-.18,.08-.27-.09,.2-.29,.18-.08,.27Z"/>
    <path class="cls-13" d="M195.78,149.34c.02,.08,.02,.12,0,.14,.01,0,.03-.02,.04-.03,0-.05-.02-.09-.04-.11Z"/>
    <path class="cls-13" d="M181.18,158.46l-.19,.1c.06-.01,.13-.05,.19-.1Z"/>
    <path class="cls-13" d="M166.67,156.96h-.06s.03,.02,.06,0Z"/>
    <path class="cls-13" d="M180.54,159c-.1-.06-.17-.08-.23-.09,0,.02,.01,.05,.03,.08h.2Z"/>
    <path class="cls-13" d="M159.04,151.53h0s0,0,0,0Z"/>
    <path class="cls-13" d="M157.5,151.55c.17,.09,.26-.32,.41-.51,.26,0-.04,.32-.07,.54,.18-.03,.45-.31,.54-.24-.02,.06-.02,.1-.08,.16,.29-.21,.41,.2,.77-.07,0,.04-.02,.07-.03,.1,.07-.19,.17-.38,.24-.51,.08,.04,.27-.15,.17,.1-.04-.03-.1,.06-.16,.12l.14-.06c-.11,.38-.18,.06-.31,.31,.22-.02,.56-.2,.63-.04-.16,.34-.34-.05-.35,.33l-.12-.23c-.14,.6-.09-.1-.27,.53,.19,.23,.37-.01,.56,.22,.16-.15,.13-.28,.29-.43,.54-.13-.2,.98,.3,.69,.19-.18,.46-.58,.51-.25l-.28,.33c.21,.17,.45-.45,.55-.06-.13,.12-.26,0-.25,.07-.01,.38,.24-.14,.36-.06l-.17,.34c.28,.1,.69,.04,1,.15-.07,.09-.18,.16-.18,.29,.45,.05,.71,.5,.9,.91l.3-.19s-.03,.16-.09,.19c.06,.19,.12-.17,.25-.23,.08,.03,0,.22-.11,.27,.37-.08,.98-.07,1,.39l-.1,.05c.1,.24,.59-.4,.58-.03l-.07,.02c.3,.4,.91,.47,.91,1.08,.34-.33,.24,.46,.67-.04,.01,.43-.12,.47,.04,.88,.06,.09,.38-.22,.52-.19l-.21,.27,.36-.17-.19,.37h.15s.02-.17,.09-.25c.24,0,.2,.47,.09,.6l.51,.07c-.1,.1-.18,.08-.28,.11,.4-.11-.21,.3,.16,.2,.03-.08,.15-.14,.19-.19-.06,.23,.12,.39,.31,.44l-.18,.15c.2,.26,.59,.36,.84,.62-.02-.17,.29-.45,.39-.4l-.22,.29c.2-.11,.02-.18,.3-.27,.07,.13-.22,.36-.36,.39l.2,.03c-.07,.08-.13,.1-.24,.19,.2-.11-.05,.46,.29,.25l-.07,.08c.25,.26,.45,.28,.67,.48,.23-.21,.26-.08,.5-.2,.09,.22,.07,.56,.26,.74,.24,.03,.23-.14,.42-.2-.2,.2,0,.38-.25,.41,.24,.2,.3,.26,.74,.41,.06-.11,.07-.18,.16-.22,.08,.02,.02,.2-.09,.28h-.03c.32,.05,.3,.33,.36,.7,.09,.43,.26,.92,.61,.89h-.04c.18,.07,.35,.12,.51,.17,.14,.26-.2,.09-.16,.43,.31,.02,.44,.21,.57,.45,.13,.23,.26,.49,.45,.48,0,.18,.03,.34,.06,.48,.01,.09,.04,.09,.08,.08,.03,0,.07-.01,.1-.03,.15-.06,.32-.23,.5-.4,.36-.35,.67-.72,1.02-.66l-.09-.18c.06-.3,.19,0,.31-.05-.08-.14-.21-.06-.17-.23,.24-.27,.49-.49,.76-.68,.17-.11,.36-.2,.55-.28,.39-.16,.82-.28,1.18-.46,.26-.14-.52-.89,.06-.76l.15,.35c.18-.71,.94-.75,1.14-1.41,.03,.09,.1,.17,.05,.21,.26,.13,.35-.28,.22-.45,.08-.04,.14,.14,.25,.19,.19,.04,.02-.46,.24-.29,.04,.03,.03,.09,.03,.12-.02-.15,.31-.21,.05-.4,.26-.03,.23-.37,.48-.34-.13-.34,.39-.11,.1-.5,.31,.39,.55,.07,.5-.2,.06,.15,.19,.04,.29,.24,.11-.11,.16-.27-.02-.45,.6,.28,.13-.74,.75-.25,.18-.5,.39-.92,.63-1.26,.31,.39-.32,.33,.03,.72,.17-.41,.07-.88,.45-1.03,.12-.01,.09,.2,.12,.29,.17-.4,.61-.44,.71-.86,.03,.04,.03,.1,.03,.15,.04-.05,.17-.04,.02-.21v.09c-.3-.19-.23-.71-.32-.85,.31,.58,.37-.08,.73,.68,0-.06-.01-.18-.11-.29,.08,0,.15,.05,.2,.23,.11-.25-.1-.39,.08-.52,.07,.09,.06,.15,.12,.27-.04-.24-.08-.48,.12-.51,.03,.06,.1,.12,.05,.15,.23-.21,.1-.78,.5-.82,.19,.45,.19,.06,.44,.39l.08-.21-.18-.12c.13-.09,.09-.41,.28-.38v.21s.21-.23,.21-.23l-.23-.03c.02-.27-.31-.42-.06-.45-.01,.06,.14-.09,.35,.07h0c0-.15,0-.32,.15-.3,.1,.09,.23,.4,.29,.46-.12-.34,.27-.29,.16-.65,.02,.09,.13,.28,.16,.31l-.09-.27c.11,.04,.14,.07,.22,.22,.22-.07-.34-.41,.02-.36,0,.03,.02,.06,0,.12,.29-.04,.36-.42,.65-.43,.27,.33-.14,.2,.11,.46,.27-.24,.41-.79,.77-.87h-.08c-.23-.56,.36,.13,.39-.2-.02,.06,.1,.32,.08,.25,.25-.02,.37-.34,.63-.66l.02,.16c.18,.06,.37-.09,.53-.09-.02-.16,.07-.17-.07-.35,.77,.6,.66-.77,1.32-.27-.05,.02-.06,.17-.02,.15l.28-.26c-.12-.23-.1-.13-.24-.28-.01-.16,.04-.31,.12-.34-.09,.22,.15,.38,.26,.49-.04-.07-.05-.16-.08-.23,.34,.36-.15-.49,.2-.29l.03,.13c.07-.1,.09-.29,.2-.29,.14,.26-.05,.16,.03,.4,.13-.07,.08-.63,.3-.39-.03,.1-.11,.13-.14,.23,.25,.28,.24,.19,.36,.21h-.01s.28,.06,.28,.06l-.09-.07c-.08-.79,.3-.26,.37-.82-.07,.53,.05,.27,.14,.6,.09,.07,.21,.14,.22,.24,.02-.29,.25,.14,.28-.28,.04,.1,.12-.03,.18,.24,.12-.13-.09-.17-.12-.3,.11-.42,.65,.26,.82-.33,.21-.29,.15-.66,.36-.9,.14,.14,.04,.4,.04,.4,.19,.11,.28,.05,.38-.11,0,.1,.05,.17,.13,.27,.1-.06-.04-.4,.14-.29,.01,.12,.04,.32,.02,.45,.1-.13,.16-.36,.26-.49,.09,.17,0,.3,0,.43,.12-.12,.33-.27,.29-.57l-.12-.07s.1,.24,.08,.3c-.06,.26-.21-.05-.25-.15l.07-.09c-.27-.58-.34,.21-.54,.23l-.06-.46-.08,.42c-.08-.1-.18-.34-.11-.43-.2-.18-.07,.19-.26-.02-.02-.03-.02-.06-.02-.08l-.09,.17c0-.1-.12-.3-.02-.26-.31-.19-.28,.45-.47,.14v-.03c-.27,.25,.08,.33-.04,.79l-.42-.74,.07,.33s-.11,0-.14-.14c-.05,.26,.07,.13,.06,.36-.26-.24-.4,.28-.6-.22,.02,.26,.22,.14,.1,.36-.23-.53-.17,.16-.4-.05-.05-.3,.14-.19-.09-.4,.07,.51-.32,0-.41,.13,.13,.38-.21,.26-.37,.46-.03-.13-.46-.07-.71-.13l-.02-.07c.11,.4-.12,.39-.23,.53-.08-.23-.09-.33-.05-.46l-.14,.05c.02,.13,0,.22-.07,.29l-.08-.3c-.18,.09-.23,.48-.54,.39,.1,.27,.48,.66,.31,.93-.07-.14-.18-.38-.14-.46-.01,.03-.02,.15-.09,.1v-.28c-.15-.06,.03,.22-.07,.23-.08-.2-.12-.12-.18-.28,.01-.03,.11,.05,.11-.04-.11,0-.27-.07-.38-.21,.06,.11,.11,.27,.06,.33-.17,.09-.16-.22-.31-.28,.02,.16-.16,.06-.03,.36-.05,.02-.12-.11-.18-.19-.03,.17-.41,.24-.16,.51h.03s0,.02,0,.03h0s0,0,0,0c-.16,.43-.69,.12-.93,.38l-.05-.1c-.12,.2-.35,.27-.36,.54-.05,.03-.21-.11-.25-.24-.09,.14-.05,.26-.33,.2,.04-.24-.13-.12,.07-.2-.22,0-.34-.12-.38,.24-.07-.28-.3-.24-.34-.11l.22,.1c-.07,.09-.16,.11-.25,.14l-.14-.35c-.58-.18-.23,1.03-.88,.54,.05,.27,.28,.04,.36,.35-.18,.05-.63-.29-.68-.26-.32-.03,.1,.58-.2,.61,.1,.09,.32,.37,.23,.58-.18,.06-.5-.33-.46-.48,.03-.03,.07-.01,.1,.03,.02-.07,.06-.16-.08-.24l.05,.12c-.15-.06-.36,.09-.43-.12-.05,.18,.07,.21,.2,.21-.31-.03-.31,.2-.58,.24,.07,.04,.19,.14,.16,.16-.38,.08,.02,.29-.14,.48-.23-.08-.24-.42-.34-.14-.2-.02-.23-.26-.25-.38-.03,.33-.44,.11-.57,.15l.03-.15c-.02,.09-.07,.12-.11,.16l.21,.17c-.08,0-.13,.04-.19-.05,.05,.18,.31,.32,.34,.59-.15-.05-.13,.28-.37,.02,.3-.08-.24-.26-.08-.45-.01,.06-.06,.1-.14,.1-.03-.02-.04-.06-.03-.09-.41-.08,.14,.39-.09,.56-.09-.18-.28-.25-.29-.19,.09-.07,.24,.23,.26,.41-.24,0-.08,.21-.17,.25h.13c.09,.17,0,.2-.05,.33-.1-.11,.02-.15-.05-.18,.1,.35-.47-.08-.47,.22-.15-.05-.24-.28-.36-.3,0,.34-.35-.06-.4,.25,.22,.16,.19,.11,.22,.41l.17-.38,.06,.45c.09-.07,.08-.28,.16-.29,.05,.24,.01,.18,.19,.32-.37-.21-.09,.37-.4,.28l-.41-.51c-.39-.06-.16,.56-.53,.66l.16,.02c.13,.23-.14,.16-.16,.32-.13-.18-.24-.19-.36-.27,.11,.12-.2,.15,.05,.51l-.3-.12c-.29,.09,.15,.68-.1,.8-.09-.23-.28-.27-.25-.52-.07,.06-.16,.08-.06,.19-.13-.07,0,.39-.2,.28,.03,.1,.17,.28,.08,.33-.04-.03-.07-.08-.07-.08,.07,.08-.03,.21,.2,.34-.65-.35-.56,.53-1.12,.24-.1,.18-.24,.39-.36,.51-.03-.06-.07-.08-.03-.09-.32,0,.29,.58-.07,.58-.34-.18,0-.24-.16-.29-.49-.53-.19,.29-.61,.09v-.06c-.26-.1-.09,.43-.3,.54,0,0-.03-.06-.07-.08,.11,.39-.04,.67-.15,.89-.13-.26-.02-.18-.23-.37-.05,.1,.32,.34,.21,.53-.15-.08-.35-.09-.56-.31l.14-.13c-.33-.24-.18,.17-.3,.18l-.1-.14c-.19,.23,.08,.57-.18,.74l.11,.08c.14,.44-.26-.1-.19,.26l-.32-.31c-.02,.15-.04,.58-.14,.77-.11-.32-.04-.6-.05-.84-.09,.07-.27,.27-.18,.47,0-.06-.02-.18,.06-.16,.11,.35,.08,.6-.1,.73-.25-.34-.4-.29-.54-.21-.08,.03-.18,.1-.34-.2,.02,.19-.07,.22-.14,.18-.07-.03-.11-.12-.16-.05-.02,.86-.04,.05-.13,1-.06,.06-.07-.03-.07-.08-.02-.25-.03-.48-.02-.7,.03-.28,.07-.15,.11-.35-.04-.14,.06-.4,.09-.65-.07,.3-.14,.4-.13,.25-.03,.13-.05,.28-.07,.42-.24,.27,.16-.73-.07-.43l.13-.19c-.1,.08-.08-.12-.5,.23,.04-.07,.16-.22,.22-.23,0-.05-.05-.06-.11-.06-.11-.05-.23-.09-.35-.14-.23-.09-.43-.2-.41-.43l.15-.08c-.09-.03-.32,.1-.26-.08,.05-.04,.15-.09,.13-.12-.07,0-.36,.04-.35-.11l.2-.06c-.11-.45-.75-.17-1.06-.34,.36-.33,.24-.67,.19-.84l.05-.04c-.3-.38-.86-.29-1.3-.46,.18-.58-.51-.8-.64-1.31,0,.11-.26,.27-.35,.26-.01-.14-.44,.06-.13-.26l.02,.03c.23-.38,0-.43-.12-.55l-.41,.42c.24-.94-1.05-.49-.75-1.22-.17,.05-.27-.03-.44,.02l.2-.24c-.17-.24-.26-.37-.59-.53l.19-.13c-.15-.14-.75,.55-.91,.46l.24-.41c-.28-.2-.33-.74-.86-.6,.05-.05,.13-.16,.19-.14-.13-.11-.33-.64-.66-.08,.24-.34-.27-.25-.53-.2l.2-.24c-.36,.24-.42,.32-.67,.29-.02-.06,.1-.23,.11-.13-.05-.23-.28,.17-.36-.09l.18-.12c-.14-.12-.18-.02-.39,.11-.16,.04-.24-.25-.11-.5-.11,.13-.32,.26-.36,.14,.05-.1,.11-.13,.15-.15-.13-.35-.57,.06-.58-.3,.05-.09,.07-.14,.07-.17,.2,.13,.35,.25,.32,.26,.16-.24,.02-.38,.36-.63-.25,.1-.72,.35-.81,.14,0-.03,.01-.06,.03-.1l.03-.02s-.07-.05-.13-.02c-.03-.07-.04-.12-.09-.16,.11-.21-.12-.23-.2-.29-.16,.27-.24,.16-.27,.44,0-.03,.03-.02,.1,0,.02,0,.03,0,.05,0l-.02,.02c.06,.03,.13,.06,.21,.11-.15,.09-.28,.17-.28-.04-.15,.14-.3,.29-.38,.36,.12-.44,.02-.77,.13-1.02-.34,0-.66-.25-1.11,.16-.11,.02,0-.19,.02-.29,.07-.03,.12,0,.18-.05-.22,.05-.46-.2-.69,.14-.09-.26,.29-.27,0-.35l.09-.09c-.18-.86-1.31,.48-1.46-.56,.01,.07,.02,.1,0,.16-.46-.66-1.46-.36-1.84-1.19-.13-.19-.26,.03-.46,.16l.1-.32-.35,.26c-.38,.14-.13-.96-.69-.62l-.05,.23c-.11-.1-.44-.05-.32-.28-.03,.03-.13,.2-.13,.07l.06-.16-.42,.15c-.19-.22,.3-.63-.04-.8-.16,0-.57,.33-.56,.46,.05,.03,.1,.15,.04,.32l-.15,.04c-.2,.48-.46,.94-.33,1.38l.3-.22-.03,.26-.16-.05c0,.25,.14,.08,.25-.02-.03,.13-.04,.23-.02,.29l.38-.38c-.05,.2-.24,.34-.15,.49,.18-.17,.09-.45,.29-.53,0,.26-.1,.42,.09,.28-.04,.13-.09,.2-.16,.23,.16-.11,.28,.04,.44-.18-.02,.31,.35,.07,.15,.52,.08-.09,.32-.28,.42-.26-.4,.46,.31,.18,0,.73,.34-.42,.52-.01,.85-.18-.03,.03-.09,.1-.1,.07,.1,.09,.06,.25,.1,.38,.2-.39,.43-.38,.64-.57-.04,.45-.31,.41-.44,.8,.15-.32,.4-.19,.48-.48,0,.29,.04,.16-.07,.51,.26-.48,.14-.03,.38-.28,.04,.32-.19,.47,.06,.41,0,.19-.23,.28-.23,.28Zm4.45,1.45h0s-.07-.02-.09-.03c.02,0,.05,.01,.09,.03Zm.33,.2s-.08-.07-.14-.1c.05-.1,.12-.18,.15-.16-.06,.05-.01,.15-.01,.26Zm.44-2.27c.08,0,.06,.06,.04,.12-.03-.01-.06-.02-.11-.03l-.03,.03s.07-.09,.1-.12Z"/>
    <path class="cls-13" d="M162.41,151.22s-.02,0-.03,0c0,.03,0,.06,0,.08l.07-.07h-.03Z"/>
    <path class="cls-13" d="M189.42,150.34h-.01s.02,.01,.03,.03c-.01-.01-.02-.02-.02-.03Z"/>
    <polygon class="cls-13" points="166.24 156.81 166.29 156.75 166.22 156.79 166.24 156.81"/>
    <path class="cls-13" d="M191.84,150.49s.03,.05,.05,.06c0-.02-.03-.04-.05-.06Z"/>
    <path class="cls-13" d="M192.74,150.24l.16,.06c-.07-.04-.12-.05-.16-.06Z"/>
    <path class="cls-13" d="M193.46,150.14c0-.05-.02-.09-.03-.13h0s.03,.13,.03,.13Z"/>
    <path class="cls-13" d="M183.89,155.75s-.01,.02-.01,.03c-.01,.09,0,.04,.01-.03Z"/>
    <path class="cls-13" d="M186.17,153.19c0,.07,0,.13,0,.18,.06-.01,.1-.03,0-.18Z"/>
    <polygon class="cls-13" points="181.2 158.45 181.2 158.44 181.18 158.46 181.2 158.45"/>
    <path class="cls-13" d="M186.02,153.45c.08,.02,.12-.02,.13-.08-.05,0-.12,.02-.13,.08Z"/>
    <path class="cls-13" d="M196.45,149.35h.04s0-.03-.01-.05l-.03,.05Z"/>
    <path class="cls-13" d="M196.48,149.31l.03-.05s-.03,.01-.03,.05Z"/>
    <path class="cls-13" d="M196.56,149.16l-.06,.1s.06,0,.06-.1Z"/>
    <path class="cls-13" d="M195.5,149.48l.02,.11s0-.06-.02-.11Z"/>
    <path class="cls-13" d="M195.24,149.6c.07,0,.24,.18,.31,.09l-.02-.09c0,.17-.28-.2-.29,0Z"/>
    <path class="cls-13" d="M193.66,148.64h.26c-.08-.09-.18-.23-.08-.29-.41-.25,.14,.24-.18,.29Z"/>
    <path class="cls-13" d="M192.88,148.71c.11-.1-.06-.17-.07-.23-.04,.13-.05,.17,.07,.23Z"/>
    <path class="cls-13" d="M187.75,150.88l-.12-.26c-.07,.08,.05,.1,.12,.26Z"/>
    <polygon class="cls-13" points="187.55 152.67 187.72 152.77 187.63 152.52 187.55 152.67"/>
    <polygon class="cls-13" points="185.98 151.25 186 151.19 185.9 151.37 185.98 151.25"/>
    <path class="cls-13" d="M178.63,157.03l.25,.25c.01-.09-.23-.4-.25-.25Z"/>
    <path class="cls-13" d="M175.82,159.82c-.14-.11-.3-.12-.24,.05,.08-.04,.24,.01,.24-.05Z"/>
    <polygon class="cls-13" points="168.85 155.35 168.99 155.31 168.81 155.28 168.85 155.35"/>
  </g>
  <g>
    <path class="cls-13" d="M163.94,174.4c0-.1-.07-.3-.13-.24l.05,.37,.09-.13Z"/>
    <path class="cls-13" d="M163.27,173.89c-.04,.2-.05,.53,.1,.83-.01-.36,.05-.23,.02-.66,.06-.06,.16,.08,.18,.21,0-.1,.13,.04,.11-.19-.17-.25-.3-.22-.36,.04-.05-.07-.05-.17-.06-.24Z"/>
    <path class="cls-13" d="M156.06,175.84l.06,.02s-.04-.02-.06-.02Z"/>
    <path class="cls-13" d="M151.87,177.96s.02-.07,0-.09c-.01,.04-.02,.07,0,.09Z"/>
    <path class="cls-13" d="M150.98,178.09s.04,0,.05,0c-.03-.02-.06-.02-.05,0Z"/>
    <path class="cls-13" d="M156.06,175.84l-.16-.05c.04,.11,.1,.05,.16,.05Z"/>
    <path class="cls-13" d="M162.54,175.03s.03-.06,.04-.11c-.02,.02-.03,.04-.05,.05v.06Z"/>
    <path class="cls-13" d="M157.84,174.76h.04c0-.06-.02-.11-.02-.17v.17Z"/>
    <path class="cls-13" d="M159.31,174.17s.05,.3,.09,.43c-.02-.13-.02-.19,0-.23-.02-.06-.05-.12-.09-.2Z"/>
    <path class="cls-13" d="M161.84,173.92l.03-.05s-.02,.03-.03,.05Z"/>
    <path class="cls-13" d="M156.76,175.13s-.04-.08-.06-.1c.02,.04,.04,.07,.06,.1Z"/>
    <path class="cls-13" d="M122.08,175.72s.01-.03,.02-.05c-.02,.03-.03,.04-.02,.05Z"/>
    <polygon class="cls-13" points="121.04 173.62 121.07 173.61 121.14 173.45 121.04 173.62"/>
    <path class="cls-13" d="M149.55,178.65h0c0-.05,0-.03,0,0Z"/>
    <path class="cls-13" d="M140.57,186.25c0,.46-.16,.38-.14,.91,.03-.17,.16-.59,.14-.91Z"/>
    <path class="cls-13" d="M162.49,175s-.04,.02-.06,.02c.03,0,.05,0,.06-.02Z"/>
    <path class="cls-13" d="M140.42,187.16h0s0,.06,0,.06c0-.02,0-.04,0-.06Z"/>
    <path class="cls-13" d="M147.06,180.9s.08,.06,.11,.08c-.02-.02-.05-.05-.11-.08Z"/>
    <path class="cls-13" d="M149.26,179.67h-.07s.06,0,.07,0Z"/>
    <path class="cls-13" d="M146.35,182.06s-.08-.02-.08,.04c.01,0,.02,.02,.04,.02-.01-.04-.01-.07,.05-.06Z"/>
    <path class="cls-13" d="M145.33,182.92s.04,.02,.06,.03l.02-.04h-.08Z"/>
    <path class="cls-13" d="M125.67,177.33c.02-.09,.05-.18,.08-.27-.09,.2-.29,.18-.08,.27Z"/>
    <path class="cls-13" d="M162.49,174.86c.02,.08,.02,.12,0,.14,.01,0,.03-.02,.04-.03,0-.05-.02-.09-.04-.11Z"/>
    <path class="cls-13" d="M147.89,183.98l-.19,.1c.06-.01,.13-.05,.19-.1Z"/>
    <path class="cls-13" d="M133.38,182.49h-.06s.03,.02,.06,0Z"/>
    <path class="cls-13" d="M147.25,184.52c-.1-.06-.17-.08-.23-.09,0,.02,.01,.05,.03,.08h.2Z"/>
    <path class="cls-13" d="M125.75,177.05h0s0,0,0,0Z"/>
    <path class="cls-13" d="M124.21,177.08c.17,.09,.26-.32,.41-.51,.26,0-.04,.32-.07,.54,.18-.03,.45-.31,.54-.24-.02,.06-.02,.1-.08,.16,.29-.21,.41,.2,.77-.07,0,.04-.02,.07-.03,.1,.07-.19,.17-.38,.24-.51,.08,.04,.27-.15,.17,.1-.04-.03-.1,.06-.16,.12l.14-.06c-.11,.38-.18,.06-.31,.31,.22-.02,.56-.2,.63-.04-.16,.34-.34-.05-.35,.33l-.12-.23c-.14,.6-.09-.1-.27,.53,.19,.23,.37-.01,.56,.22,.16-.15,.13-.28,.29-.43,.54-.13-.2,.98,.3,.69,.19-.18,.46-.58,.51-.25l-.28,.33c.21,.17,.45-.45,.55-.06-.13,.12-.26,0-.25,.07-.01,.38,.24-.14,.36-.06l-.17,.34c.28,.1,.69,.04,1,.15-.07,.09-.18,.16-.18,.29,.45,.05,.71,.5,.9,.91l.3-.19s-.03,.16-.09,.19c.06,.19,.12-.17,.25-.23,.08,.03,0,.22-.11,.27,.37-.08,.98-.07,1,.39l-.1,.05c.1,.24,.59-.4,.58-.03l-.07,.02c.3,.4,.91,.47,.91,1.08,.34-.33,.24,.46,.67-.04,.01,.43-.12,.47,.04,.88,.06,.09,.38-.22,.52-.19l-.21,.27,.36-.17-.19,.37h.15s.02-.17,.09-.25c.24,0,.2,.47,.09,.6l.51,.07c-.1,.1-.18,.08-.28,.11,.4-.11-.21,.3,.16,.2,.03-.08,.15-.14,.19-.19-.06,.23,.12,.39,.31,.44l-.18,.15c.2,.26,.59,.36,.84,.62-.02-.17,.29-.45,.39-.4l-.22,.29c.2-.11,.02-.18,.3-.27,.07,.13-.22,.36-.36,.39l.2,.03c-.07,.08-.13,.1-.24,.19,.2-.11-.05,.46,.29,.25l-.07,.08c.25,.26,.45,.28,.67,.48,.23-.21,.26-.08,.5-.2,.09,.22,.07,.56,.26,.74,.24,.03,.23-.14,.42-.2-.2,.2,0,.38-.25,.41,.24,.2,.3,.26,.74,.41,.06-.11,.07-.18,.16-.22,.08,.02,.02,.2-.09,.28h-.03c.32,.05,.3,.33,.36,.7,.09,.43,.26,.92,.61,.89h-.04c.18,.07,.35,.12,.51,.17,.14,.26-.2,.09-.16,.43,.31,.02,.44,.21,.57,.45,.13,.23,.26,.49,.45,.48,0,.18,.03,.34,.06,.48,.01,.09,.04,.09,.08,.08,.03,0,.07-.01,.1-.03,.15-.06,.32-.23,.5-.4,.36-.35,.67-.72,1.02-.66l-.09-.18c.06-.3,.19,0,.31-.05-.08-.14-.21-.06-.17-.23,.24-.27,.49-.49,.76-.68,.17-.11,.36-.2,.55-.28,.39-.16,.82-.28,1.18-.46,.26-.14-.52-.89,.06-.76l.15,.35c.18-.71,.94-.75,1.14-1.41,.03,.09,.1,.17,.05,.21,.26,.13,.35-.28,.22-.45,.08-.04,.14,.14,.25,.19,.19,.04,.02-.46,.24-.29,.04,.03,.03,.09,.03,.12-.02-.15,.31-.21,.05-.4,.26-.03,.23-.37,.48-.34-.13-.34,.39-.11,.1-.5,.31,.39,.55,.07,.5-.2,.06,.15,.19,.04,.29,.24,.11-.11,.16-.27-.02-.45,.6,.28,.13-.74,.75-.25,.18-.5,.39-.92,.63-1.26,.31,.39-.32,.33,.03,.72,.17-.41,.07-.88,.45-1.03,.12-.01,.09,.2,.12,.29,.17-.4,.61-.44,.71-.86,.03,.04,.03,.1,.03,.15,.04-.05,.17-.04,.02-.21v.09c-.3-.19-.23-.71-.32-.85,.31,.58,.37-.08,.73,.68,0-.06-.01-.18-.11-.29,.08,0,.15,.05,.2,.23,.11-.25-.1-.39,.08-.52,.07,.09,.06,.15,.12,.27-.04-.24-.08-.48,.12-.51,.03,.06,.1,.12,.05,.15,.23-.21,.1-.78,.5-.82,.19,.45,.19,.06,.44,.39l.08-.21-.18-.12c.13-.09,.09-.41,.28-.38v.21s.21-.23,.21-.23l-.23-.03c.02-.27-.31-.42-.06-.45-.01,.06,.14-.09,.35,.07h0c0-.15,0-.32,.15-.3,.1,.09,.23,.4,.29,.46-.12-.34,.27-.29,.16-.65,.02,.09,.13,.28,.16,.31l-.09-.27c.11,.04,.14,.07,.22,.22,.22-.07-.34-.41,.02-.36,0,.03,.02,.06,0,.12,.29-.04,.36-.42,.65-.43,.27,.33-.14,.2,.11,.46,.27-.24,.41-.79,.77-.87h-.08c-.23-.56,.36,.13,.39-.2-.02,.06,.1,.32,.08,.25,.25-.02,.37-.34,.63-.66l.02,.16c.18,.06,.37-.09,.53-.09-.02-.16,.07-.17-.07-.35,.77,.6,.66-.77,1.32-.27-.05,.02-.06,.17-.02,.15l.28-.26c-.12-.23-.1-.13-.24-.28-.01-.16,.04-.31,.12-.34-.09,.22,.15,.38,.26,.49-.04-.07-.05-.16-.08-.23,.34,.36-.15-.49,.2-.29l.03,.13c.07-.1,.09-.29,.2-.29,.14,.26-.05,.16,.03,.4,.13-.07,.08-.63,.3-.39-.03,.1-.11,.13-.14,.23,.25,.28,.24,.19,.36,.21h-.01s.28,.06,.28,.06l-.09-.07c-.08-.79,.3-.26,.37-.82-.07,.53,.05,.27,.14,.6,.09,.07,.21,.14,.22,.24,.02-.29,.25,.14,.28-.28,.04,.1,.12-.03,.18,.24,.12-.13-.09-.17-.12-.3,.11-.42,.65,.26,.82-.33,.21-.29,.15-.66,.36-.9,.14,.14,.04,.4,.04,.4,.19,.11,.28,.05,.38-.11,0,.1,.05,.17,.13,.27,.1-.06-.04-.4,.14-.29,.01,.12,.04,.32,.02,.45,.1-.13,.16-.36,.26-.49,.09,.17,0,.3,0,.43,.12-.12,.33-.27,.29-.57l-.12-.07s.1,.24,.08,.3c-.06,.26-.21-.05-.25-.15l.07-.09c-.27-.58-.34,.21-.54,.23l-.06-.46-.08,.42c-.08-.1-.18-.34-.11-.43-.2-.18-.07,.19-.26-.02-.02-.03-.02-.06-.02-.08l-.09,.17c0-.1-.12-.3-.02-.26-.31-.19-.28,.45-.47,.14v-.03c-.27,.25,.08,.33-.04,.79l-.42-.74,.07,.33s-.11,0-.14-.14c-.05,.26,.07,.13,.06,.36-.26-.24-.4,.28-.6-.22,.02,.26,.22,.14,.1,.36-.23-.53-.17,.16-.4-.05-.05-.3,.14-.19-.09-.4,.07,.51-.32,0-.41,.13,.13,.38-.21,.26-.37,.46-.03-.13-.46-.07-.71-.13l-.02-.07c.11,.4-.12,.39-.23,.53-.08-.23-.09-.33-.05-.46l-.14,.05c.02,.13,0,.22-.07,.29l-.08-.3c-.18,.09-.23,.48-.54,.39,.1,.27,.48,.66,.31,.93-.07-.14-.18-.38-.14-.46-.01,.03-.02,.15-.09,.1v-.28c-.15-.06,.03,.22-.07,.23-.08-.2-.12-.12-.18-.28,.01-.03,.11,.05,.11-.04-.11,0-.27-.07-.38-.21,.06,.11,.11,.27,.06,.33-.17,.09-.16-.22-.31-.28,.02,.16-.16,.06-.03,.36-.05,.02-.12-.11-.18-.19-.03,.17-.41,.24-.16,.51h.03s0,.02,0,.03h0s0,0,0,0c-.16,.43-.69,.12-.93,.38l-.05-.1c-.12,.2-.35,.27-.36,.54-.05,.03-.21-.11-.25-.24-.09,.14-.05,.26-.33,.2,.04-.24-.13-.12,.07-.2-.22,0-.34-.12-.38,.24-.07-.28-.3-.24-.34-.11l.22,.1c-.07,.09-.16,.11-.25,.14l-.14-.35c-.58-.18-.23,1.03-.88,.54,.05,.27,.28,.04,.36,.35-.18,.05-.63-.29-.68-.26-.32-.03,.1,.58-.2,.61,.1,.09,.32,.37,.23,.58-.18,.06-.5-.33-.46-.48,.03-.03,.07-.01,.1,.03,.02-.07,.06-.16-.08-.24l.05,.12c-.15-.06-.36,.09-.43-.12-.05,.18,.07,.21,.2,.21-.31-.03-.31,.2-.58,.24,.07,.04,.19,.14,.16,.16-.38,.08,.02,.29-.14,.48-.23-.08-.24-.42-.34-.14-.2-.02-.23-.26-.25-.38-.03,.33-.44,.11-.57,.15l.03-.15c-.02,.09-.07,.12-.11,.16l.21,.17c-.08,0-.13,.04-.19-.05,.05,.18,.31,.32,.34,.59-.15-.05-.13,.28-.37,.02,.3-.08-.24-.26-.08-.45-.01,.06-.06,.1-.14,.1-.03-.02-.04-.06-.03-.09-.41-.08,.14,.39-.09,.56-.09-.18-.28-.25-.29-.19,.09-.07,.24,.23,.26,.41-.24,0-.08,.21-.17,.25h.13c.09,.17,0,.2-.05,.33-.1-.11,.02-.15-.05-.18,.1,.35-.47-.08-.47,.22-.15-.05-.24-.28-.36-.3,0,.34-.35-.06-.4,.25,.22,.16,.19,.11,.22,.41l.17-.38,.06,.45c.09-.07,.08-.28,.16-.29,.05,.24,.01,.18,.19,.32-.37-.21-.09,.37-.4,.28l-.41-.51c-.39-.06-.16,.56-.53,.66l.16,.02c.13,.23-.14,.16-.16,.32-.13-.18-.24-.19-.36-.27,.11,.12-.2,.15,.05,.51l-.3-.12c-.29,.09,.15,.68-.1,.8-.09-.23-.28-.27-.25-.52-.07,.06-.16,.08-.06,.19-.13-.07,0,.39-.2,.28,.03,.1,.17,.28,.08,.33-.04-.03-.07-.08-.07-.08,.07,.08-.03,.21,.2,.34-.65-.35-.56,.53-1.12,.24-.1,.18-.24,.39-.36,.51-.03-.06-.07-.08-.03-.09-.32,0,.29,.58-.07,.58-.34-.18,0-.24-.16-.29-.49-.53-.19,.29-.61,.09v-.06c-.26-.1-.09,.43-.3,.54,0,0-.03-.06-.07-.08,.11,.39-.04,.67-.15,.89-.13-.26-.02-.18-.23-.37-.05,.1,.32,.34,.21,.53-.15-.08-.35-.09-.56-.31l.14-.13c-.33-.24-.18,.17-.3,.18l-.1-.14c-.19,.23,.08,.57-.18,.74l.11,.08c.14,.44-.26-.1-.19,.26l-.32-.31c-.02,.15-.04,.58-.14,.77-.11-.32-.04-.6-.05-.84-.09,.07-.27,.27-.18,.47,0-.06-.02-.18,.06-.16,.11,.35,.08,.6-.1,.73-.25-.34-.4-.29-.54-.21-.08,.03-.18,.1-.34-.2,.02,.19-.07,.22-.14,.18-.07-.03-.11-.12-.16-.05-.02,.86-.04,.05-.13,1-.06,.06-.07-.03-.07-.08-.02-.25-.03-.48-.02-.7,.03-.28,.07-.15,.11-.35-.04-.14,.06-.4,.09-.65-.07,.3-.14,.4-.13,.25-.03,.13-.05,.28-.07,.42-.24,.27,.16-.73-.07-.43l.13-.19c-.1,.08-.08-.12-.5,.23,.04-.07,.16-.22,.22-.23,0-.05-.05-.06-.11-.06-.11-.05-.23-.09-.35-.14-.23-.09-.43-.2-.41-.43l.15-.08c-.09-.03-.32,.1-.26-.08,.05-.04,.15-.09,.13-.12-.07,0-.36,.04-.35-.11l.2-.06c-.11-.45-.75-.17-1.06-.34,.36-.33,.24-.67,.19-.84l.05-.04c-.3-.38-.86-.29-1.3-.46,.18-.58-.51-.8-.64-1.31,0,.11-.26,.27-.35,.26-.01-.14-.44,.06-.13-.26l.02,.03c.23-.38,0-.43-.12-.55l-.41,.42c.24-.94-1.05-.49-.75-1.22-.17,.05-.27-.03-.44,.02l.2-.24c-.17-.24-.26-.37-.59-.53l.19-.13c-.15-.14-.75,.55-.91,.46l.24-.41c-.28-.2-.33-.74-.86-.6,.05-.05,.13-.16,.19-.14-.13-.11-.33-.64-.66-.08,.24-.34-.27-.25-.53-.2l.2-.24c-.36,.24-.42,.32-.67,.29-.02-.06,.1-.23,.11-.13-.05-.23-.28,.17-.36-.09l.18-.12c-.14-.12-.18-.02-.39,.11-.16,.04-.24-.25-.11-.5-.11,.13-.32,.26-.36,.14,.05-.1,.11-.13,.15-.15-.13-.35-.57,.06-.58-.3,.05-.09,.07-.14,.07-.17,.2,.13,.35,.25,.32,.26,.16-.24,.02-.38,.36-.63-.25,.1-.72,.35-.81,.14,0-.03,.01-.06,.03-.1l.03-.02s-.07-.05-.13-.02c-.03-.07-.04-.12-.09-.16,.11-.21-.12-.23-.2-.29-.16,.27-.24,.16-.27,.44,0-.03,.03-.02,.1,0,.02,0,.03,0,.05,0l-.02,.02c.06,.03,.13,.06,.21,.11-.15,.09-.28,.17-.28-.04-.15,.14-.3,.29-.38,.36,.12-.44,.02-.77,.13-1.02-.34,0-.66-.25-1.11,.16-.11,.02,0-.19,.02-.29,.07-.03,.12,0,.18-.05-.22,.05-.46-.2-.69,.14-.09-.26,.29-.27,0-.35l.09-.09c-.18-.86-1.31,.48-1.46-.56,.01,.07,.02,.1,0,.16-.46-.66-1.46-.36-1.84-1.19-.13-.19-.26,.03-.46,.16l.1-.32-.35,.26c-.38,.14-.13-.96-.69-.62l-.05,.23c-.11-.1-.44-.05-.32-.28-.03,.03-.13,.2-.13,.07l.06-.16-.42,.15c-.19-.22,.3-.63-.04-.8-.16,0-.57,.33-.56,.46,.05,.03,.1,.15,.04,.32l-.15,.04c-.2,.48-.46,.94-.33,1.38l.3-.22-.03,.26-.16-.05c0,.25,.14,.08,.25-.02-.03,.13-.04,.23-.02,.29l.38-.38c-.05,.2-.24,.34-.15,.49,.18-.17,.09-.45,.29-.53,0,.26-.1,.42,.09,.28-.04,.13-.09,.2-.16,.23,.16-.11,.28,.04,.44-.18-.02,.31,.35,.07,.15,.52,.08-.09,.32-.28,.42-.26-.4,.46,.31,.18,0,.73,.34-.42,.52-.01,.85-.18-.03,.03-.09,.1-.1,.07,.1,.09,.06,.25,.1,.38,.2-.39,.43-.38,.64-.57-.04,.45-.31,.41-.44,.8,.15-.32,.4-.19,.48-.48,0,.29,.04,.16-.07,.51,.26-.48,.14-.03,.38-.28,.04,.32-.19,.47,.06,.41,0,.19-.23,.28-.23,.28Zm4.45,1.45h0s-.07-.02-.09-.03c.02,0,.05,.01,.09,.03Zm.33,.2s-.08-.07-.14-.1c.05-.1,.12-.18,.15-.16-.06,.05-.01,.15-.01,.26Zm.44-2.27c.08,0,.06,.06,.04,.12-.03-.01-.06-.02-.11-.03l-.03,.03s.07-.09,.1-.12Z"/>
    <path class="cls-13" d="M129.11,176.74s-.02,0-.03,0c0,.03,0,.06,0,.08l.07-.07h-.03Z"/>
    <path class="cls-13" d="M156.13,175.86h-.01s.02,.01,.03,.03c-.01-.01-.02-.02-.02-.03Z"/>
    <polygon class="cls-13" points="132.95 182.34 133 182.28 132.93 182.31 132.95 182.34"/>
    <path class="cls-13" d="M158.55,176.01s.03,.05,.05,.06c0-.02-.03-.04-.05-.06Z"/>
    <path class="cls-13" d="M159.44,175.76l.16,.06c-.07-.04-.12-.05-.16-.06Z"/>
    <path class="cls-13" d="M160.16,175.67c0-.05-.02-.09-.03-.13h0s.03,.13,.03,.13Z"/>
    <path class="cls-13" d="M150.6,181.28s-.01,.02-.01,.03c-.01,.09,0,.04,.01-.03Z"/>
    <path class="cls-13" d="M152.87,178.71c0,.07,0,.13,0,.18,.06-.01,.1-.03,0-.18Z"/>
    <polygon class="cls-13" points="147.91 183.97 147.91 183.97 147.89 183.98 147.91 183.97"/>
    <path class="cls-13" d="M152.73,178.98c.08,.02,.12-.02,.13-.08-.05,0-.12,.02-.13,.08Z"/>
    <path class="cls-13" d="M163.16,174.88h.04s0-.03-.01-.05l-.03,.05Z"/>
    <path class="cls-13" d="M163.19,174.83l.03-.05s-.03,.01-.03,.05Z"/>
    <path class="cls-13" d="M163.27,174.69l-.06,.1s.06,0,.06-.1Z"/>
    <path class="cls-13" d="M162.21,175.01l.02,.11s0-.06-.02-.11Z"/>
    <path class="cls-13" d="M161.94,175.12c.07,0,.24,.18,.31,.09l-.02-.09c0,.17-.28-.2-.29,0Z"/>
    <path class="cls-13" d="M160.37,174.16h.26c-.08-.09-.18-.23-.08-.29-.41-.25,.14,.24-.18,.29Z"/>
    <path class="cls-13" d="M159.59,174.23c.11-.1-.06-.17-.07-.23-.04,.13-.05,.17,.07,.23Z"/>
    <path class="cls-13" d="M154.46,176.4l-.12-.26c-.07,.08,.05,.1,.12,.26Z"/>
    <polygon class="cls-13" points="154.26 178.19 154.43 178.29 154.34 178.05 154.26 178.19"/>
    <polygon class="cls-13" points="152.69 176.78 152.7 176.72 152.61 176.9 152.69 176.78"/>
    <path class="cls-13" d="M145.34,182.55l.25,.25c.01-.09-.23-.4-.25-.25Z"/>
    <path class="cls-13" d="M142.52,185.35c-.14-.11-.3-.12-.24,.05,.08-.04,.24,.01,.24-.05Z"/>
    <polygon class="cls-13" points="135.56 180.87 135.7 180.84 135.52 180.81 135.56 180.87"/>
  </g>
  <g>
    <path class="cls-13" d="M215.54,183.84c0-.1-.07-.3-.13-.24l.05,.37,.09-.13Z"/>
    <path class="cls-13" d="M214.87,183.33c-.04,.2-.05,.53,.1,.83-.01-.36,.05-.23,.02-.66,.06-.06,.16,.08,.18,.21,0-.1,.13,.04,.11-.19-.17-.25-.3-.22-.36,.04-.05-.07-.05-.17-.06-.24Z"/>
    <path class="cls-13" d="M207.66,185.27l.06,.02s-.04-.02-.06-.02Z"/>
    <path class="cls-13" d="M203.48,187.39s.02-.07,0-.09c-.01,.04-.02,.07,0,.09Z"/>
    <path class="cls-13" d="M202.58,187.52s.04,0,.05,0c-.03-.02-.06-.02-.05,0Z"/>
    <path class="cls-13" d="M207.66,185.27l-.16-.05c.04,.11,.1,.05,.16,.05Z"/>
    <path class="cls-13" d="M214.14,184.46s.03-.06,.04-.11c-.02,.02-.03,.04-.05,.05v.06Z"/>
    <path class="cls-13" d="M209.44,184.19h.04c0-.06-.02-.11-.02-.17v.17Z"/>
    <path class="cls-13" d="M210.91,183.6s.05,.3,.09,.43c-.02-.13-.02-.19,0-.23-.02-.06-.05-.12-.09-.2Z"/>
    <path class="cls-13" d="M213.44,183.35l.03-.05s-.02,.03-.03,.05Z"/>
    <path class="cls-13" d="M208.37,184.56s-.04-.08-.06-.1c.02,.04,.04,.07,.06,.1Z"/>
    <path class="cls-13" d="M173.69,185.15s.01-.03,.02-.05c-.02,.03-.03,.04-.02,.05Z"/>
    <polygon class="cls-13" points="172.64 183.05 172.67 183.04 172.74 182.88 172.64 183.05"/>
    <path class="cls-13" d="M201.16,188.08h0c0-.05,0-.03,0,0Z"/>
    <path class="cls-13" d="M192.17,195.68c0,.46-.16,.38-.14,.91,.03-.17,.16-.59,.14-.91Z"/>
    <path class="cls-13" d="M214.09,184.44s-.04,.02-.06,.02c.03,0,.05,0,.06-.02Z"/>
    <path class="cls-13" d="M192.03,196.59h0s0,.06,0,.06c0-.02,0-.04,0-.06Z"/>
    <path class="cls-13" d="M198.66,190.33s.08,.06,.11,.08c-.02-.02-.05-.05-.11-.08Z"/>
    <path class="cls-13" d="M200.86,189.11h-.07s.06,0,.07,0Z"/>
    <path class="cls-13" d="M197.95,191.49s-.08-.02-.08,.04c.01,0,.02,.02,.04,.02-.01-.04-.01-.07,.05-.06Z"/>
    <path class="cls-13" d="M196.94,192.35s.04,.02,.06,.03l.02-.04h-.08Z"/>
    <path class="cls-13" d="M177.27,186.76c.02-.09,.05-.18,.08-.27-.09,.2-.29,.18-.08,.27Z"/>
    <path class="cls-13" d="M214.09,184.3c.02,.08,.02,.12,0,.14,.01,0,.03-.02,.04-.03,0-.05-.02-.09-.04-.11Z"/>
    <path class="cls-13" d="M199.49,193.41l-.19,.1c.06-.01,.13-.05,.19-.1Z"/>
    <path class="cls-13" d="M184.98,191.92h-.06s.03,.02,.06,0Z"/>
    <path class="cls-13" d="M198.85,193.95c-.1-.06-.17-.08-.23-.09,0,.02,.01,.05,.03,.08h.2Z"/>
    <path class="cls-13" d="M177.35,186.49h0s0,0,0,0Z"/>
    <path class="cls-13" d="M175.81,186.51c.17,.09,.26-.32,.41-.51,.26,0-.04,.32-.07,.54,.18-.03,.45-.31,.54-.24-.02,.06-.02,.1-.08,.16,.29-.21,.41,.2,.77-.07,0,.04-.02,.07-.03,.1,.07-.19,.17-.38,.24-.51,.08,.04,.27-.15,.17,.1-.04-.03-.1,.06-.16,.12l.14-.06c-.11,.38-.18,.06-.31,.31,.22-.02,.56-.2,.63-.04-.16,.34-.34-.05-.35,.33l-.12-.23c-.14,.6-.09-.1-.27,.53,.19,.23,.37-.01,.56,.22,.16-.15,.13-.28,.29-.43,.54-.13-.2,.98,.3,.69,.19-.18,.46-.58,.51-.25l-.28,.33c.21,.17,.45-.45,.55-.06-.13,.12-.26,0-.25,.07-.01,.38,.24-.14,.36-.06l-.17,.34c.28,.1,.69,.04,1,.15-.07,.09-.18,.16-.18,.29,.45,.05,.71,.5,.9,.91l.3-.19s-.03,.16-.09,.19c.06,.19,.12-.17,.25-.23,.08,.03,0,.22-.11,.27,.37-.08,.98-.07,1,.39l-.1,.05c.1,.24,.59-.4,.58-.03l-.07,.02c.3,.4,.91,.47,.91,1.08,.34-.33,.24,.46,.67-.04,.01,.43-.12,.47,.04,.88,.06,.09,.38-.22,.52-.19l-.21,.27,.36-.17-.19,.37h.15s.02-.17,.09-.25c.24,0,.2,.47,.09,.6l.51,.07c-.1,.1-.18,.08-.28,.11,.4-.11-.21,.3,.16,.2,.03-.08,.15-.14,.19-.19-.06,.23,.12,.39,.31,.44l-.18,.15c.2,.26,.59,.36,.84,.62-.02-.17,.29-.45,.39-.4l-.22,.29c.2-.11,.02-.18,.3-.27,.07,.13-.22,.36-.36,.39l.2,.03c-.07,.08-.13,.1-.24,.19,.2-.11-.05,.46,.29,.25l-.07,.08c.25,.26,.45,.28,.67,.48,.23-.21,.26-.08,.5-.2,.09,.22,.07,.56,.26,.74,.24,.03,.23-.14,.42-.2-.2,.2,0,.38-.25,.41,.24,.2,.3,.26,.74,.41,.06-.11,.07-.18,.16-.22,.08,.02,.02,.2-.09,.28h-.03c.32,.05,.3,.33,.36,.7,.09,.43,.26,.92,.61,.89h-.04c.18,.07,.35,.12,.51,.17,.14,.26-.2,.09-.16,.43,.31,.02,.44,.21,.57,.45,.13,.23,.26,.49,.45,.48,0,.18,.03,.34,.06,.48,.01,.09,.04,.09,.08,.08,.03,0,.07-.01,.1-.03,.15-.06,.32-.23,.5-.4,.36-.35,.67-.72,1.02-.66l-.09-.18c.06-.3,.19,0,.31-.05-.08-.14-.21-.06-.17-.23,.24-.27,.49-.49,.76-.68,.17-.11,.36-.2,.55-.28,.39-.16,.82-.28,1.18-.46,.26-.14-.52-.89,.06-.76l.15,.35c.18-.71,.94-.75,1.14-1.41,.03,.09,.1,.17,.05,.21,.26,.13,.35-.28,.22-.45,.08-.04,.14,.14,.25,.19,.19,.04,.02-.46,.24-.29,.04,.03,.03,.09,.03,.12-.02-.15,.31-.21,.05-.4,.26-.03,.23-.37,.48-.34-.13-.34,.39-.11,.1-.5,.31,.39,.55,.07,.5-.2,.06,.15,.19,.04,.29,.24,.11-.11,.16-.27-.02-.45,.6,.28,.13-.74,.75-.25,.18-.5,.39-.92,.63-1.26,.31,.39-.32,.33,.03,.72,.17-.41,.07-.88,.45-1.03,.12-.01,.09,.2,.12,.29,.17-.4,.61-.44,.71-.86,.03,.04,.03,.1,.03,.15,.04-.05,.17-.04,.02-.21v.09c-.3-.19-.23-.71-.32-.85,.31,.58,.37-.08,.73,.68,0-.06-.01-.18-.11-.29,.08,0,.15,.05,.2,.23,.11-.25-.1-.39,.08-.52,.07,.09,.06,.15,.12,.27-.04-.24-.09-.48,.12-.51,.03,.06,.1,.12,.05,.15,.23-.21,.1-.78,.5-.82,.19,.45,.19,.06,.44,.39l.08-.21-.18-.12c.13-.09,.09-.41,.28-.38v.21s.21-.23,.21-.23l-.23-.03c.02-.27-.31-.42-.06-.45-.01,.06,.14-.09,.35,.07h0c0-.15,0-.32,.15-.3,.1,.09,.23,.4,.29,.46-.12-.34,.27-.29,.16-.65,.02,.09,.13,.28,.16,.31l-.09-.27c.11,.04,.14,.07,.22,.22,.22-.07-.34-.41,.02-.36,0,.03,.02,.06,0,.12,.29-.04,.36-.42,.65-.43,.27,.33-.14,.2,.11,.46,.27-.24,.41-.79,.77-.87h-.08c-.23-.56,.36,.13,.39-.2-.02,.06,.1,.32,.08,.25,.25-.02,.37-.34,.63-.66l.02,.16c.18,.06,.37-.09,.53-.09-.02-.16,.07-.17-.07-.35,.77,.6,.66-.77,1.32-.27-.05,.02-.06,.17-.02,.15l.28-.26c-.12-.23-.1-.13-.24-.28-.01-.16,.04-.31,.12-.34-.09,.22,.15,.38,.26,.49-.04-.07-.05-.16-.08-.23,.34,.36-.15-.49,.2-.29l.03,.13c.07-.1,.09-.29,.2-.29,.14,.26-.05,.16,.03,.4,.13-.07,.08-.63,.3-.39-.03,.1-.11,.13-.14,.23,.25,.28,.24,.19,.36,.21h-.01s.28,.06,.28,.06l-.09-.07c-.08-.79,.3-.26,.37-.82-.07,.53,.05,.27,.14,.6,.09,.07,.21,.14,.22,.24,.02-.29,.25,.14,.28-.28,.04,.1,.12-.03,.18,.24,.12-.13-.09-.17-.12-.3,.11-.42,.65,.26,.82-.33,.21-.29,.15-.66,.36-.9,.14,.14,.04,.4,.04,.4,.19,.11,.28,.05,.38-.11,0,.1,.05,.17,.13,.27,.1-.06-.04-.4,.14-.29,.01,.12,.04,.32,.02,.45,.1-.13,.16-.36,.26-.49,.09,.17,0,.3,0,.43,.12-.12,.33-.27,.29-.57l-.12-.07s.1,.24,.08,.3c-.06,.26-.21-.05-.25-.15l.07-.09c-.27-.58-.34,.21-.54,.23l-.06-.46-.08,.42c-.08-.1-.18-.34-.11-.43-.2-.18-.07,.19-.26-.02-.02-.03-.02-.06-.02-.08l-.09,.17c0-.1-.12-.3-.02-.26-.31-.19-.28,.45-.47,.14v-.03c-.27,.25,.08,.33-.04,.79l-.42-.74,.07,.33s-.11,0-.14-.14c-.05,.26,.07,.13,.06,.36-.26-.24-.4,.28-.6-.22,.02,.26,.22,.14,.1,.36-.23-.53-.17,.16-.4-.05-.05-.3,.14-.19-.09-.4,.07,.51-.32,0-.41,.13,.13,.38-.21,.26-.37,.46-.03-.13-.46-.07-.71-.13l-.02-.07c.11,.4-.12,.39-.23,.53-.08-.23-.09-.33-.05-.46l-.14,.05c.02,.13,0,.22-.07,.29l-.08-.3c-.18,.09-.23,.48-.54,.39,.1,.27,.48,.66,.31,.93-.07-.14-.18-.38-.14-.46-.01,.03-.02,.15-.09,.1v-.28c-.15-.06,.03,.22-.07,.23-.08-.2-.12-.12-.18-.28,.01-.03,.11,.05,.11-.04-.11,0-.27-.07-.38-.21,.06,.11,.11,.27,.06,.33-.17,.09-.16-.22-.31-.28,.02,.16-.16,.06-.03,.36-.05,.02-.12-.11-.18-.19-.03,.17-.41,.24-.16,.51h.03s0,.02,0,.03h0s0,0,0,0c-.16,.43-.69,.12-.93,.38l-.05-.1c-.12,.2-.35,.27-.36,.54-.05,.03-.21-.11-.25-.24-.09,.14-.05,.26-.33,.2,.04-.24-.13-.12,.07-.2-.22,0-.34-.12-.38,.24-.07-.28-.3-.24-.34-.11l.22,.1c-.07,.09-.16,.11-.25,.14l-.14-.35c-.58-.18-.23,1.03-.88,.54,.05,.27,.28,.04,.36,.35-.18,.05-.63-.29-.68-.26-.32-.03,.1,.58-.2,.61,.1,.09,.32,.37,.23,.58-.18,.06-.5-.33-.46-.48,.03-.03,.07-.01,.1,.03,.02-.07,.06-.16-.08-.24l.05,.12c-.15-.06-.36,.09-.43-.12-.05,.18,.07,.21,.2,.21-.31-.03-.31,.2-.58,.24,.07,.04,.19,.14,.16,.16-.38,.08,.02,.29-.14,.48-.23-.08-.24-.42-.34-.14-.2-.02-.23-.26-.25-.38-.03,.33-.44,.11-.57,.15l.03-.15c-.02,.09-.07,.12-.11,.16l.21,.17c-.08,0-.13,.04-.19-.05,.05,.18,.31,.32,.34,.59-.15-.05-.13,.28-.37,.02,.3-.08-.24-.26-.08-.45-.01,.06-.06,.1-.14,.1-.03-.02-.04-.06-.03-.09-.41-.08,.14,.39-.09,.56-.09-.18-.28-.25-.29-.19,.09-.07,.24,.23,.26,.41-.24,0-.08,.21-.17,.25h.13c.09,.17,0,.2-.05,.33-.1-.11,.02-.15-.05-.18,.1,.35-.47-.08-.47,.22-.15-.05-.24-.28-.36-.3,0,.34-.35-.06-.4,.25,.22,.16,.19,.11,.22,.41l.17-.38,.06,.45c.09-.07,.08-.28,.16-.29,.05,.24,.01,.18,.19,.32-.37-.21-.09,.37-.4,.28l-.41-.51c-.39-.06-.16,.56-.53,.66l.16,.02c.13,.23-.14,.16-.16,.32-.13-.18-.24-.19-.36-.27,.11,.12-.2,.15,.05,.51l-.3-.12c-.29,.09,.15,.68-.1,.8-.09-.23-.28-.27-.25-.52-.07,.06-.16,.08-.06,.19-.13-.07,0,.39-.2,.28,.03,.1,.17,.28,.08,.33-.04-.03-.07-.08-.07-.08,.07,.08-.03,.21,.2,.34-.65-.35-.56,.53-1.12,.24-.1,.18-.24,.39-.36,.51-.03-.06-.07-.08-.03-.09-.32,0,.29,.58-.07,.58-.34-.18,0-.24-.16-.29-.49-.53-.19,.29-.61,.09v-.06c-.26-.1-.09,.43-.3,.54,0,0-.03-.06-.07-.08,.11,.39-.04,.67-.15,.89-.13-.26-.02-.18-.23-.37-.05,.1,.32,.34,.21,.53-.15-.08-.35-.09-.56-.31l.14-.13c-.33-.24-.18,.17-.3,.18l-.1-.14c-.19,.23,.08,.57-.18,.74l.11,.08c.14,.44-.26-.1-.19,.26l-.32-.31c-.02,.15-.04,.58-.14,.77-.11-.32-.04-.6-.05-.84-.09,.07-.27,.27-.18,.47,0-.06-.02-.18,.06-.16,.11,.35,.08,.6-.1,.73-.25-.34-.4-.29-.54-.21-.08,.03-.18,.1-.34-.2,.02,.19-.07,.22-.14,.18-.07-.03-.11-.12-.16-.05-.02,.86-.04,.05-.13,1-.06,.06-.07-.03-.07-.08-.02-.25-.03-.48-.02-.7,.03-.28,.07-.15,.11-.35-.04-.14,.06-.4,.09-.65-.07,.3-.14,.4-.13,.25-.03,.13-.05,.28-.07,.42-.24,.27,.16-.73-.07-.43l.13-.19c-.1,.08-.08-.12-.5,.23,.04-.07,.16-.22,.22-.23,0-.05-.05-.06-.11-.06-.11-.05-.23-.09-.35-.14-.23-.09-.43-.2-.41-.43l.15-.08c-.09-.03-.32,.1-.26-.08,.05-.04,.15-.09,.13-.12-.07,0-.36,.04-.35-.11l.2-.06c-.11-.45-.75-.17-1.06-.34,.36-.33,.24-.67,.19-.84l.05-.04c-.3-.38-.86-.29-1.3-.46,.18-.58-.51-.8-.64-1.31,0,.11-.26,.27-.35,.26-.01-.14-.44,.06-.13-.26l.02,.03c.23-.38,0-.43-.12-.55l-.41,.42c.24-.94-1.05-.49-.75-1.22-.17,.05-.27-.03-.44,.02l.2-.24c-.17-.24-.26-.37-.59-.53l.19-.13c-.15-.14-.75,.55-.91,.46l.24-.41c-.28-.2-.33-.74-.86-.6,.05-.05,.13-.16,.19-.14-.13-.11-.33-.64-.66-.08,.24-.34-.27-.25-.53-.2l.2-.24c-.36,.24-.42,.32-.67,.29-.02-.06,.1-.23,.11-.13-.05-.23-.28,.17-.36-.09l.18-.12c-.14-.12-.18-.02-.39,.11-.16,.04-.24-.25-.11-.5-.11,.13-.32,.26-.36,.14,.05-.1,.11-.13,.15-.15-.13-.35-.57,.06-.58-.3,.05-.09,.07-.14,.07-.17,.2,.13,.35,.25,.32,.26,.16-.24,.02-.38,.36-.63-.25,.1-.72,.35-.81,.14,0-.03,.01-.06,.03-.1l.03-.02s-.07-.05-.13-.02c-.03-.07-.04-.12-.09-.16,.11-.21-.12-.23-.2-.29-.16,.27-.24,.16-.27,.44,0-.03,.03-.02,.1,0,.02,0,.03,0,.05,0l-.02,.02c.06,.03,.13,.06,.21,.11-.15,.09-.28,.17-.28-.04-.15,.14-.3,.29-.38,.36,.12-.44,.02-.77,.13-1.02-.34,0-.66-.25-1.11,.16-.11,.02,0-.19,.02-.29,.07-.03,.12,0,.18-.05-.22,.05-.46-.2-.69,.14-.09-.26,.29-.27,0-.35l.09-.09c-.18-.86-1.31,.48-1.46-.56,.01,.07,.02,.1,0,.16-.46-.66-1.46-.36-1.84-1.19-.13-.19-.26,.03-.46,.16l.1-.32-.35,.26c-.38,.14-.13-.96-.69-.62l-.05,.23c-.11-.1-.44-.05-.32-.28-.03,.03-.13,.2-.13,.07l.06-.16-.42,.15c-.19-.22,.3-.63-.04-.8-.16,0-.57,.33-.56,.46,.05,.03,.1,.15,.04,.32l-.15,.04c-.2,.48-.46,.94-.33,1.38l.3-.22-.03,.26-.16-.05c0,.25,.14,.08,.25-.02-.03,.13-.04,.23-.02,.29l.38-.38c-.05,.2-.24,.34-.15,.49,.18-.17,.09-.45,.29-.53,0,.26-.1,.42,.09,.28-.04,.13-.09,.2-.16,.23,.16-.11,.28,.04,.44-.18-.02,.31,.35,.07,.15,.52,.08-.09,.32-.28,.42-.26-.4,.46,.31,.18,0,.73,.34-.42,.52-.01,.85-.18-.03,.03-.09,.1-.1,.07,.1,.09,.06,.25,.1,.38,.2-.39,.43-.38,.64-.57-.04,.45-.31,.41-.44,.8,.15-.32,.4-.19,.48-.48,0,.29,.04,.16-.07,.51,.26-.48,.14-.03,.38-.28,.04,.32-.19,.47,.06,.41,0,.19-.23,.28-.23,.28Zm4.45,1.45h0s-.07-.02-.09-.03c.02,0,.05,.01,.09,.03Zm.33,.2s-.08-.07-.14-.1c.05-.1,.12-.18,.15-.16-.06,.05-.01,.15-.01,.26Zm.44-2.27c.08,0,.06,.06,.04,.12-.03-.01-.06-.02-.11-.03l-.03,.03s.07-.09,.1-.12Z"/>
    <path class="cls-13" d="M180.72,186.18s-.02,0-.03,0c0,.03,0,.06,0,.08l.07-.07h-.03Z"/>
    <path class="cls-13" d="M207.73,185.29h-.01s.02,.01,.03,.03c-.01-.01-.02-.02-.02-.03Z"/>
    <polygon class="cls-13" points="184.55 191.77 184.6 191.71 184.53 191.74 184.55 191.77"/>
    <path class="cls-13" d="M210.15,185.44s.03,.05,.05,.06c0-.02-.03-.04-.05-.06Z"/>
    <path class="cls-13" d="M211.05,185.19l.16,.06c-.07-.04-.12-.05-.16-.06Z"/>
    <path class="cls-13" d="M211.77,185.1c0-.05-.02-.09-.03-.13h0s.03,.13,.03,.13Z"/>
    <path class="cls-13" d="M202.2,190.71s-.01,.02-.01,.03c-.01,.09,0,.04,.01-.03Z"/>
    <path class="cls-13" d="M204.48,188.15c0,.07,0,.13,0,.18,.06-.01,.1-.03,0-.18Z"/>
    <polygon class="cls-13" points="199.51 193.4 199.51 193.4 199.49 193.41 199.51 193.4"/>
    <path class="cls-13" d="M204.33,188.41c.08,.02,.12-.02,.13-.08-.05,0-.12,.02-.13,.08Z"/>
    <path class="cls-13" d="M214.76,184.31h.04s0-.03-.01-.05l-.03,.05Z"/>
    <path class="cls-13" d="M214.79,184.26l.03-.05s-.03,.01-.03,.05Z"/>
    <path class="cls-13" d="M214.87,184.12l-.06,.1s.06,0,.06-.1Z"/>
    <path class="cls-13" d="M213.81,184.44l.02,.11s0-.06-.02-.11Z"/>
    <path class="cls-13" d="M213.55,184.55c.07,0,.24,.18,.31,.09l-.02-.09c0,.17-.28-.2-.29,0Z"/>
    <path class="cls-13" d="M211.97,183.6h.26c-.08-.09-.18-.23-.08-.29-.41-.25,.14,.24-.18,.29Z"/>
    <path class="cls-13" d="M211.19,183.67c.11-.1-.06-.17-.07-.23-.04,.13-.05,.17,.07,.23Z"/>
    <path class="cls-13" d="M206.06,185.84l-.12-.26c-.07,.08,.05,.1,.12,.26Z"/>
    <polygon class="cls-13" points="205.86 187.62 206.03 187.73 205.94 187.48 205.86 187.62"/>
    <polygon class="cls-13" points="204.29 186.21 204.31 186.15 204.21 186.33 204.29 186.21"/>
    <path class="cls-13" d="M196.94,191.99l.25,.25c.01-.09-.23-.4-.25-.25Z"/>
    <path class="cls-13" d="M194.13,194.78c-.14-.11-.3-.12-.24,.05,.08-.04,.24,.01,.24-.05Z"/>
    <polygon class="cls-13" points="187.16 190.3 187.3 190.27 187.12 190.24 187.16 190.3"/>
  </g>
  <g>
    <path class="cls-13" d="M145.07,153.87c0-.1-.07-.3-.13-.24l.05,.37,.09-.13Z"/>
    <path class="cls-13" d="M144.4,153.36c-.04,.2-.05,.53,.1,.83-.01-.36,.05-.23,.02-.66,.06-.06,.16,.08,.18,.21,0-.1,.13,.04,.11-.19-.17-.25-.3-.22-.36,.04-.05-.07-.05-.17-.06-.24Z"/>
    <path class="cls-13" d="M137.19,155.31l.06,.02s-.04-.02-.06-.02Z"/>
    <path class="cls-13" d="M133.01,157.43s.02-.07,0-.09c-.01,.04-.02,.07,0,.09Z"/>
    <path class="cls-13" d="M132.11,157.56s.04,0,.05,0c-.03-.02-.06-.02-.05,0Z"/>
    <path class="cls-13" d="M137.19,155.31l-.16-.05c.04,.11,.1,.05,.16,.05Z"/>
    <path class="cls-13" d="M143.68,154.5s.03-.06,.04-.11c-.02,.02-.03,.04-.05,.05v.06Z"/>
    <path class="cls-13" d="M138.98,154.23h.04c0-.06-.02-.11-.02-.17v.17Z"/>
    <path class="cls-13" d="M140.44,153.64s.05,.3,.08,.43c-.02-.13-.02-.19,0-.23-.02-.06-.05-.12-.09-.2Z"/>
    <path class="cls-13" d="M142.98,153.39l.03-.05s-.02,.03-.03,.05Z"/>
    <path class="cls-13" d="M137.9,154.6s-.04-.08-.06-.1c.02,.04,.04,.07,.06,.1Z"/>
    <path class="cls-13" d="M103.22,155.19s.01-.03,.02-.05c-.02,.03-.03,.04-.02,.05Z"/>
    <polygon class="cls-13" points="102.18 153.09 102.21 153.08 102.27 152.92 102.18 153.09"/>
    <path class="cls-13" d="M130.69,158.12h0c0-.05,0-.03,0,0Z"/>
    <path class="cls-13" d="M121.7,165.72c0,.46-.16,.38-.14,.91,.03-.17,.16-.59,.14-.91Z"/>
    <path class="cls-13" d="M143.63,154.47s-.04,.02-.06,.02c.03,0,.05,0,.06-.02Z"/>
    <path class="cls-13" d="M121.56,166.63h0s0,.06,0,.06c0-.02,0-.04,0-.06Z"/>
    <path class="cls-13" d="M128.19,160.37s.08,.06,.11,.08c-.02-.02-.05-.05-.11-.08Z"/>
    <path class="cls-13" d="M130.4,159.14h-.07s.06,0,.07,0Z"/>
    <path class="cls-13" d="M127.49,161.53s-.08-.02-.08,.04c.01,0,.02,.02,.04,.02-.01-.04-.01-.07,.05-.06Z"/>
    <path class="cls-13" d="M126.47,162.39s.04,.02,.06,.03l.02-.04h-.08Z"/>
    <path class="cls-13" d="M106.8,156.8c.02-.09,.05-.18,.08-.27-.09,.2-.29,.18-.08,.27Z"/>
    <path class="cls-13" d="M143.63,154.33c.02,.08,.02,.12,0,.14,.01,0,.03-.02,.04-.03,0-.05-.02-.09-.04-.11Z"/>
    <path class="cls-13" d="M129.02,163.45l-.19,.1c.06-.01,.13-.05,.19-.1Z"/>
    <path class="cls-13" d="M114.51,161.96h-.06s.03,.02,.06,0Z"/>
    <path class="cls-13" d="M128.38,163.99c-.1-.06-.17-.08-.23-.09,0,.02,.01,.05,.03,.08h.2Z"/>
    <path class="cls-13" d="M106.89,156.52h0s0,0,0,0Z"/>
    <path class="cls-13" d="M105.34,156.55c.17,.09,.26-.32,.41-.51,.26,0-.04,.32-.07,.54,.18-.03,.45-.31,.54-.24-.02,.06-.02,.1-.08,.16,.29-.21,.41,.2,.77-.07,0,.04-.02,.07-.03,.1,.07-.19,.17-.38,.24-.51,.08,.04,.27-.15,.17,.1-.04-.03-.1,.06-.16,.12l.14-.06c-.11,.38-.18,.06-.31,.31,.22-.02,.56-.2,.63-.04-.16,.34-.34-.05-.35,.33l-.12-.23c-.14,.6-.09-.1-.27,.53,.19,.23,.37-.01,.56,.22,.16-.15,.13-.28,.29-.43,.54-.13-.2,.98,.3,.69,.19-.18,.46-.58,.51-.25l-.28,.33c.21,.17,.45-.45,.55-.06-.13,.12-.26,0-.25,.07-.01,.38,.24-.14,.36-.06l-.17,.34c.28,.1,.69,.04,1,.15-.07,.09-.18,.16-.18,.29,.45,.05,.71,.5,.9,.91l.3-.19s-.03,.16-.09,.19c.06,.19,.12-.17,.25-.23,.08,.03,0,.22-.11,.27,.37-.08,.98-.07,1,.39l-.1,.05c.1,.24,.59-.4,.58-.03l-.07,.02c.3,.4,.91,.47,.91,1.08,.34-.33,.24,.46,.67-.04,.01,.43-.12,.47,.04,.88,.06,.09,.38-.22,.52-.19l-.21,.27,.36-.17-.19,.37h.15s.02-.17,.09-.25c.24,0,.2,.47,.09,.6l.51,.07c-.1,.1-.18,.08-.28,.11,.4-.11-.21,.3,.16,.2,.03-.08,.15-.14,.19-.19-.06,.23,.12,.39,.31,.44l-.18,.15c.2,.26,.59,.36,.84,.62-.02-.17,.29-.45,.39-.4l-.22,.29c.2-.11,.02-.18,.3-.27,.07,.13-.22,.36-.36,.39l.2,.03c-.07,.08-.13,.1-.24,.19,.2-.11-.05,.46,.29,.25l-.07,.08c.25,.26,.45,.28,.67,.48,.23-.21,.26-.08,.5-.2,.09,.22,.07,.56,.26,.74,.24,.03,.23-.14,.42-.2-.2,.2,0,.38-.25,.41,.24,.2,.3,.26,.74,.41,.06-.11,.07-.18,.16-.22,.08,.02,.02,.2-.09,.28h-.03c.32,.05,.3,.33,.36,.7,.09,.43,.26,.92,.61,.89h-.04c.18,.07,.35,.12,.51,.17,.14,.26-.2,.09-.16,.43,.31,.02,.44,.21,.57,.45,.13,.23,.26,.49,.45,.48,0,.18,.03,.34,.06,.48,.01,.09,.04,.09,.08,.08,.03,0,.07-.01,.1-.03,.15-.06,.32-.23,.5-.4,.36-.35,.67-.72,1.02-.66l-.09-.18c.06-.3,.19,0,.31-.05-.08-.14-.21-.06-.17-.23,.24-.27,.49-.49,.76-.68,.17-.11,.36-.2,.55-.28,.39-.16,.82-.28,1.18-.46,.26-.14-.52-.89,.06-.76l.15,.35c.18-.71,.94-.75,1.14-1.41,.03,.09,.1,.17,.05,.21,.26,.13,.35-.28,.22-.45,.08-.04,.14,.14,.25,.19,.19,.04,.02-.46,.24-.29,.04,.03,.03,.09,.03,.12-.02-.15,.31-.21,.05-.4,.26-.03,.23-.37,.48-.34-.13-.34,.39-.11,.1-.5,.31,.39,.55,.07,.5-.2,.06,.15,.19,.04,.29,.24,.11-.11,.16-.27-.02-.45,.6,.28,.13-.74,.75-.25,.18-.5,.39-.92,.63-1.26,.31,.39-.32,.33,.03,.72,.17-.41,.07-.88,.45-1.03,.12-.01,.09,.2,.12,.29,.17-.4,.61-.44,.71-.86,.03,.04,.03,.1,.03,.15,.04-.05,.17-.04,.02-.21v.09c-.3-.19-.23-.71-.32-.85,.31,.58,.37-.08,.73,.68,0-.06-.01-.18-.11-.29,.08,0,.15,.05,.2,.23,.11-.25-.1-.39,.08-.52,.07,.09,.06,.15,.12,.27-.04-.24-.08-.48,.12-.51,.03,.06,.1,.12,.05,.15,.23-.21,.1-.78,.5-.82,.19,.45,.19,.06,.44,.39l.08-.21-.18-.12c.13-.09,.09-.41,.28-.38v.21s.21-.23,.21-.23l-.23-.03c.02-.27-.31-.42-.06-.45-.01,.06,.14-.09,.35,.07h0c0-.15,0-.32,.15-.3,.1,.09,.23,.4,.29,.46-.12-.34,.27-.29,.16-.65,.02,.09,.13,.28,.16,.31l-.09-.27c.11,.04,.14,.07,.22,.22,.22-.07-.34-.41,.02-.36,0,.03,.02,.06,0,.12,.29-.04,.36-.42,.65-.43,.27,.33-.14,.2,.11,.46,.27-.24,.41-.79,.77-.87h-.08c-.23-.56,.36,.13,.39-.2-.02,.06,.1,.32,.08,.25,.25-.02,.37-.34,.63-.66l.02,.16c.18,.06,.37-.09,.53-.09-.02-.16,.07-.17-.07-.35,.77,.6,.66-.77,1.32-.27-.05,.02-.06,.17-.02,.15l.28-.26c-.12-.23-.1-.13-.24-.28-.01-.16,.04-.31,.12-.34-.09,.22,.15,.38,.26,.49-.04-.07-.05-.16-.08-.23,.34,.36-.15-.49,.2-.29l.03,.13c.07-.1,.09-.29,.2-.29,.14,.26-.05,.16,.03,.4,.13-.07,.08-.63,.3-.39-.03,.1-.11,.13-.14,.23,.25,.28,.24,.19,.36,.21h-.01s.28,.06,.28,.06l-.09-.07c-.08-.79,.3-.26,.37-.82-.07,.53,.05,.27,.14,.6,.09,.07,.21,.14,.22,.24,.02-.29,.25,.14,.28-.28,.04,.1,.12-.03,.18,.24,.12-.13-.09-.17-.12-.3,.11-.42,.65,.26,.82-.33,.21-.29,.15-.66,.36-.9,.14,.14,.04,.4,.04,.4,.19,.11,.28,.05,.38-.11,0,.1,.05,.17,.13,.27,.1-.06-.04-.4,.14-.29,.01,.12,.04,.32,.02,.45,.1-.13,.16-.36,.26-.49,.09,.17,0,.3,0,.43,.12-.12,.33-.27,.29-.57l-.12-.07s.1,.24,.08,.3c-.06,.26-.21-.05-.25-.15l.07-.09c-.27-.58-.34,.21-.54,.23l-.06-.46-.08,.42c-.08-.1-.18-.34-.11-.43-.2-.18-.07,.19-.26-.02-.02-.03-.02-.06-.02-.08l-.09,.17c0-.1-.12-.3-.02-.26-.31-.19-.28,.45-.47,.14v-.03c-.27,.25,.08,.33-.04,.79l-.42-.74,.07,.33s-.11,0-.14-.14c-.05,.26,.07,.13,.06,.36-.26-.24-.4,.28-.6-.22,.02,.26,.22,.14,.1,.36-.23-.53-.17,.16-.4-.05-.05-.3,.14-.19-.09-.4,.07,.51-.32,0-.41,.13,.13,.38-.21,.26-.37,.46-.03-.13-.46-.07-.71-.13l-.02-.07c.11,.4-.12,.39-.23,.53-.08-.23-.09-.33-.05-.46l-.14,.05c.01,.13,0,.22-.07,.29l-.08-.3c-.18,.09-.23,.48-.54,.39,.1,.27,.48,.66,.31,.93-.07-.14-.18-.38-.14-.46-.01,.03-.02,.15-.09,.1v-.28c-.15-.06,.03,.22-.07,.23-.08-.2-.12-.12-.18-.28,.01-.03,.11,.05,.11-.04-.11,0-.27-.07-.38-.21,.06,.11,.11,.27,.06,.33-.17,.09-.16-.22-.31-.28,.02,.16-.16,.06-.03,.36-.05,.02-.12-.11-.18-.19-.03,.17-.41,.24-.16,.51h.03s0,.02,0,.03h0s0,0,0,0c-.16,.43-.69,.12-.93,.38l-.05-.1c-.12,.2-.35,.27-.36,.54-.05,.03-.21-.11-.25-.24-.09,.14-.05,.26-.33,.2,.04-.24-.13-.12,.07-.2-.22,0-.34-.12-.38,.24-.07-.28-.3-.24-.34-.11l.22,.1c-.07,.09-.16,.11-.25,.14l-.14-.35c-.58-.18-.23,1.03-.88,.54,.05,.27,.28,.04,.36,.35-.18,.05-.63-.29-.68-.26-.32-.03,.1,.58-.2,.61,.1,.09,.32,.37,.23,.58-.18,.06-.5-.33-.46-.48,.03-.03,.07-.01,.1,.03,.02-.07,.06-.16-.08-.24l.05,.12c-.15-.06-.36,.09-.43-.12-.05,.18,.07,.21,.2,.21-.31-.03-.31,.2-.58,.24,.07,.04,.19,.14,.16,.16-.38,.08,.02,.29-.14,.48-.23-.08-.24-.42-.34-.14-.2-.02-.23-.26-.25-.38-.03,.33-.44,.11-.57,.15l.03-.15c-.02,.09-.07,.12-.11,.16l.21,.17c-.08,0-.13,.04-.19-.05,.05,.18,.31,.32,.34,.59-.15-.05-.13,.28-.37,.02,.3-.08-.24-.26-.08-.45-.01,.06-.06,.1-.14,.1-.03-.02-.04-.06-.03-.09-.41-.08,.14,.39-.09,.56-.09-.18-.28-.25-.29-.19,.09-.07,.24,.23,.26,.41-.24,0-.08,.21-.17,.25h.13c.09,.17,0,.2-.05,.33-.1-.11,.02-.15-.05-.18,.1,.35-.47-.08-.47,.22-.15-.05-.24-.28-.36-.3,0,.34-.35-.06-.4,.25,.22,.16,.19,.11,.22,.41l.17-.38,.06,.45c.09-.07,.08-.28,.16-.29,.05,.24,.01,.18,.19,.32-.37-.21-.09,.37-.4,.28l-.41-.51c-.39-.06-.16,.56-.53,.66l.16,.02c.13,.23-.14,.16-.16,.32-.13-.18-.24-.19-.36-.27,.11,.12-.2,.15,.05,.51l-.3-.12c-.29,.09,.15,.68-.1,.8-.09-.23-.28-.27-.25-.52-.07,.06-.16,.08-.06,.19-.13-.07,0,.39-.2,.28,.03,.1,.17,.28,.08,.33-.04-.03-.07-.08-.07-.08,.07,.08-.03,.21,.2,.34-.65-.35-.56,.53-1.12,.24-.1,.18-.24,.39-.36,.51-.03-.06-.07-.08-.03-.09-.32,0,.29,.58-.07,.58-.34-.18,0-.24-.16-.29-.49-.53-.19,.29-.61,.09v-.06c-.26-.1-.09,.43-.3,.54,0,0-.03-.06-.07-.08,.11,.39-.04,.67-.15,.89-.13-.26-.02-.18-.23-.37-.05,.1,.32,.34,.21,.53-.15-.08-.35-.09-.56-.31l.14-.13c-.33-.24-.18,.17-.3,.18l-.1-.14c-.19,.23,.08,.57-.18,.74l.11,.08c.14,.44-.26-.1-.19,.26l-.32-.31c-.02,.15-.04,.58-.14,.77-.11-.32-.04-.6-.05-.84-.09,.07-.27,.27-.18,.47,0-.06-.02-.18,.06-.16,.11,.35,.08,.6-.1,.73-.25-.34-.4-.29-.54-.21-.08,.03-.18,.1-.34-.2,.02,.19-.07,.22-.14,.18-.07-.03-.11-.12-.16-.05-.02,.86-.04,.05-.13,1-.06,.06-.07-.03-.07-.08-.02-.25-.03-.48-.02-.7,.03-.28,.07-.15,.11-.35-.04-.14,.06-.4,.09-.65-.07,.3-.14,.4-.13,.25-.03,.13-.05,.28-.07,.42-.24,.27,.16-.73-.07-.43l.13-.19c-.1,.08-.08-.12-.5,.23,.04-.07,.16-.22,.22-.23,0-.05-.05-.06-.11-.06-.11-.05-.23-.09-.35-.14-.23-.09-.43-.2-.41-.43l.15-.08c-.09-.03-.32,.1-.26-.08,.05-.04,.15-.09,.13-.12-.07,0-.36,.04-.35-.11l.2-.06c-.11-.45-.75-.17-1.06-.34,.36-.33,.24-.67,.19-.84l.05-.04c-.3-.38-.86-.29-1.3-.46,.18-.58-.51-.8-.64-1.31,0,.11-.26,.27-.35,.26-.01-.14-.44,.06-.13-.26l.02,.03c.23-.38,0-.43-.12-.55l-.41,.42c.24-.94-1.05-.49-.75-1.22-.17,.05-.27-.03-.44,.02l.2-.24c-.17-.24-.26-.37-.59-.53l.19-.13c-.15-.14-.75,.55-.91,.46l.24-.41c-.28-.2-.33-.74-.86-.6,.05-.05,.13-.16,.19-.14-.13-.11-.33-.64-.66-.08,.24-.34-.27-.25-.53-.2l.2-.24c-.36,.24-.42,.32-.67,.29-.02-.06,.1-.23,.11-.13-.05-.23-.28,.17-.36-.09l.18-.12c-.14-.12-.18-.02-.39,.11-.16,.04-.24-.25-.11-.5-.11,.13-.32,.26-.36,.14,.05-.1,.11-.13,.15-.15-.13-.35-.57,.06-.58-.3,.05-.09,.07-.14,.07-.17,.2,.13,.35,.25,.32,.26,.16-.24,.02-.38,.36-.63-.25,.1-.72,.35-.81,.14,0-.03,.01-.06,.03-.1l.03-.02s-.07-.05-.13-.02c-.03-.07-.04-.12-.09-.16,.11-.21-.12-.23-.2-.29-.16,.27-.24,.16-.27,.44,0-.03,.03-.02,.1,0,.02,0,.03,0,.05,0l-.02,.02c.06,.03,.13,.06,.21,.11-.15,.09-.28,.17-.28-.04-.15,.14-.3,.29-.38,.36,.12-.44,.02-.77,.13-1.02-.34,0-.66-.25-1.11,.16-.11,.02,0-.19,.02-.29,.07-.03,.12,0,.18-.05-.22,.05-.46-.2-.69,.14-.09-.26,.29-.27,0-.35l.09-.09c-.18-.86-1.31,.48-1.46-.56,.01,.07,.02,.1,0,.16-.46-.66-1.46-.36-1.84-1.19-.13-.19-.26,.03-.46,.16l.1-.32-.35,.26c-.38,.14-.13-.96-.69-.62l-.05,.23c-.11-.1-.44-.05-.32-.28-.03,.03-.13,.2-.13,.07l.06-.16-.42,.15c-.19-.22,.3-.63-.04-.8-.16,0-.57,.33-.56,.46,.05,.03,.1,.15,.04,.32l-.15,.04c-.2,.48-.46,.94-.33,1.38l.3-.22-.03,.26-.16-.05c0,.25,.14,.08,.25-.02-.03,.13-.04,.23-.02,.29l.38-.38c-.05,.2-.24,.34-.15,.49,.18-.17,.09-.45,.29-.53,0,.26-.1,.42,.09,.28-.04,.13-.09,.2-.16,.23,.16-.11,.28,.04,.44-.18-.02,.31,.35,.07,.15,.52,.08-.09,.32-.28,.42-.26-.4,.46,.31,.18,0,.73,.34-.42,.52-.01,.85-.18-.03,.03-.09,.1-.1,.07,.1,.09,.06,.25,.1,.38,.2-.39,.43-.38,.64-.57-.04,.45-.31,.41-.44,.8,.15-.32,.4-.19,.48-.48,0,.29,.04,.16-.07,.51,.26-.48,.14-.03,.38-.28,.04,.32-.19,.47,.06,.41,0,.19-.23,.28-.23,.28Zm4.45,1.45h0s-.07-.02-.09-.03c.02,0,.05,.01,.09,.03Zm.33,.2s-.08-.07-.14-.1c.05-.1,.12-.18,.15-.16-.06,.05-.01,.15-.01,.26Zm.44-2.27c.08,0,.06,.06,.04,.12-.03-.01-.06-.02-.11-.03l-.03,.03s.07-.09,.1-.12Z"/>
    <path class="cls-13" d="M110.25,156.21s-.02,0-.03,0c0,.03,0,.06,0,.08l.07-.07h-.03Z"/>
    <path class="cls-13" d="M137.26,155.33h-.01s.02,.01,.03,.03c-.01-.01-.02-.02-.02-.03Z"/>
    <polygon class="cls-13" points="114.08 161.81 114.13 161.75 114.06 161.78 114.08 161.81"/>
    <path class="cls-13" d="M139.68,155.48s.03,.05,.05,.06c0-.02-.03-.04-.05-.06Z"/>
    <path class="cls-13" d="M140.58,155.23l.16,.06c-.07-.04-.12-.05-.16-.06Z"/>
    <path class="cls-13" d="M141.3,155.14c0-.05-.02-.09-.03-.13h0s.03,.13,.03,.13Z"/>
    <path class="cls-13" d="M131.73,160.75s-.01,.02-.01,.03c-.01,.09,0,.04,.01-.03Z"/>
    <path class="cls-13" d="M134.01,158.18c0,.07,0,.13,0,.18,.06-.01,.1-.03,0-.18Z"/>
    <polygon class="cls-13" points="129.04 163.44 129.04 163.44 129.02 163.45 129.04 163.44"/>
    <path class="cls-13" d="M133.87,158.45c.08,.02,.12-.02,.13-.08-.05,0-.12,.02-.13,.08Z"/>
    <path class="cls-13" d="M144.3,154.35h.04s0-.03-.01-.05l-.03,.05Z"/>
    <path class="cls-13" d="M144.32,154.3l.03-.05s-.03,.01-.03,.05Z"/>
    <path class="cls-13" d="M144.4,154.16l-.06,.1s.06,0,.06-.1Z"/>
    <path class="cls-13" d="M143.35,154.48l.02,.11s0-.06-.02-.11Z"/>
    <path class="cls-13" d="M143.08,154.59c.07,0,.24,.18,.31,.09l-.02-.09c0,.17-.28-.2-.29,0Z"/>
    <path class="cls-13" d="M141.5,153.63h.26c-.08-.09-.18-.23-.08-.29-.41-.25,.14,.24-.18,.29Z"/>
    <path class="cls-13" d="M140.72,153.7c.11-.1-.06-.17-.07-.23-.04,.13-.05,.17,.07,.23Z"/>
    <path class="cls-13" d="M135.59,155.87l-.12-.26c-.07,.08,.05,.1,.12,.26Z"/>
    <polygon class="cls-13" points="135.39 157.66 135.56 157.76 135.47 157.52 135.39 157.66"/>
    <polygon class="cls-13" points="133.82 156.25 133.84 156.19 133.74 156.37 133.82 156.25"/>
    <path class="cls-13" d="M126.47,162.02l.25,.25c.01-.09-.23-.4-.25-.25Z"/>
    <path class="cls-13" d="M123.66,164.82c-.14-.11-.3-.12-.24,.05,.08-.04,.24,.01,.24-.05Z"/>
    <polygon class="cls-13" points="116.69 160.34 116.83 160.31 116.65 160.28 116.69 160.34"/>
  </g>
  <circle class="cls-18" cx="91.34" cy="285.38" r="46.98"/>
  <path class="cls-8" d="M-1.6,497.81s81.7-217.53,121.53-223.66c39.83-6.13,170.55,194.04,176.68,206.3S-1.6,497.81-1.6,497.81Z"/>
  <path class="cls-14" d="M59.68,361.98s39.44-81.4,58.67-83.69c19.23-2.29,82.33,72.61,85.29,77.2,2.96,4.59-143.96,6.5-143.96,6.5Z"/>
  <image width="1170" height="1729" transform="translate(24.53 389.38) scale(.08)" xlink:href="../../realisation/imgIllustratorADW/logos/potier.png"/>
  <polygon class="cls-9" points="-243.61 378.06 -239.78 371.61 84.37 -174.52 803.48 -7.65 499.07 716.52 -243.61 378.06"/>
</svg>