<?xml version="1.0" encoding="UTF-8"?>
<svg id="Calque_1" data-name="Calque 1" xmlns="http://www.w3.org/2000/svg" viewBox="0 0 500 500">
  <defs>
    <style>
      .cls-1 {
        fill: #797979;
      }

      .cls-2 {
        fill: #555;
      }

      .cls-3 {
        letter-spacing: 0em;
      }

      .cls-4 {
        fill: #3d3d3d;
      }

      .cls-5 {
        fill: #dbdbdb;
      }

      .cls-6 {
        fill: #0c0c0c;
      }

      .cls-7, .cls-8 {
        font-family: MyriadPro-Bold, 'Myriad Pro';
        font-size: 122.01px;
        font-weight: 700;
      }

      .cls-8 {
        fill: #fff;
      }

      .cls-9 {
        fill: #868686;
      }

      .cls-10 {
        fill: #662d91;
      }

      .cls-11 {
        fill: #313131;
      }

      .cls-12 {
        fill: #c69c6d;
      }

      .cls-13 {
        fill: #929292;
      }

      .cls-14 {
        fill: #e6e6e6;
      }

      .cls-15 {
        fill: #e7e7e7;
      }

      .cls-16 {
        letter-spacing: 0em;
      }

      .cls-17 {
        fill: #f7931e;
      }

      .cls-18 {
        fill: #242424;
      }

      .cls-19 {
        letter-spacing: 0em;
      }

      .cls-20 {
        fill: #181818;
      }

      .cls-21 {
        fill: #0ffff0;
      }

      .cls-22 {
        fill: #b6b6b6;
      }

      .cls-23 {
        fill: #aaa;
      }

      .cls-24 {
        fill: #616161;
      }

      .cls-25 {
        fill: #494949;
      }

      .cls-26 {
        fill: #1b1464;
      }

      .cls-27 {
        fill: #b3b3b3;
      }

      .cls-28 {
        fill: #c2c2c2;
      }

      .cls-29 {
        fill: #cecece;
      }

      .cls-30 {
        fill: #f3f3f3;
      }

      .cls-31 {
        fill: #6d6d6d;
      }

      .cls-32 {
        fill: #9e9e9e;
      }
    </style>
  </defs>
  <g>
    <rect class="cls-14" x="44.77" y="31.65" width="426.94" height="423.22"/>
    <path d="M471.15,32.21V454.3H45.34V32.21H471.15m1.13-1.13H44.21V455.43H472.28V31.09h0Z"/>
  </g>
  <g>
    <text class="cls-7" transform="translate(47.91 125.55) scale(.52 1)"><tspan x="0" y="0">WEB P</tspan><tspan class="cls-19" x="342.71" y="0">R</tspan><tspan class="cls-16" x="414.57" y="0">OJ</tspan><tspan class="cls-3" x="552.19" y="0">E</tspan><tspan x="617.95" y="0">T</tspan></text>
    <g>
      <path class="cls-6" d="M59.31,127.62l-10.21-82.23h10.4l3.25,33.92c.96,9.76,1.85,20.38,2.55,28.67h.13c.7-8.91,1.72-18.79,2.81-28.92l3.64-33.67h10.34l3.45,34.65c.96,9.64,1.66,18.42,2.3,27.57h.13c.64-9.15,1.6-18.79,2.49-28.55l3.51-33.67h9.89l-11.1,82.23h-10.53l-3.64-35.38c-.83-8.3-1.53-15.98-2.04-25.38h-.13c-.77,9.27-1.47,17.08-2.49,25.38l-4.08,35.38h-10.66Z"/>
      <polygon class="cls-6" points="134.61 92.85 118.78 92.85 118.78 112.37 136.46 112.37 136.46 127.62 109.02 127.62 109.02 45.39 135.57 45.39 135.57 60.64 118.78 60.64 118.78 77.72 134.61 77.72 134.61 92.85"/>
      <path class="cls-6" d="M152.73,77.96h3.19c5.1,0,7.85-4.03,7.85-10.13s-2.49-9.52-6.89-9.52c-2.11,0-3.32,.24-4.15,.49v19.16Zm-9.64-31.48c2.55-.98,7.72-1.71,12.57-1.71,5.93,0,9.48,1.18,12.7,4.64,2.92,3.13,5.17,8.66,5.17,16.11s-2.23,14.15-7.08,17.57v.24c4.91,2.56,8.55,9.64,8.55,20.25,0,7.44-1.77,13.31-4.47,17.45-3.11,4.77-8.36,7.44-16.91,7.44-4.79,0-8.36-.61-10.53-1.22V46.48Zm9.64,67.96c.96,.24,2.11,.24,3.77,.24,4.4,0,8.3-3.17,8.3-11.83s-3.89-11.59-8.74-11.59h-3.32v23.18Z"/>
      <path class="cls-6" d="M204.16,83.82c.83,.37,1.85,.49,3.25,.49,5.17,0,8.36-5,8.36-13.42,0-7.56-2.74-12.08-7.59-12.08-1.98,0-3.32,.37-4.02,.73v24.28Zm-9.64-37.33c3-.98,7.21-1.71,13.15-1.71s10.26,2.2,13.15,6.59c2.73,4.16,4.59,10.98,4.59,19.03s-1.4,14.88-3.96,19.52c-3.32,5.98-8.23,8.66-13.98,8.66-1.28,0-2.42-.12-3.32-.37v29.4h-9.64V46.48Z"/>
      <path class="cls-6" d="M241.24,81.87h3.83c4.85,0,7.72-4.64,7.72-11.83,0-7.56-2.68-11.41-7.15-11.47-2.36-.03-3.7,.37-4.4,.61v22.69Zm-9.64-35.38c3.13-.98,7.79-1.71,12.95-1.71,6.38,0,10.86,1.82,13.91,6.47,2.56,3.9,3.96,9.64,3.96,17.2,0,10.49-3.89,17.69-7.59,20.25v.37c3,2.32,4.66,7.81,5.74,15.37,1.34,9.27,2.68,20.01,3.51,23.18h-9.95c-.7-2.32-1.79-9.02-3-19.16s-3-13.06-6.96-13.18h-2.94v32.33h-9.64V46.48Z"/>
      <path class="cls-6" d="M277.48,86.75c0,16.1,3.96,27.45,10.47,27.45s10.34-11.96,10.34-27.94c0-14.76-3.7-27.45-10.4-27.45s-10.4,11.96-10.4,27.94Zm31.08-1.1c0,26.96-8.55,43.31-21.12,43.31s-20.23-18.42-20.23-41.85c0-24.65,8.23-43.07,20.93-43.07s20.42,18.91,20.42,41.6Z"/>
      <path class="cls-6" d="M323.36,45.39h9.7v51.98c0,23.43-5.87,31.6-15.31,31.6-2.23,0-5.17-.73-7.08-1.95l1.08-15.01c1.34,.85,3.06,1.46,4.98,1.46,4.08,0,6.64-3.54,6.64-16.35V45.39Z"/>
      <polygon class="cls-6" points="366.76 92.85 350.93 92.85 350.93 112.37 368.61 112.37 368.61 127.62 341.17 127.62 341.17 45.39 367.71 45.39 367.71 60.64 350.93 60.64 350.93 77.72 366.76 77.72 366.76 92.85"/>
      <polygon class="cls-6" points="383.86 61 372.31 61 372.31 45.39 405.36 45.39 405.36 61 393.62 61 393.62 127.62 383.86 127.62 383.86 61"/>
    </g>
    <g>
      <path class="cls-20" d="M59.55,129.69l-10.21-82.23h10.4l3.25,33.92c.96,9.76,1.85,20.38,2.55,28.67h.13c.7-8.91,1.72-18.79,2.81-28.92l3.64-33.67h10.34l3.45,34.65c.96,9.64,1.66,18.42,2.3,27.57h.13c.64-9.15,1.6-18.79,2.49-28.55l3.51-33.67h9.89l-11.1,82.23h-10.53l-3.64-35.38c-.83-8.3-1.53-15.98-2.04-25.38h-.13c-.77,9.27-1.47,17.08-2.49,25.38l-4.08,35.38h-10.66Z"/>
      <polygon class="cls-20" points="134.84 94.92 119.02 94.92 119.02 114.44 136.69 114.44 136.69 129.69 109.26 129.69 109.26 47.46 135.8 47.46 135.8 62.71 119.02 62.71 119.02 79.79 134.84 79.79 134.84 94.92"/>
      <path class="cls-20" d="M152.97,80.04h3.19c5.1,0,7.85-4.03,7.85-10.13s-2.49-9.52-6.89-9.52c-2.11,0-3.32,.24-4.15,.49v19.16Zm-9.64-31.48c2.55-.98,7.72-1.71,12.57-1.71,5.93,0,9.48,1.18,12.7,4.64,2.92,3.13,5.17,8.66,5.17,16.11s-2.23,14.15-7.08,17.57v.24c4.91,2.56,8.55,9.64,8.55,20.25,0,7.44-1.77,13.31-4.47,17.45-3.11,4.77-8.36,7.44-16.91,7.44-4.79,0-8.36-.61-10.53-1.22V48.56Zm9.64,67.96c.96,.24,2.11,.24,3.77,.24,4.4,0,8.3-3.17,8.3-11.83s-3.89-11.59-8.74-11.59h-3.32v23.18Z"/>
      <path class="cls-20" d="M204.4,85.89c.83,.37,1.85,.49,3.25,.49,5.17,0,8.36-5,8.36-13.42,0-7.56-2.74-12.08-7.59-12.08-1.98,0-3.32,.37-4.02,.73v24.28Zm-9.64-37.33c3-.98,7.21-1.71,13.15-1.71s10.26,2.2,13.15,6.59c2.73,4.16,4.59,10.98,4.59,19.03s-1.4,14.88-3.96,19.52c-3.32,5.98-8.23,8.66-13.98,8.66-1.28,0-2.42-.12-3.32-.37v29.4h-9.64V48.56Z"/>
      <path class="cls-20" d="M241.47,83.94h3.83c4.85,0,7.72-4.64,7.72-11.83,0-7.56-2.68-11.41-7.15-11.47-2.36-.03-3.7,.37-4.4,.61v22.69Zm-9.64-35.38c3.13-.98,7.79-1.71,12.95-1.71,6.38,0,10.86,1.82,13.91,6.47,2.56,3.9,3.96,9.64,3.96,17.2,0,10.49-3.89,17.69-7.59,20.25v.37c3,2.32,4.66,7.81,5.74,15.37,1.34,9.27,2.68,20.01,3.51,23.18h-9.95c-.7-2.32-1.79-9.02-3-19.16s-3-13.06-6.96-13.18h-2.94v32.33h-9.64V48.56Z"/>
      <path class="cls-20" d="M277.72,88.82c0,16.1,3.96,27.45,10.47,27.45s10.34-11.96,10.34-27.94c0-14.76-3.7-27.45-10.4-27.45s-10.4,11.96-10.4,27.94Zm31.08-1.1c0,26.96-8.55,43.31-21.12,43.31s-20.23-18.42-20.23-41.85c0-24.65,8.23-43.07,20.93-43.07s20.42,18.91,20.42,41.6Z"/>
      <path class="cls-20" d="M323.6,47.46h9.7v51.98c0,23.43-5.87,31.6-15.31,31.6-2.23,0-5.17-.73-7.08-1.95l1.08-15.01c1.34,.85,3.06,1.46,4.98,1.46,4.08,0,6.64-3.54,6.64-16.35V47.46Z"/>
      <polygon class="cls-20" points="366.99 94.92 351.17 94.92 351.17 114.44 368.84 114.44 368.84 129.69 341.4 129.69 341.4 47.46 367.95 47.46 367.95 62.71 351.17 62.71 351.17 79.79 366.99 79.79 366.99 94.92"/>
      <polygon class="cls-20" points="384.09 63.08 372.54 63.08 372.54 47.46 405.6 47.46 405.6 63.08 393.85 63.08 393.85 129.69 384.09 129.69 384.09 63.08"/>
    </g>
    <g>
      <path class="cls-18" d="M59.78,131.77l-10.21-82.23h10.4l3.25,33.92c.96,9.76,1.85,20.38,2.55,28.67h.13c.7-8.91,1.72-18.79,2.81-28.92l3.64-33.67h10.34l3.45,34.65c.96,9.64,1.66,18.42,2.3,27.57h.13c.64-9.15,1.6-18.79,2.49-28.55l3.51-33.67h9.89l-11.1,82.23h-10.53l-3.64-35.38c-.83-8.3-1.53-15.98-2.04-25.38h-.13c-.77,9.27-1.47,17.08-2.49,25.38l-4.08,35.38h-10.66Z"/>
      <polygon class="cls-18" points="135.08 97 119.25 97 119.25 116.52 136.93 116.52 136.93 131.77 109.49 131.77 109.49 49.53 136.04 49.53 136.04 64.78 119.25 64.78 119.25 81.87 135.08 81.87 135.08 97"/>
      <path class="cls-18" d="M153.2,82.11h3.19c5.1,0,7.85-4.03,7.85-10.13s-2.49-9.52-6.89-9.52c-2.11,0-3.32,.24-4.15,.49v19.16Zm-9.64-31.48c2.55-.98,7.72-1.71,12.57-1.71,5.93,0,9.48,1.18,12.7,4.64,2.92,3.13,5.17,8.66,5.17,16.11s-2.23,14.15-7.08,17.57v.24c4.91,2.56,8.55,9.64,8.55,20.25,0,7.44-1.77,13.31-4.47,17.45-3.11,4.77-8.36,7.44-16.91,7.44-4.79,0-8.36-.61-10.53-1.22V50.63Zm9.64,67.96c.96,.24,2.11,.24,3.77,.24,4.4,0,8.3-3.17,8.3-11.83s-3.89-11.59-8.74-11.59h-3.32v23.18Z"/>
      <path class="cls-18" d="M204.63,87.97c.83,.37,1.85,.49,3.25,.49,5.17,0,8.36-5,8.36-13.42,0-7.56-2.74-12.08-7.59-12.08-1.98,0-3.32,.37-4.02,.73v24.28Zm-9.64-37.33c3-.98,7.21-1.71,13.15-1.71s10.26,2.2,13.15,6.59c2.73,4.16,4.59,10.98,4.59,19.03s-1.4,14.88-3.96,19.52c-3.32,5.98-8.23,8.66-13.98,8.66-1.28,0-2.42-.12-3.32-.37v29.4h-9.64V50.63Z"/>
      <path class="cls-18" d="M241.71,86.01h3.83c4.85,0,7.72-4.64,7.72-11.83,0-7.56-2.68-11.41-7.15-11.47-2.36-.03-3.7,.37-4.4,.61v22.69Zm-9.64-35.38c3.13-.98,7.79-1.71,12.95-1.71,6.38,0,10.86,1.82,13.91,6.47,2.56,3.9,3.96,9.64,3.96,17.2,0,10.49-3.89,17.69-7.59,20.25v.37c3,2.32,4.66,7.81,5.74,15.37,1.34,9.27,2.68,20.01,3.51,23.18h-9.95c-.7-2.32-1.79-9.02-3-19.16s-3-13.06-6.96-13.18h-2.94v32.33h-9.64V50.63Z"/>
      <path class="cls-18" d="M277.95,90.89c0,16.1,3.96,27.45,10.47,27.45s10.34-11.96,10.34-27.94c0-14.76-3.7-27.45-10.4-27.45s-10.4,11.96-10.4,27.94Zm31.08-1.1c0,26.96-8.55,43.31-21.12,43.31s-20.23-18.42-20.23-41.85c0-24.65,8.23-43.07,20.93-43.07s20.42,18.91,20.42,41.6Z"/>
      <path class="cls-18" d="M323.83,49.53h9.7v51.98c0,23.43-5.87,31.6-15.31,31.6-2.23,0-5.17-.73-7.08-1.95l1.08-15.01c1.34,.85,3.06,1.46,4.98,1.46,4.08,0,6.64-3.54,6.64-16.35V49.53Z"/>
      <polygon class="cls-18" points="367.23 97 351.4 97 351.4 116.52 369.08 116.52 369.08 131.77 341.64 131.77 341.64 49.53 368.18 49.53 368.18 64.78 351.4 64.78 351.4 81.87 367.23 81.87 367.23 97"/>
      <polygon class="cls-18" points="384.33 65.15 372.78 65.15 372.78 49.53 405.83 49.53 405.83 65.15 394.09 65.15 394.09 131.77 384.33 131.77 384.33 65.15"/>
    </g>
    <g>
      <path class="cls-11" d="M60.01,133.84l-10.21-82.23h10.4l3.25,33.92c.96,9.76,1.85,20.38,2.55,28.67h.13c.7-8.91,1.72-18.79,2.81-28.92l3.64-33.67h10.34l3.45,34.65c.96,9.64,1.66,18.42,2.3,27.57h.13c.64-9.15,1.6-18.79,2.49-28.55l3.51-33.67h9.89l-11.1,82.23h-10.53l-3.64-35.38c-.83-8.3-1.53-15.98-2.04-25.38h-.13c-.77,9.27-1.47,17.08-2.49,25.38l-4.08,35.38h-10.66Z"/>
      <polygon class="cls-11" points="135.31 99.07 119.49 99.07 119.49 118.59 137.16 118.59 137.16 133.84 109.72 133.84 109.72 51.61 136.27 51.61 136.27 66.86 119.49 66.86 119.49 83.94 135.31 83.94 135.31 99.07"/>
      <path class="cls-11" d="M153.43,84.18h3.19c5.1,0,7.85-4.03,7.85-10.13s-2.49-9.52-6.89-9.52c-2.11,0-3.32,.24-4.15,.49v19.16Zm-9.64-31.48c2.55-.98,7.72-1.71,12.57-1.71,5.93,0,9.48,1.18,12.7,4.64,2.92,3.13,5.17,8.66,5.17,16.11s-2.23,14.15-7.08,17.57v.24c4.91,2.56,8.55,9.64,8.55,20.25,0,7.44-1.77,13.31-4.47,17.45-3.11,4.77-8.36,7.44-16.91,7.44-4.79,0-8.36-.61-10.53-1.22V52.7Zm9.64,67.96c.96,.24,2.11,.24,3.77,.24,4.4,0,8.3-3.17,8.3-11.83s-3.89-11.59-8.74-11.59h-3.32v23.18Z"/>
      <path class="cls-11" d="M204.87,90.04c.83,.37,1.85,.49,3.25,.49,5.17,0,8.36-5,8.36-13.42,0-7.56-2.74-12.08-7.59-12.08-1.98,0-3.32,.37-4.02,.73v24.28Zm-9.64-37.33c3-.98,7.21-1.71,13.15-1.71s10.26,2.2,13.15,6.59c2.73,4.16,4.59,10.98,4.59,19.03s-1.4,14.88-3.96,19.52c-3.32,5.98-8.23,8.66-13.98,8.66-1.28,0-2.42-.12-3.32-.37v29.4h-9.64V52.7Z"/>
      <path class="cls-11" d="M241.94,88.09h3.83c4.85,0,7.72-4.64,7.72-11.83,0-7.56-2.68-11.41-7.15-11.47-2.36-.03-3.7,.37-4.4,.61v22.69Zm-9.64-35.38c3.13-.98,7.79-1.71,12.95-1.71,6.38,0,10.86,1.82,13.91,6.47,2.56,3.9,3.96,9.64,3.96,17.2,0,10.49-3.89,17.69-7.59,20.25v.37c3,2.32,4.66,7.81,5.74,15.37,1.34,9.27,2.68,20.01,3.51,23.18h-9.95c-.7-2.32-1.79-9.02-3-19.16-1.22-10.24-3-13.06-6.96-13.18h-2.94v32.33h-9.64V52.7Z"/>
      <path class="cls-11" d="M278.19,92.97c0,16.1,3.96,27.45,10.47,27.45s10.34-11.96,10.34-27.94c0-14.76-3.7-27.45-10.4-27.45s-10.4,11.96-10.4,27.94Zm31.08-1.1c0,26.96-8.55,43.31-21.12,43.31s-20.23-18.42-20.23-41.85c0-24.65,8.23-43.07,20.93-43.07s20.42,18.91,20.42,41.6Z"/>
      <path class="cls-11" d="M324.07,51.61h9.7v51.98c0,23.43-5.87,31.6-15.31,31.6-2.23,0-5.17-.73-7.08-1.95l1.08-15.01c1.34,.85,3.06,1.46,4.98,1.46,4.08,0,6.64-3.54,6.64-16.35V51.61Z"/>
      <polygon class="cls-11" points="367.46 99.07 351.63 99.07 351.63 118.59 369.31 118.59 369.31 133.84 341.87 133.84 341.87 51.61 368.42 51.61 368.42 66.86 351.63 66.86 351.63 83.94 367.46 83.94 367.46 99.07"/>
      <polygon class="cls-11" points="384.56 67.22 373.01 67.22 373.01 51.61 406.06 51.61 406.06 67.22 394.32 67.22 394.32 133.84 384.56 133.84 384.56 67.22"/>
    </g>
    <g>
      <path class="cls-4" d="M60.25,135.91l-10.21-82.23h10.4l3.25,33.92c.96,9.76,1.85,20.38,2.55,28.67h.13c.7-8.91,1.72-18.79,2.81-28.92l3.64-33.67h10.34l3.45,34.65c.96,9.64,1.66,18.42,2.3,27.57h.13c.64-9.15,1.6-18.79,2.49-28.55l3.51-33.67h9.89l-11.1,82.23h-10.53l-3.64-35.38c-.83-8.3-1.53-15.98-2.04-25.38h-.13c-.77,9.27-1.47,17.08-2.49,25.38l-4.08,35.38h-10.66Z"/>
      <polygon class="cls-4" points="135.55 101.14 119.72 101.14 119.72 120.66 137.4 120.66 137.4 135.91 109.96 135.91 109.96 53.68 136.5 53.68 136.5 68.93 119.72 68.93 119.72 86.01 135.55 86.01 135.55 101.14"/>
      <path class="cls-4" d="M153.67,86.26h3.19c5.1,0,7.85-4.03,7.85-10.13s-2.49-9.52-6.89-9.52c-2.11,0-3.32,.24-4.15,.49v19.16Zm-9.64-31.48c2.55-.98,7.72-1.71,12.57-1.71,5.93,0,9.48,1.18,12.7,4.64,2.92,3.13,5.17,8.66,5.17,16.11s-2.23,14.15-7.08,17.57v.24c4.91,2.56,8.55,9.64,8.55,20.25,0,7.44-1.77,13.31-4.47,17.45-3.11,4.77-8.36,7.44-16.91,7.44-4.79,0-8.36-.61-10.53-1.22V54.78Zm9.64,67.96c.96,.24,2.11,.24,3.77,.24,4.4,0,8.3-3.17,8.3-11.83s-3.89-11.59-8.74-11.59h-3.32v23.18Z"/>
      <path class="cls-4" d="M205.1,92.11c.83,.37,1.85,.49,3.25,.49,5.17,0,8.36-5,8.36-13.42,0-7.56-2.74-12.08-7.59-12.08-1.98,0-3.32,.37-4.02,.73v24.28Zm-9.64-37.33c3-.98,7.21-1.71,13.15-1.71s10.26,2.2,13.15,6.59c2.73,4.16,4.59,10.98,4.59,19.03s-1.4,14.88-3.96,19.52c-3.32,5.98-8.23,8.66-13.98,8.66-1.28,0-2.42-.12-3.32-.37v29.4h-9.64V54.78Z"/>
      <path class="cls-4" d="M242.18,90.16h3.83c4.85,0,7.72-4.64,7.72-11.83,0-7.56-2.68-11.41-7.15-11.47-2.36-.03-3.7,.37-4.4,.61v22.69Zm-9.64-35.38c3.13-.98,7.79-1.71,12.95-1.71,6.38,0,10.86,1.82,13.91,6.47,2.56,3.9,3.96,9.64,3.96,17.2,0,10.49-3.89,17.69-7.59,20.25v.37c3,2.32,4.66,7.81,5.74,15.37,1.34,9.27,2.68,20.01,3.51,23.18h-9.95c-.7-2.32-1.79-9.02-3-19.16s-3-13.06-6.96-13.18h-2.94v32.33h-9.64V54.78Z"/>
      <path class="cls-4" d="M278.42,95.04c0,16.1,3.96,27.45,10.47,27.45s10.34-11.96,10.34-27.94c0-14.76-3.7-27.45-10.4-27.45s-10.4,11.96-10.4,27.94Zm31.08-1.1c0,26.96-8.55,43.31-21.12,43.31s-20.23-18.42-20.23-41.85c0-24.65,8.23-43.07,20.93-43.07s20.42,18.91,20.42,41.6Z"/>
      <path class="cls-4" d="M324.3,53.68h9.7v51.98c0,23.43-5.87,31.6-15.31,31.6-2.23,0-5.17-.73-7.08-1.95l1.08-15.01c1.34,.85,3.06,1.46,4.98,1.46,4.08,0,6.64-3.54,6.64-16.35V53.68Z"/>
      <polygon class="cls-4" points="367.69 101.14 351.87 101.14 351.87 120.66 369.54 120.66 369.54 135.91 342.1 135.91 342.1 53.68 368.65 53.68 368.65 68.93 351.87 68.93 351.87 86.01 367.69 86.01 367.69 101.14"/>
      <polygon class="cls-4" points="384.79 69.3 373.24 69.3 373.24 53.68 406.3 53.68 406.3 69.3 394.56 69.3 394.56 135.91 384.79 135.91 384.79 69.3"/>
    </g>
    <g>
      <path class="cls-25" d="M60.48,137.99l-10.21-82.23h10.4l3.25,33.92c.96,9.76,1.85,20.38,2.55,28.67h.13c.7-8.91,1.72-18.79,2.81-28.92l3.64-33.67h10.34l3.45,34.65c.96,9.64,1.66,18.42,2.3,27.57h.13c.64-9.15,1.6-18.79,2.49-28.55l3.51-33.67h9.89l-11.1,82.23h-10.53l-3.64-35.38c-.83-8.3-1.53-15.98-2.04-25.38h-.13c-.77,9.27-1.47,17.08-2.49,25.38l-4.08,35.38h-10.66Z"/>
      <polygon class="cls-25" points="135.78 103.22 119.96 103.22 119.96 122.74 137.63 122.74 137.63 137.99 110.19 137.99 110.19 55.75 136.74 55.75 136.74 71.01 119.96 71.01 119.96 88.09 135.78 88.09 135.78 103.22"/>
      <path class="cls-25" d="M153.9,88.33h3.19c5.1,0,7.85-4.03,7.85-10.13s-2.49-9.52-6.89-9.52c-2.11,0-3.32,.24-4.15,.49v19.16Zm-9.64-31.48c2.55-.98,7.72-1.71,12.57-1.71,5.93,0,9.48,1.18,12.7,4.64,2.92,3.13,5.17,8.66,5.17,16.11s-2.23,14.15-7.08,17.57v.24c4.91,2.56,8.55,9.64,8.55,20.25,0,7.44-1.77,13.31-4.47,17.45-3.11,4.77-8.36,7.44-16.91,7.44-4.79,0-8.36-.61-10.53-1.22V56.85Zm9.64,67.96c.96,.24,2.11,.24,3.77,.24,4.4,0,8.3-3.17,8.3-11.83s-3.89-11.59-8.74-11.59h-3.32v23.18Z"/>
      <path class="cls-25" d="M205.33,94.19c.83,.37,1.85,.49,3.25,.49,5.17,0,8.36-5,8.36-13.42,0-7.56-2.74-12.08-7.59-12.08-1.98,0-3.32,.37-4.02,.73v24.28Zm-9.64-37.33c3-.98,7.21-1.71,13.15-1.71s10.26,2.2,13.15,6.59c2.73,4.16,4.59,10.98,4.59,19.03s-1.4,14.88-3.96,19.52c-3.32,5.98-8.23,8.66-13.98,8.66-1.28,0-2.42-.12-3.32-.37v29.4h-9.64V56.85Z"/>
      <path class="cls-25" d="M242.41,92.24h3.83c4.85,0,7.72-4.64,7.72-11.83,0-7.56-2.68-11.41-7.15-11.47-2.36-.03-3.7,.37-4.4,.61v22.69Zm-9.64-35.38c3.13-.98,7.79-1.71,12.95-1.71,6.38,0,10.86,1.82,13.91,6.47,2.56,3.9,3.96,9.64,3.96,17.2,0,10.49-3.89,17.69-7.59,20.25v.37c3,2.32,4.66,7.81,5.74,15.37,1.34,9.27,2.68,20.01,3.51,23.18h-9.95c-.7-2.32-1.79-9.02-3-19.16s-3-13.06-6.96-13.18h-2.94v32.33h-9.64V56.85Z"/>
      <path class="cls-25" d="M278.65,97.12c0,16.1,3.96,27.45,10.47,27.45s10.34-11.96,10.34-27.94c0-14.76-3.7-27.45-10.4-27.45s-10.4,11.96-10.4,27.94Zm31.08-1.1c0,26.96-8.55,43.31-21.12,43.31s-20.23-18.42-20.23-41.85c0-24.65,8.23-43.07,20.93-43.07s20.42,18.91,20.42,41.6Z"/>
      <path class="cls-25" d="M324.54,55.75h9.7v51.98c0,23.43-5.87,31.6-15.31,31.6-2.23,0-5.17-.73-7.08-1.95l1.08-15.01c1.34,.85,3.06,1.46,4.98,1.46,4.08,0,6.64-3.54,6.64-16.35V55.75Z"/>
      <polygon class="cls-25" points="367.93 103.22 352.1 103.22 352.1 122.74 369.78 122.74 369.78 137.99 342.34 137.99 342.34 55.75 368.88 55.75 368.88 71.01 352.1 71.01 352.1 88.09 367.93 88.09 367.93 103.22"/>
      <polygon class="cls-25" points="385.03 71.37 373.48 71.37 373.48 55.75 406.53 55.75 406.53 71.37 394.79 71.37 394.79 137.99 385.03 137.99 385.03 71.37"/>
    </g>
    <g>
      <path class="cls-2" d="M60.72,140.06l-10.21-82.23h10.4l3.25,33.92c.96,9.76,1.85,20.38,2.55,28.67h.13c.7-8.91,1.72-18.79,2.81-28.92l3.64-33.67h10.34l3.45,34.65c.96,9.64,1.66,18.42,2.3,27.57h.13c.64-9.15,1.6-18.79,2.49-28.55l3.51-33.67h9.89l-11.1,82.23h-10.53l-3.64-35.38c-.83-8.3-1.53-15.98-2.04-25.38h-.13c-.77,9.27-1.47,17.08-2.49,25.38l-4.08,35.38h-10.66Z"/>
      <polygon class="cls-2" points="136.01 105.29 120.19 105.29 120.19 124.81 137.86 124.81 137.86 140.06 110.43 140.06 110.43 57.83 136.97 57.83 136.97 73.08 120.19 73.08 120.19 90.16 136.01 90.16 136.01 105.29"/>
      <path class="cls-2" d="M154.14,90.4h3.19c5.1,0,7.85-4.03,7.85-10.13s-2.49-9.52-6.89-9.52c-2.11,0-3.32,.24-4.15,.49v19.16Zm-9.64-31.48c2.55-.98,7.72-1.71,12.57-1.71,5.93,0,9.48,1.18,12.7,4.64,2.92,3.13,5.17,8.66,5.17,16.11s-2.23,14.15-7.08,17.57v.24c4.91,2.56,8.55,9.64,8.55,20.25,0,7.44-1.77,13.31-4.47,17.45-3.11,4.77-8.36,7.44-16.91,7.44-4.79,0-8.36-.61-10.53-1.22V58.93Zm9.64,67.96c.96,.24,2.11,.24,3.77,.24,4.4,0,8.3-3.17,8.3-11.83s-3.89-11.59-8.74-11.59h-3.32v23.18Z"/>
      <path class="cls-2" d="M205.57,96.26c.83,.37,1.85,.49,3.25,.49,5.17,0,8.36-5,8.36-13.42,0-7.56-2.74-12.08-7.59-12.08-1.98,0-3.32,.37-4.02,.73v24.28Zm-9.64-37.33c3-.98,7.21-1.71,13.15-1.71s10.26,2.2,13.15,6.59c2.73,4.16,4.59,10.98,4.59,19.03s-1.4,14.88-3.96,19.52c-3.32,5.98-8.23,8.66-13.98,8.66-1.28,0-2.42-.12-3.32-.37v29.4h-9.64V58.93Z"/>
      <path class="cls-2" d="M242.64,94.31h3.83c4.85,0,7.72-4.64,7.72-11.83,0-7.56-2.68-11.41-7.15-11.47-2.36-.03-3.7,.37-4.4,.61v22.69Zm-9.64-35.38c3.13-.98,7.79-1.71,12.95-1.71,6.38,0,10.86,1.82,13.91,6.47,2.56,3.9,3.96,9.64,3.96,17.2,0,10.49-3.89,17.69-7.59,20.25v.37c3,2.32,4.66,7.81,5.74,15.37,1.34,9.27,2.68,20.01,3.51,23.18h-9.95c-.7-2.32-1.79-9.02-3-19.16s-3-13.06-6.96-13.18h-2.94v32.33h-9.64V58.93Z"/>
      <path class="cls-2" d="M278.89,99.19c0,16.1,3.96,27.45,10.47,27.45s10.34-11.96,10.34-27.94c0-14.76-3.7-27.45-10.4-27.45s-10.4,11.96-10.4,27.94Zm31.08-1.1c0,26.96-8.55,43.31-21.12,43.31s-20.23-18.42-20.23-41.85c0-24.65,8.23-43.07,20.93-43.07s20.42,18.91,20.42,41.6Z"/>
      <path class="cls-2" d="M324.77,57.83h9.7v51.98c0,23.43-5.87,31.6-15.31,31.6-2.23,0-5.17-.73-7.08-1.95l1.08-15.01c1.34,.85,3.06,1.46,4.98,1.46,4.08,0,6.64-3.54,6.64-16.35V57.83Z"/>
      <polygon class="cls-2" points="368.16 105.29 352.34 105.29 352.34 124.81 370.01 124.81 370.01 140.06 342.57 140.06 342.57 57.83 369.12 57.83 369.12 73.08 352.34 73.08 352.34 90.16 368.16 90.16 368.16 105.29"/>
      <polygon class="cls-2" points="385.26 73.45 373.71 73.45 373.71 57.83 406.77 57.83 406.77 73.45 395.03 73.45 395.03 140.06 385.26 140.06 385.26 73.45"/>
    </g>
    <g>
      <path class="cls-24" d="M60.95,142.14l-10.21-82.23h10.4l3.25,33.92c.96,9.76,1.85,20.38,2.55,28.67h.13c.7-8.91,1.72-18.79,2.81-28.92l3.64-33.67h10.34l3.45,34.65c.96,9.64,1.66,18.42,2.3,27.57h.13c.64-9.15,1.6-18.79,2.49-28.55l3.51-33.67h9.89l-11.1,82.23h-10.53l-3.64-35.38c-.83-8.3-1.53-15.98-2.04-25.38h-.13c-.77,9.27-1.47,17.08-2.49,25.38l-4.08,35.38h-10.66Z"/>
      <polygon class="cls-24" points="136.25 107.36 120.42 107.36 120.42 126.89 138.1 126.89 138.1 142.14 110.66 142.14 110.66 59.9 137.21 59.9 137.21 75.15 120.42 75.15 120.42 92.23 136.25 92.23 136.25 107.36"/>
      <path class="cls-24" d="M154.37,92.48h3.19c5.1,0,7.85-4.03,7.85-10.13s-2.49-9.52-6.89-9.52c-2.11,0-3.32,.24-4.15,.49v19.16Zm-9.64-31.48c2.55-.98,7.72-1.71,12.57-1.71,5.93,0,9.48,1.18,12.7,4.64,2.92,3.13,5.17,8.66,5.17,16.11s-2.23,14.15-7.08,17.57v.24c4.91,2.56,8.55,9.64,8.55,20.25,0,7.44-1.77,13.31-4.47,17.45-3.11,4.77-8.36,7.44-16.91,7.44-4.79,0-8.36-.61-10.53-1.22V61Zm9.64,67.96c.96,.24,2.11,.24,3.77,.24,4.4,0,8.3-3.17,8.3-11.83s-3.89-11.59-8.74-11.59h-3.32v23.18Z"/>
      <path class="cls-24" d="M205.8,98.33c.83,.37,1.85,.49,3.25,.49,5.17,0,8.36-5,8.36-13.42,0-7.56-2.74-12.08-7.59-12.08-1.98,0-3.32,.37-4.02,.73v24.28Zm-9.64-37.33c3-.98,7.21-1.71,13.15-1.71s10.26,2.2,13.15,6.59c2.73,4.16,4.59,10.98,4.59,19.03s-1.4,14.88-3.96,19.52c-3.32,5.98-8.23,8.66-13.98,8.66-1.28,0-2.42-.12-3.32-.37v29.4h-9.64V61Z"/>
      <path class="cls-24" d="M242.88,96.38h3.83c4.85,0,7.72-4.64,7.72-11.83,0-7.56-2.68-11.41-7.15-11.47-2.36-.03-3.7,.37-4.4,.61v22.69Zm-9.64-35.38c3.13-.98,7.79-1.71,12.95-1.71,6.38,0,10.86,1.82,13.91,6.47,2.56,3.9,3.96,9.64,3.96,17.2,0,10.49-3.89,17.69-7.59,20.25v.37c3,2.32,4.66,7.81,5.74,15.37,1.34,9.27,2.68,20.01,3.51,23.18h-9.95c-.7-2.32-1.79-9.02-3-19.16-1.22-10.24-3-13.06-6.96-13.18h-2.94v32.33h-9.64V61Z"/>
      <path class="cls-24" d="M279.12,101.26c0,16.1,3.96,27.45,10.47,27.45s10.34-11.96,10.34-27.94c0-14.76-3.7-27.45-10.4-27.45s-10.4,11.96-10.4,27.94Zm31.08-1.1c0,26.96-8.55,43.31-21.12,43.31s-20.23-18.42-20.23-41.85c0-24.65,8.23-43.07,20.93-43.07s20.42,18.91,20.42,41.6Z"/>
      <path class="cls-24" d="M325,59.9h9.7v51.98c0,23.43-5.87,31.6-15.31,31.6-2.23,0-5.17-.73-7.08-1.95l1.08-15.01c1.34,.85,3.06,1.46,4.98,1.46,4.08,0,6.64-3.54,6.64-16.35V59.9Z"/>
      <polygon class="cls-24" points="368.4 107.36 352.57 107.36 352.57 126.89 370.25 126.89 370.25 142.14 342.81 142.14 342.81 59.9 369.35 59.9 369.35 75.15 352.57 75.15 352.57 92.23 368.4 92.23 368.4 107.36"/>
      <polygon class="cls-24" points="385.5 75.52 373.95 75.52 373.95 59.9 407 59.9 407 75.52 395.26 75.52 395.26 142.14 385.5 142.14 385.5 75.52"/>
    </g>
    <g>
      <path class="cls-31" d="M61.18,144.21l-10.21-82.23h10.4l3.25,33.92c.96,9.76,1.85,20.38,2.55,28.67h.13c.7-8.91,1.72-18.79,2.81-28.92l3.64-33.67h10.34l3.45,34.65c.96,9.64,1.66,18.42,2.3,27.57h.13c.64-9.15,1.6-18.79,2.49-28.55l3.51-33.67h9.89l-11.1,82.23h-10.53l-3.64-35.38c-.83-8.3-1.53-15.98-2.04-25.38h-.13c-.77,9.27-1.47,17.08-2.49,25.38l-4.08,35.38h-10.66Z"/>
      <polygon class="cls-31" points="136.48 109.44 120.66 109.44 120.66 128.96 138.33 128.96 138.33 144.21 110.89 144.21 110.89 61.98 137.44 61.98 137.44 77.23 120.66 77.23 120.66 94.31 136.48 94.31 136.48 109.44"/>
      <path class="cls-31" d="M154.6,94.55h3.19c5.1,0,7.85-4.03,7.85-10.13s-2.49-9.52-6.89-9.52c-2.11,0-3.32,.24-4.15,.49v19.16Zm-9.64-31.48c2.55-.98,7.72-1.71,12.57-1.71,5.93,0,9.48,1.18,12.7,4.64,2.92,3.13,5.17,8.66,5.17,16.11s-2.23,14.15-7.08,17.57v.24c4.91,2.56,8.55,9.64,8.55,20.25,0,7.44-1.77,13.31-4.47,17.45-3.11,4.77-8.36,7.44-16.91,7.44-4.79,0-8.36-.61-10.53-1.22V63.07Zm9.64,67.96c.96,.24,2.11,.24,3.77,.24,4.4,0,8.3-3.17,8.3-11.83s-3.89-11.59-8.74-11.59h-3.32v23.18Z"/>
      <path class="cls-31" d="M206.04,100.41c.83,.37,1.85,.49,3.25,.49,5.17,0,8.36-5,8.36-13.42,0-7.56-2.74-12.08-7.59-12.08-1.98,0-3.32,.37-4.02,.73v24.28Zm-9.64-37.33c3-.98,7.21-1.71,13.15-1.71s10.26,2.2,13.15,6.59c2.73,4.16,4.59,10.98,4.59,19.03s-1.4,14.88-3.96,19.52c-3.32,5.98-8.23,8.66-13.98,8.66-1.28,0-2.42-.12-3.32-.37v29.4h-9.64V63.07Z"/>
      <path class="cls-31" d="M243.11,98.46h3.83c4.85,0,7.72-4.64,7.72-11.83,0-7.56-2.68-11.41-7.15-11.47-2.36-.03-3.7,.37-4.4,.61v22.69Zm-9.64-35.38c3.13-.98,7.79-1.71,12.95-1.71,6.38,0,10.86,1.82,13.91,6.47,2.56,3.9,3.96,9.64,3.96,17.2,0,10.49-3.89,17.69-7.59,20.25v.37c3,2.32,4.66,7.81,5.74,15.37,1.34,9.27,2.68,20.01,3.51,23.18h-9.95c-.7-2.32-1.79-9.02-3-19.16s-3-13.06-6.96-13.18h-2.94v32.33h-9.64V63.07Z"/>
      <path class="cls-31" d="M279.36,103.34c0,16.1,3.96,27.45,10.47,27.45s10.34-11.96,10.34-27.94c0-14.76-3.7-27.45-10.4-27.45s-10.4,11.96-10.4,27.94Zm31.08-1.1c0,26.96-8.55,43.31-21.12,43.31s-20.23-18.42-20.23-41.85c0-24.65,8.23-43.07,20.93-43.07s20.42,18.91,20.42,41.6Z"/>
      <path class="cls-31" d="M325.24,61.98h9.7v51.98c0,23.43-5.87,31.6-15.31,31.6-2.23,0-5.17-.73-7.08-1.95l1.08-15.01c1.34,.85,3.06,1.46,4.98,1.46,4.08,0,6.64-3.54,6.64-16.35V61.98Z"/>
      <polygon class="cls-31" points="368.63 109.44 352.8 109.44 352.8 128.96 370.48 128.96 370.48 144.21 343.04 144.21 343.04 61.98 369.59 61.98 369.59 77.23 352.8 77.23 352.8 94.31 368.63 94.31 368.63 109.44"/>
      <polygon class="cls-31" points="385.73 77.59 374.18 77.59 374.18 61.98 407.23 61.98 407.23 77.59 395.49 77.59 395.49 144.21 385.73 144.21 385.73 77.59"/>
    </g>
    <g>
      <path class="cls-1" d="M61.42,146.28l-10.21-82.23h10.4l3.25,33.92c.96,9.76,1.85,20.38,2.55,28.67h.13c.7-8.91,1.72-18.79,2.81-28.92l3.64-33.67h10.34l3.45,34.65c.96,9.64,1.66,18.42,2.3,27.57h.13c.64-9.15,1.6-18.79,2.49-28.55l3.51-33.67h9.89l-11.1,82.23h-10.53l-3.64-35.38c-.83-8.3-1.53-15.98-2.04-25.38h-.13c-.77,9.27-1.47,17.08-2.49,25.38l-4.08,35.38h-10.66Z"/>
      <polygon class="cls-1" points="136.72 111.51 120.89 111.51 120.89 131.03 138.57 131.03 138.57 146.28 111.13 146.28 111.13 64.05 137.67 64.05 137.67 79.3 120.89 79.3 120.89 96.38 136.72 96.38 136.72 111.51"/>
      <path class="cls-1" d="M154.84,96.63h3.19c5.1,0,7.85-4.03,7.85-10.13s-2.49-9.52-6.89-9.52c-2.11,0-3.32,.24-4.15,.49v19.16Zm-9.64-31.48c2.55-.98,7.72-1.71,12.57-1.71,5.93,0,9.48,1.18,12.7,4.64,2.92,3.13,5.17,8.66,5.17,16.11s-2.23,14.15-7.08,17.57v.24c4.91,2.56,8.55,9.64,8.55,20.25,0,7.44-1.77,13.31-4.47,17.45-3.11,4.77-8.36,7.44-16.91,7.44-4.79,0-8.36-.61-10.53-1.22V65.15Zm9.64,67.96c.96,.24,2.11,.24,3.77,.24,4.4,0,8.3-3.17,8.3-11.83s-3.89-11.59-8.74-11.59h-3.32v23.18Z"/>
      <path class="cls-1" d="M206.27,102.48c.83,.37,1.85,.49,3.25,.49,5.17,0,8.36-5,8.36-13.42,0-7.56-2.74-12.08-7.59-12.08-1.98,0-3.32,.37-4.02,.73v24.28Zm-9.64-37.33c3-.98,7.21-1.71,13.15-1.71s10.26,2.2,13.15,6.59c2.73,4.16,4.59,10.98,4.59,19.03s-1.4,14.88-3.96,19.52c-3.32,5.98-8.23,8.66-13.98,8.66-1.28,0-2.42-.12-3.32-.37v29.4h-9.64V65.15Z"/>
      <path class="cls-1" d="M243.35,100.53h3.83c4.85,0,7.72-4.64,7.72-11.83,0-7.56-2.68-11.41-7.15-11.47-2.36-.03-3.7,.37-4.4,.61v22.69Zm-9.64-35.38c3.13-.98,7.79-1.71,12.95-1.71,6.38,0,10.86,1.82,13.91,6.47,2.56,3.9,3.96,9.64,3.96,17.2,0,10.49-3.89,17.69-7.59,20.25v.37c3,2.32,4.66,7.81,5.74,15.37,1.34,9.27,2.68,20.01,3.51,23.18h-9.95c-.7-2.32-1.79-9.02-3-19.16-1.22-10.24-3-13.06-6.96-13.18h-2.94v32.33h-9.64V65.15Z"/>
      <path class="cls-1" d="M279.59,105.41c0,16.1,3.96,27.45,10.47,27.45s10.34-11.96,10.34-27.94c0-14.76-3.7-27.45-10.4-27.45s-10.4,11.96-10.4,27.94Zm31.08-1.1c0,26.96-8.55,43.31-21.12,43.31s-20.23-18.42-20.23-41.85c0-24.65,8.23-43.07,20.93-43.07s20.42,18.91,20.42,41.6Z"/>
      <path class="cls-1" d="M325.47,64.05h9.7v51.98c0,23.43-5.87,31.6-15.31,31.6-2.23,0-5.17-.73-7.08-1.95l1.08-15.01c1.34,.85,3.06,1.46,4.98,1.46,4.08,0,6.64-3.54,6.64-16.35v-51.73Z"/>
      <polygon class="cls-1" points="368.86 111.51 353.04 111.51 353.04 131.03 370.71 131.03 370.71 146.28 343.28 146.28 343.28 64.05 369.82 64.05 369.82 79.3 353.04 79.3 353.04 96.38 368.86 96.38 368.86 111.51"/>
      <polygon class="cls-1" points="385.96 79.67 374.41 79.67 374.41 64.05 407.47 64.05 407.47 79.67 395.73 79.67 395.73 146.28 385.96 146.28 385.96 79.67"/>
    </g>
    <g>
      <path class="cls-9" d="M61.65,148.36l-10.21-82.23h10.4l3.25,33.92c.96,9.76,1.85,20.38,2.55,28.67h.13c.7-8.91,1.72-18.79,2.81-28.92l3.64-33.67h10.34l3.45,34.65c.96,9.64,1.66,18.42,2.3,27.57h.13c.64-9.15,1.6-18.79,2.49-28.55l3.51-33.67h9.89l-11.1,82.23h-10.53l-3.64-35.38c-.83-8.3-1.53-15.98-2.04-25.38h-.13c-.77,9.27-1.47,17.08-2.49,25.38l-4.08,35.38h-10.66Z"/>
      <polygon class="cls-9" points="136.95 113.58 121.13 113.58 121.13 133.11 138.8 133.11 138.8 148.36 111.36 148.36 111.36 66.12 137.91 66.12 137.91 81.37 121.13 81.37 121.13 98.46 136.95 98.46 136.95 113.58"/>
      <path class="cls-9" d="M155.07,98.7h3.19c5.1,0,7.85-4.03,7.85-10.13s-2.49-9.52-6.89-9.52c-2.11,0-3.32,.24-4.15,.49v19.16Zm-9.64-31.48c2.55-.98,7.72-1.71,12.57-1.71,5.93,0,9.48,1.18,12.7,4.64,2.92,3.13,5.17,8.66,5.17,16.11s-2.23,14.15-7.08,17.57v.24c4.91,2.56,8.55,9.64,8.55,20.25,0,7.44-1.77,13.31-4.47,17.45-3.11,4.77-8.36,7.44-16.91,7.44-4.79,0-8.36-.61-10.53-1.22V67.22Zm9.64,67.96c.96,.24,2.11,.24,3.77,.24,4.4,0,8.3-3.17,8.3-11.83s-3.89-11.59-8.74-11.59h-3.32v23.18Z"/>
      <path class="cls-9" d="M206.5,104.56c.83,.37,1.85,.49,3.25,.49,5.17,0,8.36-5,8.36-13.42,0-7.56-2.74-12.08-7.59-12.08-1.98,0-3.32,.37-4.02,.73v24.28Zm-9.64-37.33c3-.98,7.21-1.71,13.15-1.71s10.26,2.2,13.15,6.59c2.73,4.16,4.59,10.98,4.59,19.03s-1.4,14.88-3.96,19.52c-3.32,5.98-8.23,8.66-13.98,8.66-1.28,0-2.42-.12-3.32-.37v29.4h-9.64V67.22Z"/>
      <path class="cls-9" d="M243.58,102.6h3.83c4.85,0,7.72-4.64,7.72-11.83,0-7.56-2.68-11.41-7.15-11.47-2.36-.03-3.7,.37-4.4,.61v22.69Zm-9.64-35.38c3.13-.98,7.79-1.71,12.95-1.71,6.38,0,10.86,1.82,13.91,6.47,2.56,3.9,3.96,9.64,3.96,17.2,0,10.49-3.89,17.69-7.59,20.25v.37c3,2.32,4.66,7.81,5.74,15.37,1.34,9.27,2.68,20.01,3.51,23.18h-9.95c-.7-2.32-1.79-9.02-3-19.16s-3-13.06-6.96-13.18h-2.94v32.33h-9.64V67.22Z"/>
      <path class="cls-9" d="M279.82,107.48c0,16.1,3.96,27.45,10.47,27.45s10.34-11.96,10.34-27.94c0-14.76-3.7-27.45-10.4-27.45s-10.4,11.96-10.4,27.94Zm31.08-1.1c0,26.96-8.55,43.31-21.12,43.31s-20.23-18.42-20.23-41.85c0-24.65,8.23-43.07,20.93-43.07s20.42,18.91,20.42,41.6Z"/>
      <path class="cls-9" d="M325.71,66.12h9.7v51.98c0,23.43-5.87,31.6-15.31,31.6-2.23,0-5.17-.73-7.08-1.95l1.08-15.01c1.34,.85,3.06,1.46,4.98,1.46,4.08,0,6.64-3.54,6.64-16.35v-51.73Z"/>
      <polygon class="cls-9" points="369.1 113.58 353.27 113.58 353.27 133.11 370.95 133.11 370.95 148.36 343.51 148.36 343.51 66.12 370.06 66.12 370.06 81.37 353.27 81.37 353.27 98.46 369.1 98.46 369.1 113.58"/>
      <polygon class="cls-9" points="386.2 81.74 374.65 81.74 374.65 66.12 407.7 66.12 407.7 81.74 395.96 81.74 395.96 148.36 386.2 148.36 386.2 81.74"/>
    </g>
    <g>
      <path class="cls-13" d="M61.89,150.43l-10.21-82.23h10.4l3.25,33.92c.96,9.76,1.85,20.38,2.55,28.67h.13c.7-8.91,1.72-18.79,2.81-28.92l3.64-33.67h10.34l3.45,34.65c.96,9.64,1.66,18.42,2.3,27.57h.13c.64-9.15,1.6-18.79,2.49-28.55l3.51-33.67h9.89l-11.1,82.23h-10.53l-3.64-35.38c-.83-8.3-1.53-15.98-2.04-25.38h-.13c-.77,9.27-1.47,17.08-2.49,25.38l-4.08,35.38h-10.66Z"/>
      <polygon class="cls-13" points="137.18 115.66 121.36 115.66 121.36 135.18 139.04 135.18 139.04 150.43 111.6 150.43 111.6 68.2 138.14 68.2 138.14 83.45 121.36 83.45 121.36 100.53 137.18 100.53 137.18 115.66"/>
      <path class="cls-13" d="M155.31,100.77h3.19c5.1,0,7.85-4.03,7.85-10.13s-2.49-9.52-6.89-9.52c-2.11,0-3.32,.24-4.15,.49v19.16Zm-9.64-31.48c2.55-.98,7.72-1.71,12.57-1.71,5.93,0,9.48,1.18,12.7,4.64,2.92,3.13,5.17,8.66,5.17,16.11s-2.23,14.15-7.08,17.57v.24c4.91,2.56,8.55,9.64,8.55,20.25,0,7.44-1.77,13.31-4.47,17.45-3.11,4.77-8.36,7.44-16.91,7.44-4.79,0-8.36-.61-10.53-1.22V69.29Zm9.64,67.96c.96,.24,2.11,.24,3.77,.24,4.4,0,8.3-3.17,8.3-11.83s-3.89-11.59-8.74-11.59h-3.32v23.18Z"/>
      <path class="cls-13" d="M206.74,106.63c.83,.37,1.85,.49,3.25,.49,5.17,0,8.36-5,8.36-13.42,0-7.56-2.74-12.08-7.59-12.08-1.98,0-3.32,.37-4.02,.73v24.28Zm-9.64-37.33c3-.98,7.21-1.71,13.15-1.71s10.26,2.2,13.15,6.59c2.73,4.16,4.59,10.98,4.59,19.03s-1.4,14.88-3.96,19.52c-3.32,5.98-8.23,8.66-13.98,8.66-1.28,0-2.42-.12-3.32-.37v29.4h-9.64V69.29Z"/>
      <path class="cls-13" d="M243.81,104.68h3.83c4.85,0,7.72-4.64,7.72-11.83,0-7.56-2.68-11.41-7.15-11.47-2.36-.03-3.7,.37-4.4,.61v22.69Zm-9.64-35.38c3.13-.98,7.79-1.71,12.95-1.71,6.38,0,10.86,1.82,13.91,6.47,2.56,3.9,3.96,9.64,3.96,17.2,0,10.49-3.89,17.69-7.59,20.25v.37c3,2.32,4.66,7.81,5.74,15.37,1.34,9.27,2.68,20.01,3.51,23.18h-9.95c-.7-2.32-1.79-9.02-3-19.16s-3-13.06-6.96-13.18h-2.94v32.33h-9.64V69.29Z"/>
      <path class="cls-13" d="M280.06,109.56c0,16.1,3.96,27.45,10.47,27.45s10.34-11.96,10.34-27.94c0-14.76-3.7-27.45-10.4-27.45s-10.4,11.96-10.4,27.94Zm31.08-1.1c0,26.96-8.55,43.31-21.12,43.31s-20.23-18.42-20.23-41.85c0-24.65,8.23-43.07,20.93-43.07s20.42,18.91,20.42,41.6Z"/>
      <path class="cls-13" d="M325.94,68.2h9.7v51.98c0,23.43-5.87,31.6-15.31,31.6-2.23,0-5.17-.73-7.08-1.95l1.08-15.01c1.34,.85,3.06,1.46,4.98,1.46,4.08,0,6.64-3.54,6.64-16.35v-51.73Z"/>
      <polygon class="cls-13" points="369.33 115.66 353.51 115.66 353.51 135.18 371.18 135.18 371.18 150.43 343.74 150.43 343.74 68.2 370.29 68.2 370.29 83.45 353.51 83.45 353.51 100.53 369.33 100.53 369.33 115.66"/>
      <polygon class="cls-13" points="386.43 83.81 374.88 83.81 374.88 68.2 407.94 68.2 407.94 83.81 396.2 83.81 396.2 150.43 386.43 150.43 386.43 83.81"/>
    </g>
    <g>
      <path class="cls-32" d="M62.12,152.5l-10.21-82.23h10.4l3.25,33.92c.96,9.76,1.85,20.38,2.55,28.67h.13c.7-8.91,1.72-18.79,2.81-28.92l3.64-33.67h10.34l3.45,34.65c.96,9.64,1.66,18.42,2.3,27.57h.13c.64-9.15,1.6-18.79,2.49-28.55l3.51-33.67h9.89l-11.1,82.23h-10.53l-3.64-35.38c-.83-8.3-1.53-15.98-2.04-25.38h-.13c-.77,9.27-1.47,17.08-2.49,25.38l-4.08,35.38h-10.66Z"/>
      <polygon class="cls-32" points="137.42 117.73 121.59 117.73 121.59 137.25 139.27 137.25 139.27 152.5 111.83 152.5 111.83 70.27 138.38 70.27 138.38 85.52 121.59 85.52 121.59 102.6 137.42 102.6 137.42 117.73"/>
      <path class="cls-32" d="M155.54,102.85h3.19c5.1,0,7.85-4.03,7.85-10.13s-2.49-9.52-6.89-9.52c-2.11,0-3.32,.24-4.15,.49v19.16Zm-9.64-31.48c2.55-.98,7.72-1.71,12.57-1.71,5.93,0,9.48,1.18,12.7,4.64,2.92,3.13,5.17,8.66,5.17,16.11s-2.23,14.15-7.08,17.57v.24c4.91,2.56,8.55,9.64,8.55,20.25,0,7.44-1.77,13.31-4.47,17.45-3.11,4.77-8.36,7.44-16.91,7.44-4.79,0-8.36-.61-10.53-1.22V71.37Zm9.64,67.96c.96,.24,2.11,.24,3.77,.24,4.4,0,8.3-3.17,8.3-11.83s-3.89-11.59-8.74-11.59h-3.32v23.18Z"/>
      <path class="cls-32" d="M206.97,108.7c.83,.37,1.85,.49,3.25,.49,5.17,0,8.36-5,8.36-13.42,0-7.56-2.74-12.08-7.59-12.08-1.98,0-3.32,.37-4.02,.73v24.28Zm-9.64-37.33c3-.98,7.21-1.71,13.15-1.71s10.26,2.2,13.15,6.59c2.73,4.16,4.59,10.98,4.59,19.03s-1.4,14.88-3.96,19.52c-3.32,5.98-8.23,8.66-13.98,8.66-1.28,0-2.42-.12-3.32-.37v29.4h-9.64V71.37Z"/>
      <path class="cls-32" d="M244.05,106.75h3.83c4.85,0,7.72-4.64,7.72-11.83,0-7.56-2.68-11.41-7.15-11.47-2.36-.03-3.7,.37-4.4,.61v22.69Zm-9.64-35.38c3.13-.98,7.79-1.71,12.95-1.71,6.38,0,10.86,1.82,13.91,6.47,2.56,3.9,3.96,9.64,3.96,17.2,0,10.49-3.89,17.69-7.59,20.25v.37c3,2.32,4.66,7.81,5.74,15.37,1.34,9.27,2.68,20.01,3.51,23.18h-9.95c-.7-2.32-1.79-9.02-3-19.16-1.22-10.24-3-13.06-6.96-13.18h-2.94v32.33h-9.64V71.37Z"/>
      <path class="cls-32" d="M280.29,111.63c0,16.1,3.96,27.45,10.47,27.45s10.34-11.96,10.34-27.94c0-14.76-3.7-27.45-10.4-27.45s-10.4,11.96-10.4,27.94Zm31.08-1.1c0,26.96-8.55,43.31-21.12,43.31s-20.23-18.42-20.23-41.85c0-24.65,8.23-43.07,20.93-43.07s20.42,18.91,20.42,41.6Z"/>
      <path class="cls-32" d="M326.17,70.27h9.7v51.98c0,23.43-5.87,31.6-15.31,31.6-2.23,0-5.17-.73-7.08-1.95l1.08-15.01c1.34,.85,3.06,1.46,4.98,1.46,4.08,0,6.64-3.54,6.64-16.35v-51.73Z"/>
      <polygon class="cls-32" points="369.57 117.73 353.74 117.73 353.74 137.25 371.42 137.25 371.42 152.5 343.98 152.5 343.98 70.27 370.52 70.27 370.52 85.52 353.74 85.52 353.74 102.6 369.57 102.6 369.57 117.73"/>
      <polygon class="cls-32" points="386.67 85.89 375.12 85.89 375.12 70.27 408.17 70.27 408.17 85.89 396.43 85.89 396.43 152.5 386.67 152.5 386.67 85.89"/>
    </g>
    <g>
      <path class="cls-23" d="M62.35,154.58l-10.21-82.23h10.4l3.25,33.92c.96,9.76,1.85,20.38,2.55,28.67h.13c.7-8.91,1.72-18.79,2.81-28.92l3.64-33.67h10.34l3.45,34.65c.96,9.64,1.66,18.42,2.3,27.57h.13c.64-9.15,1.6-18.79,2.49-28.55l3.51-33.67h9.89l-11.1,82.23h-10.53l-3.64-35.38c-.83-8.3-1.53-15.98-2.04-25.38h-.13c-.77,9.27-1.47,17.08-2.49,25.38l-4.08,35.38h-10.66Z"/>
      <polygon class="cls-23" points="137.65 119.81 121.83 119.81 121.83 139.33 139.5 139.33 139.5 154.58 112.06 154.58 112.06 72.34 138.61 72.34 138.61 87.6 121.83 87.6 121.83 104.68 137.65 104.68 137.65 119.81"/>
      <path class="cls-23" d="M155.78,104.92h3.19c5.1,0,7.85-4.03,7.85-10.13s-2.49-9.52-6.89-9.52c-2.11,0-3.32,.24-4.15,.49v19.16Zm-9.64-31.48c2.55-.98,7.72-1.71,12.57-1.71,5.93,0,9.48,1.18,12.7,4.64,2.92,3.13,5.17,8.66,5.17,16.11s-2.23,14.15-7.08,17.57v.24c4.91,2.56,8.55,9.64,8.55,20.25,0,7.44-1.77,13.31-4.47,17.45-3.11,4.77-8.36,7.44-16.91,7.44-4.79,0-8.36-.61-10.53-1.22V73.44Zm9.64,67.96c.96,.24,2.11,.24,3.77,.24,4.4,0,8.3-3.17,8.3-11.83s-3.89-11.59-8.74-11.59h-3.32v23.18Z"/>
      <path class="cls-23" d="M207.21,110.78c.83,.37,1.85,.49,3.25,.49,5.17,0,8.36-5,8.36-13.42,0-7.56-2.74-12.08-7.59-12.08-1.98,0-3.32,.37-4.02,.73v24.28Zm-9.64-37.33c3-.98,7.21-1.71,13.15-1.71s10.26,2.2,13.15,6.59c2.73,4.16,4.59,10.98,4.59,19.03s-1.4,14.88-3.96,19.52c-3.32,5.98-8.23,8.66-13.98,8.66-1.28,0-2.42-.12-3.32-.37v29.4h-9.64V73.44Z"/>
      <path class="cls-23" d="M244.28,108.82h3.83c4.85,0,7.72-4.64,7.72-11.83,0-7.56-2.68-11.41-7.15-11.47-2.36-.03-3.7,.37-4.4,.61v22.69Zm-9.64-35.38c3.13-.98,7.79-1.71,12.95-1.71,6.38,0,10.86,1.82,13.91,6.47,2.56,3.9,3.96,9.64,3.96,17.2,0,10.49-3.89,17.69-7.59,20.25v.37c3,2.32,4.66,7.81,5.74,15.37,1.34,9.27,2.68,20.01,3.51,23.18h-9.95c-.7-2.32-1.79-9.02-3-19.16s-3-13.06-6.96-13.18h-2.94v32.33h-9.64V73.44Z"/>
      <path class="cls-23" d="M280.53,113.71c0,16.1,3.96,27.45,10.47,27.45s10.34-11.96,10.34-27.94c0-14.76-3.7-27.45-10.4-27.45s-10.4,11.96-10.4,27.94Zm31.08-1.1c0,26.96-8.55,43.31-21.12,43.31s-20.23-18.42-20.23-41.85c0-24.65,8.23-43.07,20.93-43.07s20.42,18.91,20.42,41.6Z"/>
      <path class="cls-23" d="M326.41,72.34h9.7v51.98c0,23.43-5.87,31.6-15.31,31.6-2.23,0-5.17-.73-7.08-1.95l1.08-15.01c1.34,.85,3.06,1.46,4.98,1.46,4.08,0,6.64-3.54,6.64-16.35v-51.73Z"/>
      <polygon class="cls-23" points="369.8 119.81 353.97 119.81 353.97 139.33 371.65 139.33 371.65 154.58 344.21 154.58 344.21 72.34 370.76 72.34 370.76 87.6 353.97 87.6 353.97 104.68 369.8 104.68 369.8 119.81"/>
      <polygon class="cls-23" points="386.9 87.96 375.35 87.96 375.35 72.34 408.4 72.34 408.4 87.96 396.66 87.96 396.66 154.58 386.9 154.58 386.9 87.96"/>
    </g>
    <g>
      <path class="cls-22" d="M62.59,156.65l-10.21-82.23h10.4l3.25,33.92c.96,9.76,1.85,20.38,2.55,28.67h.13c.7-8.91,1.72-18.79,2.81-28.92l3.64-33.67h10.34l3.45,34.65c.96,9.64,1.66,18.42,2.3,27.57h.13c.64-9.15,1.6-18.79,2.49-28.55l3.51-33.67h9.89l-11.1,82.23h-10.53l-3.64-35.38c-.83-8.3-1.53-15.98-2.04-25.38h-.13c-.77,9.27-1.47,17.08-2.49,25.38l-4.08,35.38h-10.66Z"/>
      <polygon class="cls-22" points="137.89 121.88 122.06 121.88 122.06 141.4 139.74 141.4 139.74 156.65 112.3 156.65 112.3 74.42 138.84 74.42 138.84 89.67 122.06 89.67 122.06 106.75 137.89 106.75 137.89 121.88"/>
      <path class="cls-22" d="M156.01,106.99h3.19c5.1,0,7.85-4.03,7.85-10.13s-2.49-9.52-6.89-9.52c-2.11,0-3.32,.24-4.15,.49v19.16Zm-9.64-31.48c2.55-.98,7.72-1.71,12.57-1.71,5.93,0,9.48,1.18,12.7,4.64,2.92,3.13,5.17,8.66,5.17,16.11s-2.23,14.15-7.08,17.57v.24c4.91,2.56,8.55,9.64,8.55,20.25,0,7.44-1.77,13.31-4.47,17.45-3.11,4.77-8.36,7.44-16.91,7.44-4.79,0-8.36-.61-10.53-1.22V75.52Zm9.64,67.96c.96,.24,2.11,.24,3.77,.24,4.4,0,8.3-3.17,8.3-11.83s-3.89-11.59-8.74-11.59h-3.32v23.18Z"/>
      <path class="cls-22" d="M207.44,112.85c.83,.37,1.85,.49,3.25,.49,5.17,0,8.36-5,8.36-13.42,0-7.56-2.74-12.08-7.59-12.08-1.98,0-3.32,.37-4.02,.73v24.28Zm-9.64-37.33c3-.98,7.21-1.71,13.15-1.71s10.26,2.2,13.15,6.59c2.73,4.16,4.59,10.98,4.59,19.03s-1.4,14.88-3.96,19.52c-3.32,5.98-8.23,8.66-13.98,8.66-1.28,0-2.42-.12-3.32-.37v29.4h-9.64V75.52Z"/>
      <path class="cls-22" d="M244.52,110.9h3.83c4.85,0,7.72-4.64,7.72-11.83,0-7.56-2.68-11.41-7.15-11.47-2.36-.03-3.7,.37-4.4,.61v22.69Zm-9.64-35.38c3.13-.98,7.79-1.71,12.95-1.71,6.38,0,10.86,1.82,13.91,6.47,2.56,3.9,3.96,9.64,3.96,17.2,0,10.49-3.89,17.69-7.59,20.25v.37c3,2.32,4.66,7.81,5.74,15.37,1.34,9.27,2.68,20.01,3.51,23.18h-9.95c-.7-2.32-1.79-9.02-3-19.16-1.22-10.24-3-13.06-6.96-13.18h-2.94v32.33h-9.64V75.52Z"/>
      <path class="cls-22" d="M280.76,115.78c0,16.1,3.96,27.45,10.47,27.45s10.34-11.96,10.34-27.94c0-14.76-3.7-27.45-10.4-27.45s-10.4,11.96-10.4,27.94Zm31.08-1.1c0,26.96-8.55,43.31-21.12,43.31s-20.23-18.42-20.23-41.85c0-24.65,8.23-43.07,20.93-43.07s20.42,18.91,20.42,41.6Z"/>
      <path class="cls-22" d="M326.64,74.42h9.7v51.98c0,23.43-5.87,31.6-15.31,31.6-2.23,0-5.17-.73-7.08-1.95l1.08-15.01c1.34,.85,3.06,1.46,4.98,1.46,4.08,0,6.64-3.54,6.64-16.35v-51.73Z"/>
      <polygon class="cls-22" points="370.03 121.88 354.21 121.88 354.21 141.4 371.88 141.4 371.88 156.65 344.45 156.65 344.45 74.42 370.99 74.42 370.99 89.67 354.21 89.67 354.21 106.75 370.03 106.75 370.03 121.88"/>
      <polygon class="cls-22" points="387.13 90.03 375.58 90.03 375.58 74.42 408.64 74.42 408.64 90.03 396.9 90.03 396.9 156.65 387.13 156.65 387.13 90.03"/>
    </g>
    <g>
      <path class="cls-28" d="M62.82,158.73l-10.21-82.23h10.4l3.25,33.92c.96,9.76,1.85,20.38,2.55,28.67h.13c.7-8.91,1.72-18.79,2.81-28.92l3.64-33.67h10.34l3.45,34.65c.96,9.64,1.66,18.42,2.3,27.57h.13c.64-9.15,1.6-18.79,2.49-28.55l3.51-33.67h9.89l-11.1,82.23h-10.53l-3.64-35.38c-.83-8.3-1.53-15.98-2.04-25.38h-.13c-.77,9.27-1.47,17.08-2.49,25.38l-4.08,35.38h-10.66Z"/>
      <polygon class="cls-28" points="138.12 123.95 122.3 123.95 122.3 143.47 139.97 143.47 139.97 158.73 112.53 158.73 112.53 76.49 139.08 76.49 139.08 91.74 122.3 91.74 122.3 108.82 138.12 108.82 138.12 123.95"/>
      <path class="cls-28" d="M156.24,109.07h3.19c5.1,0,7.85-4.03,7.85-10.13s-2.49-9.52-6.89-9.52c-2.11,0-3.32,.24-4.15,.49v19.16Zm-9.64-31.48c2.55-.98,7.72-1.71,12.57-1.71,5.93,0,9.48,1.18,12.7,4.64,2.92,3.13,5.17,8.66,5.17,16.11s-2.23,14.15-7.08,17.57v.24c4.91,2.56,8.55,9.64,8.55,20.25,0,7.44-1.77,13.31-4.47,17.45-3.11,4.77-8.36,7.44-16.91,7.44-4.79,0-8.36-.61-10.53-1.22V77.59Zm9.64,67.96c.96,.24,2.11,.24,3.77,.24,4.4,0,8.3-3.17,8.3-11.83s-3.89-11.59-8.74-11.59h-3.32v23.18Z"/>
      <path class="cls-28" d="M207.67,114.92c.83,.37,1.85,.49,3.25,.49,5.17,0,8.36-5,8.36-13.42,0-7.56-2.74-12.08-7.59-12.08-1.98,0-3.32,.37-4.02,.73v24.28Zm-9.64-37.33c3-.98,7.21-1.71,13.15-1.71s10.26,2.2,13.15,6.59c2.73,4.16,4.59,10.98,4.59,19.03s-1.4,14.88-3.96,19.52c-3.32,5.98-8.23,8.66-13.98,8.66-1.28,0-2.42-.12-3.32-.37v29.4h-9.64V77.59Z"/>
      <path class="cls-28" d="M244.75,112.97h3.83c4.85,0,7.72-4.64,7.72-11.83,0-7.56-2.68-11.41-7.15-11.47-2.36-.03-3.7,.37-4.4,.61v22.69Zm-9.64-35.38c3.13-.98,7.79-1.71,12.95-1.71,6.38,0,10.86,1.82,13.91,6.47,2.56,3.9,3.96,9.64,3.96,17.2,0,10.49-3.89,17.69-7.59,20.25v.37c3,2.32,4.66,7.81,5.74,15.37,1.34,9.27,2.68,20.01,3.51,23.18h-9.95c-.7-2.32-1.79-9.02-3-19.16s-3-13.06-6.96-13.18h-2.94v32.33h-9.64V77.59Z"/>
      <path class="cls-28" d="M280.99,117.85c0,16.1,3.96,27.45,10.47,27.45s10.34-11.96,10.34-27.94c0-14.76-3.7-27.45-10.4-27.45s-10.4,11.96-10.4,27.94Zm31.08-1.1c0,26.96-8.55,43.31-21.12,43.31s-20.23-18.42-20.23-41.85c0-24.65,8.23-43.07,20.93-43.07s20.42,18.91,20.42,41.6Z"/>
      <path class="cls-28" d="M326.88,76.49h9.7v51.98c0,23.43-5.87,31.6-15.31,31.6-2.23,0-5.17-.73-7.08-1.95l1.08-15.01c1.34,.85,3.06,1.46,4.98,1.46,4.08,0,6.64-3.54,6.64-16.35v-51.73Z"/>
      <polygon class="cls-28" points="370.27 123.95 354.44 123.95 354.44 143.47 372.12 143.47 372.12 158.73 344.68 158.73 344.68 76.49 371.23 76.49 371.23 91.74 354.44 91.74 354.44 108.82 370.27 108.82 370.27 123.95"/>
      <polygon class="cls-28" points="387.37 92.11 375.82 92.11 375.82 76.49 408.87 76.49 408.87 92.11 397.13 92.11 397.13 158.73 387.37 158.73 387.37 92.11"/>
    </g>
    <g>
      <path class="cls-29" d="M63.06,160.8l-10.21-82.23h10.4l3.25,33.92c.96,9.76,1.85,20.38,2.55,28.67h.13c.7-8.91,1.72-18.79,2.81-28.92l3.64-33.67h10.34l3.45,34.65c.96,9.64,1.66,18.42,2.3,27.57h.13c.64-9.15,1.6-18.79,2.49-28.55l3.51-33.67h9.89l-11.1,82.23h-10.53l-3.64-35.38c-.83-8.3-1.53-15.98-2.04-25.38h-.13c-.77,9.27-1.47,17.08-2.49,25.38l-4.08,35.38h-10.66Z"/>
      <polygon class="cls-29" points="138.35 126.03 122.53 126.03 122.53 145.55 140.21 145.55 140.21 160.8 112.77 160.8 112.77 78.57 139.31 78.57 139.31 93.82 122.53 93.82 122.53 110.9 138.35 110.9 138.35 126.03"/>
      <path class="cls-29" d="M156.48,111.14h3.19c5.1,0,7.85-4.03,7.85-10.13s-2.49-9.52-6.89-9.52c-2.11,0-3.32,.24-4.15,.49v19.16Zm-9.64-31.48c2.55-.98,7.72-1.71,12.57-1.71,5.93,0,9.48,1.18,12.7,4.64,2.92,3.13,5.17,8.66,5.17,16.11s-2.23,14.15-7.08,17.57v.24c4.91,2.56,8.55,9.64,8.55,20.25,0,7.44-1.77,13.31-4.47,17.45-3.11,4.77-8.36,7.44-16.91,7.44-4.79,0-8.36-.61-10.53-1.22V79.66Zm9.64,67.96c.96,.24,2.11,.24,3.77,.24,4.4,0,8.3-3.17,8.3-11.83s-3.89-11.59-8.74-11.59h-3.32v23.18Z"/>
      <path class="cls-29" d="M207.91,117c.83,.37,1.85,.49,3.25,.49,5.17,0,8.36-5,8.36-13.42,0-7.56-2.74-12.08-7.59-12.08-1.98,0-3.32,.37-4.02,.73v24.28Zm-9.64-37.33c3-.98,7.21-1.71,13.15-1.71s10.26,2.2,13.15,6.59c2.73,4.16,4.59,10.98,4.59,19.03s-1.4,14.88-3.96,19.52c-3.32,5.98-8.23,8.66-13.98,8.66-1.28,0-2.42-.12-3.32-.37v29.4h-9.64V79.66Z"/>
      <path class="cls-29" d="M244.98,115.05h3.83c4.85,0,7.72-4.64,7.72-11.83,0-7.56-2.68-11.41-7.15-11.47-2.36-.03-3.7,.37-4.4,.61v22.69Zm-9.64-35.38c3.13-.98,7.79-1.71,12.95-1.71,6.38,0,10.86,1.82,13.91,6.47,2.56,3.9,3.96,9.64,3.96,17.2,0,10.49-3.89,17.69-7.59,20.25v.37c3,2.32,4.66,7.81,5.74,15.37,1.34,9.27,2.68,20.01,3.51,23.18h-9.95c-.7-2.32-1.79-9.02-3-19.16s-3-13.06-6.96-13.18h-2.94v32.33h-9.64V79.66Z"/>
      <path class="cls-29" d="M281.23,119.93c0,16.1,3.96,27.45,10.47,27.45s10.34-11.96,10.34-27.94c0-14.76-3.7-27.45-10.4-27.45s-10.4,11.96-10.4,27.94Zm31.08-1.1c0,26.96-8.55,43.31-21.12,43.31s-20.23-18.42-20.23-41.85c0-24.65,8.23-43.07,20.93-43.07s20.42,18.91,20.42,41.6Z"/>
      <path class="cls-29" d="M327.11,78.57h9.7v51.98c0,23.43-5.87,31.6-15.31,31.6-2.23,0-5.17-.73-7.08-1.95l1.08-15.01c1.34,.85,3.06,1.46,4.98,1.46,4.08,0,6.64-3.54,6.64-16.35v-51.73Z"/>
      <polygon class="cls-29" points="370.5 126.03 354.68 126.03 354.68 145.55 372.35 145.55 372.35 160.8 344.91 160.8 344.91 78.57 371.46 78.57 371.46 93.82 354.68 93.82 354.68 110.9 370.5 110.9 370.5 126.03"/>
      <polygon class="cls-29" points="387.6 94.18 376.05 94.18 376.05 78.57 409.11 78.57 409.11 94.18 397.37 94.18 397.37 160.8 387.6 160.8 387.6 94.18"/>
    </g>
    <g>
      <path class="cls-5" d="M63.29,162.87l-10.21-82.23h10.4l3.25,33.92c.96,9.76,1.85,20.38,2.55,28.67h.13c.7-8.91,1.72-18.79,2.81-28.92l3.64-33.67h10.34l3.45,34.65c.96,9.64,1.66,18.42,2.3,27.57h.13c.64-9.15,1.6-18.79,2.49-28.55l3.51-33.67h9.89l-11.1,82.23h-10.53l-3.64-35.38c-.83-8.3-1.53-15.98-2.04-25.38h-.13c-.77,9.27-1.47,17.08-2.49,25.38l-4.08,35.38h-10.66Z"/>
      <polygon class="cls-5" points="138.59 128.1 122.76 128.1 122.76 147.62 140.44 147.62 140.44 162.87 113 162.87 113 80.64 139.55 80.64 139.55 95.89 122.76 95.89 122.76 112.97 138.59 112.97 138.59 128.1"/>
      <path class="cls-5" d="M156.71,113.22h3.19c5.1,0,7.85-4.03,7.85-10.13s-2.49-9.52-6.89-9.52c-2.11,0-3.32,.24-4.15,.49v19.16Zm-9.64-31.48c2.55-.98,7.72-1.71,12.57-1.71,5.93,0,9.48,1.18,12.7,4.64,2.92,3.13,5.17,8.66,5.17,16.11s-2.23,14.15-7.08,17.57v.24c4.91,2.56,8.55,9.64,8.55,20.25,0,7.44-1.77,13.31-4.47,17.45-3.11,4.77-8.36,7.44-16.91,7.44-4.79,0-8.36-.61-10.53-1.22V81.74Zm9.64,67.96c.96,.24,2.11,.24,3.77,.24,4.4,0,8.3-3.17,8.3-11.83s-3.89-11.59-8.74-11.59h-3.32v23.18Z"/>
      <path class="cls-5" d="M208.14,119.07c.83,.37,1.85,.49,3.25,.49,5.17,0,8.36-5,8.36-13.42,0-7.56-2.74-12.08-7.59-12.08-1.98,0-3.32,.37-4.02,.73v24.28Zm-9.64-37.33c3-.98,7.21-1.71,13.15-1.71s10.26,2.2,13.15,6.59c2.73,4.16,4.59,10.98,4.59,19.03s-1.4,14.88-3.96,19.52c-3.32,5.98-8.23,8.66-13.98,8.66-1.28,0-2.42-.12-3.32-.37v29.4h-9.64V81.74Z"/>
      <path class="cls-5" d="M245.22,117.12h3.83c4.85,0,7.72-4.64,7.72-11.83,0-7.56-2.68-11.41-7.15-11.47-2.36-.03-3.7,.37-4.4,.61v22.69Zm-9.64-35.38c3.13-.98,7.79-1.71,12.95-1.71,6.38,0,10.86,1.82,13.91,6.47,2.56,3.9,3.96,9.64,3.96,17.2,0,10.49-3.89,17.69-7.59,20.25v.37c3,2.32,4.66,7.81,5.74,15.37,1.34,9.27,2.68,20.01,3.51,23.18h-9.95c-.7-2.32-1.79-9.02-3-19.16-1.22-10.24-3-13.06-6.96-13.18h-2.94v32.33h-9.64V81.74Z"/>
      <path class="cls-5" d="M281.46,122c0,16.1,3.96,27.45,10.47,27.45s10.34-11.96,10.34-27.94c0-14.76-3.7-27.45-10.4-27.45s-10.4,11.96-10.4,27.94Zm31.08-1.1c0,26.96-8.55,43.31-21.12,43.31s-20.23-18.42-20.23-41.85c0-24.65,8.23-43.07,20.93-43.07s20.42,18.91,20.42,41.6Z"/>
      <path class="cls-5" d="M327.34,80.64h9.7v51.98c0,23.43-5.87,31.6-15.31,31.6-2.23,0-5.17-.73-7.08-1.95l1.08-15.01c1.34,.85,3.06,1.46,4.98,1.46,4.08,0,6.64-3.54,6.64-16.35v-51.73Z"/>
      <polygon class="cls-5" points="370.74 128.1 354.91 128.1 354.91 147.62 372.59 147.62 372.59 162.87 345.15 162.87 345.15 80.64 371.69 80.64 371.69 95.89 354.91 95.89 354.91 112.97 370.74 112.97 370.74 128.1"/>
      <polygon class="cls-5" points="387.84 96.26 376.29 96.26 376.29 80.64 409.34 80.64 409.34 96.26 397.6 96.26 397.6 162.87 387.84 162.87 387.84 96.26"/>
    </g>
    <g>
      <path class="cls-15" d="M63.53,164.95l-10.21-82.23h10.4l3.25,33.92c.96,9.76,1.85,20.38,2.55,28.67h.13c.7-8.91,1.72-18.79,2.81-28.92l3.64-33.67h10.34l3.45,34.65c.96,9.64,1.66,18.42,2.3,27.57h.13c.64-9.15,1.6-18.79,2.49-28.55l3.51-33.67h9.89l-11.1,82.23h-10.53l-3.64-35.38c-.83-8.3-1.53-15.98-2.04-25.38h-.13c-.77,9.27-1.47,17.08-2.49,25.38l-4.08,35.38h-10.66Z"/>
      <polygon class="cls-15" points="138.82 130.17 123 130.17 123 149.7 140.67 149.7 140.67 164.95 113.23 164.95 113.23 82.71 139.78 82.71 139.78 97.96 123 97.96 123 115.04 138.82 115.04 138.82 130.17"/>
      <path class="cls-15" d="M156.95,115.29h3.19c5.1,0,7.85-4.03,7.85-10.13s-2.49-9.52-6.89-9.52c-2.11,0-3.32,.24-4.15,.49v19.16Zm-9.64-31.48c2.55-.98,7.72-1.71,12.57-1.71,5.93,0,9.48,1.18,12.7,4.64,2.92,3.13,5.17,8.66,5.17,16.11s-2.23,14.15-7.08,17.57v.24c4.91,2.56,8.55,9.64,8.55,20.25,0,7.44-1.77,13.31-4.47,17.45-3.11,4.77-8.36,7.44-16.91,7.44-4.79,0-8.36-.61-10.53-1.22V83.81Zm9.64,67.96c.96,.24,2.11,.24,3.77,.24,4.4,0,8.3-3.17,8.3-11.83s-3.89-11.59-8.74-11.59h-3.32v23.18Z"/>
      <path class="cls-15" d="M208.38,121.15c.83,.37,1.85,.49,3.25,.49,5.17,0,8.36-5,8.36-13.42,0-7.56-2.74-12.08-7.59-12.08-1.98,0-3.32,.37-4.02,.73v24.28Zm-9.64-37.33c3-.98,7.21-1.71,13.15-1.71s10.26,2.2,13.15,6.59c2.73,4.16,4.59,10.98,4.59,19.03s-1.4,14.88-3.96,19.52c-3.32,5.98-8.23,8.66-13.98,8.66-1.28,0-2.42-.12-3.32-.37v29.4h-9.64V83.81Z"/>
      <path class="cls-15" d="M245.45,119.19h3.83c4.85,0,7.72-4.64,7.72-11.83,0-7.56-2.68-11.41-7.15-11.47-2.36-.03-3.7,.37-4.4,.61v22.69Zm-9.64-35.38c3.13-.98,7.79-1.71,12.95-1.71,6.38,0,10.86,1.82,13.91,6.47,2.56,3.9,3.96,9.64,3.96,17.2,0,10.49-3.89,17.69-7.59,20.25v.37c3,2.32,4.66,7.81,5.74,15.37,1.34,9.27,2.68,20.01,3.51,23.18h-9.95c-.7-2.32-1.79-9.02-3-19.16s-3-13.06-6.96-13.18h-2.94v32.33h-9.64V83.81Z"/>
      <path class="cls-15" d="M281.7,124.07c0,16.1,3.96,27.45,10.47,27.45s10.34-11.96,10.34-27.94c0-14.76-3.7-27.45-10.4-27.45s-10.4,11.96-10.4,27.94Zm31.08-1.1c0,26.96-8.55,43.31-21.12,43.31s-20.23-18.42-20.23-41.85c0-24.65,8.23-43.07,20.93-43.07s20.42,18.91,20.42,41.6Z"/>
      <path class="cls-15" d="M327.58,82.71h9.7v51.98c0,23.43-5.87,31.6-15.31,31.6-2.23,0-5.17-.73-7.08-1.95l1.08-15.01c1.34,.85,3.06,1.46,4.98,1.46,4.08,0,6.64-3.54,6.64-16.35v-51.73Z"/>
      <polygon class="cls-15" points="370.97 130.17 355.14 130.17 355.14 149.7 372.82 149.7 372.82 164.95 345.38 164.95 345.38 82.71 371.93 82.71 371.93 97.96 355.14 97.96 355.14 115.04 370.97 115.04 370.97 130.17"/>
      <polygon class="cls-15" points="388.07 98.33 376.52 98.33 376.52 82.71 409.57 82.71 409.57 98.33 397.83 98.33 397.83 164.95 388.07 164.95 388.07 98.33"/>
    </g>
    <g>
      <path class="cls-30" d="M63.76,167.02l-10.21-82.23h10.4l3.25,33.92c.96,9.76,1.85,20.38,2.55,28.67h.13c.7-8.91,1.72-18.79,2.81-28.92l3.64-33.67h10.34l3.45,34.65c.96,9.64,1.66,18.42,2.3,27.57h.13c.64-9.15,1.6-18.79,2.49-28.55l3.51-33.67h9.89l-11.1,82.23h-10.53l-3.64-35.38c-.83-8.3-1.53-15.98-2.04-25.38h-.13c-.77,9.27-1.47,17.08-2.49,25.38l-4.08,35.38h-10.66Z"/>
      <polygon class="cls-30" points="139.06 132.25 123.23 132.25 123.23 151.77 140.91 151.77 140.91 167.02 113.47 167.02 113.47 84.79 140.01 84.79 140.01 100.04 123.23 100.04 123.23 117.12 139.06 117.12 139.06 132.25"/>
      <path class="cls-30" d="M157.18,117.36h3.19c5.1,0,7.85-4.03,7.85-10.13s-2.49-9.52-6.89-9.52c-2.11,0-3.32,.24-4.15,.49v19.16Zm-9.64-31.48c2.55-.98,7.72-1.71,12.57-1.71,5.93,0,9.48,1.18,12.7,4.64,2.92,3.13,5.17,8.66,5.17,16.11s-2.23,14.15-7.08,17.57v.24c4.91,2.56,8.55,9.64,8.55,20.25,0,7.44-1.77,13.31-4.47,17.45-3.11,4.77-8.36,7.44-16.91,7.44-4.79,0-8.36-.61-10.53-1.22V85.88Zm9.64,67.96c.96,.24,2.11,.24,3.77,.24,4.4,0,8.3-3.17,8.3-11.83s-3.89-11.59-8.74-11.59h-3.32v23.18Z"/>
      <path class="cls-30" d="M208.61,123.22c.83,.37,1.85,.49,3.25,.49,5.17,0,8.36-5,8.36-13.42,0-7.56-2.74-12.08-7.59-12.08-1.98,0-3.32,.37-4.02,.73v24.28Zm-9.64-37.33c3-.98,7.21-1.71,13.15-1.71s10.26,2.2,13.15,6.59c2.73,4.16,4.59,10.98,4.59,19.03s-1.4,14.88-3.96,19.52c-3.32,5.98-8.23,8.66-13.98,8.66-1.28,0-2.42-.12-3.32-.37v29.4h-9.64V85.88Z"/>
      <path class="cls-30" d="M245.69,121.27h3.83c4.85,0,7.72-4.64,7.72-11.83,0-7.56-2.68-11.41-7.15-11.47-2.36-.03-3.7,.37-4.4,.61v22.69Zm-9.64-35.38c3.13-.98,7.79-1.71,12.95-1.71,6.38,0,10.86,1.82,13.91,6.47,2.56,3.9,3.96,9.64,3.96,17.2,0,10.49-3.89,17.69-7.59,20.25v.37c3,2.32,4.66,7.81,5.74,15.37,1.34,9.27,2.68,20.01,3.51,23.18h-9.95c-.7-2.32-1.79-9.02-3-19.16s-3-13.06-6.96-13.18h-2.94v32.33h-9.64V85.88Z"/>
      <path class="cls-30" d="M281.93,126.15c0,16.1,3.96,27.45,10.47,27.45s10.34-11.96,10.34-27.94c0-14.76-3.7-27.45-10.4-27.45s-10.4,11.96-10.4,27.94Zm31.08-1.1c0,26.96-8.55,43.31-21.12,43.31s-20.23-18.42-20.23-41.85c0-24.65,8.23-43.07,20.93-43.07s20.42,18.91,20.42,41.6Z"/>
      <path class="cls-30" d="M327.81,84.79h9.7v51.98c0,23.43-5.87,31.6-15.31,31.6-2.23,0-5.17-.73-7.08-1.95l1.08-15.01c1.34,.85,3.06,1.46,4.98,1.46,4.08,0,6.64-3.54,6.64-16.35v-51.73Z"/>
      <polygon class="cls-30" points="371.2 132.25 355.38 132.25 355.38 151.77 373.05 151.77 373.05 167.02 345.62 167.02 345.62 84.79 372.16 84.79 372.16 100.04 355.38 100.04 355.38 117.12 371.2 117.12 371.2 132.25"/>
      <polygon class="cls-30" points="388.3 100.4 376.75 100.4 376.75 84.79 409.81 84.79 409.81 100.4 398.07 100.4 398.07 167.02 388.3 167.02 388.3 100.4"/>
    </g>
    <text class="cls-8" transform="translate(52.83 169.09) scale(.52 1)"><tspan x="0" y="0">WEB P</tspan><tspan class="cls-19" x="342.71" y="0">R</tspan><tspan class="cls-16" x="414.57" y="0">OJ</tspan><tspan class="cls-3" x="552.19" y="0">E</tspan><tspan x="617.95" y="0">T</tspan></text>
  </g>
  <g>
    <g>
      <rect class="cls-10" x="437.08" y="108.58" width="21.66" height="268.77"/>
      <rect class="cls-26" x="453.39" y="108.58" width="7.65" height="268.77"/>
      <rect class="cls-26" x="437.08" y="108.58" width="7.65" height="268.77"/>
    </g>
    <g>
      <path class="cls-21" d="M459.44,96.64h-21.06c-.91,0-1.65-1.16-1.65-2.59h0c0-1.43,.74-2.59,1.65-2.59h21.06c.91,0,1.65,1.16,1.65,2.59h0c0,1.43-.74,2.59-1.65,2.59Z"/>
      <path class="cls-21" d="M459.44,102.32h-21.06c-.91,0-1.65-1.16-1.65-2.59h0c0-1.43,.74-2.59,1.65-2.59h21.06c.91,0,1.65,1.16,1.65,2.59h0c0,1.43-.74,2.59-1.65,2.59Z"/>
      <path class="cls-21" d="M459.44,108h-21.06c-.91,0-1.65-1.16-1.65-2.59h0c0-1.43,.74-2.59,1.65-2.59h21.06c.91,0,1.65,1.16,1.65,2.59h0c0,1.43-.74,2.59-1.65,2.59Z"/>
      <path class="cls-21" d="M459.44,90.96h-21.06c-.91,0-1.65-1.16-1.65-2.59h0c0-1.43,.74-2.59,1.65-2.59h21.06c.91,0,1.65,1.16,1.65,2.59h0c0,1.43-.74,2.59-1.65,2.59Z"/>
    </g>
    <path class="cls-27" d="M445.52,62.68h6.79c4.85,0,8.79,3.94,8.79,8.79v13.78h-24.37v-13.78c0-4.85,3.94-8.79,8.79-8.79Z"/>
    <polygon class="cls-12" points="450.72 411 443.92 394.08 437.13 377.17 449.09 377.22 461.05 377.27 455.88 394.13 450.72 411"/>
    <polygon points="450.68 411 448.12 404.61 445.55 398.22 450.19 398.12 454.83 398.02 452.76 404.51 450.68 411"/>
  </g>
  <path class="cls-17" d="M59.69,185.74v47.49h55.15v-47.49H59.69Zm51.32,44.19H63.52v-40.89h47.49v40.89Z"/>
  <path class="cls-17" d="M59.69,254.93v47.49h55.15v-47.49H59.69Zm51.32,44.19H63.52v-40.89h47.49v40.89Z"/>
  <path class="cls-17" d="M59.69,324.12v47.49h55.15v-47.49H59.69Zm51.32,44.19H63.52v-40.89h47.49v40.89Z"/>
  <path class="cls-17" d="M59.69,393.3v47.49h55.15v-47.49H59.69Zm51.32,44.19H63.52v-40.89h47.49v40.89Z"/>
  <path d="M89.63,196.15c2.38,8.22,6.16,21.39,8.49,29.48,0,0,.28,.98,.28,.98,.24,.82,.1,.48-.13,.15-1.72-2.7-6.2-3.2-8.12-1.13-.06,.09-.04,.07-.05,.1,.49-.25,1.12-1.52,1.48-2.04,7.5-12.5,18.41-23.1,31.62-29.35,15.25-7.43,32.83-7.82,49.15-6.58-32.9,1.98-57.07,12.09-70.23,43.96-1.03,2.13-2.88,4.61-5.29,5.66-4.28,2.1-9.37-.31-11.17-4.48,0,0-13.68-30.28-13.68-30.28l17.65-6.49h0Z"/>
  <path d="M81.46,261.51c2.38,8.22,6.16,21.39,8.49,29.48,0,0,.28,.98,.28,.98,.24,.82,.1,.48-.13,.15-1.72-2.7-6.2-3.2-8.12-1.13-.06,.09-.04,.07-.05,.1,.49-.25,1.12-1.52,1.48-2.04,7.5-12.5,18.41-23.1,31.62-29.35,15.25-7.43,32.83-7.82,49.15-6.58-32.9,1.98-57.07,12.09-70.23,43.96-1.03,2.13-2.88,4.61-5.29,5.66-4.28,2.1-9.37-.31-11.17-4.48,0,0-13.68-30.28-13.68-30.28l17.65-6.49h0Z"/>
  <path d="M80.44,326.87c2.38,8.22,6.16,21.39,8.49,29.48,0,0,.28,.98,.28,.98,.24,.82,.1,.48-.13,.15-1.72-2.7-6.2-3.2-8.12-1.13-.06,.09-.04,.07-.05,.1,.49-.25,1.12-1.52,1.48-2.04,7.5-12.5,18.41-23.1,31.62-29.35,15.25-7.43,32.83-7.82,49.15-6.58-32.9,1.98-57.07,12.09-70.23,43.96-1.03,2.13-2.88,4.61-5.29,5.66-4.28,2.1-9.37-.31-11.17-4.48,0,0-13.68-30.28-13.68-30.28l17.65-6.49h0Z"/>
  <path d="M82.48,396.32c2.38,8.22,6.16,21.39,8.49,29.48,0,0,.28,.98,.28,.98,.24,.82,.1,.48-.13,.15-1.72-2.7-6.2-3.2-8.12-1.13-.06,.09-.04,.07-.05,.1,.49-.25,1.12-1.52,1.48-2.04,7.5-12.5,18.41-23.1,31.62-29.35,15.25-7.43,32.83-7.82,49.15-6.58-32.9,1.98-57.07,12.09-70.23,43.96-1.03,2.13-2.88,4.61-5.29,5.66-4.28,2.1-9.37-.31-11.17-4.48,0,0-13.68-30.28-13.68-30.28l17.65-6.49h0Z"/>
  <g>
    <rect x="156.21" y="277.16" width="252.26" height="14.3"/>
    <rect x="156.21" y="346.55" width="252.26" height="14.3"/>
    <rect x="156.21" y="415.94" width="252.26" height="14.3"/>
    <rect x="156.21" y="207.77" width="252.26" height="14.3"/>
  </g>
</svg>